<?xml version="1.0"?>
<svg xmlns="http://www.w3.org/2000/svg" xmlns:xlink="http://www.w3.org/1999/xlink" version="1.1" id="Capa_1" x="0px" y="0px" width="512px" height="512px" viewBox="0 0 360 170" enable-background="new 0 0 360 170" xml:space="preserve" class=""><g><g><g>
	<circle fill="#DFDFDF" cx="182.086" cy="85.001" r="85" data-original="#2E96BE" class="" style="fill:#2E96BE" data-old_color="#DFDFDF"/>
	<g>
		<path fill="#FFFFFF" d="M156.522,123.854c0,0,5.044-2.635,3.832-9.18h22.404c0,0-0.809,7.244,4.287,9.18    C187.045,123.854,164.495,133.032,156.522,123.854z" data-original="#FFFFFF" class=""/>
		<path fill="#585757" d="M167.98,128.688c-5.481,0-9.528-1.459-12.03-4.34c-0.15-0.174-0.214-0.408-0.171-0.636    c0.042-0.228,0.188-0.422,0.394-0.528c0.183-0.098,4.528-2.48,3.438-8.371c-0.042-0.222,0.019-0.448,0.162-0.621    c0.144-0.174,0.356-0.272,0.58-0.272h22.404c0.215,0,0.42,0.093,0.562,0.252s0.211,0.374,0.189,0.588    c-0.01,0.066-0.678,6.687,3.805,8.39c0.289,0.109,0.482,0.387,0.486,0.696c0.004,0.312-0.184,0.593-0.471,0.71    C186.916,124.723,177.066,128.688,167.98,128.688z M157.685,123.977c2.241,2.125,5.699,3.2,10.293,3.2    c6.729,0,14.111-2.337,17.242-3.448c-3.07-2.213-3.312-6.481-3.266-8.299h-20.727    C161.752,120.193,159.085,122.902,157.685,123.977z" data-original="#9800FF" class="" style="fill:#113BBF" data-old_color="#9800FF"/>
	</g>
	<g>
		<rect x="119.216" y="41.346" fill="#FFFFFF" width="102.417" height="74.083" data-original="#FFFFFF" class=""/>
		<path fill="#585757" d="M221.633,116.186H119.216c-0.418,0-0.757-0.338-0.757-0.756V41.346c0-0.418,0.339-0.756,0.757-0.756    h102.417c0.418,0,0.756,0.338,0.756,0.756v74.083C222.388,115.848,222.051,116.186,221.633,116.186z M119.971,114.674h100.904    V42.102H119.971V114.674z" data-original="#9800FF" class="" style="fill:#113BBF" data-old_color="#9800FF"/>
	</g>
	<rect x="125.76" y="47.891" fill="#2E96BE" width="89.326" height="60.995" data-original="#2E96BE" class="" style="fill:#2E96BE"/>
	<path fill="#585757" d="M215.086,109.643H125.76c-0.417,0-0.757-0.34-0.757-0.757V47.891c0-0.417,0.34-0.756,0.757-0.756h89.326   c0.42,0,0.758,0.339,0.758,0.756v60.995C215.844,109.303,215.506,109.643,215.086,109.643z M126.516,108.13h87.814V48.646h-87.814   V108.13z" data-original="#9800FF" class="" style="fill:#113BBF" data-old_color="#9800FF"/>
	<g>
		<g>
			<rect x="233.42" y="36.702" fill="#D84253" width="10.23" height="81.514" data-original="#D84253" class=""/>
			<path fill="#585757" d="M243.65,118.973h-10.229c-0.416,0-0.758-0.34-0.758-0.757V36.702c0-0.418,0.342-0.756,0.758-0.756h10.229     c0.418,0,0.756,0.338,0.756,0.756v81.514C244.406,118.633,244.068,118.973,243.65,118.973z M234.177,117.46h8.719V37.458h-8.719     V117.46z" data-original="#9800FF" class="" style="fill:#113BBF" data-old_color="#9800FF"/>
		</g>
		<path fill="#585757" d="M243.65,41.922h-4.074c-0.418,0-0.756-0.339-0.756-0.756c0-0.418,0.338-0.756,0.756-0.756h4.074    c0.418,0,0.756,0.338,0.756,0.756C244.406,41.583,244.068,41.922,243.65,41.922z" data-original="#9800FF" class="" style="fill:#113BBF" data-old_color="#9800FF"/>
		<path fill="#585757" d="M243.65,114.852h-4.074c-0.418,0-0.756-0.338-0.756-0.754c0-0.418,0.338-0.757,0.756-0.757h4.074    c0.418,0,0.756,0.339,0.756,0.757C244.406,114.514,244.068,114.852,243.65,114.852z" data-original="#9800FF" class="" style="fill:#113BBF" data-old_color="#9800FF"/>
		<path fill="#585757" d="M243.65,52.34h-4.074c-0.418,0-0.756-0.339-0.756-0.756s0.338-0.756,0.756-0.756h4.074    c0.418,0,0.756,0.338,0.756,0.756C244.406,52.001,244.068,52.34,243.65,52.34z" data-original="#9800FF" class="" style="fill:#113BBF" data-old_color="#9800FF"/>
		<path fill="#585757" d="M243.65,83.596h-4.074c-0.418,0-0.756-0.339-0.756-0.756s0.338-0.756,0.756-0.756h4.074    c0.418,0,0.756,0.338,0.756,0.756C244.406,83.257,244.068,83.596,243.65,83.596z" data-original="#9800FF" class="" style="fill:#113BBF" data-old_color="#9800FF"/>
		<path fill="#585757" d="M243.65,104.434h-4.074c-0.418,0-0.756-0.339-0.756-0.756c0-0.418,0.338-0.756,0.756-0.756h4.074    c0.418,0,0.756,0.338,0.756,0.756C244.406,104.095,244.068,104.434,243.65,104.434z" data-original="#9800FF" class="" style="fill:#113BBF" data-old_color="#9800FF"/>
		<path fill="#585757" d="M243.65,73.178h-4.074c-0.418,0-0.756-0.339-0.756-0.756c0-0.418,0.338-0.756,0.756-0.756h4.074    c0.418,0,0.756,0.338,0.756,0.756C244.406,72.839,244.068,73.178,243.65,73.178z" data-original="#9800FF" class="" style="fill:#113BBF" data-old_color="#9800FF"/>
		<path fill="#585757" d="M243.65,94.016h-4.074c-0.418,0-0.756-0.34-0.756-0.757c0-0.418,0.338-0.756,0.756-0.756h4.074    c0.418,0,0.756,0.338,0.756,0.756C244.406,93.676,244.068,94.016,243.65,94.016z" data-original="#9800FF" class="" style="fill:#113BBF" data-old_color="#9800FF"/>
		<path fill="#585757" d="M243.65,62.759h-4.074c-0.418,0-0.756-0.338-0.756-0.756s0.338-0.755,0.756-0.755h4.074    c0.418,0,0.756,0.338,0.756,0.755S244.068,62.759,243.65,62.759z" data-original="#9800FF" class="" style="fill:#113BBF" data-old_color="#9800FF"/>
	</g>
	<rect x="93.844" y="49.001" fill="#CAD41F" width="11.948" height="51.875" data-original="#CAD41F"/>
	<path fill="#585757" d="M105.792,101.632H93.844c-0.417,0-0.756-0.339-0.756-0.756V49.001c0-0.417,0.339-0.756,0.756-0.756h11.948   c0.418,0,0.757,0.339,0.757,0.756v51.875C106.549,101.293,106.21,101.632,105.792,101.632z M94.599,100.12h10.438V49.757H94.599   V100.12z" data-original="#9800FF" class="" style="fill:#113BBF" data-old_color="#9800FF"/>
	<rect x="93.938" y="56.27" fill="#D84253" width="11.854" height="6.632" data-original="#D84253" class=""/>
	<path fill="#585757" d="M105.792,63.658H93.938c-0.417,0-0.756-0.338-0.756-0.755V56.27c0-0.418,0.339-0.756,0.756-0.756h11.854   c0.418,0,0.757,0.338,0.757,0.756v6.632C106.549,63.319,106.21,63.658,105.792,63.658z M94.694,62.146h10.343v-5.121H94.694V62.146   z" data-original="#9800FF" class="" style="fill:#113BBF" data-old_color="#9800FF"/>
	<g>
		<polygon fill="#E0E2E1" points="93.844,100.876 99.865,109.117 105.792,100.876   " data-original="#E0E2E1"/>
		<path fill="#585757" d="M99.865,109.873c-0.241,0-0.468-0.115-0.608-0.311l-6.023-8.242c-0.168-0.229-0.192-0.533-0.063-0.787    s0.39-0.413,0.674-0.413h11.948c0.284,0,0.543,0.157,0.673,0.41c0.129,0.253,0.106,0.557-0.059,0.786l-5.927,8.242    c-0.143,0.196-0.369,0.312-0.611,0.313C99.868,109.873,99.867,109.873,99.865,109.873z M95.331,101.632l4.529,6.198l4.457-6.198    H95.331z" data-original="#9800FF" class="" style="fill:#113BBF" data-old_color="#9800FF"/>
	</g>
	<path fill="#585757" d="M111.349,60.341h-5.557c-0.417,0-0.756-0.338-0.756-0.755c0-0.418,0.338-0.756,0.756-0.756h5.557   c0.418,0,0.756,0.338,0.756,0.756C112.105,60.003,111.767,60.341,111.349,60.341z" data-original="#9800FF" class="" style="fill:#113BBF" data-old_color="#9800FF"/>
	<path fill="#585757" d="M111.349,83.455c-0.417,0-0.756-0.338-0.756-0.756V56.27c0-0.418,0.339-0.756,0.756-0.756   c0.418,0,0.756,0.338,0.756,0.756v26.429C112.105,83.116,111.767,83.455,111.349,83.455z" data-original="#9800FF" class="" style="fill:#113BBF" data-old_color="#9800FF"/>
	<rect x="144.298" y="122.061" fill="#FFFFFF" width="54.971" height="6.412" data-original="#FFFFFF" class=""/>
	<path fill="#585757" d="M199.269,129.229h-54.971c-0.418,0-0.757-0.338-0.757-0.756v-6.412c0-0.418,0.339-0.756,0.757-0.756h54.971   c0.418,0,0.756,0.338,0.756,0.756v6.412C200.025,128.891,199.687,129.229,199.269,129.229z M145.054,127.717h53.459v-4.9h-53.459   V127.717z" data-original="#9800FF" class="" style="fill:#113BBF" data-old_color="#9800FF"/>
	<g>
		<rect x="137.179" y="26.948" fill="#FFFFFF" width="66.883" height="72.463" data-original="#FFFFFF" class=""/>
		<path fill="#585757" d="M204.06,100.167h-66.882c-0.417,0-0.756-0.338-0.756-0.756V26.948c0-0.417,0.338-0.756,0.756-0.756h66.882    c0.418,0,0.756,0.339,0.756,0.756v72.463C204.816,99.829,204.478,100.167,204.06,100.167z M137.934,98.656h65.371V27.704h-65.371    V98.656z" data-original="#9800FF" class="" style="fill:#113BBF" data-old_color="#9800FF"/>
	</g>
	<rect x="144.438" y="48.181" fill="#D84253" width="14.657" height="14.999" data-original="#D84253" class=""/>
	<rect x="163.77" y="48.181" fill="#83619D" width="14.658" height="14.999" data-original="#83619D"/>
	<rect x="183.101" y="48.181" fill="#F4B845" width="14.656" height="14.999" data-original="#F4B845"/>
	<g>
		<rect x="137.179" y="26.948" fill="#FFFFFF" width="66.883" height="14.398" data-original="#FFFFFF" class=""/>
		<path fill="#585757" d="M204.06,42.102h-66.882c-0.417,0-0.756-0.338-0.756-0.755V26.948c0-0.417,0.338-0.756,0.756-0.756h66.882    c0.418,0,0.756,0.339,0.756,0.756v14.398C204.816,41.764,204.478,42.102,204.06,42.102z M137.934,40.59h65.371V27.704h-65.371    V40.59z" data-original="#9800FF" class="" style="fill:#113BBF" data-old_color="#9800FF"/>
	</g>
	<path fill="#585757" d="M194.857,34.903H163.77c-0.418,0-0.756-0.338-0.756-0.756c0-0.417,0.338-0.756,0.756-0.756h31.087   c0.418,0,0.756,0.339,0.756,0.756S195.275,34.903,194.857,34.903z" data-original="#9800FF" class="" style="fill:#113BBF" data-old_color="#9800FF"/>
	<rect x="144.438" y="67.726" fill="#CAD41F" width="14.657" height="25.547" data-original="#CAD41F"/>
	<rect x="163.698" y="67.726" fill="#CAD41F" width="14.657" height="25.547" data-original="#CAD41F"/>
	<rect x="183.101" y="67.726" fill="#CAD41F" width="14.656" height="25.547" data-original="#CAD41F"/>
	<path fill="#CB3433" d="M144.438,34.903h-3.069c-0.418,0-0.756-0.338-0.756-0.756c0-0.417,0.338-0.756,0.756-0.756h3.069   c0.418,0,0.756,0.339,0.756,0.756S144.856,34.903,144.438,34.903z" data-original="#CB3433"/>
	<path fill="#83A452" d="M158.592,34.903h-3.069c-0.418,0-0.756-0.338-0.756-0.756c0-0.417,0.338-0.756,0.756-0.756h3.069   c0.417,0,0.756,0.339,0.756,0.756S159.009,34.903,158.592,34.903z" data-original="#83A452" class="active-path" style="fill:#83A452"/>
	<path fill="#F4B845" d="M151.766,34.903h-3.069c-0.417,0-0.756-0.338-0.756-0.756c0-0.417,0.339-0.756,0.756-0.756h3.069   c0.417,0,0.756,0.339,0.756,0.756S152.183,34.903,151.766,34.903z" data-original="#F4B845"/>
	<path fill="#585757" d="M268.289,69.415h-18.971v-18.97h18.971V69.415L268.289,69.415z M251.586,67.147h14.438V52.712h-14.438   V67.147z" data-original="#9800FF" class="" style="fill:#113BBF" data-old_color="#9800FF"/>
	<path fill="#585757" d="M115.49,37.836c-0.004-0.001-0.009-0.001-0.015,0H93.844c-0.396,0-0.764-0.208-0.97-0.546   s-0.219-0.76-0.035-1.111l6.629-12.72c0.159-0.306,0.449-0.521,0.788-0.588c0.336-0.066,0.688,0.024,0.95,0.248l14.897,12.63   c0.312,0.202,0.521,0.554,0.521,0.955C116.624,37.328,116.117,37.836,115.49,37.836z M95.713,35.568h16.673l-11.563-9.803   L95.713,35.568z" data-original="#9800FF" class="" style="fill:#113BBF" data-old_color="#9800FF"/>
	<path fill="#585757" d="M275.508,118.371c-5.23,0-9.484-4.256-9.484-9.485s4.256-9.485,9.484-9.485s9.484,4.256,9.484,9.485   S280.736,118.371,275.508,118.371z M275.508,101.667c-3.98,0-7.219,3.239-7.219,7.219c0,3.98,3.238,7.218,7.219,7.218   c3.979,0,7.219-3.237,7.219-7.218C282.726,104.906,279.486,101.667,275.508,101.667z" data-original="#9800FF" class="" style="fill:#113BBF" data-old_color="#9800FF"/>
	<path fill="#585757" d="M166.84,146.868c-1.277,0-2.533-0.013-3.764-0.034c-0.626-0.01-1.125-0.525-1.114-1.152   c0.012-0.619,0.518-1.115,1.134-1.115c0.008,0,0.014,0,0.021,0c2.183,0.041,4.437,0.047,6.765,0.013   c0.633,0.016,1.141,0.491,1.15,1.118c0.008,0.626-0.492,1.141-1.119,1.148C168.873,146.859,167.847,146.868,166.84,146.868z    M178.959,146.534c-0.598,0-1.098-0.468-1.131-1.073c-0.035-0.624,0.445-1.158,1.07-1.191c2.221-0.121,4.494-0.277,6.754-0.465   c0.627-0.051,1.172,0.412,1.223,1.037c0.053,0.624-0.412,1.172-1.035,1.225c-2.281,0.188-4.576,0.345-6.818,0.466   C179,146.533,178.98,146.534,178.959,146.534z M154.035,146.468c-0.024,0-0.048,0-0.074-0.001c-2.289-0.146-4.585-0.335-6.82-0.562   c-0.623-0.062-1.076-0.618-1.014-1.241c0.063-0.623,0.626-1.079,1.242-1.016c2.208,0.226,4.475,0.41,6.737,0.557   c0.624,0.039,1.098,0.578,1.059,1.202C155.127,146.008,154.628,146.468,154.035,146.468z M194.767,145.156   c-0.566,0-1.057-0.424-1.123-1c-0.074-0.621,0.369-1.187,0.992-1.26c2.217-0.265,4.475-0.562,6.713-0.888   c0.619-0.091,1.195,0.341,1.285,0.96c0.09,0.62-0.338,1.194-0.959,1.284c-2.258,0.328-4.535,0.629-6.771,0.896   C194.857,145.154,194.812,145.156,194.767,145.156z M138.263,144.754c-0.06,0-0.118-0.004-0.179-0.015   c-2.295-0.36-4.564-0.771-6.745-1.222c-0.613-0.127-1.009-0.727-0.882-1.34c0.126-0.613,0.728-1.007,1.34-0.882   c2.146,0.443,4.381,0.849,6.641,1.203c0.619,0.099,1.041,0.678,0.943,1.296C139.293,144.355,138.811,144.754,138.263,144.754z    M210.467,142.818c-0.541,0-1.02-0.387-1.115-0.937c-0.111-0.616,0.301-1.204,0.916-1.313l0.576-0.104   c2.102-0.378,4.139-0.774,6.057-1.18c0.613-0.132,1.213,0.263,1.344,0.875c0.129,0.612-0.264,1.214-0.875,1.344   c-1.939,0.409-3.998,0.812-6.121,1.192l-0.582,0.104C210.597,142.812,210.529,142.818,210.467,142.818z M122.761,141.381   c-0.104,0-0.211-0.015-0.316-0.045c-4.288-1.243-6.489-2.204-6.581-2.244c-0.573-0.252-0.833-0.92-0.582-1.494   c0.251-0.572,0.919-0.834,1.493-0.58c0.021,0.008,2.175,0.943,6.301,2.142c0.602,0.174,0.947,0.803,0.772,1.403   C123.705,141.059,123.252,141.381,122.761,141.381z M225.931,139.415c-0.498,0-0.955-0.331-1.094-0.834   c-0.164-0.604,0.189-1.229,0.795-1.394c2.283-0.627,4.439-1.291,6.408-1.976c0.592-0.207,1.238,0.104,1.443,0.698   c0.205,0.59-0.107,1.236-0.699,1.443c-2.016,0.7-4.221,1.379-6.555,2.021C226.133,139.4,226.029,139.415,225.931,139.415z    M240.732,133.893c-0.408,0-0.803-0.221-1.004-0.608c-0.291-0.554-0.076-1.24,0.479-1.529c2.104-1.1,3.955-2.289,5.508-3.535   c0.486-0.392,1.199-0.313,1.596,0.175c0.391,0.487,0.311,1.203-0.176,1.595c-1.666,1.337-3.646,2.608-5.875,3.774   C241.092,133.85,240.91,133.893,240.732,133.893z M252.179,123.373c-0.178,0-0.355-0.041-0.521-0.128   c-0.555-0.287-0.773-0.974-0.484-1.527c0.924-1.782,1.582-3.723,2.066-6.104c0.125-0.612,0.725-1.01,1.338-0.885   s1.01,0.724,0.885,1.338c-0.529,2.595-1.252,4.723-2.277,6.694C252.982,123.148,252.59,123.373,252.179,123.373z M255.531,107.988   c-0.043,0-0.088-0.002-0.131-0.008c-0.621-0.07-1.068-0.633-0.996-1.256c0.23-2.004,0.543-4.383,1.127-6.834   c0.146-0.609,0.756-0.982,1.365-0.84c0.609,0.145,0.984,0.756,0.84,1.365c-0.555,2.335-0.855,4.631-1.08,6.566   C256.592,107.562,256.099,107.988,255.531,107.988z M259.908,92.891c-0.189,0-0.385-0.05-0.561-0.15   c-0.543-0.312-0.73-1.004-0.42-1.547c0.625-1.086,1.33-2.161,2.1-3.194c0.645-0.864,1.316-1.7,2-2.485   c0.41-0.472,1.129-0.521,1.6-0.108c0.471,0.409,0.521,1.127,0.109,1.599c-0.645,0.74-1.281,1.532-1.891,2.352   c-0.715,0.961-1.371,1.959-1.951,2.968C260.683,92.688,260.304,92.891,259.908,92.891z M270.648,81.398   c-0.369,0-0.729-0.178-0.947-0.507c-0.346-0.522-0.203-1.226,0.318-1.571c1.977-1.308,4.088-2.384,6.281-3.196   c0.584-0.218,1.238,0.081,1.455,0.668c0.219,0.588-0.08,1.24-0.668,1.458c-2.029,0.752-3.986,1.747-5.814,2.959   C271.08,81.338,270.863,81.398,270.648,81.398z M301.738,79.314c-0.164,0-0.326-0.034-0.48-0.108   c-0.018-0.007-0.221-0.102-0.592-0.254c-0.582-0.236-0.857-0.897-0.623-1.478c0.234-0.579,0.898-0.858,1.479-0.622   c0.459,0.186,0.703,0.303,0.703,0.303c0.562,0.267,0.807,0.942,0.539,1.509C302.568,79.073,302.162,79.314,301.738,79.314z    M292.332,76.763c-0.051,0-0.102-0.003-0.15-0.01c-2.225-0.299-4.453-0.388-6.57-0.262c-0.625,0.033-1.162-0.44-1.199-1.065   s0.439-1.162,1.064-1.199c2.264-0.134,4.641-0.04,7.006,0.279c0.621,0.083,1.057,0.654,0.973,1.275   C293.377,76.35,292.89,76.763,292.332,76.763z" data-original="#9800FF" class="" style="fill:#113BBF" data-old_color="#9800FF"/>
	<path fill="#585757" d="M325.105,94.407c-0.057,0-0.113-0.005-0.168-0.013l-27.561-4.144c-0.479-0.071-0.857-0.438-0.945-0.912   c-0.09-0.474,0.131-0.953,0.551-1.192l10.996-6.292c0.363-0.208,0.812-0.199,1.168,0.025l16.562,10.435   c0.455,0.285,0.645,0.851,0.459,1.354C326,94.117,325.572,94.407,325.105,94.407z M300.939,88.495l18.982,2.853l-11.408-7.186   L300.939,88.495z" data-original="#9800FF" class="" style="fill:#113BBF" data-old_color="#9800FF"/>
	<path fill="#585757" d="M325.105,94.407c-0.209,0-0.42-0.058-0.604-0.175l-16.564-10.434c-0.424-0.267-0.621-0.78-0.488-1.263   l3.715-13.355c0.125-0.445,0.506-0.771,0.965-0.823c0.463-0.054,0.906,0.182,1.125,0.587l12.771,23.643   c0.145,0.189,0.229,0.428,0.229,0.686c0,0.629-0.525,1.125-1.141,1.135C325.111,94.407,325.107,94.407,325.105,94.407z    M309.861,82.331l12.193,7.683l-9.459-17.517L309.861,82.331z" data-original="#9800FF" class="" style="fill:#113BBF" data-old_color="#9800FF"/>
	<g>
		<path fill="#585757" d="M101.233,140.033h-2.021c-1.437,0-2.604-1.169-2.604-2.605v-1.564c-1.484-1.125-2.353-2.854-2.353-4.741    c0-3.291,2.677-5.968,5.967-5.968s5.967,2.677,5.967,5.968c0,1.888-0.869,3.616-2.352,4.741v1.564    C103.836,138.864,102.668,140.033,101.233,140.033z M100.222,127.422c-2.04,0-3.699,1.659-3.699,3.699    c0,1.309,0.674,2.49,1.802,3.169c0.341,0.205,0.551,0.574,0.551,0.974v2.164c0,0.188,0.15,0.34,0.336,0.34h2.021    c0.186,0,0.336-0.152,0.336-0.34v-2.164c0-0.398,0.209-0.769,0.551-0.974c1.127-0.679,1.802-1.86,1.802-3.169    C103.922,129.081,102.262,127.422,100.222,127.422z" data-original="#9800FF" class="" style="fill:#113BBF" data-old_color="#9800FF"/>
		<path fill="#585757" d="M112.353,132.079h-4.13c-0.626,0-1.133-0.509-1.133-1.134c0-0.627,0.507-1.135,1.133-1.135h4.13    c0.626,0,1.134,0.508,1.134,1.135C113.487,131.57,112.979,132.079,112.353,132.079z" data-original="#9800FF" class="" style="fill:#113BBF" data-old_color="#9800FF"/>
		<path fill="#585757" d="M106.241,126.307c-0.291,0-0.58-0.109-0.801-0.332c-0.443-0.441-0.443-1.16,0-1.603l2.919-2.921    c0.443-0.443,1.161-0.443,1.604,0c0.441,0.441,0.441,1.16,0,1.604l-2.921,2.92C106.822,126.195,106.531,126.307,106.241,126.307z" data-original="#9800FF" class="" style="fill:#113BBF" data-old_color="#9800FF"/>
		<path fill="#585757" d="M93.192,126.307c-0.29,0-0.581-0.109-0.801-0.332l-2.921-2.92c-0.443-0.443-0.443-1.16,0-1.604    c0.442-0.442,1.161-0.442,1.604,0l2.92,2.922c0.443,0.442,0.443,1.16,0,1.603C93.772,126.195,93.482,126.307,93.192,126.307z" data-original="#9800FF" class="" style="fill:#113BBF" data-old_color="#9800FF"/>
		<path fill="#585757" d="M100.6,123.818c-0.626,0-1.134-0.508-1.134-1.135v-4.207c0-0.627,0.508-1.134,1.134-1.134    s1.134,0.507,1.134,1.134v4.207C101.734,123.311,101.226,123.818,100.6,123.818z" data-original="#9800FF" class="" style="fill:#113BBF" data-old_color="#9800FF"/>
		<path fill="#585757" d="M91.731,132.958h-4.448c-0.626,0-1.134-0.508-1.134-1.133c0-0.626,0.508-1.134,1.134-1.134h4.448    c0.626,0,1.134,0.508,1.134,1.134C92.865,132.45,92.358,132.958,91.731,132.958z" data-original="#9800FF" class="" style="fill:#113BBF" data-old_color="#9800FF"/>
	</g>
</g></g></g> </svg>
