<?xml version="1.0"?>
<svg xmlns="http://www.w3.org/2000/svg" xmlns:xlink="http://www.w3.org/1999/xlink" version="1.1" id="Capa_1" x="0px" y="0px" width="512px" height="512px" viewBox="0 0 360 170" enable-background="new 0 0 360 170" xml:space="preserve" class=""><g><g>
	<circle fill="#DFDFDF" cx="177.595" cy="85" r="85" data-original="#DFDFDF" class="" style="fill:#2E96BE" data-old_color="#DFDFDF"/>
	<g>
		<circle fill="#F4B845" cx="186.297" cy="105.618" r="10.037" data-original="#F4B845" class=""/>
		<path fill="#585757" d="M186.296,116.412c-5.949,0-10.792-4.842-10.792-10.794c0-5.95,4.843-10.792,10.792-10.792    c5.952,0,10.794,4.842,10.794,10.792C197.09,111.57,192.248,116.412,186.296,116.412z M186.296,96.338    c-5.117,0-9.279,4.163-9.279,9.28c0,5.118,4.162,9.28,9.279,9.28c5.118,0,9.282-4.162,9.282-9.28    C195.578,100.501,191.414,96.338,186.296,96.338z" data-original="#585757" class="" style="fill:#113BBF" data-old_color="#585757"/>
	</g>
	<path fill="#585757" d="M131.985,99.331c-5.788,0-10.496-4.709-10.496-10.497s4.708-10.496,10.496-10.496   s10.497,4.708,10.497,10.496S137.773,99.331,131.985,99.331z M131.985,79.85c-4.953,0-8.984,4.031-8.984,8.984   c0,4.956,4.031,8.984,8.984,8.984c4.956,0,8.985-4.028,8.985-8.984C140.971,83.88,136.941,79.85,131.985,79.85z" data-original="#585757" class="" style="fill:#113BBF" data-old_color="#585757"/>
	<g>
		<path fill="#FFFFFF" d="M186.296,120.648c0,4.084-3.31,7.394-7.392,7.394h-39.526c-4.081,0-7.392-3.31-7.392-7.394V52.065    c0-4.083,3.311-7.392,7.392-7.392h39.526c4.082,0,7.392,3.31,7.392,7.392V120.648z" data-original="#FFFFFF"/>
		<path fill="#585757" d="M178.904,128.798h-39.526c-4.49,0-8.146-3.653-8.146-8.147V52.065c0-4.493,3.656-8.148,8.146-8.148h39.526    c4.492,0,8.146,3.655,8.146,8.148v68.583C187.052,125.145,183.396,128.798,178.904,128.798z M139.378,45.429    c-3.658,0-6.636,2.977-6.636,6.636v68.583c0,3.66,2.977,6.638,6.636,6.638h39.526c3.659,0,6.636-2.978,6.636-6.638V52.065    c0-3.659-2.977-6.636-6.636-6.636H139.378z" data-original="#585757" class="" style="fill:#113BBF" data-old_color="#585757"/>
	</g>
	<g>
		<path fill="#2E96BE" d="M139.378,122.805c-1.187,0-2.152-0.967-2.152-2.154V52.065c0-1.188,0.967-2.154,2.152-2.154h39.526    c1.188,0,2.153,0.966,2.153,2.154v68.583c0,1.188-0.967,2.154-2.153,2.154h-39.526V122.805z" data-original="#2E96BE" class=""/>
		<path fill="#585757" d="M178.904,123.561h-39.526c-1.604,0-2.908-1.307-2.908-2.91V52.065c0-1.604,1.306-2.91,2.908-2.91h39.526    c1.604,0,2.909,1.306,2.909,2.91v68.583C181.813,122.254,180.508,123.561,178.904,123.561z M139.378,50.667    c-0.771,0-1.396,0.627-1.396,1.398v68.583c0,0.771,0.627,1.397,1.396,1.397h39.526c0.771,0,1.397-0.626,1.397-1.397V52.065    c0-0.771-0.627-1.398-1.397-1.398H139.378z" data-original="#585757" class="" style="fill:#113BBF" data-old_color="#585757"/>
	</g>
	<g>
		<rect x="143.945" y="104.361" fill="#F4B845" width="30.393" height="13.35" data-original="#F4B845" class=""/>
		<path fill="#585757" d="M174.338,118.467h-30.393c-0.418,0-0.756-0.338-0.756-0.756v-13.35c0-0.416,0.338-0.754,0.756-0.754    h30.393c0.418,0,0.756,0.338,0.756,0.754v13.35C175.094,118.129,174.756,118.467,174.338,118.467z M144.701,116.955h28.881    v-11.837h-28.881V116.955z" data-original="#585757" class="" style="fill:#113BBF" data-old_color="#585757"/>
	</g>
	<g>
		<path fill="#585757" d="M153.263,113.111c0.136,0.255,0.036,0.572-0.218,0.717c-0.462,0.245-0.979,0.381-1.515,0.381    c-1.749,0-3.172-1.423-3.172-3.172s1.423-3.173,3.172-3.173c0.536,0,1.053,0.136,1.515,0.382c0.254,0.145,0.354,0.462,0.218,0.716    c-0.146,0.263-0.463,0.353-0.726,0.218c-0.3-0.173-0.651-0.255-1.007-0.255c-1.16,0-2.111,0.942-2.111,2.112    c0,1.169,0.951,2.111,2.111,2.111c0.354,0,0.707-0.082,1.007-0.254C152.801,112.76,153.118,112.85,153.263,113.111z" data-original="#585757" class="" style="fill:#113BBF" data-old_color="#585757"/>
		<path fill="#585757" d="M154.59,114.209c-0.3,0-0.534-0.234-0.534-0.525v-5.293c0-0.289,0.234-0.525,0.534-0.525    c0.29,0,0.525,0.236,0.525,0.525v4.76h1.85c0.29,0,0.534,0.234,0.534,0.533c0,0.291-0.244,0.525-0.534,0.525H154.59z" data-original="#585757" class="" style="fill:#113BBF" data-old_color="#585757"/>
		<path fill="#585757" d="M158.227,113.684v-5.293c0-0.289,0.234-0.525,0.525-0.525c0.289,0,0.525,0.236,0.525,0.525v5.293    c0,0.291-0.236,0.525-0.525,0.525C158.462,114.209,158.227,113.975,158.227,113.684z" data-original="#585757" class="" style="fill:#113BBF" data-old_color="#585757"/>
		<path fill="#585757" d="M164.908,113.111c0.136,0.255,0.036,0.572-0.218,0.717c-0.462,0.245-0.979,0.381-1.515,0.381    c-1.749,0-3.172-1.423-3.172-3.172s1.423-3.173,3.172-3.173c0.535,0,1.053,0.136,1.515,0.382c0.254,0.145,0.354,0.462,0.218,0.716    c-0.145,0.263-0.462,0.353-0.725,0.218c-0.301-0.173-0.653-0.255-1.008-0.255c-1.159,0-2.111,0.942-2.111,2.112    c0,1.169,0.952,2.111,2.111,2.111c0.354,0,0.707-0.082,1.008-0.254C164.446,112.76,164.764,112.85,164.908,113.111z" data-original="#585757" class="" style="fill:#113BBF" data-old_color="#585757"/>
		<path fill="#585757" d="M169.788,113.32c0.09,0.101,0.136,0.236,0.136,0.363c0,0.289-0.235,0.524-0.524,0.524    c-0.146,0-0.281-0.054-0.391-0.172l-2.247-2.466v2.111c0,0.291-0.245,0.525-0.535,0.525s-0.525-0.234-0.525-0.525v-5.293    c0-0.289,0.235-0.525,0.525-0.525s0.535,0.236,0.535,0.525v2.111l2.247-2.466c0.101-0.108,0.244-0.173,0.391-0.173    c0.299,0,0.524,0.246,0.524,0.527c0,0.135-0.046,0.262-0.136,0.361l-2.095,2.284L169.788,113.32z" data-original="#585757" class="" style="fill:#113BBF" data-old_color="#585757"/>
	</g>
	<rect x="140.688" y="23.709" fill="#FFFFFF" width="36.908" height="73.827" data-original="#FFFFFF"/>
	<path fill="#585757" d="M177.596,98.292h-36.908c-0.417,0-0.756-0.339-0.756-0.756V23.709c0-0.417,0.339-0.756,0.756-0.756h36.908   c0.417,0,0.756,0.338,0.756,0.756v73.827C178.352,97.953,178.013,98.292,177.596,98.292z M141.443,96.78h35.396V24.465h-35.396   V96.78z" data-original="#585757" class="" style="fill:#113BBF" data-old_color="#585757"/>
	<g>
		<rect x="140.688" y="23.709" fill="#FFFFFF" width="36.908" height="12.883" data-original="#FFFFFF"/>
		<path fill="#585757" d="M177.596,37.348h-36.908c-0.417,0-0.756-0.338-0.756-0.756V23.709c0-0.417,0.339-0.756,0.756-0.756h36.908    c0.417,0,0.756,0.338,0.756,0.756v12.883C178.352,37.01,178.013,37.348,177.596,37.348z M141.443,35.836h35.396V24.465h-35.396    V35.836z" data-original="#585757" class="" style="fill:#113BBF" data-old_color="#585757"/>
	</g>
	<path fill="#585757" d="M173.459,30.907h-9.376c-0.418,0-0.756-0.338-0.756-0.756c0-0.417,0.338-0.756,0.756-0.756h9.376   c0.417,0,0.757,0.339,0.757,0.756S173.876,30.907,173.459,30.907z" data-original="#585757" class="" style="fill:#113BBF" data-old_color="#585757"/>
	<path fill="#CB3433" d="M159.621,30.907h-2.803c-0.417,0-0.755-0.338-0.755-0.756c0-0.417,0.338-0.756,0.755-0.756h2.803   c0.417,0,0.756,0.339,0.756,0.756S160.038,30.907,159.621,30.907z" data-original="#CB3433" class=""/>
	<path fill="#F4B845" d="M153.502,30.907h-2.804c-0.417,0-0.755-0.338-0.755-0.756c0-0.417,0.338-0.756,0.755-0.756h2.804   c0.418,0,0.756,0.339,0.756,0.756S153.92,30.907,153.502,30.907z" data-original="#F4B845" class=""/>
	<path fill="#83A452" d="M147.382,30.907h-2.803c-0.417,0-0.755-0.338-0.755-0.756c0-0.417,0.338-0.756,0.755-0.756h2.803   c0.418,0,0.757,0.339,0.757,0.756S147.8,30.907,147.382,30.907z" data-original="#83A452"/>
	<g>
		<g>
			<circle fill="#F4B845" cx="158.98" cy="66.819" r="13.432" data-original="#F4B845" class=""/>
			<path fill="#585757" d="M158.98,81.006c-7.822,0-14.188-6.364-14.188-14.187c0-7.823,6.364-14.188,14.188-14.188     s14.188,6.365,14.188,14.188C173.168,74.642,166.804,81.006,158.98,81.006z M158.98,54.143c-6.989,0-12.675,5.686-12.675,12.676     c0,6.989,5.686,12.675,12.675,12.675c6.99,0,12.676-5.686,12.676-12.675C171.656,59.829,165.971,54.143,158.98,54.143z" data-original="#585757" class="" style="fill:#113BBF" data-old_color="#585757"/>
		</g>
		<g>
			<path fill="#585757" d="M164.021,68.841c0,2.886-2.271,4.839-5.158,4.839c-2.334,0-4.924-1.867-4.924-4.351     c0-0.636,0.531-1.209,1.211-1.209c0.614,0,1.146,0.445,1.252,1.061c0.147,0.933,0.87,1.698,1.825,1.931v-4.394     c-2.122-0.764-3.184-2.122-3.184-4.053c0-2.123,1.908-3.842,4.436-3.842c1.167,0,3.077,0.658,3.077,1.868     c0,0.743-0.615,1.21-1.231,1.21c-0.529,0-1.019-0.446-1.591-0.573v3.226c0.467,0.148,0.976,0.318,1.549,0.615     C162.938,66.019,164.021,66.91,164.021,68.841z M158.228,64.045v-2.441c-0.446,0.233-0.7,0.615-0.7,1.062     C157.527,63.429,157.781,63.79,158.228,64.045z M159.734,71.091c1.252-0.318,1.613-1.315,1.613-2.058     c0-0.956-0.809-1.465-1.613-1.805V71.091z" data-original="#585757" class="" style="fill:#113BBF" data-old_color="#585757"/>
		</g>
	</g>
	<g>
		<g>
			<circle fill="#F4B845" cx="267.93" cy="96.919" r="9.672" data-original="#F4B845" class=""/>
			<path fill="#585757" d="M267.931,107.348c-5.751,0-10.43-4.679-10.43-10.429c0-5.751,4.679-10.429,10.43-10.429     c5.749,0,10.428,4.678,10.428,10.429C278.358,102.669,273.68,107.348,267.931,107.348z M267.931,88.002     c-4.917,0-8.918,4-8.918,8.917s4.001,8.916,8.918,8.916c4.916,0,8.916-3.999,8.916-8.916S272.847,88.002,267.931,88.002z" data-original="#585757" class="" style="fill:#113BBF" data-old_color="#585757"/>
		</g>
		<g>
			<path fill="#585757" d="M271.561,98.376c0,2.077-1.637,3.483-3.714,3.483c-1.683,0-3.548-1.346-3.548-3.133     c0-0.459,0.385-0.871,0.872-0.871c0.442,0,0.825,0.32,0.901,0.765c0.107,0.672,0.626,1.223,1.314,1.39v-3.162     c-1.528-0.551-2.294-1.529-2.294-2.92c0-1.529,1.377-2.767,3.194-2.767c0.841,0,2.217,0.474,2.217,1.345     c0,0.535-0.442,0.871-0.886,0.871c-0.383,0-0.734-0.32-1.146-0.412v2.323c0.336,0.106,0.702,0.229,1.115,0.442     C270.781,96.343,271.561,96.984,271.561,98.376z M267.388,94.921v-1.757c-0.32,0.168-0.504,0.443-0.504,0.764     C266.885,94.479,267.067,94.736,267.388,94.921z M268.473,99.995c0.901-0.229,1.161-0.947,1.161-1.481     c0-0.688-0.581-1.056-1.161-1.3V99.995z" data-original="#585757" class="" style="fill:#113BBF" data-old_color="#585757"/>
		</g>
	</g>
	<g>
		<circle fill="#F4B845" cx="210.043" cy="49.911" r="7.392" data-original="#F4B845" class=""/>
		<path fill="#585757" d="M210.043,58.059c-4.493,0-8.146-3.655-8.146-8.148c0-4.493,3.653-8.147,8.146-8.147    c4.492,0,8.147,3.655,8.147,8.147C218.19,54.404,214.535,58.059,210.043,58.059z M210.043,43.275    c-3.659,0-6.636,2.977-6.636,6.636c0,3.659,2.977,6.636,6.636,6.636s6.637-2.977,6.637-6.636    C216.679,46.252,213.702,43.275,210.043,43.275z" data-original="#585757" class="" style="fill:#113BBF" data-old_color="#585757"/>
	</g>
	<g>
		<circle fill="#F4B845" cx="98.798" cy="69.977" r="6.576" data-original="#F4B845" class=""/>
		<path fill="#585757" d="M98.799,77.308c-4.043,0-7.332-3.289-7.332-7.332s3.289-7.331,7.332-7.331    c4.042,0,7.331,3.289,7.331,7.331S102.841,77.308,98.799,77.308z M98.799,64.157c-3.21,0-5.819,2.611-5.819,5.82    s2.609,5.819,5.819,5.819c3.209,0,5.819-2.61,5.819-5.819S102.008,64.157,98.799,64.157z" data-original="#585757" class="" style="fill:#113BBF" data-old_color="#585757"/>
	</g>
	<g>
		<circle fill="#F4B845" cx="130.201" cy="33.814" r="5.052" data-original="#F4B845" class=""/>
		<path fill="#585757" d="M130.2,39.623c-3.202,0-5.808-2.605-5.808-5.808s2.604-5.809,5.808-5.809s5.808,2.605,5.808,5.809    C136.008,37.017,133.402,39.623,130.2,39.623z M130.2,29.518c-2.369,0-4.296,1.928-4.296,4.297s1.927,4.296,4.296,4.296    s4.297-1.927,4.297-4.296S132.569,29.518,130.2,29.518z" data-original="#585757" class="" style="fill:#113BBF" data-old_color="#585757"/>
	</g>
	<g>
		<circle fill="#F4B845" cx="191.349" cy="41.645" r="5.053" data-original="#F4B845" class=""/>
		<path fill="#585757" d="M191.349,47.453c-3.203,0-5.81-2.605-5.81-5.808s2.605-5.808,5.81-5.808s5.809,2.605,5.809,5.808    C197.157,44.848,194.553,47.453,191.349,47.453z M191.349,37.348c-2.369,0-4.298,1.927-4.298,4.296s1.929,4.297,4.298,4.297    c2.368,0,4.297-1.928,4.297-4.297S193.718,37.348,191.349,37.348z" data-original="#585757" class="" style="fill:#113BBF" data-old_color="#585757"/>
	</g>
	<g>
		<path fill="#585757" d="M121.711,78.358c-5.1,0-9.246-4.147-9.246-9.246c0-5.099,4.146-9.246,9.246-9.246    c5.099,0,9.245,4.148,9.245,9.246C130.956,74.21,126.809,78.358,121.711,78.358z M121.711,61.378c-4.266,0-7.734,3.47-7.734,7.734    c0,4.264,3.47,7.734,7.734,7.734s7.733-3.47,7.733-7.734C129.444,64.848,125.975,61.378,121.711,61.378z" data-original="#585757" class="" style="fill:#113BBF" data-old_color="#585757"/>
		<g>
			<path fill="#585757" d="M125.419,70.674c0,2.123-1.671,3.56-3.794,3.56c-1.718,0-3.623-1.374-3.623-3.201     c0-0.468,0.393-0.889,0.892-0.889c0.453,0,0.843,0.327,0.921,0.78c0.108,0.687,0.641,1.249,1.343,1.42v-3.232     c-1.562-0.562-2.342-1.561-2.342-2.982c0-1.561,1.405-2.826,3.263-2.826c0.858,0,2.264,0.484,2.264,1.374     c0,0.546-0.451,0.89-0.904,0.89c-0.392,0-0.75-0.328-1.171-0.421v2.373c0.343,0.109,0.719,0.234,1.14,0.452     C124.622,68.598,125.419,69.253,125.419,70.674z M121.156,67.146v-1.795c-0.328,0.172-0.515,0.453-0.515,0.78     C120.642,66.693,120.828,66.958,121.156,67.146z M122.265,72.329c0.921-0.234,1.187-0.967,1.187-1.514     c0-0.703-0.594-1.078-1.187-1.328V72.329z" data-original="#585757" class="" style="fill:#113BBF" data-old_color="#585757"/>
		</g>
	</g>
	<g>
		<path fill="#585757" d="M202.61,82.926c-5.099,0-9.246-4.147-9.246-9.246c0-5.099,4.147-9.246,9.246-9.246    c5.098,0,9.245,4.147,9.245,9.246C211.855,78.779,207.708,82.926,202.61,82.926z M202.61,65.946c-4.265,0-7.735,3.47-7.735,7.734    c0,4.264,3.472,7.734,7.735,7.734s7.732-3.47,7.732-7.734C210.343,69.416,206.875,65.946,202.61,65.946z" data-original="#585757" class="" style="fill:#113BBF" data-old_color="#585757"/>
		<g>
			<path fill="#585757" d="M206.318,75.279c0,2.123-1.671,3.56-3.794,3.56c-1.718,0-3.622-1.374-3.622-3.201     c0-0.468,0.391-0.889,0.891-0.889c0.452,0,0.842,0.327,0.921,0.78c0.109,0.687,0.641,1.249,1.343,1.42v-3.232     c-1.562-0.562-2.343-1.562-2.343-2.982c0-1.561,1.405-2.826,3.264-2.826c0.858,0,2.265,0.484,2.265,1.374     c0,0.546-0.453,0.89-0.906,0.89c-0.391,0-0.749-0.328-1.171-0.422v2.373c0.344,0.109,0.719,0.234,1.141,0.453     C205.521,73.202,206.318,73.858,206.318,75.279z M202.056,71.75v-1.795c-0.328,0.172-0.516,0.453-0.516,0.78     C201.541,71.297,201.728,71.563,202.056,71.75z M203.164,76.933c0.921-0.234,1.188-0.967,1.188-1.514     c0-0.703-0.595-1.078-1.188-1.328V76.933z" data-original="#585757" class="" style="fill:#113BBF" data-old_color="#585757"/>
		</g>
	</g>
	<g>
		<path fill="#585757" d="M258.664,69.869c-5.098,0-9.246-4.148-9.246-9.246s4.148-9.246,9.246-9.246    c5.099,0,9.246,4.148,9.246,9.246S263.762,69.869,258.664,69.869z M258.664,52.889c-4.265,0-7.733,3.469-7.733,7.734    s3.47,7.734,7.733,7.734c4.265,0,7.734-3.47,7.734-7.734S262.929,52.889,258.664,52.889z" data-original="#585757" class="" style="fill:#113BBF" data-old_color="#585757"/>
		<g>
			<path fill="#585757" d="M262.372,62.221c0,2.123-1.67,3.56-3.794,3.56c-1.718,0-3.622-1.374-3.622-3.2     c0-0.469,0.392-0.89,0.892-0.89c0.451,0,0.843,0.328,0.92,0.78c0.109,0.687,0.641,1.249,1.344,1.421V60.66     c-1.562-0.562-2.342-1.561-2.342-2.981c0-1.562,1.403-2.826,3.263-2.826c0.859,0,2.264,0.484,2.264,1.374     c0,0.546-0.453,0.89-0.904,0.89c-0.391,0-0.749-0.328-1.173-0.421v2.373c0.346,0.109,0.72,0.234,1.142,0.453     C261.575,60.145,262.372,60.8,262.372,62.221z M258.11,58.693v-1.795c-0.328,0.172-0.517,0.453-0.517,0.781     C257.595,58.24,257.782,58.505,258.11,58.693z M259.218,63.876c0.923-0.234,1.188-0.967,1.188-1.514     c0-0.703-0.593-1.078-1.188-1.328V63.876z" data-original="#585757" class="" style="fill:#113BBF" data-old_color="#585757"/>
		</g>
	</g>
	<g>
		<path fill="#585757" d="M292.42,89.496c-5.099,0-9.246-4.148-9.246-9.246s4.147-9.246,9.246-9.246c5.1,0,9.246,4.148,9.246,9.246    S297.519,89.496,292.42,89.496z M292.42,72.516c-4.265,0-7.733,3.47-7.733,7.734c0,4.265,3.47,7.734,7.733,7.734    c4.265,0,7.734-3.47,7.734-7.734S296.685,72.516,292.42,72.516z" data-original="#585757" class="" style="fill:#113BBF" data-old_color="#585757"/>
		<g>
			<path fill="#585757" d="M296.128,81.849c0,2.123-1.67,3.56-3.794,3.56c-1.718,0-3.622-1.374-3.622-3.2     c0-0.469,0.393-0.89,0.891-0.89c0.453,0,0.843,0.327,0.921,0.78c0.108,0.687,0.641,1.249,1.344,1.42v-3.232     c-1.562-0.562-2.343-1.561-2.343-2.981c0-1.562,1.405-2.826,3.263-2.826c0.859,0,2.264,0.484,2.264,1.374     c0,0.546-0.451,0.89-0.904,0.89c-0.391,0-0.749-0.328-1.171-0.421v2.373c0.344,0.109,0.719,0.234,1.141,0.452     C295.331,79.772,296.128,80.428,296.128,81.849z M291.866,78.32v-1.795c-0.329,0.172-0.515,0.453-0.515,0.781     C291.352,77.867,291.537,78.133,291.866,78.32z M292.974,83.503c0.922-0.234,1.188-0.967,1.188-1.514     c0-0.703-0.594-1.078-1.188-1.328V83.503z" data-original="#585757" class="" style="fill:#113BBF" data-old_color="#585757"/>
		</g>
	</g>
	<g>
		<rect x="90.37" y="88.835" fill="#D84253" width="28.609" height="39.207" data-original="#D84253"/>
		<path fill="#585757" d="M118.979,128.798H90.37c-0.418,0-0.756-0.338-0.756-0.756V88.835c0-0.417,0.338-0.755,0.756-0.755h28.609    c0.418,0,0.756,0.338,0.756,0.755v39.207C119.735,128.46,119.397,128.798,118.979,128.798z M91.126,127.286h27.099V89.591H91.126    V127.286z" data-original="#585757" class="" style="fill:#113BBF" data-old_color="#585757"/>
	</g>
	<g>
		<rect x="94.127" y="92.699" fill="#2E96BE" width="21.098" height="10.029" data-original="#2E96BE" class=""/>
		<path fill="#585757" d="M115.224,103.484H94.127c-0.418,0-0.757-0.34-0.757-0.756V92.699c0-0.417,0.339-0.756,0.757-0.756h21.098    c0.417,0,0.756,0.339,0.756,0.756v10.029C115.979,103.146,115.641,103.484,115.224,103.484z M94.882,101.973h19.586v-8.518H94.882    V101.973z" data-original="#585757" class="" style="fill:#113BBF" data-old_color="#585757"/>
	</g>
	<g>
		<rect x="93.256" y="108.268" fill="#CAD41F" width="5.543" height="5.541" data-original="#CAD41F" class="active-path" style="fill:#CAD41F"/>
		<path fill="#585757" d="M98.799,114.562h-5.543c-0.417,0-0.756-0.338-0.756-0.756v-5.541c0-0.418,0.339-0.757,0.756-0.757h5.543    c0.417,0,0.756,0.339,0.756,0.757v5.541C99.554,114.227,99.216,114.562,98.799,114.562z M94.012,113.052h4.03v-4.028h-4.03    V113.052z" data-original="#585757" class="" style="fill:#113BBF" data-old_color="#585757"/>
	</g>
	<g>
		<rect x="101.853" y="108.268" fill="#CAD41F" width="5.542" height="5.541" data-original="#CAD41F" class="active-path" style="fill:#CAD41F"/>
		<path fill="#585757" d="M107.395,114.562h-5.542c-0.417,0-0.756-0.338-0.756-0.756v-5.541c0-0.418,0.339-0.757,0.756-0.757h5.542    c0.418,0,0.756,0.339,0.756,0.757v5.541C108.15,114.227,107.812,114.562,107.395,114.562z M102.608,113.052h4.03v-4.028h-4.03    V113.052z" data-original="#585757" class="" style="fill:#113BBF" data-old_color="#585757"/>
	</g>
	<g>
		<rect x="110.449" y="108.268" fill="#CAD41F" width="5.543" height="5.541" data-original="#CAD41F" class="active-path" style="fill:#CAD41F"/>
		<path fill="#585757" d="M115.992,114.562h-5.543c-0.417,0-0.756-0.338-0.756-0.756v-5.541c0-0.418,0.339-0.757,0.756-0.757h5.543    c0.417,0,0.755,0.339,0.755,0.757v5.541C116.747,114.227,116.409,114.562,115.992,114.562z M111.205,113.052h4.031v-4.028h-4.031    V113.052z" data-original="#585757" class="" style="fill:#113BBF" data-old_color="#585757"/>
	</g>
	<g>
		<rect x="93.256" y="118.092" fill="#CAD41F" width="5.543" height="5.541" data-original="#CAD41F" class="active-path" style="fill:#CAD41F"/>
		<path fill="#585757" d="M98.799,124.389h-5.543c-0.417,0-0.756-0.338-0.756-0.756v-5.541c0-0.418,0.339-0.757,0.756-0.757h5.543    c0.417,0,0.756,0.339,0.756,0.757v5.541C99.554,124.051,99.216,124.389,98.799,124.389z M94.012,122.877h4.03v-4.029h-4.03    V122.877z" data-original="#585757" class="" style="fill:#113BBF" data-old_color="#585757"/>
	</g>
	<g>
		<rect x="101.853" y="118.092" fill="#CAD41F" width="5.542" height="5.541" data-original="#CAD41F" class="active-path" style="fill:#CAD41F"/>
		<path fill="#585757" d="M107.395,124.389h-5.542c-0.417,0-0.756-0.338-0.756-0.756v-5.541c0-0.418,0.339-0.757,0.756-0.757h5.542    c0.418,0,0.756,0.339,0.756,0.757v5.541C108.15,124.051,107.812,124.389,107.395,124.389z M102.608,122.877h4.03v-4.029h-4.03    V122.877z" data-original="#585757" class="" style="fill:#113BBF" data-old_color="#585757"/>
	</g>
	<g>
		<rect x="110.449" y="118.092" fill="#CAD41F" width="5.543" height="5.541" data-original="#CAD41F" class="active-path" style="fill:#CAD41F"/>
		<path fill="#585757" d="M115.992,124.389h-5.543c-0.417,0-0.756-0.338-0.756-0.756v-5.541c0-0.418,0.339-0.757,0.756-0.757h5.543    c0.417,0,0.755,0.339,0.755,0.757v5.541C116.747,124.051,116.409,124.389,115.992,124.389z M111.205,122.877h4.031v-4.029h-4.031    V122.877z" data-original="#585757" class="" style="fill:#113BBF" data-old_color="#585757"/>
	</g>
	<rect x="90.37" y="33.098" fill="#CAD41F" width="28.388" height="14.854" data-original="#CAD41F" class="active-path" style="fill:#CAD41F"/>
	<path fill="#585757" d="M118.758,48.708H90.37c-0.418,0-0.756-0.338-0.756-0.755V33.098c0-0.417,0.338-0.755,0.756-0.755h28.388   c0.418,0,0.757,0.338,0.757,0.755v14.854C119.514,48.369,119.176,48.708,118.758,48.708z M91.126,47.196h26.876V33.854H91.126   V47.196z" data-original="#585757" class="" style="fill:#113BBF" data-old_color="#585757"/>
	<g>
		<path fill="#585757" d="M107.113,42.032c0,1.679-1.322,2.815-3.002,2.815c-1.357,0-2.864-1.087-2.864-2.531    c0-0.371,0.311-0.704,0.704-0.704c0.358,0,0.667,0.259,0.729,0.618c0.087,0.542,0.507,0.988,1.062,1.124v-2.557    c-1.234-0.445-1.852-1.234-1.852-2.358c0-1.235,1.109-2.236,2.581-2.236c0.679,0,1.79,0.383,1.79,1.087    c0,0.432-0.357,0.704-0.718,0.704c-0.308,0-0.592-0.259-0.926-0.333v1.877c0.271,0.086,0.568,0.185,0.901,0.358    C106.483,40.389,107.113,40.909,107.113,42.032z M103.741,39.241v-1.42c-0.259,0.136-0.407,0.358-0.407,0.618    C103.334,38.883,103.482,39.093,103.741,39.241z M104.618,43.341c0.729-0.185,0.938-0.765,0.938-1.198    c0-0.556-0.47-0.852-0.938-1.05V43.341z" data-original="#585757" class="" style="fill:#113BBF" data-old_color="#585757"/>
	</g>
	<g>
		<path fill="#CAD41F" d="M221.049,117.846c-1.464,0-2.651,2.36-2.651,3.826v-4.375c0-1.465-1.188-2.652-2.655-2.652    c-1.465,0-2.654,2.359-2.654,3.825v-3.559c0-1.466-1.188-2.653-2.651-2.653c-1.467,0-2.655,2.946-2.655,4.412v-14.658    c0-1.466-1.188-2.654-2.653-2.654s-2.652,1.188-2.652,2.654v15.328c-6.9,6.237,0,14.098,0,14.098    c0.066-0.032,0.138-0.082,0.209-0.145c0.71,2.743,3.193,4.771,6.16,4.771h8.49c3.519,0,6.37-2.852,6.37-6.369v-1.309v-3.906    v-3.981C223.703,119.034,222.515,117.846,221.049,117.846z" data-original="#CAD41F" class="active-path" style="fill:#CAD41F"/>
		<path fill="#585757" d="M217.333,136.82h-8.491c-3.02,0-5.685-1.901-6.693-4.7c-0.091-0.044-0.173-0.104-0.242-0.185    c-0.074-0.082-7.142-8.305-0.188-14.927v-14.998c0-1.881,1.529-3.409,3.409-3.409c1.881,0,3.409,1.528,3.409,3.409v10.564    c0.52-0.638,1.158-1.074,1.899-1.074c1.842,0,3.348,1.472,3.405,3.299c0.533-0.551,1.182-0.911,1.9-0.911    c1.881,0,3.411,1.529,3.411,3.407V118c0.531-0.55,1.178-0.911,1.896-0.911c1.882,0,3.41,1.53,3.41,3.41v9.196    C224.459,133.625,221.263,136.82,217.333,136.82z M202.732,130.562c0.052,0.004,0.101,0.013,0.148,0.026    c0.25,0.078,0.468,0.261,0.531,0.515c0.642,2.478,2.874,4.207,5.429,4.207h8.491c3.097,0,5.614-2.52,5.614-5.615v-9.196    c0-1.047-0.853-1.897-1.898-1.897c-0.88,0-1.896,1.857-1.896,3.07c0,0.417-0.339,0.756-0.756,0.756    c-0.418,0-0.756-0.339-0.756-0.756v-4.375c0-1.046-0.853-1.896-1.899-1.896c-0.881,0-1.898,1.856-1.898,3.069    c0,0.417-0.339,0.755-0.756,0.755s-0.756-0.338-0.756-0.755v-3.559c0-1.046-0.851-1.897-1.896-1.897    c-0.803,0-1.899,2.332-1.899,3.656c0,0.418-0.338,0.756-0.756,0.756c-0.416,0-0.755-0.338-0.755-0.756v-14.658    c0-1.047-0.854-1.898-1.898-1.898c-1.047,0-1.896,0.853-1.896,1.898v15.328c0,0.213-0.091,0.417-0.249,0.561    C197.446,122.902,201.514,128.986,202.732,130.562z" data-original="#585757" class="" style="fill:#113BBF" data-old_color="#585757"/>
	</g>
	<path fill="#585757" d="M198.153,153.21h-3.778c-0.627,0-1.134-0.507-1.134-1.134s0.507-1.135,1.134-1.135h3.778   c0.627,0,1.134,0.508,1.134,1.135S198.78,153.21,198.153,153.21z M188.328,153.21h-3.778c-0.627,0-1.134-0.507-1.134-1.134   s0.507-1.135,1.134-1.135h3.778c0.627,0,1.134,0.508,1.134,1.135S188.955,153.21,188.328,153.21z M178.503,153.21h-3.777   c-0.627,0-1.135-0.507-1.135-1.134s0.508-1.135,1.135-1.135h3.777c0.627,0,1.135,0.508,1.135,1.135S179.13,153.21,178.503,153.21z    M204.198,153.188c-0.59,0-1.087-0.457-1.131-1.055c-0.044-0.625,0.428-1.166,1.052-1.211c1.111-0.078,2.173-0.382,3.153-0.902   c0.553-0.293,1.239-0.084,1.533,0.469s0.083,1.238-0.471,1.533c-1.262,0.672-2.627,1.062-4.058,1.162   C204.252,153.188,204.226,153.188,204.198,153.188z M168.682,153.182c-0.03,0-0.062,0-0.092-0.004   c-1.525-0.121-2.896-0.601-4.072-1.425c-0.516-0.356-0.641-1.063-0.281-1.577c0.359-0.513,1.064-0.64,1.578-0.279   c0.854,0.598,1.822,0.932,2.957,1.021c0.624,0.05,1.089,0.596,1.039,1.221C169.764,152.732,169.268,153.182,168.682,153.182z    M211.849,147.811c-0.154,0-0.311-0.03-0.459-0.098c-0.572-0.253-0.831-0.924-0.578-1.495c0.449-1.013,0.676-2.094,0.676-3.211   c0-0.627,0.509-1.135,1.134-1.135c0.627,0,1.134,0.508,1.134,1.135c0,1.437-0.292,2.826-0.868,4.13   C212.698,147.561,212.283,147.811,211.849,147.811z M161.784,147.068c-0.466,0-0.902-0.291-1.068-0.754   c-0.403-1.133-0.732-2.429-0.978-3.849c-0.105-0.616,0.308-1.202,0.925-1.31c0.615-0.107,1.204,0.308,1.311,0.925   c0.223,1.293,0.518,2.461,0.879,3.472c0.211,0.59-0.099,1.238-0.687,1.448C162.039,147.048,161.91,147.068,161.784,147.068z    M160.318,137.385c-0.612,0-1.117-0.488-1.134-1.104c-0.018-0.675-0.022-1.324-0.022-1.938c0-0.68,0.008-1.314,0.017-1.887   c0.008-0.621,0.514-1.118,1.133-1.118c0.005,0,0.011,0,0.016,0c0.626,0.008,1.127,0.522,1.119,1.147   c-0.009,0.563-0.016,1.188-0.016,1.856c0,0.595,0.006,1.226,0.021,1.88c0.016,0.627-0.479,1.147-1.104,1.163   C160.338,137.385,160.327,137.385,160.318,137.385z" data-original="#585757" class="" style="fill:#113BBF" data-old_color="#585757"/>
	<path fill="#585757" d="M211.111,89.939c-0.366,0-0.727-0.176-0.944-0.504c-0.347-0.521-0.205-1.227,0.315-1.572l24.804-16.501   c0.473-0.313,1.104-0.23,1.479,0.195l12.613,14.312l49.264-32.56c0.522-0.345,1.227-0.201,1.57,0.321   c0.345,0.522,0.201,1.226-0.32,1.571l-50.085,33.104c-0.474,0.312-1.103,0.229-1.478-0.195l-12.611-14.312l-23.979,15.953   C211.546,89.879,211.327,89.939,211.111,89.939z" data-original="#585757" class="" style="fill:#113BBF" data-old_color="#585757"/>
	<path fill="#585757" d="M303.84,60.853c-0.371,0-0.722-0.182-0.935-0.491l-8.703-12.665c-0.239-0.348-0.266-0.8-0.068-1.173   c0.196-0.371,0.582-0.603,1.003-0.603c0.002,0,0.005,0,0.006,0l14.115,0.08c0.382,0.002,0.734,0.195,0.942,0.513   c0.209,0.318,0.243,0.72,0.094,1.069l-5.412,12.585c-0.162,0.379-0.52,0.64-0.93,0.68C303.914,60.852,303.876,60.853,303.84,60.853   z M297.299,48.201l6.312,9.183l3.924-9.125L297.299,48.201z" data-original="#585757" class="" style="fill:#113BBF" data-old_color="#585757"/>
	<path fill="#585757" d="M235.913,120.299c-0.625,0-1.134-0.509-1.134-1.135v-3.778c0-0.626,0.509-1.134,1.134-1.134   c0.627,0,1.134,0.508,1.134,1.134v3.778C237.047,119.79,236.54,120.299,235.913,120.299z M235.913,110.473   c-0.625,0-1.134-0.508-1.134-1.133v-3.779c0-0.625,0.509-1.134,1.134-1.134c0.627,0,1.134,0.509,1.134,1.134v3.779   C237.047,109.965,236.54,110.473,235.913,110.473z M235.913,100.646c-0.625,0-1.134-0.508-1.134-1.133v-3.779   c0-0.625,0.509-1.133,1.134-1.133c0.627,0,1.134,0.508,1.134,1.133v3.779C237.047,100.141,236.54,100.646,235.913,100.646z    M235.913,90.822c-0.625,0-1.134-0.508-1.134-1.133V85.91c0-0.626,0.509-1.134,1.134-1.134c0.627,0,1.134,0.507,1.134,1.134v3.779   C237.047,90.314,236.54,90.822,235.913,90.822z M235.913,80.998c-0.625,0-1.134-0.508-1.134-1.134v-3.779   c0-0.626,0.509-1.134,1.134-1.134c0.627,0,1.134,0.507,1.134,1.134v3.779C237.047,80.49,236.54,80.998,235.913,80.998z" data-original="#585757" class="" style="fill:#113BBF" data-old_color="#585757"/>
	<path fill="#585757" d="M249.179,120.634c-0.625,0-1.134-0.508-1.134-1.134v-2.666c0-0.626,0.509-1.134,1.134-1.134   c0.627,0,1.135,0.508,1.135,1.134v2.666C250.313,120.126,249.806,120.634,249.179,120.634z M249.179,111.921   c-0.625,0-1.134-0.507-1.134-1.133v-3.779c0-0.626,0.509-1.134,1.134-1.134c0.627,0,1.135,0.508,1.135,1.134v3.779   C250.313,111.414,249.806,111.921,249.179,111.921z M249.179,102.096c-0.625,0-1.134-0.507-1.134-1.133v-3.779   c0-0.625,0.509-1.134,1.134-1.134c0.627,0,1.135,0.509,1.135,1.134v3.779C250.313,101.589,249.806,102.096,249.179,102.096z    M249.179,92.271c-0.625,0-1.134-0.508-1.134-1.136v-3.778c0-0.625,0.509-1.133,1.134-1.133c0.627,0,1.135,0.508,1.135,1.133v3.778   C250.313,91.764,249.806,92.271,249.179,92.271z" data-original="#585757" class="" style="fill:#113BBF" data-old_color="#585757"/>
	<path fill="#585757" d="M308.497,120.634c-0.627,0-1.135-0.508-1.135-1.134v-3.589c0-0.626,0.508-1.134,1.135-1.134   c0.625,0,1.133,0.508,1.133,1.134v3.589C309.63,120.126,309.122,120.634,308.497,120.634z M308.497,110.999   c-0.627,0-1.135-0.509-1.135-1.135v-3.778c0-0.626,0.508-1.134,1.135-1.134c0.625,0,1.133,0.508,1.133,1.134v3.778   C309.63,110.49,309.122,110.999,308.497,110.999z M308.497,101.174c-0.627,0-1.135-0.509-1.135-1.135v-3.778   c0-0.626,0.508-1.134,1.135-1.134c0.625,0,1.133,0.508,1.133,1.134v3.778C309.63,100.665,309.122,101.174,308.497,101.174z    M308.497,91.348c-0.627,0-1.135-0.507-1.135-1.133v-3.779c0-0.625,0.508-1.134,1.135-1.134c0.625,0,1.133,0.509,1.133,1.134v3.779   C309.63,90.841,309.122,91.348,308.497,91.348z M308.497,81.523c-0.627,0-1.135-0.507-1.135-1.134V76.61   c0-0.626,0.508-1.134,1.135-1.134c0.625,0,1.133,0.508,1.133,1.134v3.779C309.63,81.016,309.122,81.523,308.497,81.523z    M308.497,71.698c-0.627,0-1.135-0.507-1.135-1.134v-3.779c0-0.626,0.508-1.134,1.135-1.134c0.625,0,1.133,0.507,1.133,1.134v3.779   C309.63,71.19,309.122,71.698,308.497,71.698z M308.497,61.873c-0.627,0-1.135-0.507-1.135-1.134V56.96   c0-0.626,0.508-1.134,1.135-1.134c0.625,0,1.133,0.507,1.133,1.134v3.779C309.63,61.365,309.122,61.873,308.497,61.873z    M308.497,52.047c-0.627,0-1.135-0.508-1.135-1.134v-3.779c0-0.626,0.508-1.134,1.135-1.134c0.625,0,1.133,0.507,1.133,1.134v3.779   C309.63,51.54,309.122,52.047,308.497,52.047z" data-original="#585757" class="" style="fill:#113BBF" data-old_color="#585757"/>
</g></g> </svg>
