<?xml version="1.0"?>
<svg xmlns="http://www.w3.org/2000/svg" xmlns:xlink="http://www.w3.org/1999/xlink" version="1.1" id="Capa_1" x="0px" y="0px" width="512px" height="512px" viewBox="0 0 360 170" enable-background="new 0 0 360 170" xml:space="preserve" class=""><g><g>
	<circle fill="#DFDFDF" cx="183.458" cy="85" r="85" data-original="#DFDFDF" class="" style="fill:#2E96BE" data-old_color="#DFDFDF"/>
	<g>
		<g>
			<g>
				<g>
					<rect x="80.37" y="50.51" fill="#FFFFFF" width="102.416" height="63.324" data-original="#FFFFFF" class=""/>
				</g>
			</g>
			<g>
				<g>
					<path fill="#585757" d="M182.786,114.589H80.37c-0.418,0-0.756-0.338-0.756-0.755V50.51c0-0.417,0.338-0.756,0.756-0.756       h102.416c0.417,0,0.756,0.338,0.756,0.756v63.324C183.542,114.251,183.203,114.589,182.786,114.589z M81.126,113.078H182.03       V51.266H81.126V113.078z" data-original="#585757" class="" style="fill:#113BBF" data-old_color="#585757"/>
				</g>
			</g>
		</g>
		<g>
			<g>
				<g>
					<rect x="84.074" y="54.371" fill="#2E96BE" width="95.007" height="53.01" data-original="#2E96BE" class=""/>
				</g>
			</g>
			<g>
				<g>
					<path fill="#585757" d="M179.081,108.137H84.074c-0.418,0-0.756-0.338-0.756-0.756v-53.01c0-0.418,0.338-0.756,0.756-0.756       h95.007c0.418,0,0.756,0.338,0.756,0.756v53.01C179.837,107.799,179.499,108.137,179.081,108.137z M84.83,106.625h93.496       V55.126H84.83V106.625z" data-original="#585757" class="" style="fill:#113BBF" data-old_color="#585757"/>
				</g>
			</g>
		</g>
		<g>
			<g>
				<g>
					<path fill="#FFFFFF" d="M187.574,121.188c-24.85,0-81.474,0-112.306,0c-6.293,0-6.293-7.354-6.293-7.354H194.18       C194.18,113.834,195.123,121.188,187.574,121.188z" data-original="#FFFFFF" class=""/>
				</g>
			</g>
			<g>
				<g>
					<path fill="#585757" d="M187.574,121.943H75.269c-5.576,0-7.049-5.306-7.049-8.109c0-0.418,0.338-0.756,0.756-0.756H194.18       c0.381,0,0.701,0.281,0.75,0.659c0.019,0.145,0.434,3.596-1.686,6.004C191.958,121.202,190.051,121.943,187.574,121.943z        M69.78,114.589c0.189,1.741,1.098,5.843,5.488,5.843h112.306c2.023,0,3.549-0.568,4.535-1.688       c1.184-1.347,1.355-3.186,1.353-4.154H69.78z" data-original="#585757" class="" style="fill:#113BBF" data-old_color="#585757"/>
				</g>
			</g>
		</g>
		<g>
			<g>
				<g>
					<path fill="#FFFFFF" d="M115.464,114.265v2.056c0,0.908,0.735,1.644,1.642,1.644h28.982c0.906,0,1.642-0.735,1.642-1.644       v-2.056H115.464z" data-original="#FFFFFF" class=""/>
				</g>
			</g>
			<g>
				<g>
					<path fill="#585757" d="M146.088,118.72h-28.982c-1.322,0-2.398-1.076-2.398-2.399v-2.812h33.777v2.812       C148.485,117.644,147.41,118.72,146.088,118.72z M116.22,115.021v1.3c0,0.489,0.397,0.888,0.886,0.888h28.982       c0.489,0,0.886-0.398,0.886-0.888v-1.3H116.22z" data-original="#585757" class="" style="fill:#113BBF" data-old_color="#585757"/>
				</g>
			</g>
		</g>
	</g>
	<g>
		<g>
			<path fill="#585757" d="M210.496,148.476H91.962c-5.35,0-9.703-3.504-9.703-7.811c0-3.005-3.405-5.544-7.436-5.544h-8.045     c-5.441,0-9.703-2.804-9.703-6.382v-9.75c0-3.106,2.932-5.636,6.535-5.636c0.626,0,1.134,0.508,1.134,1.134     s-0.507,1.134-1.134,1.134c-2.313,0-4.268,1.543-4.268,3.368v9.75c0,2.192,3.475,4.114,7.436,4.114h8.045     c5.351,0,9.704,3.505,9.704,7.812c0,3.004,3.405,5.543,7.435,5.543h118.534c4.031,0,7.436-2.539,7.436-5.543     c0-4.307,4.354-7.812,9.704-7.812h25.029c3.961,0,7.436-1.922,7.436-4.114c0-0.626,0.508-1.134,1.134-1.134     s1.134,0.508,1.134,1.134c0,3.578-4.262,6.382-9.703,6.382h-25.029c-4.031,0-7.437,2.539-7.437,5.544     C220.199,144.972,215.848,148.476,210.496,148.476z" data-original="#585757" class="" style="fill:#113BBF" data-old_color="#585757"/>
		</g>
	</g>
	<g>
		<g>
			<g>
				<rect x="89.118" y="42.514" fill="#FFFFFF" width="84.639" height="54.239" data-original="#FFFFFF" class=""/>
			</g>
		</g>
		<g>
			<g>
				<path fill="#585757" d="M173.757,97.509H89.118c-0.418,0-0.756-0.338-0.756-0.756V42.514c0-0.418,0.338-0.756,0.756-0.756      h84.639c0.417,0,0.756,0.338,0.756,0.756v54.239C174.513,97.171,174.174,97.509,173.757,97.509z M89.874,95.997h83.127V43.27      H89.874V95.997z" data-original="#585757" class="" style="fill:#113BBF" data-old_color="#585757"/>
			</g>
		</g>
	</g>
	<g>
		<g>
			<rect x="93.523" y="47.049" fill="#D84253" width="20.798" height="20.799" data-original="#D84253"/>
		</g>
	</g>
	<g>
		<g>
			<rect x="119.34" y="47.049" fill="#83619D" width="49.126" height="20.799" data-original="#83619D"/>
		</g>
	</g>
	<g>
		<g>
			<rect x="93.523" y="71.234" fill="#F4B845" width="74.943" height="9.642" data-original="#F4B845" class=""/>
		</g>
	</g>
	<g>
		<g>
			<rect x="93.523" y="84.529" fill="#CAD41F" width="74.943" height="8.439" data-original="#CAD41F"/>
		</g>
	</g>
	<g>
		<g>
			<g>
				<rect x="89.118" y="35.083" fill="#FFFFFF" width="84.639" height="7.431" data-original="#FFFFFF" class=""/>
			</g>
		</g>
		<g>
			<g>
				<path fill="#585757" d="M173.757,43.27H89.118c-0.418,0-0.756-0.338-0.756-0.756v-7.431c0-0.417,0.338-0.756,0.756-0.756h84.639      c0.417,0,0.756,0.338,0.756,0.756v7.431C174.513,42.932,174.174,43.27,173.757,43.27z M89.874,41.758h83.127v-5.919H89.874      V41.758z" data-original="#585757" class="" style="fill:#113BBF" data-old_color="#585757"/>
			</g>
		</g>
	</g>
	<g>
		<g>
			<circle fill="#D84253" cx="93.523" cy="38.798" r="1.758" data-original="#D84253"/>
		</g>
	</g>
	<g>
		<g>
			<circle fill="#83A452" cx="105.68" cy="38.798" r="1.758" data-original="#83A452"/>
		</g>
	</g>
	<g>
		<g>
			<circle fill="#FCC538" cx="99.601" cy="38.798" r="1.758" data-original="#FCC538" class="active-path" style="fill:#FCC538"/>
		</g>
	</g>
	<g>
		<g>
			<path fill="#585757" d="M168.466,39.554H119.34c-0.417,0-0.756-0.338-0.756-0.756c0-0.417,0.339-0.755,0.756-0.755h49.126     c0.417,0,0.756,0.338,0.756,0.755C169.222,39.216,168.884,39.554,168.466,39.554z" data-original="#585757" class="" style="fill:#113BBF" data-old_color="#585757"/>
		</g>
	</g>
	<g>
		<g>
			<g>
				<g>
					<rect x="198.34" y="67.848" fill="#FFFFFF" width="39.262" height="52.893" data-original="#FFFFFF" class=""/>
				</g>
			</g>
			<g>
				<g>
					<path fill="#585757" d="M237.602,121.496H198.34c-0.418,0-0.756-0.338-0.756-0.756V67.848c0-0.418,0.338-0.756,0.756-0.756       h39.262c0.418,0,0.756,0.338,0.756,0.756v52.893C238.357,121.158,238.02,121.496,237.602,121.496z M199.096,119.984h37.75       V68.604h-37.75V119.984z" data-original="#585757" class="" style="fill:#113BBF" data-old_color="#585757"/>
				</g>
			</g>
		</g>
		<g>
			<g>
				<g>
					<rect x="202.463" y="71.387" fill="#2E96BE" width="31.016" height="42.447" data-original="#2E96BE" class=""/>
				</g>
			</g>
			<g>
				<g>
					<path fill="#585757" d="M233.479,114.589h-31.016c-0.418,0-0.756-0.338-0.756-0.755V71.387c0-0.417,0.338-0.755,0.756-0.755       h31.016c0.418,0,0.756,0.338,0.756,0.755v42.447C234.234,114.251,233.896,114.589,233.479,114.589z M203.219,113.078h29.504       V72.143h-29.504V113.078z" data-original="#585757" class="" style="fill:#113BBF" data-old_color="#585757"/>
				</g>
			</g>
		</g>
	</g>
	<g>
		<g>
			<g>
				<g>
					<rect x="206.457" y="57.448" fill="#FFFFFF" width="23.557" height="46.607" data-original="#FFFFFF" class=""/>
				</g>
			</g>
			<g>
				<g>
					<path fill="#585757" d="M230.014,104.812h-23.557c-0.417,0-0.756-0.338-0.756-0.756V57.448c0-0.418,0.339-0.756,0.756-0.756       h23.557c0.418,0,0.756,0.338,0.756,0.756v46.607C230.77,104.474,230.432,104.812,230.014,104.812z M207.213,103.3h22.045       V58.204h-22.045V103.3z" data-original="#585757" class="" style="fill:#113BBF" data-old_color="#585757"/>
				</g>
			</g>
		</g>
		<g>
			<g>
				<g>
					<rect x="206.457" y="57.448" fill="#FFFFFF" width="23.557" height="5.497" data-original="#FFFFFF" class=""/>
				</g>
			</g>
			<g>
				<g>
					<path fill="#585757" d="M230.014,63.701h-23.557c-0.417,0-0.756-0.338-0.756-0.756v-5.497c0-0.418,0.339-0.756,0.756-0.756       h23.557c0.418,0,0.756,0.338,0.756,0.756v5.497C230.77,63.363,230.432,63.701,230.014,63.701z M207.213,62.189h22.045v-3.985       h-22.045V62.189z" data-original="#585757" class="" style="fill:#113BBF" data-old_color="#585757"/>
				</g>
			</g>
		</g>
		<g>
			<g>
				<path fill="#585757" d="M224.939,61.096h-14.527c-0.416,0-0.756-0.338-0.756-0.756c0-0.417,0.34-0.756,0.756-0.756h14.527      c0.417,0,0.755,0.338,0.755,0.756C225.694,60.758,225.356,61.096,224.939,61.096z" data-original="#585757" class="" style="fill:#113BBF" data-old_color="#585757"/>
			</g>
		</g>
		<g>
			<g>
				<rect x="210.412" y="65.892" fill="#D84253" width="15.615" height="7.807" data-original="#D84253"/>
			</g>
		</g>
		<g>
			<g>
				<rect x="210.412" y="77.299" fill="#83619D" width="15.615" height="7.807" data-original="#83619D"/>
			</g>
		</g>
		<g>
			<g>
				<rect x="210.412" y="88.707" fill="#F4B845" width="15.615" height="7.807" data-original="#F4B845" class=""/>
			</g>
		</g>
	</g>
	<g>
		<g>
			<g>
				<g>
					<rect x="247.499" y="86.279" fill="#FFFFFF" width="25.581" height="34.461" data-original="#FFFFFF" class=""/>
				</g>
			</g>
			<g>
				<g>
					<path fill="#585757" d="M273.08,121.496h-25.581c-0.418,0-0.756-0.338-0.756-0.756V86.279c0-0.418,0.338-0.756,0.756-0.756       h25.581c0.417,0,0.756,0.338,0.756,0.756v34.461C273.836,121.158,273.497,121.496,273.08,121.496z M248.255,119.984h24.069       V87.035h-24.069V119.984z" data-original="#585757" class="" style="fill:#113BBF" data-old_color="#585757"/>
				</g>
			</g>
		</g>
		<g>
			<g>
				<g>
					<rect x="251.092" y="89.731" fill="#2E96BE" width="18.396" height="25.263" data-original="#2E96BE" class=""/>
				</g>
			</g>
			<g>
				<g>
					<path fill="#585757" d="M269.487,115.75h-18.396c-0.418,0-0.756-0.339-0.756-0.756V89.731c0-0.418,0.338-0.756,0.756-0.756       h18.396c0.416,0,0.756,0.338,0.756,0.756v25.263C270.243,115.411,269.903,115.75,269.487,115.75z M251.848,114.238h16.884       V90.487h-16.884V114.238z" data-original="#585757" class="" style="fill:#113BBF" data-old_color="#585757"/>
				</g>
			</g>
		</g>
	</g>
	<g>
		<g>
			<path fill="#585757" d="M219.065,141.799c-0.626,0-1.134-0.508-1.134-1.134v-14.148c0-0.626,0.508-1.134,1.134-1.134     c0.627,0,1.134,0.508,1.134,1.134v14.148C220.199,141.291,219.692,141.799,219.065,141.799z" data-original="#585757" class="" style="fill:#113BBF" data-old_color="#585757"/>
		</g>
	</g>
	<g>
		<g>
			<path fill="#585757" d="M261.234,129.873c-0.626,0-1.134-0.508-1.134-1.134v-2.223c0-0.626,0.508-1.134,1.134-1.134     s1.134,0.508,1.134,1.134v2.223C262.368,129.365,261.86,129.873,261.234,129.873z" data-original="#585757" class="" style="fill:#113BBF" data-old_color="#585757"/>
		</g>
	</g>
	<g>
		<g>
			<path fill="#585757" d="M171.111,153.614h-18.139c-0.626,0-1.134-0.508-1.134-1.134s0.508-1.134,1.134-1.134h18.139     c0.627,0,1.134,0.508,1.134,1.134S171.738,153.614,171.111,153.614z" data-original="#585757" class="" style="fill:#113BBF" data-old_color="#585757"/>
		</g>
	</g>
	<g>
		<g>
			<path fill="#585757" d="M134.833,153.614h-10.203c-0.626,0-1.134-0.508-1.134-1.134s0.508-1.134,1.134-1.134h10.203     c0.627,0,1.134,0.508,1.134,1.134S135.46,153.614,134.833,153.614z" data-original="#585757" class="" style="fill:#113BBF" data-old_color="#585757"/>
		</g>
	</g>
	<g>
		<g>
			<path fill="#585757" d="M204.369,143.411h-5.324c-0.627,0-1.135-0.508-1.135-1.134s0.508-1.134,1.135-1.134h5.324     c0.625,0,1.133,0.508,1.133,1.134S204.994,143.411,204.369,143.411z" data-original="#585757" class="" style="fill:#113BBF" data-old_color="#585757"/>
		</g>
	</g>
	<g>
		<g>
			<path fill="#585757" d="M111.247,153.614h-2.109c-0.627,0-1.134-0.508-1.134-1.134s0.507-1.134,1.134-1.134h2.109     c0.625,0,1.133,0.508,1.133,1.134S111.872,153.614,111.247,153.614z" data-original="#585757" class="" style="fill:#113BBF" data-old_color="#585757"/>
		</g>
	</g>
	<g>
		<g>
			<g>
				<path fill="#585757" d="M136.771,141.143c-0.126,0-0.253-0.003-0.379-0.01c-0.625-0.033-1.105-0.566-1.072-1.191      c0.033-0.625,0.575-1.105,1.191-1.072c1.283,0.064,2.511-0.369,3.464-1.227c0.954-0.859,1.516-2.037,1.583-3.318      c0.139-2.645-1.9-4.908-4.543-5.047c-0.626-0.033-1.106-0.565-1.073-1.191c0.032-0.626,0.573-1.099,1.191-1.073      c1.887,0.099,3.621,0.927,4.885,2.329c1.264,1.404,1.904,3.215,1.805,5.102c-0.099,1.885-0.926,3.619-2.329,4.883      C140.183,140.506,138.52,141.143,136.771,141.143z" data-original="#585757" class="" style="fill:#113BBF" data-old_color="#585757"/>
			</g>
		</g>
		<g>
			<g>
				<path fill="#585757" d="M136.57,132.317c-0.16,0-0.319-0.033-0.468-0.102l-5.985-2.712c-0.393-0.179-0.651-0.565-0.665-0.997      c-0.015-0.432,0.219-0.833,0.6-1.037l6.006-3.194c0.353-0.188,0.777-0.176,1.119,0.03c0.341,0.205,0.549,0.575,0.548,0.974      l-0.021,5.908c-0.001,0.385-0.198,0.742-0.521,0.95C136.996,132.257,136.784,132.317,136.57,132.317z M133.151,128.39      l2.291,1.038l0.008-2.261L133.151,128.39z" data-original="#585757" class="" style="fill:#113BBF" data-old_color="#585757"/>
			</g>
		</g>
		<g>
			<g>
				<path fill="#585757" d="M126.791,140.917c-0.029,0-0.058-0.001-0.086-0.004c-3.887-0.294-6.811-3.695-6.517-7.583      c0.294-3.887,3.696-6.81,7.583-6.516c0.625,0.048,1.092,0.592,1.044,1.216s-0.597,1.085-1.215,1.044      c-2.644-0.202-4.951,1.787-5.151,4.428c-0.199,2.641,1.786,4.95,4.427,5.151c0.624,0.047,1.091,0.591,1.044,1.216      C127.875,140.465,127.378,140.917,126.791,140.917z" data-original="#585757" class="" style="fill:#113BBF" data-old_color="#585757"/>
			</g>
		</g>
		<g>
			<g>
				<path fill="#585757" d="M127.207,143.796c-0.212,0-0.424-0.059-0.608-0.177c-0.336-0.213-0.536-0.588-0.525-0.987l0.158-5.905      c0.01-0.385,0.214-0.737,0.543-0.938c0.329-0.199,0.735-0.22,1.082-0.053l5.92,2.851c0.389,0.187,0.639,0.579,0.642,1.011      c0.004,0.433-0.238,0.829-0.624,1.022l-6.078,3.056C127.555,143.757,127.381,143.796,127.207,143.796z M128.451,138.538      l-0.061,2.26l2.327-1.169L128.451,138.538z" data-original="#585757" class="" style="fill:#113BBF" data-old_color="#585757"/>
			</g>
		</g>
	</g>
	<g>
		<g>
			<g>
				<path fill="#585757" d="M223.073,46.858c-0.089,0-0.178-0.002-0.266-0.007c-0.626-0.033-1.105-0.566-1.073-1.192      c0.032-0.625,0.577-1.107,1.191-1.073c1.497,0.071,2.825-1.093,2.904-2.616c0.039-0.737-0.211-1.445-0.705-1.994      s-1.172-0.872-1.91-0.911c-0.624-0.033-1.105-0.566-1.072-1.191s0.574-1.103,1.191-1.073c1.342,0.07,2.576,0.659,3.476,1.658      c0.899,0.999,1.356,2.288,1.285,3.63C227.954,44.771,225.728,46.858,223.073,46.858z" data-original="#585757" class="" style="fill:#113BBF" data-old_color="#585757"/>
			</g>
		</g>
		<g>
			<g>
				<path fill="#585757" d="M222.944,41.063c-0.159,0-0.319-0.034-0.469-0.101l-3.93-1.781c-0.393-0.178-0.651-0.564-0.664-0.996      c-0.015-0.432,0.218-0.834,0.6-1.037l3.943-2.098c0.352-0.187,0.776-0.176,1.118,0.03s0.55,0.576,0.549,0.975l-0.014,3.879      c-0.002,0.384-0.197,0.742-0.521,0.95C223.371,41.002,223.158,41.063,222.944,41.063z" data-original="#585757" class="" style="fill:#113BBF" data-old_color="#585757"/>
			</g>
		</g>
		<g>
			<g>
				<path fill="#585757" d="M214.256,46.709c-0.027,0-0.058-0.001-0.086-0.003c-2.767-0.209-4.848-2.63-4.638-5.396      c0.21-2.767,2.628-4.848,5.397-4.637c0.624,0.047,1.092,0.591,1.045,1.216c-0.048,0.624-0.599,1.09-1.217,1.045      c-1.512-0.11-2.849,1.028-2.965,2.547c-0.114,1.52,1.028,2.85,2.548,2.965c0.625,0.047,1.092,0.592,1.045,1.216      C215.341,46.257,214.844,46.709,214.256,46.709z" data-original="#585757" class="" style="fill:#113BBF" data-old_color="#585757"/>
			</g>
		</g>
		<g>
			<g>
				<path fill="#585757" d="M214.529,48.6c-0.213,0-0.424-0.06-0.608-0.177c-0.337-0.213-0.536-0.588-0.525-0.987l0.104-3.878      c0.01-0.385,0.216-0.737,0.543-0.938c0.329-0.199,0.736-0.22,1.082-0.053l3.888,1.871c0.389,0.188,0.639,0.58,0.642,1.012      c0.004,0.432-0.238,0.828-0.624,1.022l-3.991,2.007C214.878,48.56,214.703,48.6,214.529,48.6z" data-original="#585757" class="" style="fill:#113BBF" data-old_color="#585757"/>
			</g>
		</g>
	</g>
	<g>
		<g>
			<g>
				<path fill="#585757" d="M54.73,77.355c1.976,0,3.375,1.006,4.194,2.65l0.072-0.02c0.82-1.481,2.17-2.117,3.519-2.117      c2.483,0,4.17,1.787,4.17,4.129c0,2.59-1.905,3.883-3.855,3.883c-1.326,0-2.748-0.554-3.666-2.199h-0.071      c-0.771,1.665-2.145,2.692-4.05,2.692c-2.723,0-4.555-1.993-4.555-4.541C50.488,79.04,52.44,77.355,54.73,77.355z       M54.826,84.546c1.905,0,2.82-1.129,3.422-2.938c-0.53-1.562-1.735-2.404-3.229-2.404c-1.592-0.062-2.989,0.965-2.989,2.672      C52.031,83.499,53.212,84.546,54.826,84.546z M62.659,79.574c-1.567,0-2.409,1.007-2.892,2.548      c0.458,1.151,1.422,2.034,2.844,2.034c1.254,0,2.554-0.638,2.554-2.26C65.166,80.395,64.008,79.574,62.659,79.574z" data-original="#585757" class="" style="fill:#113BBF" data-old_color="#585757"/>
			</g>
		</g>
	</g>
	<g>
		<g>
			<g>
				<path fill="#585757" d="M82.562,43.633h-4.535c-0.626,0-1.134-0.508-1.134-1.134c0-0.626,0.507-1.134,1.134-1.134h3.401v-3.401      c0-0.626,0.507-1.134,1.134-1.134c0.626,0,1.134,0.507,1.134,1.134v4.535C83.696,43.125,83.188,43.633,82.562,43.633z" data-original="#585757" class="" style="fill:#113BBF" data-old_color="#585757"/>
			</g>
		</g>
		<g>
			<g>
				<path fill="#585757" d="M67.11,43.633h-4.535c-0.626,0-1.134-0.508-1.134-1.134v-4.535c0-0.626,0.508-1.134,1.134-1.134      s1.133,0.507,1.133,1.134v3.401h3.401c0.626,0,1.134,0.507,1.134,1.134C68.244,43.125,67.736,43.633,67.11,43.633z" data-original="#585757" class="" style="fill:#113BBF" data-old_color="#585757"/>
			</g>
		</g>
		<g>
			<g>
				<path fill="#585757" d="M62.575,28.181c-0.626,0-1.134-0.507-1.134-1.134v-4.535c0-0.626,0.508-1.134,1.134-1.134h4.535      c0.626,0,1.134,0.508,1.134,1.134c0,0.626-0.508,1.134-1.134,1.134h-3.401v3.401C63.708,27.673,63.201,28.181,62.575,28.181z" data-original="#585757" class="" style="fill:#113BBF" data-old_color="#585757"/>
			</g>
		</g>
		<g>
			<g>
				<path fill="#585757" d="M82.562,28.181c-0.626,0-1.134-0.507-1.134-1.134v-3.401h-3.401c-0.626,0-1.134-0.507-1.134-1.134      c0-0.626,0.507-1.134,1.134-1.134h4.535c0.626,0,1.134,0.508,1.134,1.134v4.535C83.696,27.673,83.188,28.181,82.562,28.181z" data-original="#585757" class="" style="fill:#113BBF" data-old_color="#585757"/>
			</g>
		</g>
	</g>
	<g>
		<g>
			<path fill="#585757" d="M66.899,32.192c-0.626,0-1.134-0.507-1.134-1.134v-4.265c0-0.626,0.507-1.134,1.134-1.134h4.371     c0.626,0,1.133,0.507,1.133,1.134c0,0.626-0.507,1.134-1.133,1.134h-3.237v3.131C68.033,31.685,67.526,32.192,66.899,32.192z" data-original="#585757" class="" style="fill:#113BBF" data-old_color="#585757"/>
		</g>
	</g>
	<g>
		<g>
			<path fill="#585757" d="M77.943,39.369h-4.371c-0.626,0-1.134-0.507-1.134-1.134c0-0.626,0.508-1.133,1.134-1.133h3.237V33.97     c0-0.626,0.508-1.134,1.134-1.134c0.625,0,1.133,0.507,1.133,1.134v4.265C79.077,38.861,78.569,39.369,77.943,39.369z" data-original="#585757" class="" style="fill:#113BBF" data-old_color="#585757"/>
		</g>
	</g>
	<g>
		<g>
			<path fill="#585757" d="M77.943,39.369c-0.297,0-0.594-0.116-0.816-0.346L66.084,27.581c-0.436-0.45-0.422-1.168,0.028-1.603     c0.45-0.436,1.167-0.423,1.603,0.028l11.044,11.441c0.435,0.45,0.422,1.168-0.029,1.603     C78.51,39.263,78.227,39.369,77.943,39.369z" data-original="#585757" class="" style="fill:#113BBF" data-old_color="#585757"/>
		</g>
	</g>
	<g>
		<g>
			<g>
				<path fill="#585757" d="M302.562,65.581c-0.417,0-0.755-0.338-0.755-0.756v-2.5h-2.422c-0.417,0-0.755-0.338-0.755-0.756      s0.338-0.756,0.755-0.756h3.177c0.417,0,0.756,0.338,0.756,0.756v3.255C303.317,65.243,302.979,65.581,302.562,65.581z" data-original="#585757" class="" style="fill:#113BBF" data-old_color="#585757"/>
			</g>
		</g>
		<g>
			<g>
				<path fill="#585757" d="M297.217,70.551L297.217,70.551l-3.177,0c-0.418,0-0.756-0.338-0.756-0.756V66.54      c0-0.417,0.338-0.755,0.756-0.755s0.756,0.338,0.756,0.755v2.5l2.421,0c0.418,0,0.756,0.338,0.756,0.756      S297.635,70.551,297.217,70.551z" data-original="#585757" class="" style="fill:#113BBF" data-old_color="#585757"/>
			</g>
		</g>
		<g>
			<g>
				<path fill="#585757" d="M294.04,70.551c-0.197,0-0.396-0.077-0.544-0.231c-0.29-0.3-0.281-0.779,0.02-1.069l8.521-8.225      c0.3-0.29,0.779-0.282,1.069,0.019s0.281,0.779-0.02,1.069l-8.521,8.225C294.418,70.48,294.229,70.551,294.04,70.551z" data-original="#585757" class="" style="fill:#113BBF" data-old_color="#585757"/>
			</g>
		</g>
	</g>
	<g>
		<g>
			<g>
				<path fill="#585757" d="M285.759,83.041c-0.418,0-0.756-0.339-0.756-0.756v-2.5h-2.421c-0.417,0-0.756-0.338-0.756-0.756      s0.339-0.756,0.756-0.756h3.177c0.418,0,0.756,0.338,0.756,0.756v3.255C286.515,82.702,286.177,83.041,285.759,83.041z" data-original="#585757" class="" style="fill:#113BBF" data-old_color="#585757"/>
			</g>
		</g>
		<g>
			<g>
				<path fill="#585757" d="M280.414,88.011L280.414,88.011h-3.177c-0.417,0-0.756-0.339-0.756-0.756V84      c0-0.417,0.339-0.756,0.756-0.756c0.418,0,0.756,0.338,0.756,0.756v2.5l2.421,0.001c0.418,0,0.756,0.338,0.756,0.756      C281.17,87.672,280.832,88.011,280.414,88.011z" data-original="#585757" class="" style="fill:#113BBF" data-old_color="#585757"/>
			</g>
		</g>
		<g>
			<g>
				<path fill="#585757" d="M277.237,88.011c-0.198,0-0.396-0.077-0.543-0.231c-0.29-0.301-0.282-0.778,0.019-1.068l8.521-8.225      c0.3-0.29,0.778-0.282,1.068,0.019c0.29,0.3,0.281,0.779-0.019,1.069l-8.521,8.225      C277.616,87.939,277.426,88.011,277.237,88.011z" data-original="#585757" class="" style="fill:#113BBF" data-old_color="#585757"/>
			</g>
		</g>
	</g>
	<path fill="#585757" d="M308.378,122.63h-5.054c-0.627,0-1.134-0.507-1.134-1.134c0-0.626,0.507-1.134,1.134-1.134h5.054   c0.626,0,1.134,0.508,1.134,1.134C309.512,122.123,309.004,122.63,308.378,122.63z M296.587,122.63h-5.054   c-0.626,0-1.133-0.507-1.133-1.134c0-0.626,0.507-1.134,1.133-1.134h5.054c0.626,0,1.133,0.508,1.133,1.134   C297.72,122.123,297.213,122.63,296.587,122.63z" data-original="#585757" class="" style="fill:#113BBF" data-old_color="#585757"/>
	<g>
		<g>
			<path fill="#585757" d="M284.796,122.63h-2.268c-0.627,0-1.134-0.507-1.134-1.134c0-0.626,0.507-1.134,1.134-1.134h2.268     c0.627,0,1.134,0.508,1.134,1.134C285.93,122.123,285.423,122.63,284.796,122.63z" data-original="#585757" class="" style="fill:#113BBF" data-old_color="#585757"/>
		</g>
	</g>
	<g>
		<g>
			<g>
				<path fill="#585757" d="M256.471,57.826h-2.268c-0.626,0-1.134-0.507-1.134-1.134s0.508-1.134,1.134-1.134h2.268      c0.626,0,1.134,0.507,1.134,1.134S257.097,57.826,256.471,57.826z" data-original="#585757" class="" style="fill:#113BBF" data-old_color="#585757"/>
			</g>
		</g>
		<g>
			<g>
				<path fill="#585757" d="M299.216,57.826h-4.58c-0.627,0-1.134-0.507-1.134-1.134s0.507-1.134,1.134-1.134h4.58      c0.626,0,1.134,0.507,1.134,1.134S299.842,57.826,299.216,57.826z M288.529,57.826h-4.58c-0.626,0-1.134-0.507-1.134-1.134      s0.508-1.134,1.134-1.134h4.58c0.626,0,1.134,0.507,1.134,1.134S289.155,57.826,288.529,57.826z M277.843,57.826h-4.579      c-0.627,0-1.134-0.507-1.134-1.134s0.507-1.134,1.134-1.134h4.579c0.627,0,1.134,0.507,1.134,1.134      S278.47,57.826,277.843,57.826z M267.156,57.826h-4.579c-0.627,0-1.134-0.507-1.134-1.134s0.507-1.134,1.134-1.134h4.579      c0.626,0,1.134,0.507,1.134,1.134S267.782,57.826,267.156,57.826z" data-original="#585757" class="" style="fill:#113BBF" data-old_color="#585757"/>
			</g>
		</g>
		<g>
			<g>
				<path fill="#585757" d="M307.59,60.093c-0.626,0-1.134-0.507-1.134-1.133v-1.134h-1.134c-0.626,0-1.134-0.507-1.134-1.134      s0.508-1.134,1.134-1.134h2.268c0.626,0,1.134,0.507,1.134,1.134v2.268C308.724,59.586,308.216,60.093,307.59,60.093z" data-original="#585757" class="" style="fill:#113BBF" data-old_color="#585757"/>
			</g>
		</g>
		<g>
			<g>
				<path fill="#585757" d="M307.59,110.324c-0.626,0-1.134-0.507-1.134-1.133v-4.306c0-0.627,0.508-1.134,1.134-1.134      s1.134,0.507,1.134,1.134v4.306C308.724,109.817,308.216,110.324,307.59,110.324z M307.59,100.279      c-0.626,0-1.134-0.508-1.134-1.134V94.84c0-0.627,0.508-1.134,1.134-1.134s1.134,0.507,1.134,1.134v4.306      C308.724,99.771,308.216,100.279,307.59,100.279z M307.59,90.232c-0.626,0-1.134-0.508-1.134-1.134v-4.306      c0-0.626,0.508-1.134,1.134-1.134s1.134,0.507,1.134,1.134v4.306C308.724,89.725,308.216,90.232,307.59,90.232z M307.59,80.186      c-0.626,0-1.134-0.507-1.134-1.134v-4.306c0-0.626,0.508-1.134,1.134-1.134s1.134,0.508,1.134,1.134v4.306      C308.724,79.679,308.216,80.186,307.59,80.186z M307.59,70.14c-0.626,0-1.134-0.507-1.134-1.134v-4.305      c0-0.626,0.508-1.134,1.134-1.134s1.134,0.507,1.134,1.134v4.305C308.724,69.632,308.216,70.14,307.59,70.14z" data-original="#585757" class="" style="fill:#113BBF" data-old_color="#585757"/>
			</g>
		</g>
		<g>
			<g>
				<path fill="#585757" d="M307.59,118.333c-0.626,0-1.134-0.507-1.134-1.134v-2.268c0-0.626,0.508-1.134,1.134-1.134      s1.134,0.508,1.134,1.134v2.268C308.724,117.826,308.216,118.333,307.59,118.333z" data-original="#585757" class="" style="fill:#113BBF" data-old_color="#585757"/>
			</g>
		</g>
	</g>
	<g>
		<g>
			<g>
				<path fill="#585757" d="M283.164,75.08h-2.268c-0.627,0-1.134-0.507-1.134-1.134c0-0.626,0.507-1.134,1.134-1.134h2.268      c0.626,0,1.134,0.508,1.134,1.134C284.298,74.572,283.79,75.08,283.164,75.08z" data-original="#585757" class="" style="fill:#113BBF" data-old_color="#585757"/>
			</g>
		</g>
		<g>
			<g>
				<path fill="#585757" d="M291.262,77.347c-0.626,0-1.134-0.508-1.134-1.134V75.08h-1.133c-0.627,0-1.134-0.507-1.134-1.134      c0-0.626,0.507-1.134,1.134-1.134h2.267c0.626,0,1.134,0.508,1.134,1.134v2.268C292.396,76.839,291.888,77.347,291.262,77.347z" data-original="#585757" class="" style="fill:#113BBF" data-old_color="#585757"/>
			</g>
		</g>
		<g>
			<g>
				<path fill="#585757" d="M291.262,108.889c-0.626,0-1.134-0.507-1.134-1.134v-4.505c0-0.627,0.508-1.134,1.134-1.134      s1.134,0.507,1.134,1.134v4.505C292.396,108.382,291.888,108.889,291.262,108.889z M291.262,98.375      c-0.626,0-1.134-0.508-1.134-1.134v-4.506c0-0.626,0.508-1.134,1.134-1.134s1.134,0.508,1.134,1.134v4.506      C292.396,97.867,291.888,98.375,291.262,98.375z M291.262,87.861c-0.626,0-1.134-0.508-1.134-1.135v-4.505      c0-0.626,0.508-1.134,1.134-1.134s1.134,0.507,1.134,1.134v4.505C292.396,87.354,291.888,87.861,291.262,87.861z" data-original="#585757" class="" style="fill:#113BBF" data-old_color="#585757"/>
			</g>
		</g>
		<g>
			<g>
				<path fill="#585757" d="M291.262,117.164c-0.626,0-1.134-0.507-1.134-1.134v-2.267c0-0.627,0.508-1.134,1.134-1.134      s1.134,0.507,1.134,1.134v2.267C292.396,116.657,291.888,117.164,291.262,117.164z" data-original="#585757" class="" style="fill:#113BBF" data-old_color="#585757"/>
			</g>
		</g>
	</g>
	<g>
		<g>
			<g>
				<g>
					<rect x="251.127" y="74.862" fill="#FFFFFF" width="18.326" height="36.261" data-original="#FFFFFF" class=""/>
				</g>
			</g>
			<g>
				<g>
					<path fill="#585757" d="M269.453,111.711h-18.326c-0.324,0-0.589-0.263-0.589-0.588V74.862c0-0.325,0.265-0.588,0.589-0.588       h18.326c0.325,0,0.589,0.264,0.589,0.588v36.261C270.042,111.448,269.778,111.711,269.453,111.711z M251.715,110.535h17.151       V75.45h-17.151V110.535z" data-original="#585757" class="" style="fill:#113BBF" data-old_color="#585757"/>
				</g>
			</g>
		</g>
		<g>
			<g>
				<g>
					<rect x="251.127" y="74.862" fill="#FFFFFF" width="18.326" height="4.277" data-original="#FFFFFF" class=""/>
				</g>
			</g>
			<g>
				<g>
					<path fill="#585757" d="M269.453,79.727h-18.326c-0.324,0-0.589-0.263-0.589-0.587v-4.277c0-0.325,0.265-0.588,0.589-0.588       h18.326c0.325,0,0.589,0.264,0.589,0.588v4.277C270.042,79.464,269.778,79.727,269.453,79.727z M251.715,78.551h17.151V75.45       h-17.151V78.551z" data-original="#585757" class="" style="fill:#113BBF" data-old_color="#585757"/>
				</g>
			</g>
		</g>
		<g>
			<g>
				<path fill="#585757" d="M265.505,77.7h-11.302c-0.324,0-0.589-0.264-0.589-0.588c0-0.325,0.265-0.588,0.589-0.588h11.302      c0.325,0,0.588,0.263,0.588,0.588C266.093,77.437,265.83,77.7,265.505,77.7z" data-original="#585757" class="" style="fill:#113BBF" data-old_color="#585757"/>
			</g>
		</g>
		<g>
			<g>
				<rect x="254.203" y="81.865" fill="#D84253" width="12.147" height="13.637" data-original="#D84253"/>
			</g>
		</g>
		<g>
			<g>
				<rect x="254.203" y="104.896" fill="#F4B845" width="12.147" height="2.374" data-original="#F4B845" class=""/>
			</g>
		</g>
		<g>
			<g>
				<rect x="254.203" y="99.147" fill="#83619D" width="12.147" height="2.374" data-original="#83619D"/>
			</g>
		</g>
	</g>
</g></g> </svg>
