<?xml version="1.0"?>
<svg xmlns="http://www.w3.org/2000/svg" xmlns:xlink="http://www.w3.org/1999/xlink" version="1.1" id="Capa_1" x="0px" y="0px" width="512px" height="512px" viewBox="0 0 360 170" enable-background="new 0 0 360 170" xml:space="preserve" class=""><g><g><g>
	<circle fill="#DFDFDF" cx="178.115" cy="85.001" r="85" data-original="#2E96BE" class="" style="fill:#2E96BE" data-old_color="#DFDFDF"/>
	<g>
		<g>
			<g>
				<path fill="#585757" d="M111.895,132.111h-7.083c-1.808,0-3.276-1.471-3.276-3.277v-5.997c0-0.492-1.281-1.812-1.826-2.069      c-0.353,0.008-0.954,0.262-1.422,0.729l-4.237,4.236c-0.616,0.617-1.44,0.959-2.317,0.959c-0.876,0-1.698-0.34-2.315-0.957      l-5.009-5.008c-0.617-0.617-0.957-1.439-0.957-2.316s0.34-1.7,0.957-2.317l4.239-4.239c0.348-0.347,0.379-2.182,0.179-2.746      c-0.098-0.152-0.737-0.5-1.521-0.5h-5.999c-1.807,0-3.275-1.471-3.275-3.276V98.25c0-1.807,1.469-3.277,3.275-3.277h5.999      c0.491,0,1.81-1.281,2.067-1.824c0.035-0.176-0.175-0.871-0.727-1.422l-4.239-4.24c-0.617-0.616-0.957-1.438-0.957-2.315      s0.34-1.701,0.957-2.318l5.008-5.007c0.617-0.617,1.44-0.958,2.316-0.958c0.877,0,1.699,0.339,2.315,0.957l4.239,4.239      c0.101,0.099,0.613,0.304,1.569,0.304c0.618,0,1.066-0.085,1.178-0.125c0.153-0.097,0.501-0.738,0.501-1.521v-5.999      c0-1.807,1.47-3.275,3.276-3.275h7.083c1.807,0,3.274,1.469,3.274,3.275v5.999c0,0.492,1.283,1.812,1.826,2.068      c0.354-0.007,0.955-0.26,1.422-0.727l4.24-4.239c0.616-0.617,1.439-0.957,2.315-0.957c0.877,0,1.698,0.339,2.315,0.957      l5.009,5.008c0.616,0.617,0.956,1.439,0.956,2.316c0,0.876-0.34,1.7-0.956,2.316l-4.239,4.24      c-0.349,0.346-0.379,2.183-0.18,2.744c0.1,0.154,0.738,0.502,1.521,0.502h5.999c1.808,0,3.275,1.471,3.275,3.277v7.081      c0,1.807-1.469,3.276-3.275,3.276H129.4c-0.491,0-1.812,1.283-2.068,1.826c-0.035,0.174,0.175,0.869,0.728,1.42l4.239,4.241      c0.616,0.615,0.956,1.438,0.956,2.315s-0.34,1.699-0.956,2.316l-5.008,5.006c-0.617,0.617-1.439,0.959-2.316,0.959      s-1.699-0.34-2.315-0.957l-4.24-4.238c-0.099-0.1-0.611-0.303-1.567-0.303c-0.619,0-1.068,0.084-1.18,0.123      c-0.151,0.098-0.501,0.737-0.501,1.521v5.997C115.17,130.641,113.701,132.111,111.895,132.111z M99.686,118.509      c0.363,0,0.697,0.07,0.993,0.209c0.859,0.407,3.124,2.29,3.124,4.119v5.997c0,0.557,0.452,1.01,1.009,1.01h7.083      c0.557,0,1.008-0.453,1.008-1.01v-5.997c0-1.463,0.691-3.188,2.011-3.657c0.443-0.156,1.187-0.255,1.938-0.255      c1.006,0,2.372,0.167,3.172,0.966l4.239,4.24c0.377,0.377,1.049,0.377,1.427-0.001l5.008-5.008      c0.189-0.188,0.292-0.44,0.292-0.713s-0.103-0.523-0.292-0.714l-4.239-4.239c-1.034-1.032-1.77-2.737-1.173-3.995      c0.407-0.857,2.29-3.122,4.117-3.122h5.999c0.557,0,1.01-0.453,1.01-1.01v-7.081c0-0.557-0.453-1.01-1.01-1.01H129.4      c-1.463,0-3.188-0.69-3.656-2.01c-0.318-0.895-0.58-3.817,0.712-5.109l4.239-4.239c0.188-0.188,0.292-0.441,0.292-0.713      c0-0.271-0.104-0.524-0.292-0.712l-5.008-5.01c-0.377-0.376-1.049-0.376-1.428,0.001l-4.238,4.238      c-1.167,1.167-2.896,1.696-3.995,1.172c-0.859-0.406-3.124-2.287-3.124-4.117V74.74c0-0.557-0.451-1.008-1.008-1.008h-7.083      c-0.557,0-1.01,0.452-1.01,1.008v5.999c0,1.461-0.688,3.187-2.009,3.657c-0.442,0.158-1.187,0.257-1.938,0.257      c-1.005,0-2.372-0.168-3.172-0.967l-4.24-4.241c-0.377-0.376-1.048-0.376-1.426,0.001l-5.009,5.007      c-0.188,0.189-0.293,0.443-0.293,0.715c0,0.27,0.104,0.523,0.293,0.711l4.239,4.241c1.033,1.03,1.77,2.735,1.172,3.994      c-0.406,0.86-2.29,3.122-4.117,3.122h-5.998c-0.558,0-1.009,0.453-1.009,1.011v7.081c0,0.557,0.452,1.01,1.009,1.01h5.998      c1.464,0,3.188,0.689,3.656,2.012c0.317,0.894,0.58,3.814-0.712,5.106l-4.238,4.237c-0.188,0.188-0.293,0.442-0.293,0.715      c0,0.271,0.104,0.523,0.293,0.712l5.009,5.01c0.378,0.377,1.05,0.377,1.428-0.001l4.238-4.238      C97.537,119.038,98.688,118.509,99.686,118.509z" data-original="#113BBF" class="" style="fill:#113BBF" data-old_color="#585757"/>
			</g>
			<g>
				<path fill="#585757" d="M108.354,113.906c-6.683,0-12.118-5.437-12.118-12.118c0-6.681,5.437-12.116,12.118-12.116      c6.681,0,12.117,5.436,12.117,12.116C120.471,108.471,115.034,113.906,108.354,113.906z M108.354,91.939      c-5.433,0-9.852,4.418-9.852,9.849c0,5.433,4.419,9.851,9.852,9.851c5.431,0,9.85-4.418,9.85-9.851      C118.203,96.357,113.784,91.939,108.354,91.939z" data-original="#113BBF" class="" style="fill:#113BBF" data-old_color="#585757"/>
			</g>
		</g>
		<g>
			<g>
				<g>
					<rect x="109.109" y="66.33" fill="#FFFFFF" width="102.416" height="63.324" data-original="#FFFFFF" class=""/>
				</g>
				<g>
					<path fill="#585757" d="M211.525,130.409H109.109c-0.418,0-0.756-0.339-0.756-0.757V66.33c0-0.417,0.338-0.756,0.756-0.756       h102.416c0.417,0,0.756,0.338,0.756,0.756v63.324C212.281,130.07,211.942,130.409,211.525,130.409z M109.865,128.896H210.77       V67.085H109.865V128.896z" data-original="#113BBF" class="" style="fill:#113BBF" data-old_color="#585757"/>
				</g>
			</g>
			<g>
				<g>
					<rect x="112.812" y="70.19" fill="#2E96BE" width="95.008" height="53.011" data-original="#2E96BE" class=""/>
				</g>
				<g>
					<path fill="#585757" d="M207.82,123.957h-95.008c-0.418,0-0.756-0.338-0.756-0.756V70.19c0-0.418,0.338-0.756,0.756-0.756       h95.008c0.418,0,0.756,0.338,0.756,0.756v53.011C208.576,123.619,208.238,123.957,207.82,123.957z M113.568,122.445h93.496       v-51.5h-93.496V122.445z" data-original="#113BBF" class="" style="fill:#113BBF" data-old_color="#585757"/>
				</g>
			</g>
			<g>
				<g>
					<path fill="#FFFFFF" d="M216.313,137.008c-24.852,0-81.475,0-112.307,0c-6.293,0-6.293-7.354-6.293-7.354h125.203       C222.918,129.652,223.862,137.008,216.313,137.008z" data-original="#FFFFFF" class=""/>
				</g>
				<g>
					<path fill="#585757" d="M216.313,137.764H104.008c-5.575,0-7.049-5.306-7.049-8.109c0-0.418,0.338-0.756,0.756-0.756h125.203       c0.381,0,0.701,0.281,0.75,0.66c0.02,0.145,0.435,3.596-1.685,6.002C220.697,137.021,218.789,137.764,216.313,137.764z        M98.52,130.409c0.188,1.739,1.098,5.843,5.487,5.843h112.307c2.021,0,3.548-0.568,4.535-1.689       c1.184-1.346,1.354-3.185,1.353-4.152L98.52,130.409L98.52,130.409z" data-original="#113BBF" class="" style="fill:#113BBF" data-old_color="#585757"/>
				</g>
			</g>
			<g>
				<path fill="#FFFFFF" d="M144.203,129.652v2.059c0,0.906,0.734,1.643,1.643,1.643h28.981c0.906,0,1.642-0.735,1.642-1.643v-2.059      H144.203z" data-original="#FFFFFF" class=""/>
				<path fill="#585757" d="M174.827,134.107h-28.981c-1.321,0-2.397-1.074-2.397-2.396v-2.812h33.776v2.812      C177.224,133.033,176.148,134.107,174.827,134.107z M144.959,130.409v1.302c0,0.488,0.397,0.887,0.887,0.887h28.981      c0.488,0,0.886-0.397,0.886-0.887v-1.302H144.959z" data-original="#113BBF" class="" style="fill:#113BBF" data-old_color="#585757"/>
			</g>
		</g>
		<g>
			<polygon fill="#FFFFFF" points="126.874,76.317 148.255,41.665 160.336,55.254 153.743,83.459    " data-original="#FFFFFF" class=""/>
			<path fill="#585757" d="M153.743,84.215c-0.064,0-0.13-0.007-0.193-0.025l-26.868-7.142c-0.231-0.062-0.42-0.229-0.51-0.452     c-0.088-0.221-0.065-0.472,0.06-0.676l21.381-34.653c0.125-0.204,0.34-0.335,0.577-0.355c0.243-0.025,0.473,0.072,0.631,0.251     l12.082,13.589c0.163,0.183,0.227,0.434,0.171,0.673l-6.593,28.207c-0.047,0.199-0.172,0.37-0.348,0.475     C154.014,84.178,153.879,84.215,153.743,84.215z M128.053,75.848l25.133,6.681l6.325-27.065l-11.146-12.539L128.053,75.848z" data-original="#113BBF" class="" style="fill:#113BBF" data-old_color="#585757"/>
		</g>
		<g>
			<polygon fill="#FFFFFF" points="193.797,41.665 148.255,41.665 148.163,76.267 126.874,76.317 126.874,116.148 193.797,116.148         " data-original="#FFFFFF" class=""/>
		</g>
		<g>
			<path fill="#F4B845" d="M126.874,94.178h44.834c0,0,12.582-2.979,14.424-22.712c1.843-19.733,1.59-25.418,7.665-29.8v74.484     h-66.923V94.178z" data-original="#F4B845"/>
		</g>
		<g>
			<path fill="#83619D" d="M160.316,103.961v0.008c-18.999,0.283-32.688,11.426-32.688,11.426h32.688v0.756h33.479v-12.188     L160.316,103.961L160.316,103.961z" data-original="#83619D"/>
		</g>
		<g>
			<path fill="#585757" d="M193.797,116.905h-66.923c-0.417,0-0.756-0.339-0.756-0.757V76.317c0-0.418,0.338-0.756,0.755-0.756     l20.537-0.049l0.089-33.851c0.001-0.417,0.339-0.753,0.756-0.753h45.542c0.418,0,0.757,0.338,0.757,0.756v74.484     C194.553,116.566,194.215,116.905,193.797,116.905z M127.63,115.395h65.411V42.421h-44.032l-0.09,33.849     c-0.001,0.415-0.338,0.753-0.754,0.753l-20.535,0.049V115.395z" data-original="#113BBF" class="" style="fill:#113BBF" data-old_color="#585757"/>
		</g>
		<g>
			<path fill="#585757" d="M170.062,95.311c-0.062,0-0.099,0-0.112,0h-29.055c-0.626,0-1.135-0.508-1.135-1.133     c0-0.627,0.509-1.135,1.135-1.135h29.098c0.193-0.002,3.979,0.062,7.787-3.643c3.516-3.424,7.707-10.857,7.707-26.838     c0-10.309,2.957-18.319,8.789-23.804c5.083-4.781,12.418-7.372,19.622-6.932c14.394,0.881,27.507,8.507,26.005,57.922     c-0.021,0.627-0.534,1.136-1.168,1.1c-0.626-0.02-1.117-0.543-1.1-1.168c0.649-21.357-1.315-35.98-6.01-44.704     c-3.769-7.003-9.276-10.361-17.867-10.887c-6.59-0.403-13.294,1.96-17.93,6.321c-5.357,5.04-8.075,12.493-8.075,22.152     c0,13.526-2.848,23.125-8.466,28.533C175.103,95.123,170.822,95.311,170.062,95.311z" data-original="#113BBF" class="" style="fill:#113BBF" data-old_color="#585757"/>
		</g>
		<g>
			<path fill="#585757" d="M187.376,94.555h-56.307c-0.208,0-0.378-0.168-0.378-0.377s0.17-0.379,0.378-0.379h56.307     c0.209,0,0.378,0.17,0.378,0.379S187.585,94.555,187.376,94.555z" data-original="#113BBF" class="" style="fill:#113BBF" data-old_color="#585757"/>
		</g>
		<g>
			<rect x="155.83" y="89.672" fill="#FFFFFF" width="9.011" height="9.012" data-original="#FFFFFF" class=""/>
			<path fill="#585757" d="M164.841,99.438h-9.011c-0.417,0-0.756-0.338-0.756-0.756v-9.011c0-0.418,0.339-0.756,0.756-0.756h9.011     c0.418,0,0.757,0.338,0.757,0.756v9.011C165.597,99.102,165.259,99.438,164.841,99.438z M156.586,97.927h7.499v-7.499h-7.499     V97.927z" data-original="#113BBF" class="" style="fill:#113BBF" data-old_color="#585757"/>
		</g>
		<g>
			<circle fill="#585757" cx="187.376" cy="94.178" r="1.625" data-original="#113BBF" class="" style="fill:#113BBF" data-old_color="#585757"/>
		</g>
		<g>
			<circle fill="#585757" cx="131.07" cy="94.178" r="1.625" data-original="#113BBF" class="" style="fill:#113BBF" data-old_color="#585757"/>
		</g>
		<g>
			<path fill="#585757" d="M238.89,33.292h-54.61c-0.208,0-0.378-0.169-0.378-0.378s0.17-0.377,0.378-0.377h54.609     c0.21,0,0.378,0.168,0.378,0.377C239.268,33.123,239.1,33.292,238.89,33.292z" data-original="#113BBF" class="" style="fill:#113BBF" data-old_color="#585757"/>
		</g>
		<g>
			<circle fill="#585757" cx="184.281" cy="32.914" r="1.625" data-original="#113BBF" class="" style="fill:#113BBF" data-old_color="#585757"/>
		</g>
		<g>
			<circle fill="#585757" cx="238.89" cy="32.914" r="1.625" data-original="#113BBF" class="" style="fill:#113BBF" data-old_color="#585757"/>
		</g>
		<g>
			<path fill="#585757" d="M238.89,87.682c-0.208,0-0.378-0.17-0.378-0.377v-44.54c0-0.208,0.17-0.378,0.378-0.378     c0.21,0,0.378,0.17,0.378,0.378v44.54C239.268,87.512,239.1,87.682,238.89,87.682z" data-original="#113BBF" class="" style="fill:#113BBF" data-old_color="#585757"/>
		</g>
		<g>
			<circle fill="#585757" cx="238.89" cy="42.765" r="1.625" data-original="#113BBF" class="" style="fill:#113BBF" data-old_color="#585757"/>
		</g>
		<g>
			<rect x="207.021" y="28.409" fill="#FFFFFF" width="9.01" height="9.01" data-original="#FFFFFF" class=""/>
			<path fill="#585757" d="M216.03,38.175h-9.01c-0.418,0-0.756-0.338-0.756-0.756v-9.01c0-0.418,0.338-0.756,0.756-0.756h9.01     c0.417,0,0.756,0.338,0.756,0.756v9.01C216.786,37.837,216.447,38.175,216.03,38.175z M207.775,36.664h7.499v-7.499h-7.499     V36.664z" data-original="#113BBF" class="" style="fill:#113BBF" data-old_color="#585757"/>
		</g>
		<g>
			<path fill="#FFFFFF" d="M241.792,107.836c0-1.67-1.354-3.023-3.022-3.023l0,0c-1.669,0-3.023,1.354-3.023,3.023v2.848     c0,1.67,1.354,3.022,3.023,3.022l0,0c1.67,0,3.022-1.354,3.022-3.022V107.836z" data-original="#FFFFFF" class=""/>
			<path fill="#585757" d="M238.769,114.462c-2.083,0-3.778-1.694-3.778-3.778v-2.848c0-2.083,1.695-3.779,3.778-3.779     c2.084,0,3.778,1.696,3.778,3.779v2.848C242.548,112.768,240.853,114.462,238.769,114.462z M238.769,105.568     c-1.25,0-2.269,1.018-2.269,2.268v2.848c0,1.25,1.019,2.269,2.269,2.269s2.268-1.019,2.268-2.269v-2.848     C241.036,106.586,240.019,105.568,238.769,105.568z" data-original="#113BBF" class="" style="fill:#113BBF" data-old_color="#585757"/>
		</g>
		<g>
			<path fill="#FFFFFF" d="M240.229,74.308v19.252c0.927,0.518,1.561,1.494,1.561,2.631c0,1.666-1.353,3.02-3.021,3.02     s-3.021-1.354-3.021-3.02c0-1.137,0.635-2.113,1.562-2.631V74.308c0,0-1.931,7.295-11.369,13.731c0,0,6.864,6.863,6.864,13.301     c0,2.844,2.67,5.148,5.965,5.148s5.965-2.305,5.965-5.148c0-6.438,6.865-13.301,6.865-13.301     C242.159,81.604,240.229,74.308,240.229,74.308z" data-original="#FFFFFF" class=""/>
			<path fill="#585757" d="M238.769,107.244c-3.705,0-6.722-2.648-6.722-5.904c0-6.053-6.575-12.699-6.643-12.766     c-0.159-0.16-0.239-0.381-0.219-0.605c0.02-0.224,0.141-0.427,0.326-0.554c9.063-6.181,11.048-13.231,11.065-13.302     c0.098-0.366,0.454-0.604,0.828-0.553c0.377,0.05,0.657,0.369,0.657,0.748v19.252c0,0.274-0.147,0.526-0.389,0.66     c-0.723,0.404-1.173,1.158-1.173,1.971c0,1.248,1.017,2.264,2.266,2.264s2.265-1.016,2.265-2.264     c0-0.812-0.449-1.566-1.172-1.969c-0.239-0.136-0.389-0.388-0.389-0.662V74.308c0-0.379,0.281-0.7,0.657-0.748     c0.378-0.049,0.731,0.189,0.828,0.555c0.02,0.069,2.002,7.12,11.065,13.3c0.187,0.127,0.306,0.329,0.326,0.554     s-0.06,0.445-0.218,0.605c-0.065,0.066-6.645,6.722-6.645,12.766C245.489,104.596,242.476,107.244,238.769,107.244z      M227.091,88.157c1.733,1.903,6.47,7.612,6.47,13.183c0,2.422,2.337,4.393,5.209,4.393c2.873,0,5.209-1.971,5.209-4.393     c0-5.57,4.735-11.279,6.47-13.183c-5.157-3.684-7.98-7.561-9.463-10.24V93.15c0.973,0.705,1.561,1.834,1.561,3.041     c0,2.082-1.692,3.774-3.775,3.774c-2.081,0-3.775-1.692-3.775-3.774c0-1.207,0.588-2.334,1.561-3.041V77.917     C235.071,80.597,232.247,84.473,227.091,88.157z" data-original="#113BBF" class="" style="fill:#113BBF" data-old_color="#585757"/>
		</g>
		<g>
			<path fill="#D84253" d="M245.426,112.354c0-1.707-1.385-3.093-3.092-3.093h-7.13c-1.708,0-3.093,1.386-3.093,3.093v21.697     c0,1.708,1.385,3.094,3.093,3.094h7.13c1.707,0,3.092-1.386,3.092-3.094V112.354z" data-original="#D84253" class="active-path" style="fill:#D84253"/>
			<path fill="#585757" d="M242.334,137.898h-7.13c-2.121,0-3.849-1.728-3.849-3.849v-21.698c0-2.121,1.728-3.848,3.849-3.848h7.13     c2.122,0,3.849,1.727,3.849,3.848v21.698C246.182,136.172,244.456,137.898,242.334,137.898z M235.204,110.018     c-1.288,0-2.337,1.047-2.337,2.336v21.697c0,1.289,1.049,2.338,2.337,2.338h7.13c1.288,0,2.336-1.049,2.336-2.338v-21.697     c0-1.289-1.048-2.336-2.336-2.336H235.204z" data-original="#113BBF" class="" style="fill:#113BBF" data-old_color="#585757"/>
		</g>
		<g>
			<path fill="#585757" d="M245.426,116.905h-13.313c-0.417,0-0.756-0.339-0.756-0.757s0.339-0.756,0.756-0.756h13.313     c0.418,0,0.757,0.338,0.757,0.756S245.844,116.905,245.426,116.905z" data-original="#113BBF" class="" style="fill:#113BBF" data-old_color="#585757"/>
		</g>
		<g>
			<path fill="#585757" d="M241.792,122.445h-6.047c-0.417,0-0.755-0.338-0.755-0.756s0.338-0.756,0.755-0.756h6.047     c0.418,0,0.756,0.338,0.756,0.756S242.21,122.445,241.792,122.445z" data-original="#113BBF" class="" style="fill:#113BBF" data-old_color="#585757"/>
		</g>
		<g>
			<path fill="#585757" d="M241.792,127.521h-6.047c-0.417,0-0.755-0.338-0.755-0.756s0.338-0.757,0.755-0.757h6.047     c0.418,0,0.756,0.339,0.756,0.757S242.21,127.521,241.792,127.521z" data-original="#113BBF" class="" style="fill:#113BBF" data-old_color="#585757"/>
		</g>
		<g>
			<path fill="#585757" d="M241.792,132.598h-6.047c-0.417,0-0.755-0.339-0.755-0.757s0.338-0.756,0.755-0.756h6.047     c0.418,0,0.756,0.338,0.756,0.756S242.21,132.598,241.792,132.598z" data-original="#113BBF" class="" style="fill:#113BBF" data-old_color="#585757"/>
		</g>
		<g>
			<path fill="#585757" d="M254.986,61.388h-2.235c-0.626,0-1.134-0.508-1.134-1.134V50.21c0-0.626,0.508-1.134,1.134-1.134h10.044     c0.627,0,1.135,0.508,1.135,1.134v2.329c0,0.626-0.508,1.134-1.135,1.134c-0.626,0-1.134-0.508-1.134-1.134v-1.196h-7.776v7.776     h1.103c0.627,0,1.134,0.508,1.134,1.134S255.613,61.388,254.986,61.388z" data-original="#113BBF" class="" style="fill:#113BBF" data-old_color="#585757"/>
		</g>
		<g>
			<path fill="#585757" d="M270.241,68.835h-10.043c-0.626,0-1.134-0.508-1.134-1.134V57.656c0-0.625,0.508-1.133,1.134-1.133     h10.043c0.627,0,1.134,0.508,1.134,1.133v10.045C271.375,68.327,270.868,68.835,270.241,68.835z M261.331,66.567h7.776V58.79     h-7.776V66.567z" data-original="#113BBF" class="" style="fill:#113BBF" data-old_color="#585757"/>
		</g>
		<g>
			<rect x="121.853" y="50.062" fill="#83619D" width="7.593" height="7.593" data-original="#83619D"/>
			<path fill="#585757" d="M130.201,58.412h-9.104v-9.105h9.104V58.412z M122.608,56.9h6.082v-6.082h-6.082V56.9z" data-original="#113BBF" class="" style="fill:#113BBF" data-old_color="#585757"/>
		</g>
		<g>
			<rect x="121.853" y="37.108" fill="#F4B845" width="7.593" height="7.595" data-original="#F4B845"/>
			<path fill="#585757" d="M129.445,45.458h-7.593c-0.418,0-0.756-0.338-0.756-0.756v-7.595c0-0.417,0.338-0.756,0.756-0.756h7.593     c0.418,0,0.756,0.338,0.756,0.756v7.595C130.201,45.121,129.863,45.458,129.445,45.458z M122.608,43.947h6.082v-6.083h-6.082     V43.947z" data-original="#113BBF" class="" style="fill:#113BBF" data-old_color="#585757"/>
		</g>
		<g>
			<rect x="121.853" y="24.155" fill="#D84253" width="7.593" height="7.593" data-original="#D84253" class="active-path" style="fill:#D84253"/>
			<path fill="#585757" d="M129.445,32.504h-7.593c-0.418,0-0.756-0.338-0.756-0.756v-7.593c0-0.417,0.338-0.756,0.756-0.756h7.593     c0.418,0,0.756,0.338,0.756,0.756v7.593C130.201,32.166,129.863,32.504,129.445,32.504z M122.608,30.992h6.082V24.91h-6.082     V30.992z" data-original="#113BBF" class="" style="fill:#113BBF" data-old_color="#585757"/>
		</g>
		<g>
			<g>
				<path fill="#585757" d="M72.029,58.611c-0.388,0-0.766-0.199-0.978-0.556l-2.74-4.637c-0.153-0.258-0.197-0.568-0.123-0.859      c0.075-0.291,0.263-0.54,0.521-0.693l8.588-5.078c0.261-0.152,0.569-0.196,0.859-0.123c0.291,0.075,0.541,0.263,0.693,0.521      l2.74,4.637c0.319,0.539,0.142,1.234-0.397,1.553l-8.588,5.078C72.424,58.56,72.226,58.611,72.029,58.611z M70.84,53.239      l1.587,2.685l6.638-3.923l-1.587-2.685L70.84,53.239z" data-original="#113BBF" class="" style="fill:#113BBF" data-old_color="#585757"/>
			</g>
			<g>
				<path fill="#585757" d="M84.14,59.494c-0.399,0-0.771-0.211-0.977-0.557l-9.788-16.556c-0.207-0.352-0.211-0.785-0.01-1.138      c0.202-0.354,0.576-0.573,0.983-0.573l18.959-0.037c0.001,0,0.001,0,0.003,0c0.398,0,0.771,0.211,0.976,0.557      c0.204,0.346,0.21,0.773,0.018,1.125l-9.173,16.593c-0.195,0.356-0.567,0.58-0.976,0.586      C84.151,59.494,84.146,59.494,84.14,59.494z M76.337,42.933l7.771,13.144l7.28-13.173L76.337,42.933z" data-original="#113BBF" class="" style="fill:#113BBF" data-old_color="#585757"/>
			</g>
		</g>
		<g>
			<path fill="#585757" d="M303.198,108.714h-32.957c-0.626,0-1.134-0.508-1.134-1.134V89.914c0-0.626,0.508-1.134,1.134-1.134     h32.957c0.627,0,1.134,0.508,1.134,1.134v17.666C304.332,108.206,303.825,108.714,303.198,108.714z M271.375,106.447h30.69     V91.048h-30.69V106.447z" data-original="#113BBF" class="" style="fill:#113BBF" data-old_color="#585757"/>
		</g>
		<g>
			<path fill="#585757" d="M270.023,108.714h-9.606c-0.627,0-1.134-0.508-1.134-1.134V89.914c0-0.626,0.507-1.134,1.134-1.134h9.606     c0.626,0,1.134,0.508,1.134,1.134v17.666C271.157,108.206,270.649,108.714,270.023,108.714z M261.551,106.447h7.34V91.048h-7.34     V106.447L261.551,106.447z" data-original="#113BBF" class="" style="fill:#113BBF" data-old_color="#585757"/>
		</g>
		<g>
			<path fill="#585757" d="M303.198,108.714c-0.213,0-0.424-0.059-0.61-0.177c-0.325-0.208-0.521-0.569-0.521-0.957V89.914     c0-0.406,0.217-0.782,0.57-0.982c0.354-0.201,0.785-0.199,1.138,0.006l16.797,9.873c0.361,0.213,0.577,0.61,0.557,1.03     c-0.02,0.423-0.271,0.798-0.654,0.976l-16.796,7.793C303.524,108.682,303.361,108.714,303.198,108.714z M304.332,91.895v13.91     l13.225-6.137L304.332,91.895z" data-original="#113BBF" class="" style="fill:#113BBF" data-old_color="#585757"/>
		</g>
		<g>
			<path fill="#585757" d="M310.98,105.104c-0.627,0-1.135-0.508-1.135-1.134v-9.48c0-0.625,0.508-1.134,1.135-1.134     c0.626,0,1.134,0.509,1.134,1.134v9.48C312.114,104.596,311.606,105.104,310.98,105.104z" data-original="#113BBF" class="" style="fill:#113BBF" data-old_color="#585757"/>
		</g>
		<g>
			<path fill="#585757" d="M274.645,108.714c-0.626,0-1.135-0.508-1.135-1.134V89.914c0-0.626,0.509-1.134,1.135-1.134     s1.134,0.508,1.134,1.134v17.666C275.778,108.206,275.271,108.714,274.645,108.714z" data-original="#113BBF" class="" style="fill:#113BBF" data-old_color="#585757"/>
		</g>
		<g>
			<path fill="#585757" d="M77.044,143.355c-0.192,0-0.387-0.073-0.534-0.222l-11.877-11.877c-0.295-0.295-0.295-0.772,0-1.067     l6.366-6.367c0.296-0.295,0.773-0.295,1.069,0l11.877,11.877c0.295,0.296,0.295,0.773,0,1.068l-6.367,6.366     C77.431,143.282,77.237,143.355,77.044,143.355z M66.236,130.725l10.808,10.809l5.298-5.299l-10.808-10.809L66.236,130.725z" data-original="#113BBF" class="" style="fill:#113BBF" data-old_color="#585757"/>
		</g>
		<g>
			<path fill="#585757" d="M65.089,131.4c-0.192,0-0.387-0.073-0.533-0.221l-3.463-3.463c-0.142-0.142-0.221-0.333-0.221-0.533     c0-0.201,0.079-0.394,0.221-0.535l6.367-6.365c0.295-0.297,0.773-0.297,1.068,0l3.462,3.461c0.142,0.142,0.221,0.334,0.221,0.533     c0,0.201-0.079,0.394-0.221,0.535l-6.367,6.367C65.476,131.327,65.282,131.4,65.089,131.4z M62.696,127.184l2.393,2.394     l5.299-5.298l-2.394-2.394L62.696,127.184z" data-original="#113BBF" class="" style="fill:#113BBF" data-old_color="#585757"/>
		</g>
		<g>
			<path fill="#585757" d="M85.907,146.602c-0.088,0-0.176-0.016-0.26-0.047l-8.863-3.244c-0.242-0.088-0.422-0.295-0.479-0.545     c-0.056-0.254,0.021-0.517,0.203-0.699l6.366-6.366c0.192-0.191,0.473-0.267,0.734-0.194c0.261,0.07,0.465,0.277,0.532,0.54     l2.459,9.47c0.049,0.102,0.075,0.211,0.075,0.33c0,0.418-0.338,0.756-0.756,0.756C85.917,146.602,85.911,146.602,85.907,146.602z      M78.416,142.298l6.397,2.341l-1.802-6.936L78.416,142.298z" data-original="#113BBF" class="" style="fill:#113BBF" data-old_color="#585757"/>
		</g>
		<g>
			<path fill="#585757" d="M280.967,146.48H85.887c-0.628,0-1.135-0.508-1.135-1.133c0-0.627,0.507-1.135,1.135-1.135h195.079     c0.626,0,1.135,0.508,1.135,1.135C282.101,145.973,281.593,146.48,280.967,146.48z" data-original="#113BBF" class="" style="fill:#113BBF" data-old_color="#585757"/>
		</g>
		<g>
			<path fill="#585757" d="M299.161,146.48h-6c-0.626,0-1.133-0.508-1.133-1.133c0-0.627,0.507-1.135,1.133-1.135h6     c0.625,0,1.133,0.508,1.133,1.135C300.294,145.973,299.786,146.48,299.161,146.48z" data-original="#113BBF" class="" style="fill:#113BBF" data-old_color="#585757"/>
		</g>
		<g>
			<path fill="#585757" d="M287.955,125.091h-17.932c-0.627,0-1.134-0.508-1.134-1.134s0.507-1.134,1.134-1.134h17.932     c0.626,0,1.134,0.508,1.134,1.134S288.581,125.091,287.955,125.091z" data-original="#113BBF" class="" style="fill:#113BBF" data-old_color="#585757"/>
		</g>
		<g>
			<path fill="#585757" d="M299.161,125.091h-3.89c-0.626,0-1.134-0.508-1.134-1.134s0.508-1.134,1.134-1.134h3.89     c0.626,0,1.133,0.508,1.133,1.134S299.787,125.091,299.161,125.091z" data-original="#113BBF" class="" style="fill:#113BBF" data-old_color="#585757"/>
		</g>
		<g>
			<path fill="#585757" d="M274.645,130.787h-17.639c-0.627,0-1.134-0.508-1.134-1.135c0-0.625,0.507-1.133,1.134-1.133h17.639     c0.626,0,1.134,0.508,1.134,1.133C275.779,130.279,275.271,130.787,274.645,130.787z" data-original="#113BBF" class="" style="fill:#113BBF" data-old_color="#585757"/>
		</g>
		<g>
			<path fill="#585757" d="M303.198,138.896h-30.487c-0.626,0-1.134-0.508-1.134-1.133c0-0.627,0.508-1.135,1.134-1.135h30.487     c0.627,0,1.134,0.508,1.134,1.135C304.332,138.389,303.825,138.896,303.198,138.896z" data-original="#113BBF" class="" style="fill:#113BBF" data-old_color="#585757"/>
		</g>
		<g>
			<g>
				<path fill="#585757" d="M117.668,55.67H115.4c-0.418,0-0.756-0.338-0.756-0.756c0-0.417,0.338-0.755,0.756-0.755h2.268      c0.417,0,0.756,0.338,0.756,0.755C118.424,55.333,118.085,55.67,117.668,55.67z M110.865,55.67h-2.267      c-0.418,0-0.757-0.338-0.757-0.756c0-0.417,0.339-0.755,0.757-0.755h2.267c0.418,0,0.756,0.338,0.756,0.755      C111.621,55.333,111.283,55.67,110.865,55.67z M104.126,55.297c-0.123,0-0.247-0.031-0.362-0.094      c-0.841-0.46-1.47-1.215-1.772-2.123c-0.132-0.396,0.082-0.824,0.478-0.955c0.396-0.134,0.823,0.081,0.957,0.477      c0.182,0.546,0.562,1,1.066,1.277c0.366,0.201,0.499,0.66,0.299,1.026C104.651,55.155,104.393,55.297,104.126,55.297z       M102.552,49.08c-0.418,0-0.756-0.338-0.756-0.756v-2.267c0-0.418,0.338-0.756,0.756-0.756s0.757,0.338,0.757,0.756v2.267      C103.308,48.742,102.969,49.08,102.552,49.08z M102.552,42.277c-0.418,0-0.756-0.338-0.756-0.756v-2.267      c0-0.418,0.338-0.756,0.756-0.756s0.757,0.338,0.757,0.756v2.267C103.308,41.939,102.969,42.277,102.552,42.277z       M102.552,35.476c-0.418,0-0.756-0.338-0.756-0.756v-2.268c0-0.417,0.338-0.756,0.756-0.756s0.757,0.338,0.757,0.756v2.268      C103.308,35.137,102.969,35.476,102.552,35.476z M103.194,28.818c-0.163,0-0.327-0.052-0.465-0.161      c-0.329-0.257-0.388-0.732-0.13-1.06c0.592-0.756,1.438-1.256,2.381-1.41c0.411-0.068,0.8,0.214,0.866,0.626      c0.065,0.412-0.214,0.8-0.626,0.866c-0.566,0.092-1.074,0.393-1.432,0.849C103.642,28.719,103.418,28.818,103.194,28.818z       M118.702,27.65h-2.267c-0.418,0-0.756-0.338-0.756-0.756c0-0.417,0.338-0.756,0.756-0.756h2.267      c0.418,0,0.756,0.338,0.756,0.756S119.12,27.65,118.702,27.65z M111.9,27.65h-2.269c-0.418,0-0.756-0.338-0.756-0.756      c0-0.417,0.338-0.756,0.756-0.756h2.269c0.418,0,0.756,0.338,0.756,0.756S112.318,27.65,111.9,27.65z" data-original="#113BBF" class="" style="fill:#113BBF" data-old_color="#585757"/>
			</g>
		</g>
		<g>
			<g>
				<path fill="#585757" d="M116.562,41.661h-2.269c-0.418,0-0.756-0.338-0.756-0.756c0-0.418,0.338-0.756,0.756-0.756h2.269      c0.417,0,0.755,0.338,0.755,0.756C117.317,41.322,116.979,41.661,116.562,41.661z M109.76,41.661h-2.268      c-0.417,0-0.756-0.338-0.756-0.756c0-0.418,0.339-0.756,0.756-0.756h2.268c0.417,0,0.757,0.338,0.757,0.756      C110.516,41.322,110.177,41.661,109.76,41.661z" data-original="#113BBF" class="" style="fill:#113BBF" data-old_color="#585757"/>
			</g>
		</g>
	</g>
</g></g></g> </svg>
