<?xml version="1.0"?>
<svg xmlns="http://www.w3.org/2000/svg" xmlns:xlink="http://www.w3.org/1999/xlink" version="1.1" id="Capa_1" x="0px" y="0px" width="512px" height="512px" viewBox="0 0 360 170" enable-background="new 0 0 360 170" xml:space="preserve" class=""><g><g>
	<circle fill="#DFDFDF" cx="173.233" cy="84.999" r="85" data-original="#DFDFDF" class="active-path" style="fill:#2E96BE" data-old_color="#DFDFDF"/>
	<g>
		<g>
			<g>
				<path fill="#585757" d="M117.104,95.848h-4.556c-1.807,0-3.275-1.471-3.275-3.277v-3.711c0-0.522-0.789-1.48-1.193-1.797      c-0.242,0.058-0.754,0.31-1.238,0.793l-2.62,2.621c-0.617,0.617-1.441,0.957-2.318,0.957c-0.876,0-1.698-0.34-2.315-0.955      l-3.221-3.223c-0.617-0.615-0.957-1.439-0.957-2.316c0-0.877,0.34-1.699,0.958-2.316L98.989,80      c0.371-0.372,0.493-1.608,0.431-2.112c-0.21-0.13-0.748-0.319-1.435-0.319h-3.713c-1.807,0-3.275-1.469-3.275-3.276V69.74      c0-1.807,1.469-3.277,3.275-3.277h3.713c0.521,0,1.479-0.79,1.795-1.194c-0.058-0.241-0.308-0.753-0.791-1.236l-2.624-2.625      c-0.616-0.615-0.956-1.439-0.956-2.316s0.34-1.699,0.958-2.316l3.22-3.221c0.617-0.617,1.439-0.957,2.315-0.957      c0.877,0,1.699,0.339,2.315,0.957l2.623,2.623c0.22,0.219,0.941,0.444,1.771,0.444c0.151,0,0.266-0.007,0.344-0.016      c0.131-0.212,0.317-0.75,0.317-1.434v-3.711c0-1.807,1.47-3.277,3.275-3.277h4.556c1.807,0,3.274,1.47,3.274,3.277v3.711      c0,0.523,0.79,1.481,1.194,1.797c0.241-0.058,0.754-0.307,1.238-0.792l2.622-2.623c0.617-0.617,1.439-0.957,2.315-0.957      c0.877,0,1.699,0.339,2.316,0.957l3.221,3.221c0.616,0.615,0.957,1.439,0.957,2.316s-0.34,1.699-0.957,2.316l-2.623,2.623      c-0.372,0.372-0.494,1.607-0.431,2.112c0.21,0.131,0.748,0.319,1.435,0.319h3.713c1.808,0,3.275,1.47,3.275,3.277v4.554      c0,1.807-1.469,3.276-3.275,3.276h-3.713c-0.521,0-1.479,0.79-1.796,1.194c0.059,0.242,0.31,0.753,0.792,1.237l2.623,2.623      c0.616,0.617,0.957,1.439,0.957,2.316c0,0.876-0.341,1.701-0.958,2.317l-3.22,3.22c-0.617,0.617-1.439,0.957-2.316,0.957      c-0.876,0-1.698-0.34-2.314-0.955l-2.623-2.625c-0.22-0.219-0.941-0.443-1.771-0.443c-0.15,0-0.266,0.009-0.345,0.018      c-0.13,0.211-0.317,0.749-0.317,1.432v3.713C120.38,94.377,118.911,95.848,117.104,95.848z M108.167,84.782      c0.291,0,0.562,0.057,0.801,0.169c0.747,0.354,2.573,2.16,2.573,3.906v3.713c0,0.556,0.452,1.009,1.009,1.009h4.556      c0.556,0,1.009-0.453,1.009-1.009v-3.713c0-1.416,0.541-3.135,1.73-3.557c0.369-0.131,0.855-0.16,1.197-0.16      c0.53,0,2.345,0.08,3.373,1.108l2.623,2.623c0.377,0.377,1.049,0.379,1.427,0l3.221-3.222c0.188-0.188,0.293-0.44,0.293-0.712      c0-0.27-0.104-0.524-0.292-0.711l-2.623-2.625c-1.003-1.001-1.837-2.595-1.299-3.729c0.354-0.747,2.16-2.573,3.904-2.573h3.713      c0.558,0,1.009-0.452,1.009-1.008V69.74c0-0.557-0.451-1.01-1.009-1.01h-3.713c-1.418,0-3.135-0.542-3.558-1.731      c-0.283-0.799-0.302-3.318,0.951-4.57l2.622-2.623c0.188-0.189,0.293-0.441,0.293-0.713c0-0.272-0.104-0.524-0.292-0.713      l-3.222-3.221c-0.378-0.376-1.05-0.376-1.428,0.001l-2.622,2.622c-0.71,0.71-1.853,1.469-2.929,1.469      c-0.29,0-0.562-0.058-0.8-0.169c-0.747-0.354-2.573-2.161-2.573-3.908v-3.711c0-0.556-0.453-1.01-1.009-1.01h-4.556      c-0.557,0-1.009,0.454-1.009,1.01v3.711c0,1.417-0.542,3.136-1.729,3.558c-0.371,0.131-0.856,0.16-1.198,0.16      c-0.531,0-2.345-0.08-3.373-1.109l-2.623-2.623c-0.377-0.376-1.049-0.376-1.427,0.001l-3.221,3.22      c-0.188,0.189-0.293,0.443-0.293,0.713c0,0.271,0.104,0.524,0.292,0.713l2.623,2.623c1.002,1.001,1.836,2.595,1.3,3.73      c-0.354,0.745-2.161,2.571-3.905,2.571h-3.713c-0.558,0-1.008,0.453-1.008,1.01v4.554c0,0.557,0.451,1.008,1.008,1.008h3.713      c1.417,0,3.134,0.542,3.557,1.73c0.284,0.802,0.303,3.321-0.95,4.573l-2.62,2.622c-0.19,0.189-0.295,0.443-0.295,0.713      c0,0.271,0.104,0.524,0.292,0.713l3.222,3.221c0.378,0.377,1.05,0.379,1.428,0l2.622-2.621      C105.949,85.54,107.092,84.782,108.167,84.782z" data-original="#585757" class="" style="fill:#113BBF" data-old_color="#143DBD"/>
			</g>
			<g>
				<path fill="#585757" d="M114.827,81.69c-5.334,0-9.674-4.34-9.674-9.675c0-5.333,4.34-9.673,9.674-9.673      c5.335,0,9.675,4.34,9.675,9.673C124.502,77.351,120.162,81.69,114.827,81.69z M114.827,64.61c-4.084,0-7.406,3.323-7.406,7.406      c0,4.085,3.322,7.408,7.406,7.408s7.407-3.323,7.407-7.408C122.234,67.933,118.911,64.61,114.827,64.61z" data-original="#585757" class="" style="fill:#113BBF" data-old_color="#143DBD"/>
			</g>
		</g>
		<g>
			<g>
				<g>
					<path fill="#FFFFFF" d="M153.227,116.586c0,0,5.044-2.634,3.832-9.179h22.402c0,0-0.809,7.243,4.288,9.179       C183.75,116.586,161.201,125.766,153.227,116.586z" data-original="#FFFFFF" class=""/>
				</g>
				<g>
					<path fill="#585757" d="M164.685,121.42c-5.48,0-9.527-1.46-12.029-4.338c-0.151-0.176-0.215-0.409-0.171-0.637       c0.043-0.229,0.188-0.422,0.393-0.529c0.184-0.098,4.528-2.48,3.439-8.372c-0.041-0.221,0.018-0.448,0.162-0.621       c0.144-0.171,0.354-0.271,0.58-0.271h22.402c0.215,0,0.42,0.092,0.562,0.25c0.144,0.162,0.213,0.373,0.188,0.589       c-0.008,0.065-0.677,6.688,3.807,8.389c0.29,0.11,0.482,0.388,0.485,0.698c0.004,0.311-0.183,0.592-0.471,0.708       C183.62,117.454,173.771,121.42,164.685,121.42z M154.39,116.71c2.241,2.124,5.698,3.198,10.295,3.198       c6.729,0,14.109-2.336,17.24-3.448c-3.067-2.211-3.312-6.481-3.265-8.297h-20.727       C158.457,112.927,155.791,115.635,154.39,116.71z" data-original="#585757" class="" style="fill:#113BBF" data-old_color="#143DBD"/>
				</g>
			</g>
			<g>
				<g>
					<rect x="115.92" y="34.078" fill="#FFFFFF" width="102.417" height="74.085" data-original="#FFFFFF" class=""/>
				</g>
				<g>
					<path fill="#585757" d="M218.337,108.919H115.92c-0.418,0-0.756-0.338-0.756-0.756V34.078c0-0.416,0.338-0.756,0.756-0.756       h102.417c0.417,0,0.756,0.34,0.756,0.756v74.085C219.093,108.581,218.754,108.919,218.337,108.919z M116.676,107.407h100.905       V34.834H116.676V107.407z" data-original="#585757" class="" style="fill:#113BBF" data-old_color="#143DBD"/>
				</g>
			</g>
			<g>
				<g>
					<rect x="122.465" y="40.624" fill="#2E96BE" width="89.326" height="60.995" data-original="#2E96BE" class=""/>
				</g>
				<g>
					<path fill="#585757" d="M211.791,102.373h-89.326c-0.417,0-0.756-0.338-0.756-0.755V40.624c0-0.418,0.339-0.756,0.756-0.756       h89.326c0.418,0,0.756,0.338,0.756,0.756v60.995C212.547,102.035,212.209,102.373,211.791,102.373z M123.221,100.861h87.814       V41.379h-87.814V100.861z" data-original="#585757" class="" style="fill:#113BBF" data-old_color="#143DBD"/>
				</g>
			</g>
			<g>
				<g>
					<rect x="141.003" y="114.792" fill="#FFFFFF" width="54.973" height="6.413" data-original="#FFFFFF" class=""/>
				</g>
				<g>
					<path fill="#585757" d="M195.975,121.96h-54.973c-0.418,0-0.756-0.338-0.756-0.755v-6.413c0-0.417,0.338-0.756,0.756-0.756       h54.973c0.417,0,0.756,0.339,0.756,0.756v6.413C196.73,121.622,196.392,121.96,195.975,121.96z M141.759,120.449h53.46v-4.901       h-53.46V120.449z" data-original="#585757" class="" style="fill:#113BBF" data-old_color="#143DBD"/>
				</g>
			</g>
		</g>
		<g>
			<g>
				<g>
					<rect x="133.884" y="19.682" fill="#FFFFFF" width="66.884" height="72.464" data-original="#FFFFFF" class=""/>
				</g>
				<g>
					<path fill="#585757" d="M200.767,92.9h-66.884c-0.418,0-0.756-0.34-0.756-0.756V19.682c0-0.418,0.338-0.756,0.756-0.756h66.884       c0.417,0,0.755,0.338,0.755,0.756v72.464C201.521,92.562,201.184,92.9,200.767,92.9z M134.639,91.391h65.372V20.437h-65.372       V91.391z" data-original="#585757" class="" style="fill:#113BBF" data-old_color="#143DBD"/>
				</g>
			</g>
			<g>
				<g>
					<rect x="133.884" y="19.682" fill="#FFFFFF" width="66.884" height="14.396" data-original="#FFFFFF" class=""/>
				</g>
				<g>
					<path fill="#585757" d="M200.767,34.834h-66.884c-0.418,0-0.756-0.338-0.756-0.756V19.682c0-0.418,0.338-0.756,0.756-0.756       h66.884c0.417,0,0.755,0.338,0.755,0.756v14.396C201.521,34.496,201.184,34.834,200.767,34.834z M134.639,33.322h65.372V20.437       h-65.372V33.322z" data-original="#585757" class="" style="fill:#113BBF" data-old_color="#143DBD"/>
				</g>
			</g>
			<g>
				<path fill="#585757" d="M141.143,27.636h-3.068c-0.418,0-0.756-0.338-0.756-0.756c0-0.417,0.338-0.755,0.756-0.755h3.068      c0.418,0,0.756,0.338,0.756,0.755C141.898,27.298,141.561,27.636,141.143,27.636z" data-original="#585757" class="" style="fill:#113BBF" data-old_color="#143DBD"/>
			</g>
			<g>
				<path fill="#585757" d="M155.403,27.636h-3.069c-0.417,0-0.755-0.338-0.755-0.756c0-0.417,0.338-0.755,0.755-0.755h3.069      c0.418,0,0.756,0.338,0.756,0.755C156.159,27.298,155.821,27.636,155.403,27.636z" data-original="#585757" class="" style="fill:#113BBF" data-old_color="#143DBD"/>
			</g>
			<g>
				<path fill="#585757" d="M148.273,27.636h-3.068c-0.418,0-0.756-0.338-0.756-0.756c0-0.417,0.338-0.755,0.756-0.755h3.068      c0.416,0,0.756,0.338,0.756,0.755C149.029,27.298,148.689,27.636,148.273,27.636z" data-original="#585757" class="" style="fill:#113BBF" data-old_color="#143DBD"/>
			</g>
			<g>
				<path fill="#585757" d="M162.533,27.636h-3.069c-0.417,0-0.756-0.338-0.756-0.756c0-0.417,0.339-0.755,0.756-0.755h3.069      c0.418,0,0.756,0.338,0.756,0.755C163.289,27.298,162.951,27.636,162.533,27.636z" data-original="#585757" class="" style="fill:#113BBF" data-old_color="#143DBD"/>
			</g>
			<g>
				<path fill="#585757" d="M176.793,27.636h-3.067c-0.418,0-0.756-0.338-0.756-0.756c0-0.417,0.338-0.755,0.756-0.755h3.067      c0.418,0,0.756,0.338,0.756,0.755C177.549,27.298,177.211,27.636,176.793,27.636z" data-original="#585757" class="" style="fill:#113BBF" data-old_color="#143DBD"/>
			</g>
			<g>
				<path fill="#585757" d="M169.663,27.636h-3.069c-0.415,0-0.756-0.338-0.756-0.756c0-0.417,0.341-0.755,0.756-0.755h3.069      c0.418,0,0.756,0.338,0.756,0.755C170.419,27.298,170.081,27.636,169.663,27.636z" data-original="#585757" class="" style="fill:#113BBF" data-old_color="#143DBD"/>
			</g>
			<g>
				<path fill="#D84253" d="M194.346,27.636h-3.069c-0.418,0-0.756-0.338-0.756-0.756c0-0.417,0.338-0.755,0.756-0.755h3.069      c0.417,0,0.756,0.338,0.756,0.755C195.102,27.298,194.763,27.636,194.346,27.636z" data-original="#D84253" class=""/>
			</g>
			<g>
				<path fill="#585757" d="M183.924,27.636h-3.068c-0.417,0-0.755-0.338-0.755-0.756c0-0.417,0.338-0.755,0.755-0.755h3.068      c0.416,0,0.757,0.338,0.757,0.755C184.68,27.298,184.34,27.636,183.924,27.636z" data-original="#585757" class="" style="fill:#113BBF" data-old_color="#143DBD"/>
			</g>
			<g>
				<path fill="#585757" d="M156.52,40.624h-11.45c-0.417,0-0.756-0.338-0.756-0.756c0-0.417,0.339-0.756,0.756-0.756h11.45      c0.417,0,0.756,0.339,0.756,0.756C157.275,40.286,156.937,40.624,156.52,40.624z" data-original="#585757" class="" style="fill:#113BBF" data-old_color="#143DBD"/>
			</g>
			<g>
				<path fill="#F4B845" d="M194.36,40.624h-35.057c-0.417,0-0.757-0.338-0.757-0.756c0-0.417,0.34-0.756,0.757-0.756h35.057      c0.417,0,0.756,0.339,0.756,0.756C195.116,40.286,194.777,40.624,194.36,40.624z" data-original="#F4B845"/>
			</g>
			<g>
				<path fill="#CB3433" d="M167.128,45.724h-22.262c-0.417,0-0.756-0.338-0.756-0.756c0-0.417,0.339-0.755,0.756-0.755h22.262      c0.418,0,0.756,0.338,0.756,0.755C167.884,45.386,167.546,45.724,167.128,45.724z" data-original="#CB3433"/>
			</g>
			<g>
				<path fill="#585757" d="M180.97,45.724h-10.225c-0.418,0-0.756-0.338-0.756-0.756c0-0.417,0.338-0.755,0.756-0.755h10.225      c0.418,0,0.756,0.338,0.756,0.755C181.726,45.386,181.388,45.724,180.97,45.724z" data-original="#585757" class="" style="fill:#113BBF" data-old_color="#143DBD"/>
			</g>
			<g>
				<path fill="#F4B845" d="M156.52,51.07h-11.45c-0.417,0-0.756-0.339-0.756-0.756c0-0.418,0.339-0.756,0.756-0.756h11.45      c0.417,0,0.756,0.338,0.756,0.756C157.275,50.731,156.937,51.07,156.52,51.07z" data-original="#F4B845"/>
			</g>
			<g>
				<path fill="#585757" d="M194.36,51.07h-35.057c-0.417,0-0.757-0.339-0.757-0.756c0-0.418,0.34-0.756,0.757-0.756h35.057      c0.417,0,0.756,0.338,0.756,0.756C195.116,50.731,194.777,51.07,194.36,51.07z" data-original="#585757" class="" style="fill:#113BBF" data-old_color="#143DBD"/>
			</g>
			<g>
				<path fill="#CB3433" d="M163.693,56.17h-18.827c-0.417,0-0.756-0.338-0.756-0.756s0.339-0.756,0.756-0.756h18.827      c0.417,0,0.756,0.338,0.756,0.756S164.11,56.17,163.693,56.17z" data-original="#CB3433"/>
			</g>
			<g>
				<path fill="#585757" d="M156.52,61.216h-11.45c-0.417,0-0.756-0.339-0.756-0.756c0-0.418,0.339-0.756,0.756-0.756h11.45      c0.417,0,0.756,0.338,0.756,0.756C157.275,60.877,156.937,61.216,156.52,61.216z" data-original="#585757" class="" style="fill:#113BBF" data-old_color="#143DBD"/>
			</g>
			<g>
				<path fill="#CB3433" d="M170.746,61.216h-11.441c-0.417,0-0.757-0.339-0.757-0.756c0-0.418,0.34-0.756,0.757-0.756h11.441      c0.418,0,0.756,0.338,0.756,0.756C171.502,60.877,171.164,61.216,170.746,61.216z" data-original="#CB3433"/>
			</g>
			<g>
				<path fill="#F4B845" d="M154.463,66.316h-9.597c-0.417,0-0.756-0.338-0.756-0.756s0.339-0.756,0.756-0.756h9.597      c0.417,0,0.756,0.338,0.756,0.756S154.88,66.316,154.463,66.316z" data-original="#F4B845"/>
			</g>
			<g>
				<path fill="#585757" d="M168.089,66.316h-8.062c-0.418,0-0.756-0.338-0.756-0.756s0.338-0.756,0.756-0.756h8.062      c0.417,0,0.757,0.338,0.757,0.756S168.506,66.316,168.089,66.316z" data-original="#585757" class="" style="fill:#113BBF" data-old_color="#143DBD"/>
			</g>
			<g>
				<path fill="#CB3433" d="M156.52,71.661h-11.45c-0.417,0-0.756-0.338-0.756-0.755s0.339-0.756,0.756-0.756h11.45      c0.417,0,0.756,0.339,0.756,0.756C157.275,71.323,156.937,71.661,156.52,71.661z" data-original="#CB3433"/>
			</g>
			<g>
				<path fill="#585757" d="M194.36,71.661h-35.057c-0.417,0-0.757-0.338-0.757-0.755s0.34-0.756,0.757-0.756h35.057      c0.417,0,0.756,0.339,0.756,0.756S194.777,71.661,194.36,71.661z" data-original="#585757" class="" style="fill:#113BBF" data-old_color="#143DBD"/>
			</g>
			<g>
				<path fill="#585757" d="M167.128,76.762h-22.262c-0.417,0-0.756-0.339-0.756-0.756s0.339-0.756,0.756-0.756h22.262      c0.418,0,0.756,0.339,0.756,0.756S167.546,76.762,167.128,76.762z" data-original="#585757" class="" style="fill:#113BBF" data-old_color="#143DBD"/>
			</g>
			<g>
				<path fill="#585757" d="M139.565,40.624h-1.491c-0.417,0-0.756-0.338-0.756-0.756c0-0.417,0.339-0.756,0.756-0.756h1.491      c0.417,0,0.756,0.339,0.756,0.756C140.321,40.286,139.982,40.624,139.565,40.624z" data-original="#585757" class="" style="fill:#113BBF" data-old_color="#143DBD"/>
			</g>
			<g>
				<path fill="#585757" d="M139.565,45.724h-1.491c-0.417,0-0.756-0.338-0.756-0.756c0-0.417,0.339-0.755,0.756-0.755h1.491      c0.417,0,0.756,0.338,0.756,0.755C140.321,45.386,139.982,45.724,139.565,45.724z" data-original="#585757" class="" style="fill:#113BBF" data-old_color="#143DBD"/>
			</g>
			<g>
				<path fill="#585757" d="M139.565,51.07h-1.491c-0.417,0-0.756-0.339-0.756-0.756c0-0.418,0.339-0.756,0.756-0.756h1.491      c0.417,0,0.756,0.338,0.756,0.756C140.321,50.731,139.982,51.07,139.565,51.07z" data-original="#585757" class="" style="fill:#113BBF" data-old_color="#143DBD"/>
			</g>
			<g>
				<path fill="#585757" d="M139.565,56.17h-1.491c-0.417,0-0.756-0.338-0.756-0.756s0.339-0.756,0.756-0.756h1.491      c0.417,0,0.756,0.338,0.756,0.756S139.982,56.17,139.565,56.17z" data-original="#585757" class="" style="fill:#113BBF" data-old_color="#143DBD"/>
			</g>
			<g>
				<path fill="#585757" d="M139.565,61.216h-1.491c-0.417,0-0.756-0.339-0.756-0.756c0-0.418,0.339-0.756,0.756-0.756h1.491      c0.417,0,0.756,0.338,0.756,0.756C140.321,60.877,139.982,61.216,139.565,61.216z" data-original="#585757" class="" style="fill:#113BBF" data-old_color="#143DBD"/>
			</g>
			<g>
				<path fill="#585757" d="M139.565,66.316h-1.491c-0.417,0-0.756-0.338-0.756-0.756s0.339-0.756,0.756-0.756h1.491      c0.417,0,0.756,0.338,0.756,0.756S139.982,66.316,139.565,66.316z" data-original="#585757" class="" style="fill:#113BBF" data-old_color="#143DBD"/>
			</g>
			<g>
				<path fill="#585757" d="M139.565,71.661h-1.491c-0.417,0-0.756-0.338-0.756-0.755s0.339-0.756,0.756-0.756h1.491      c0.417,0,0.756,0.339,0.756,0.756S139.982,71.661,139.565,71.661z" data-original="#585757" class="" style="fill:#113BBF" data-old_color="#143DBD"/>
			</g>
			<g>
				<path fill="#585757" d="M139.565,76.762h-1.491c-0.417,0-0.756-0.339-0.756-0.756s0.339-0.756,0.756-0.756h1.491      c0.417,0,0.756,0.339,0.756,0.756S139.982,76.762,139.565,76.762z" data-original="#585757" class="" style="fill:#113BBF" data-old_color="#143DBD"/>
			</g>
			<g>
				<path fill="#585757" d="M180.97,56.17h-13.646c-0.417,0-0.755-0.338-0.755-0.756s0.338-0.756,0.755-0.756h13.646      c0.418,0,0.756,0.338,0.756,0.756S181.388,56.17,180.97,56.17z" data-original="#585757" class="" style="fill:#113BBF" data-old_color="#143DBD"/>
			</g>
		</g>
		<g>
			<g>
				<rect x="101.631" y="128.007" fill="#FFFFFF" width="80.056" height="30.714" data-original="#FFFFFF" class=""/>
				<path fill="#585757" d="M181.686,159.477h-80.056c-0.417,0-0.756-0.338-0.756-0.756v-30.714c0-0.418,0.339-0.756,0.756-0.756      h80.056c0.417,0,0.756,0.338,0.756,0.756v30.714C182.441,159.139,182.103,159.477,181.686,159.477z M102.387,157.965h78.543      v-29.201h-78.543V157.965z" data-original="#585757" class="" style="fill:#113BBF" data-old_color="#143DBD"/>
			</g>
			<g>
				<rect x="105.36" y="131.27" fill="#FFFFFF" width="6.151" height="6.15" data-original="#FFFFFF" class=""/>
				<path fill="#585757" d="M111.512,138.176h-6.152c-0.418,0-0.756-0.338-0.756-0.756v-6.15c0-0.418,0.338-0.756,0.756-0.756h6.151      c0.418,0,0.756,0.338,0.756,0.756v6.15C112.268,137.838,111.93,138.176,111.512,138.176z M106.116,136.664h4.64v-4.641h-4.64      V136.664z" data-original="#585757" class="" style="fill:#113BBF" data-old_color="#143DBD"/>
			</g>
			<g>
				<rect x="171.628" y="131.27" fill="#FFFFFF" width="6.15" height="6.15" data-original="#FFFFFF" class=""/>
				<path fill="#585757" d="M177.778,138.176h-6.15c-0.418,0-0.756-0.338-0.756-0.756v-6.15c0-0.418,0.338-0.756,0.756-0.756h6.15      c0.418,0,0.756,0.338,0.756,0.756v6.15C178.534,137.838,178.196,138.176,177.778,138.176z M172.384,136.664h4.64v-4.641h-4.64      V136.664z" data-original="#585757" class="" style="fill:#113BBF" data-old_color="#143DBD"/>
			</g>
			<g>
				<rect x="143.228" y="131.27" fill="#FFFFFF" width="6.15" height="6.15" data-original="#FFFFFF" class=""/>
				<path fill="#585757" d="M149.379,138.176h-6.15c-0.417,0-0.756-0.338-0.756-0.756v-6.15c0-0.418,0.339-0.756,0.756-0.756h6.15      c0.417,0,0.756,0.338,0.756,0.756v6.15C150.135,137.838,149.796,138.176,149.379,138.176z M143.983,136.664h4.64v-4.641h-4.64      V136.664z" data-original="#585757" class="" style="fill:#113BBF" data-old_color="#143DBD"/>
			</g>
			<g>
				<rect x="114.827" y="131.27" fill="#FFFFFF" width="6.151" height="6.15" data-original="#FFFFFF" class=""/>
				<path fill="#585757" d="M120.979,138.176h-6.151c-0.418,0-0.756-0.338-0.756-0.756v-6.15c0-0.418,0.338-0.756,0.756-0.756h6.151      c0.417,0,0.756,0.338,0.756,0.756v6.15C121.734,137.838,121.396,138.176,120.979,138.176z M115.583,136.664h4.641v-4.641h-4.641      V136.664z" data-original="#585757" class="" style="fill:#113BBF" data-old_color="#143DBD"/>
			</g>
			<g>
				<rect x="124.294" y="131.27" fill="#FFFFFF" width="6.15" height="6.15" data-original="#FFFFFF" class=""/>
				<path fill="#585757" d="M130.444,138.176h-6.15c-0.418,0-0.756-0.338-0.756-0.756v-6.15c0-0.418,0.338-0.756,0.756-0.756h6.15      c0.418,0,0.756,0.338,0.756,0.756v6.15C131.2,137.838,130.862,138.176,130.444,138.176z M125.05,136.664h4.64v-4.641h-4.64      V136.664z" data-original="#585757" class="" style="fill:#113BBF" data-old_color="#143DBD"/>
			</g>
			<g>
				<rect x="133.761" y="131.27" fill="#FFFFFF" width="6.15" height="6.15" data-original="#FFFFFF" class=""/>
				<path fill="#585757" d="M139.912,138.176h-6.15c-0.417,0-0.757-0.338-0.757-0.756v-6.15c0-0.418,0.34-0.756,0.757-0.756h6.15      c0.417,0,0.756,0.338,0.756,0.756v6.15C140.668,137.838,140.329,138.176,139.912,138.176z M134.517,136.664h4.64v-4.641h-4.64      V136.664z" data-original="#585757" class="" style="fill:#113BBF" data-old_color="#143DBD"/>
			</g>
			<g>
				<rect x="152.694" y="131.27" fill="#FFFFFF" width="6.151" height="6.15" data-original="#FFFFFF" class=""/>
				<path fill="#585757" d="M158.846,138.176h-6.151c-0.418,0-0.756-0.338-0.756-0.756v-6.15c0-0.418,0.338-0.756,0.756-0.756h6.151      c0.418,0,0.756,0.338,0.756,0.756v6.15C159.602,137.838,159.264,138.176,158.846,138.176z M153.45,136.664h4.64v-4.641h-4.64      V136.664z" data-original="#585757" class="" style="fill:#113BBF" data-old_color="#143DBD"/>
			</g>
			<g>
				<rect x="162.161" y="131.27" fill="#FFFFFF" width="6.151" height="6.15" data-original="#FFFFFF" class=""/>
				<path fill="#585757" d="M168.312,138.176h-6.151c-0.418,0-0.756-0.338-0.756-0.756v-6.15c0-0.418,0.338-0.756,0.756-0.756h6.151      c0.417,0,0.756,0.338,0.756,0.756v6.15C169.068,137.838,168.729,138.176,168.312,138.176z M162.917,136.664h4.641v-4.641h-4.641      V136.664z" data-original="#585757" class="" style="fill:#113BBF" data-old_color="#143DBD"/>
			</g>
			<g>
				<rect x="105.36" y="140.352" fill="#FFFFFF" width="6.151" height="6.15" data-original="#FFFFFF" class=""/>
				<path fill="#585757" d="M111.512,147.258h-6.152c-0.418,0-0.756-0.339-0.756-0.756v-6.15c0-0.418,0.338-0.757,0.756-0.757h6.151      c0.418,0,0.756,0.339,0.756,0.757v6.15C112.268,146.919,111.93,147.258,111.512,147.258z M106.116,145.746h4.64v-4.641h-4.64      V145.746z" data-original="#585757" class="" style="fill:#113BBF" data-old_color="#143DBD"/>
			</g>
			<g>
				<rect x="171.628" y="140.352" fill="#FFFFFF" width="6.15" height="6.15" data-original="#FFFFFF" class=""/>
				<path fill="#585757" d="M177.778,147.258h-6.15c-0.418,0-0.756-0.339-0.756-0.756v-6.15c0-0.418,0.338-0.757,0.756-0.757h6.15      c0.418,0,0.756,0.339,0.756,0.757v6.15C178.534,146.919,178.196,147.258,177.778,147.258z M172.384,145.746h4.64v-4.641h-4.64      V145.746z" data-original="#585757" class="" style="fill:#113BBF" data-old_color="#143DBD"/>
			</g>
			<g>
				<rect x="143.228" y="140.352" fill="#FFFFFF" width="6.15" height="6.15" data-original="#FFFFFF" class=""/>
				<path fill="#585757" d="M149.379,147.258h-6.15c-0.417,0-0.756-0.339-0.756-0.756v-6.15c0-0.418,0.339-0.757,0.756-0.757h6.15      c0.417,0,0.756,0.339,0.756,0.757v6.15C150.135,146.919,149.796,147.258,149.379,147.258z M143.983,145.746h4.64v-4.641h-4.64      V145.746z" data-original="#585757" class="" style="fill:#113BBF" data-old_color="#143DBD"/>
			</g>
			<g>
				<rect x="114.827" y="140.352" fill="#FFFFFF" width="6.151" height="6.15" data-original="#FFFFFF" class=""/>
				<path fill="#585757" d="M120.979,147.258h-6.151c-0.418,0-0.756-0.339-0.756-0.756v-6.15c0-0.418,0.338-0.757,0.756-0.757h6.151      c0.417,0,0.756,0.339,0.756,0.757v6.15C121.734,146.919,121.396,147.258,120.979,147.258z M115.583,145.746h4.641v-4.641h-4.641      V145.746z" data-original="#585757" class="" style="fill:#113BBF" data-old_color="#143DBD"/>
			</g>
			<g>
				<rect x="124.294" y="140.352" fill="#FFFFFF" width="6.15" height="6.15" data-original="#FFFFFF" class=""/>
				<path fill="#585757" d="M130.444,147.258h-6.15c-0.418,0-0.756-0.339-0.756-0.756v-6.15c0-0.418,0.338-0.757,0.756-0.757h6.15      c0.418,0,0.756,0.339,0.756,0.757v6.15C131.2,146.919,130.862,147.258,130.444,147.258z M125.05,145.746h4.64v-4.641h-4.64      V145.746z" data-original="#585757" class="" style="fill:#113BBF" data-old_color="#143DBD"/>
			</g>
			<g>
				<rect x="133.761" y="140.352" fill="#FFFFFF" width="6.15" height="6.15" data-original="#FFFFFF" class=""/>
				<path fill="#585757" d="M139.912,147.258h-6.15c-0.417,0-0.757-0.339-0.757-0.756v-6.15c0-0.418,0.34-0.757,0.757-0.757h6.15      c0.417,0,0.756,0.339,0.756,0.757v6.15C140.668,146.919,140.329,147.258,139.912,147.258z M134.517,145.746h4.64v-4.641h-4.64      V145.746z" data-original="#585757" class="" style="fill:#113BBF" data-old_color="#143DBD"/>
			</g>
			<g>
				<rect x="152.694" y="140.352" fill="#FFFFFF" width="6.151" height="6.15" data-original="#FFFFFF" class=""/>
				<path fill="#585757" d="M158.846,147.258h-6.151c-0.418,0-0.756-0.339-0.756-0.756v-6.15c0-0.418,0.338-0.757,0.756-0.757h6.151      c0.418,0,0.756,0.339,0.756,0.757v6.15C159.602,146.919,159.264,147.258,158.846,147.258z M153.45,145.746h4.64v-4.641h-4.64      V145.746z" data-original="#585757" class="" style="fill:#113BBF" data-old_color="#143DBD"/>
			</g>
			<g>
				<rect x="162.161" y="140.352" fill="#FFFFFF" width="6.151" height="6.15" data-original="#FFFFFF" class=""/>
				<path fill="#585757" d="M168.312,147.258h-6.151c-0.418,0-0.756-0.339-0.756-0.756v-6.15c0-0.418,0.338-0.757,0.756-0.757h6.151      c0.417,0,0.756,0.339,0.756,0.757v6.15C169.068,146.919,168.729,147.258,168.312,147.258z M162.917,145.746h4.641v-4.641h-4.641      V145.746z" data-original="#585757" class="" style="fill:#113BBF" data-old_color="#143DBD"/>
			</g>
			<g>
				<rect x="105.36" y="149.434" fill="#FFFFFF" width="6.151" height="6.15" data-original="#FFFFFF" class=""/>
				<path fill="#585757" d="M111.512,156.34h-6.152c-0.418,0-0.756-0.339-0.756-0.756v-6.15c0-0.418,0.338-0.757,0.756-0.757h6.151      c0.418,0,0.756,0.339,0.756,0.757v6.15C112.268,156.001,111.93,156.34,111.512,156.34z M106.116,154.828h4.64v-4.641h-4.64      V154.828z" data-original="#585757" class="" style="fill:#113BBF" data-old_color="#143DBD"/>
			</g>
			<g>
				<rect x="114.827" y="149.434" fill="#FFFFFF" width="34.552" height="6.15" data-original="#FFFFFF" class=""/>
				<path fill="#585757" d="M149.379,156.34h-34.552c-0.418,0-0.756-0.339-0.756-0.756v-6.15c0-0.418,0.338-0.757,0.756-0.757      h34.552c0.417,0,0.756,0.339,0.756,0.757v6.15C150.135,156.001,149.796,156.34,149.379,156.34z M115.583,154.828h33.04v-4.641      h-33.04V154.828z" data-original="#585757" class="" style="fill:#113BBF" data-old_color="#143DBD"/>
			</g>
			<g>
				<rect x="171.628" y="149.434" fill="#FFFFFF" width="6.15" height="6.15" data-original="#FFFFFF" class=""/>
				<path fill="#585757" d="M177.778,156.34h-6.15c-0.418,0-0.756-0.339-0.756-0.756v-6.15c0-0.418,0.338-0.757,0.756-0.757h6.15      c0.418,0,0.756,0.339,0.756,0.757v6.15C178.534,156.001,178.196,156.34,177.778,156.34z M172.384,154.828h4.64v-4.641h-4.64      V154.828z" data-original="#585757" class="" style="fill:#113BBF" data-old_color="#143DBD"/>
			</g>
			<g>
				<rect x="152.694" y="149.434" fill="#FFFFFF" width="6.151" height="6.15" data-original="#FFFFFF" class=""/>
				<path fill="#585757" d="M158.846,156.34h-6.151c-0.418,0-0.756-0.339-0.756-0.756v-6.15c0-0.418,0.338-0.757,0.756-0.757h6.151      c0.418,0,0.756,0.339,0.756,0.757v6.15C159.602,156.001,159.264,156.34,158.846,156.34z M153.45,154.828h4.64v-4.641h-4.64      V154.828z" data-original="#585757" class="" style="fill:#113BBF" data-old_color="#143DBD"/>
			</g>
			<g>
				<rect x="162.161" y="149.434" fill="#FFFFFF" width="6.151" height="6.15" data-original="#FFFFFF" class=""/>
				<path fill="#585757" d="M168.312,156.34h-6.151c-0.418,0-0.756-0.339-0.756-0.756v-6.15c0-0.418,0.338-0.757,0.756-0.757h6.151      c0.417,0,0.756,0.339,0.756,0.757v6.15C169.068,156.001,168.729,156.34,168.312,156.34z M162.917,154.828h4.641v-4.641h-4.641      V154.828z" data-original="#585757" class="" style="fill:#113BBF" data-old_color="#143DBD"/>
			</g>
		</g>
		<g>
			<path fill="#585757" d="M250.958,147.336C250.957,147.336,250.957,147.336,250.958,147.336l-1.622-0.001     c-0.751,0-1.471-0.001-2.161-0.004c-0.627-0.004-1.132-0.515-1.128-1.14s0.511-1.129,1.135-1.129c0.002,0,0.004,0,0.006,0     c0.688,0.004,1.402,0.006,2.147,0.006h1.624c0.626,0,1.134,0.509,1.133,1.135S251.584,147.336,250.958,147.336z M255.49,147.325     c-0.621,0-1.128-0.501-1.134-1.124c-0.004-0.625,0.499-1.139,1.125-1.145c1.546-0.014,2.73-0.039,3.73-0.086     c0.626-0.023,1.156,0.455,1.186,1.08c0.028,0.625-0.455,1.156-1.081,1.186c-1.028,0.047-2.24,0.074-3.815,0.089     C255.497,147.325,255.493,147.325,255.49,147.325z M242.651,147.255c-0.014,0-0.025-0.001-0.039-0.001     c-1.509-0.05-2.766-0.127-3.843-0.236c-0.623-0.062-1.077-0.619-1.015-1.242s0.626-1.075,1.241-1.012     c1.026,0.103,2.233,0.176,3.69,0.226c0.626,0.021,1.115,0.545,1.096,1.171C243.763,146.771,243.259,147.255,242.651,147.255z      M263.747,146.68c-0.497,0-0.953-0.332-1.092-0.834c-0.166-0.604,0.188-1.228,0.792-1.395c1.446-0.398,1.897-0.992,2.171-1.573     c0.266-0.565,0.942-0.81,1.509-0.544c0.567,0.266,0.812,0.941,0.544,1.508c-0.659,1.408-1.812,2.297-3.622,2.795     C263.949,146.665,263.847,146.68,263.747,146.68z M234.478,146.068c-0.147,0-0.298-0.027-0.442-0.09     c-1.544-0.655-2.611-1.66-3.266-3.067c-0.264-0.567-0.018-1.241,0.552-1.506c0.567-0.263,1.242-0.017,1.506,0.553     c0.417,0.897,1.062,1.496,2.095,1.935c0.576,0.244,0.846,0.909,0.601,1.486C235.338,145.811,234.919,146.068,234.478,146.068z      M188.939,146.009c-0.626,0-1.134-0.507-1.134-1.134c0-0.626,0.508-1.134,1.134-1.134h0.721c0.002,0,0.003,0,0.005,0     c0.624,0,1.131,0.505,1.133,1.129c0.002,0.627-0.505,1.136-1.13,1.138L188.939,146.009z M194.193,145.927     c-0.604,0-1.107-0.478-1.132-1.088c-0.025-0.626,0.461-1.153,1.086-1.179c1.477-0.061,2.669-0.158,3.644-0.301     c0.614-0.094,1.195,0.34,1.285,0.959c0.091,0.619-0.339,1.195-0.959,1.285c-1.054,0.152-2.32,0.258-3.877,0.321     C194.226,145.926,194.21,145.927,194.193,145.927z M202.136,144.068c-0.314,0-0.63-0.131-0.854-0.387     c-0.413-0.471-0.366-1.188,0.105-1.6c0.63-0.553,1.004-1.371,1.215-2.655c0.102-0.616,0.688-1.032,1.302-0.936     c0.618,0.102,1.037,0.685,0.936,1.303c-0.297,1.813-0.919,3.082-1.959,3.993C202.667,143.977,202.401,144.068,202.136,144.068z      M267.347,140.055c-0.011,0-0.021,0-0.03-0.001c-0.626-0.017-1.119-0.536-1.104-1.163c0.022-0.857,0.023-1.818,0.023-2.896     l-0.002-0.847c-0.002-0.627,0.503-1.137,1.13-1.14c0.001,0,0.003,0,0.004,0c0.624,0,1.132,0.505,1.134,1.13l0.002,0.854     c0,1.1-0.001,2.08-0.023,2.956C268.464,139.564,267.959,140.055,267.347,140.055z M230.954,139.15c-0.6,0-1.1-0.471-1.132-1.074     c-0.062-1.195-0.073-2.549-0.074-3.834c-0.002-0.626,0.506-1.135,1.132-1.135h0.002c0.625,0,1.133,0.507,1.135,1.132     c0.001,1.255,0.011,2.573,0.07,3.718c0.033,0.625-0.446,1.158-1.071,1.191C230.994,139.15,230.974,139.15,230.954,139.15z      M203.985,136.227c-0.004,0-0.006,0-0.008,0c-0.626-0.004-1.131-0.516-1.126-1.142c0.004-0.595,0.004-1.228,0.004-1.896     l-0.004-1.871c-0.003-0.625,0.503-1.135,1.129-1.139c0.001,0,0.003,0,0.005,0c0.624,0,1.13,0.506,1.133,1.131l0.005,1.879     c0,0.675,0,1.311-0.005,1.91C205.114,135.725,204.607,136.227,203.985,136.227z M267.193,131.752     c-0.574,0-1.066-0.436-1.126-1.018c-0.151-1.459-0.424-2.416-0.862-3.012c-0.37-0.505-0.262-1.215,0.243-1.586     c0.505-0.367,1.215-0.261,1.586,0.244c0.695,0.948,1.092,2.219,1.288,4.121c0.062,0.623-0.39,1.18-1.013,1.243     C267.271,131.75,267.231,131.752,267.193,131.752z M230.84,130.843c-0.609,0-1.113-0.483-1.133-1.099     c-0.048-1.531-0.147-2.67-0.317-3.585c-0.114-0.615,0.291-1.207,0.906-1.321c0.618-0.115,1.208,0.292,1.321,0.907     c0.191,1.032,0.305,2.278,0.356,3.928c0.02,0.626-0.473,1.149-1.099,1.17C230.864,130.843,230.853,130.843,230.84,130.843z      M204.058,127.917c-0.025,0-0.052-0.001-0.076-0.003c-0.625-0.041-1.099-0.58-1.058-1.206c0.12-1.826,0.416-3.094,0.96-4.11     c0.296-0.552,0.981-0.76,1.534-0.465s0.761,0.982,0.465,1.534c-0.385,0.718-0.599,1.702-0.696,3.19     C205.148,127.457,204.649,127.917,204.058,127.917z M262.106,126.43c-0.041,0-0.083-0.003-0.125-0.007     c-0.893-0.098-2.021-0.147-3.658-0.165c-0.626-0.006-1.129-0.519-1.122-1.145c0.006-0.627,0.525-1.123,1.146-1.122     c1.717,0.017,2.912,0.071,3.883,0.178c0.622,0.067,1.07,0.629,1.003,1.251C263.168,126.001,262.677,126.43,262.106,126.43z      M253.805,126.188c-0.021,0-0.043,0-0.064-0.002c-1.685-0.094-2.957-0.297-4.007-0.639c-0.595-0.193-0.92-0.834-0.728-1.43     c0.195-0.596,0.836-0.92,1.431-0.727c0.856,0.278,1.945,0.447,3.431,0.53c0.625,0.034,1.104,0.569,1.068,1.194     C254.901,125.72,254.401,126.188,253.805,126.188z M228.461,123.166c-0.251,0-0.504-0.082-0.713-0.254     c-0.68-0.551-1.646-0.955-2.955-1.235c-0.612-0.131-1.003-0.731-0.872-1.346c0.131-0.611,0.733-1.003,1.347-0.871     c1.668,0.356,2.945,0.91,3.909,1.692c0.485,0.395,0.561,1.108,0.165,1.595C229.118,123.023,228.791,123.166,228.461,123.166z      M246.854,122.675c-0.444,0-0.865-0.264-1.047-0.698c-0.435-1.043-0.707-2.318-0.86-4.011c-0.058-0.624,0.402-1.175,1.026-1.231     c0.617-0.06,1.175,0.401,1.229,1.025c0.132,1.438,0.359,2.532,0.697,3.346c0.24,0.58-0.034,1.242-0.612,1.482     C247.146,122.646,246.999,122.675,246.854,122.675z M208.499,121.798c-0.506,0-0.966-0.34-1.098-0.853     c-0.155-0.605,0.209-1.226,0.814-1.379c1.055-0.271,2.341-0.457,3.936-0.568c0.624-0.048,1.166,0.427,1.209,1.052     c0.044,0.624-0.427,1.166-1.052,1.209c-1.455,0.103-2.608,0.267-3.527,0.502C208.687,121.786,208.592,121.798,208.499,121.798z      M220.534,121.198c-0.017,0-0.034,0-0.053-0.001c-1.021-0.047-2.168-0.069-3.505-0.069h-0.213c-0.001,0-0.005,0-0.007,0     c-0.623,0-1.13-0.504-1.134-1.128c-0.003-0.626,0.502-1.137,1.128-1.141h0.226c1.373,0,2.554,0.023,3.608,0.072     c0.626,0.028,1.109,0.561,1.08,1.186C221.638,120.725,221.137,121.198,220.534,121.198z M245.921,114.469     c-0.002,0-0.002,0-0.002,0c-0.627-0.001-1.134-0.509-1.132-1.136c0.001-1.155,0.021-2.419,0.055-3.803     c0.015-0.625,0.513-1.14,1.158-1.107c0.626,0.015,1.122,0.533,1.107,1.159c-0.031,1.366-0.052,2.615-0.053,3.755     C247.053,113.963,246.545,114.469,245.921,114.469z M245.159,106.285c-0.421,0-0.825-0.235-1.021-0.641     c-0.46-0.947-1.154-1.768-2.062-2.436c-0.504-0.37-0.613-1.079-0.243-1.584c0.37-0.506,1.081-0.614,1.585-0.243     c1.21,0.888,2.139,1.99,2.762,3.274c0.272,0.562,0.036,1.24-0.526,1.515C245.494,106.248,245.326,106.285,245.159,106.285z      M238.625,101.604c-0.088,0-0.177-0.011-0.266-0.033c-1.248-0.299-2.188-0.329-2.197-0.329l-1.281,0.021     c-0.609-0.005-1.141-0.49-1.149-1.115c-0.01-0.627,0.49-1.143,1.116-1.151l1.329-0.021c0.096,0,1.219,0.034,2.713,0.394     c0.606,0.146,0.982,0.758,0.837,1.366C239.602,101.253,239.137,101.604,238.625,101.604z M226.551,101.389     c-0.617,0-1.122-0.496-1.133-1.117c-0.01-0.627,0.49-1.142,1.116-1.15l3.778-0.059c0.643,0.011,1.142,0.492,1.149,1.117     c0.011,0.625-0.488,1.141-1.114,1.15l-3.779,0.059C226.562,101.389,226.557,101.389,226.551,101.389z" data-original="#585757" class="" style="fill:#113BBF" data-old_color="#143DBD"/>
		</g>
		<g>
			<circle fill="#585757" cx="188.939" cy="144.875" r="3.014" data-original="#585757" class="" style="fill:#113BBF" data-old_color="#143DBD"/>
		</g>
		<g>
			<circle fill="#585757" cx="224.521" cy="100.254" r="3.014" data-original="#585757" class="" style="fill:#113BBF" data-old_color="#143DBD"/>
		</g>
		<g>
			<path fill="#585757" d="M96.493,137.207c-0.626,0-1.134-0.508-1.134-1.134v-3.779c0-0.626,0.508-1.134,1.134-1.134     c0.627,0,1.134,0.508,1.134,1.134v3.779C97.627,136.699,97.12,137.207,96.493,137.207z M96.493,128.895     c-0.626,0-1.134-0.509-1.134-1.135v-3.779c0-0.627,0.508-1.133,1.134-1.133c0.627,0,1.134,0.506,1.134,1.133v3.779     C97.627,128.386,97.12,128.895,96.493,128.895z M109.619,123.094h-2.297c-0.626,0-1.134-0.507-1.134-1.134     c0-0.625,0.508-1.133,1.134-1.133h2.297c0.626,0,1.134,0.508,1.134,1.133C110.753,122.587,110.245,123.094,109.619,123.094z      M102.788,123.094h-3.779c-0.626,0-1.134-0.507-1.134-1.134c0-0.625,0.508-1.133,1.134-1.133h3.779     c0.625,0,1.133,0.508,1.133,1.133C103.921,122.587,103.413,123.094,102.788,123.094z" data-original="#585757" class="" style="fill:#113BBF" data-old_color="#143DBD"/>
		</g>
		<g>
			<path fill="#585757" d="M96.493,123.094c-0.289,0-0.58-0.109-0.802-0.332l-2.686-2.685c-0.442-0.443-0.442-1.161,0-1.604     c0.442-0.441,1.16-0.441,1.604,0l2.686,2.687c0.442,0.442,0.442,1.161,0,1.603C97.073,122.982,96.784,123.094,96.493,123.094z      M90.593,117.193c-0.288,0-0.579-0.11-0.801-0.332l-2.678-2.678c-0.443-0.441-0.443-1.16,0-1.604c0.442-0.443,1.16-0.443,1.603,0     l2.679,2.678c0.442,0.442,0.442,1.161,0,1.604C91.174,117.083,90.884,117.193,90.593,117.193z M84.703,111.305     c-0.29,0-0.58-0.111-0.802-0.332l-2.679-2.68c-0.442-0.443-0.442-1.161,0-1.604s1.159-0.442,1.604,0l2.678,2.679     c0.443,0.442,0.443,1.161,0,1.604C85.283,111.191,84.993,111.305,84.703,111.305z M80.2,104.836     c-0.626,0-1.134-0.507-1.134-1.133v-3.779c0-0.627,0.508-1.134,1.134-1.134c0.625,0,1.133,0.507,1.133,1.134v3.779     C81.333,104.329,80.825,104.836,80.2,104.836z" data-original="#585757" class="" style="fill:#113BBF" data-old_color="#143DBD"/>
		</g>
		<g>
			<path fill="#585757" d="M83.854,97.23h-7.876c-0.396,0-0.765-0.207-0.971-0.547c-0.204-0.34-0.218-0.761-0.034-1.111l4.123-7.903     c0.195-0.375,0.584-0.608,1.005-0.608c0.008,0,0.015,0,0.021,0c0.431,0.008,0.817,0.258,1.002,0.646l3.753,7.902     c0.166,0.352,0.143,0.764-0.065,1.093S84.242,97.23,83.854,97.23z M77.849,94.963h4.211l-2.006-4.229L77.849,94.963z" data-original="#585757" class="" style="fill:#113BBF" data-old_color="#143DBD"/>
		</g>
		<g>
			<path fill="#585757" d="M298.062,107.785c-0.611,0-1.114-0.485-1.133-1.1c-0.02-0.627,0.475-1.148,1.101-1.168l9.622-0.283     c0.625-0.014,1.146,0.476,1.167,1.102c0.018,0.626-0.475,1.146-1.102,1.167l-9.621,0.282     C298.085,107.785,298.073,107.785,298.062,107.785z" data-original="#585757" class="" style="fill:#113BBF" data-old_color="#143DBD"/>
		</g>
		<g>
			<path fill="#F4B845" d="M307.686,112.477c-0.196,0-0.394-0.052-0.568-0.153c-0.35-0.202-0.564-0.576-0.564-0.98v-9.944     c0-0.414,0.225-0.793,0.586-0.992c0.36-0.199,0.803-0.188,1.15,0.033l8.265,5.207c0.338,0.211,0.538,0.584,0.53,0.981     c-0.009,0.397-0.225,0.763-0.569,0.96l-8.266,4.738C308.075,112.425,307.88,112.477,307.686,112.477z M308.819,103.451v5.934     l4.932-2.826L308.819,103.451z" data-original="#F4B845"/>
		</g>
		<g>
			<path fill="#585757" d="M288.58,98.602h-7.033c-0.625,0-1.133-0.509-1.133-1.135s0.508-1.134,1.133-1.134h7.033     c0.625,0,1.133,0.508,1.133,1.134S289.205,98.602,288.58,98.602z" data-original="#585757" class="" style="fill:#113BBF" data-old_color="#143DBD"/>
		</g>
		<g>
			<path fill="#585757" d="M288.58,102.234c-0.196,0-0.393-0.053-0.567-0.153c-0.352-0.202-0.565-0.576-0.565-0.979v-7.27     c0-0.412,0.224-0.792,0.586-0.992c0.36-0.199,0.803-0.188,1.151,0.033l6.039,3.807c0.338,0.211,0.537,0.584,0.528,0.982     c-0.008,0.396-0.224,0.761-0.568,0.959l-6.039,3.463C288.969,102.184,288.773,102.234,288.58,102.234z M289.713,95.887v3.258     l2.706-1.553L289.713,95.887z" data-original="#585757" class="" style="fill:#113BBF" data-old_color="#143DBD"/>
		</g>
		<g>
			<path fill="#585757" d="M285.063,114.721H271c-0.626,0-1.134-0.507-1.134-1.134s0.508-1.134,1.134-1.134h14.063     c0.626,0,1.134,0.507,1.134,1.134S285.689,114.721,285.063,114.721z" data-original="#585757" class="" style="fill:#113BBF" data-old_color="#143DBD"/>
		</g>
		<g>
			<path fill="#585757" d="M285.063,118.354c-0.196,0-0.394-0.051-0.568-0.152c-0.35-0.203-0.564-0.576-0.564-0.98v-7.268     c0-0.413,0.225-0.793,0.586-0.993c0.36-0.198,0.804-0.187,1.15,0.034l6.041,3.805c0.336,0.212,0.537,0.585,0.528,0.982     c-0.008,0.398-0.226,0.763-0.569,0.96l-6.04,3.463C285.453,118.305,285.259,118.354,285.063,118.354z M286.197,112.007v3.257     l2.706-1.552L286.197,112.007z" data-original="#585757" class="" style="fill:#113BBF" data-old_color="#143DBD"/>
		</g>
		<g>
			<path fill="#585757" d="M80.925,38.834v-5.882c-0.359,0-0.65-0.292-0.65-0.662c0-0.358,0.291-0.649,0.65-0.649h0.659     c0.359,0,0.641,0.291,0.641,0.649v6.544c0,0.358-0.291,0.649-0.649,0.649C81.215,39.484,80.925,39.193,80.925,38.834z" data-original="#585757" class="" style="fill:#113BBF" data-old_color="#143DBD"/>
		</g>
		<g>
			<path fill="#585757" d="M90.496,30.259v1.287c0,1.883-1.097,3.235-2.582,3.235c-1.507,0-2.583-1.375-2.583-3.235v-1.287     c0-1.862,1.144-3.236,2.583-3.236c0.698,0,1.374,0.344,1.852,0.931C90.242,28.541,90.496,29.338,90.496,30.259z M89.21,30.259     c0-0.942-0.454-1.94-1.296-1.94c-0.843,0-1.296,0.998-1.296,1.94v1.287c0,1.107,0.498,1.938,1.296,1.938     c0.775,0,1.296-0.809,1.296-1.938V30.259z" data-original="#585757" class="" style="fill:#113BBF" data-old_color="#143DBD"/>
		</g>
		<g>
			<path fill="#585757" d="M96.128,23.482l0.312,0.978c0.456,1.433-0.049,2.726-1.179,3.086c-1.146,0.367-2.297-0.418-2.749-1.832     L92.2,24.735c-0.452-1.416,0.082-2.737,1.179-3.087c0.53-0.169,1.128-0.072,1.634,0.259     C95.518,22.238,95.904,22.783,96.128,23.482z M95.15,23.795c-0.229-0.717-0.815-1.365-1.456-1.161     c-0.641,0.205-0.744,1.073-0.515,1.79l0.312,0.978c0.269,0.843,0.849,1.354,1.456,1.16c0.59-0.189,0.789-0.93,0.515-1.789     L95.15,23.795z" data-original="#585757" class="" style="fill:#113BBF" data-old_color="#143DBD"/>
		</g>
		<g>
			<path fill="#585757" d="M102.956,16.995l-0.232,1.001c-0.342,1.463-1.438,2.316-2.593,2.047     c-1.172-0.274-1.759-1.536-1.423-2.983l0.232-1c0.339-1.446,1.475-2.309,2.595-2.048c0.543,0.127,1.005,0.517,1.271,1.06     C103.069,15.614,103.123,16.28,102.956,16.995z M101.957,16.762c0.17-0.732-0.003-1.59-0.656-1.743     c-0.654-0.152-1.188,0.541-1.358,1.272l-0.233,1c-0.2,0.861,0.036,1.598,0.657,1.742c0.603,0.141,1.153-0.394,1.358-1.272     L101.957,16.762z" data-original="#585757" class="" style="fill:#113BBF" data-old_color="#143DBD"/>
		</g>
		<g>
			<path fill="#585757" d="M84.448,25.288l-0.519,0.888c-0.758,1.297-2.059,1.788-3.08,1.19c-1.04-0.606-1.229-1.985-0.479-3.268     l0.519-0.887c0.749-1.284,2.089-1.771,3.082-1.192c0.48,0.281,0.809,0.791,0.9,1.387C84.963,24.002,84.818,24.654,84.448,25.288z      M83.561,24.771c0.38-0.649,0.469-1.52-0.112-1.858s-1.296,0.166-1.674,0.815l-0.519,0.887c-0.445,0.763-0.438,1.538,0.113,1.858     c0.534,0.312,1.219-0.037,1.674-0.815L83.561,24.771z" data-original="#585757" class="" style="fill:#113BBF" data-old_color="#143DBD"/>
		</g>
		<g>
			<path fill="#585757" d="M112.487,27.498l-0.92,0.459c-1.344,0.671-2.7,0.37-3.229-0.691c-0.538-1.076,0.061-2.333,1.389-2.997     l0.92-0.459c1.328-0.664,2.717-0.339,3.229,0.69c0.25,0.499,0.244,1.104-0.005,1.655     C113.622,26.704,113.145,27.17,112.487,27.498z M112.028,26.58c0.673-0.337,1.224-1.017,0.923-1.617     c-0.302-0.602-1.175-0.571-1.848-0.234l-0.918,0.458c-0.791,0.395-1.207,1.047-0.922,1.617c0.274,0.554,1.038,0.637,1.847,0.235     L112.028,26.58z" data-original="#585757" class="" style="fill:#113BBF" data-old_color="#143DBD"/>
		</g>
		<g>
			<path fill="#585757" d="M124.47,26.528l-0.736-0.716c-1.077-1.048-1.24-2.428-0.414-3.277c0.839-0.863,2.223-0.713,3.287,0.321     l0.737,0.717c1.064,1.035,1.216,2.453,0.414,3.278c-0.389,0.398-0.962,0.593-1.562,0.54     C125.594,27.337,124.996,27.04,124.47,26.528z M125.186,25.791c0.539,0.524,1.361,0.82,1.831,0.338     c0.469-0.482,0.15-1.297-0.39-1.821l-0.734-0.716c-0.636-0.616-1.388-0.794-1.831-0.337c-0.434,0.444-0.258,1.192,0.388,1.821     L125.186,25.791z" data-original="#585757" class="" style="fill:#113BBF" data-old_color="#143DBD"/>
		</g>
		<g>
			<path fill="#585757" d="M97.162,36.474v1.286c0,1.884-1.099,3.235-2.583,3.235c-1.508,0-2.582-1.375-2.582-3.235v-1.286     c0-1.861,1.142-3.236,2.582-3.236c0.698,0,1.374,0.344,1.852,0.932C96.906,34.756,97.162,35.554,97.162,36.474z M95.875,36.474     c0-0.943-0.453-1.94-1.296-1.94s-1.296,0.997-1.296,1.94v1.286c0,1.108,0.497,1.939,1.296,1.939c0.776,0,1.296-0.809,1.296-1.939     V36.474z" data-original="#585757" class="" style="fill:#113BBF" data-old_color="#143DBD"/>
		</g>
		<g>
			<path fill="#585757" d="M73.977,38.778l-1.999-5.533c-0.337,0.122-0.71-0.054-0.835-0.401c-0.123-0.337,0.053-0.71,0.39-0.833     l0.621-0.225c0.338-0.121,0.701,0.058,0.822,0.395l2.223,6.155c0.121,0.336-0.054,0.71-0.391,0.832     C74.47,39.291,74.098,39.115,73.977,38.778z" data-original="#585757" class="" style="fill:#113BBF" data-old_color="#143DBD"/>
		</g>
		<g>
			<path fill="#585757" d="M81.021,45.901l-0.478,1.194c-0.697,1.75-2.218,2.599-3.598,2.049c-1.4-0.559-1.89-2.234-1.199-3.962     l0.478-1.195c0.689-1.729,2.26-2.583,3.599-2.048c0.647,0.259,1.148,0.829,1.373,1.551C81.421,44.21,81.361,45.046,81.021,45.901     z M79.826,45.424c0.35-0.875,0.298-1.97-0.484-2.282s-1.574,0.446-1.923,1.321l-0.478,1.195c-0.41,1.028-0.257,1.986,0.485,2.282     c0.721,0.288,1.504-0.272,1.923-1.321L79.826,45.424z" data-original="#585757" class="" style="fill:#113BBF" data-old_color="#143DBD"/>
		</g>
		<g>
			<path fill="#585757" d="M84.113,65.663L80.042,55.58c-0.613,0.249-1.314-0.05-1.57-0.683c-0.247-0.614,0.049-1.315,0.663-1.562     l1.136-0.458c0.613-0.248,1.296,0.057,1.544,0.671l4.528,11.217c0.249,0.615-0.05,1.316-0.663,1.564     C85.065,66.576,84.362,66.278,84.113,65.663z" data-original="#585757" class="" style="fill:#113BBF" data-old_color="#143DBD"/>
		</g>
		<g>
			<path fill="#585757" d="M87.442,54.901v-8.503c-0.519,0-0.938-0.422-0.938-0.956c0-0.519,0.421-0.939,0.938-0.939h0.956     c0.519,0,0.923,0.42,0.923,0.939v9.459c0,0.518-0.421,0.939-0.94,0.939C87.864,55.841,87.442,55.419,87.442,54.901z" data-original="#585757" class="" style="fill:#113BBF" data-old_color="#143DBD"/>
		</g>
		<g>
			<path fill="#585757" d="M95.736,49.12l2.514-5.318c-0.325-0.154-0.464-0.542-0.306-0.875c0.153-0.325,0.541-0.463,0.865-0.311     l0.598,0.283c0.324,0.153,0.453,0.536,0.3,0.86l-2.796,5.917c-0.153,0.325-0.542,0.463-0.866,0.31     C95.722,49.832,95.583,49.443,95.736,49.12z" data-original="#585757" class="" style="fill:#113BBF" data-old_color="#143DBD"/>
		</g>
		<g>
			<path fill="#585757" d="M100.439,36.249l1.502-5.688c-0.347-0.092-0.555-0.448-0.46-0.806c0.092-0.347,0.448-0.553,0.796-0.462     l0.638,0.168c0.348,0.091,0.544,0.446,0.452,0.792l-1.672,6.327c-0.092,0.347-0.448,0.554-0.794,0.463     S100.348,36.596,100.439,36.249z" data-original="#585757" class="" style="fill:#113BBF" data-old_color="#143DBD"/>
		</g>
		<g>
			<path fill="#585757" d="M87.719,22.77l-1.13-5.087c-0.31,0.069-0.617-0.127-0.688-0.446c-0.069-0.311,0.127-0.619,0.438-0.688     l0.571-0.127c0.311-0.069,0.609,0.13,0.677,0.438l1.259,5.659c0.067,0.309-0.128,0.618-0.438,0.687S87.788,23.078,87.719,22.77z" data-original="#585757" class="" style="fill:#113BBF" data-old_color="#143DBD"/>
		</g>
		<g>
			<path fill="#585757" d="M114.508,19.178l5.156,0.746c0.045-0.314,0.338-0.534,0.662-0.486c0.313,0.045,0.532,0.337,0.486,0.652     l-0.084,0.58c-0.045,0.314-0.336,0.522-0.65,0.477l-5.736-0.83c-0.312-0.045-0.531-0.339-0.485-0.653     C113.9,19.35,114.193,19.132,114.508,19.178z" data-original="#585757" class="" style="fill:#113BBF" data-old_color="#143DBD"/>
		</g>
		<g>
			<path fill="#585757" d="M99.502,26.354l5.329-3.508c-0.215-0.325-0.125-0.763,0.21-0.982c0.324-0.215,0.764-0.125,0.978,0.201     l0.394,0.599c0.213,0.323,0.117,0.753-0.208,0.965l-5.927,3.902c-0.324,0.213-0.763,0.124-0.977-0.202     C99.086,27.004,99.177,26.567,99.502,26.354z" data-original="#585757" class="" style="fill:#113BBF" data-old_color="#143DBD"/>
		</g>
		<g>
			<path fill="#585757" d="M66.964,53.636l2.668-8.075c-0.492-0.162-0.76-0.695-0.593-1.202c0.162-0.492,0.694-0.759,1.188-0.597     l0.904,0.3c0.493,0.162,0.745,0.689,0.583,1.182l-2.967,8.981c-0.163,0.492-0.693,0.76-1.188,0.598     C67.068,54.66,66.801,54.127,66.964,53.636z" data-original="#585757" class="" style="fill:#113BBF" data-old_color="#143DBD"/>
		</g>
		<g>
			<path fill="#585757" d="M77.676,66.563l-0.598,2.095c-0.877,3.069-3.292,4.762-5.712,4.071c-2.456-0.701-3.568-3.439-2.702-6.473     l0.599-2.095c0.865-3.032,3.363-4.74,5.713-4.07c1.136,0.325,2.078,1.199,2.581,2.376C78.06,63.647,78.103,65.067,77.676,66.563z      M75.581,65.966c0.438-1.534,0.161-3.37-1.209-3.761c-1.374-0.393-2.577,1.021-3.016,2.556l-0.599,2.094     c-0.516,1.805-0.089,3.392,1.212,3.763c1.264,0.362,2.486-0.714,3.014-2.557L75.581,65.966z" data-original="#585757" class="" style="fill:#113BBF" data-old_color="#143DBD"/>
		</g>
		<g>
			<path fill="#585757" d="M87.422,74.671l0.867,1.998c1.271,2.927,0.479,5.769-1.829,6.771c-2.344,1.018-4.94-0.394-6.195-3.287     l-0.868-1.999c-1.255-2.893-0.408-5.798,1.832-6.77c1.085-0.47,2.367-0.393,3.503,0.198     C85.867,72.174,86.802,73.243,87.422,74.671z M85.424,75.539c-0.636-1.464-2.015-2.707-3.321-2.14     c-1.311,0.569-1.344,2.425-0.708,3.89l0.867,1.997c0.747,1.723,2.084,2.678,3.323,2.14c1.206-0.524,1.47-2.131,0.705-3.889     L85.424,75.539z" data-original="#585757" class="" style="fill:#113BBF" data-old_color="#143DBD"/>
		</g>
		<g>
			<circle fill="#F4B845" cx="255.981" cy="48.185" r="4.471" data-original="#F4B845"/>
			<path fill="#585757" d="M255.982,53.411c-2.883,0-5.229-2.344-5.229-5.226c0-2.882,2.346-5.227,5.229-5.227     c2.881,0,5.226,2.344,5.226,5.227C261.208,51.068,258.863,53.411,255.982,53.411z M255.982,44.47     c-2.049,0-3.716,1.667-3.716,3.715s1.667,3.715,3.716,3.715c2.047,0,3.714-1.667,3.714-3.715S258.029,44.47,255.982,44.47z" data-original="#585757" class="" style="fill:#113BBF" data-old_color="#143DBD"/>
		</g>
		<g>
			<path fill="#585757" d="M271.227,82.273h-49.72c-0.626,0-1.134-0.508-1.134-1.134v-6.848c0-0.626,0.508-1.134,1.134-1.134h49.72     c0.626,0,1.133,0.508,1.133,1.134v6.848C272.359,81.765,271.853,82.273,271.227,82.273z M222.642,80.005h47.45v-4.581h-47.45     V80.005L222.642,80.005z" data-original="#585757" class="" style="fill:#113BBF" data-old_color="#143DBD"/>
		</g>
		<g>
			<g>
				<path fill="#FFFFFF" d="M228.445,58.893c-1.159,1.159-3.039,1.159-4.199,0l0,0c-1.158-1.16-1.158-3.039,0-4.198l15.559-15.557      c1.157-1.159,3.037-1.159,4.197,0l0,0c1.158,1.16,1.158,3.039,0,4.198L228.445,58.893z" data-original="#FFFFFF" class=""/>
				<path fill="#585757" d="M226.347,60.518c-0.995,0-1.932-0.387-2.636-1.091c-1.45-1.452-1.45-3.814,0-5.266l15.559-15.557      c0.702-0.703,1.638-1.091,2.633-1.091s1.931,0.388,2.634,1.091c1.451,1.453,1.451,3.815,0,5.267L228.98,59.427      C228.276,60.131,227.342,60.518,226.347,60.518z M241.902,39.025c-0.591,0-1.146,0.23-1.564,0.648L224.781,55.23      c-0.862,0.862-0.862,2.266,0,3.128c0.837,0.835,2.294,0.835,3.13,0l15.556-15.556c0.862-0.862,0.862-2.266,0-3.129      C243.05,39.255,242.493,39.025,241.902,39.025z" data-original="#585757" class="" style="fill:#113BBF" data-old_color="#143DBD"/>
			</g>
			<g>
				<path fill="#FFFFFF" d="M240.769,68.061c0.764,1.45,0.208,3.246-1.242,4.011l0,0c-1.449,0.765-3.245,0.209-4.01-1.241      L225.255,51.37c-0.765-1.449-0.21-3.245,1.241-4.01l0,0c1.45-0.764,3.245-0.209,4.01,1.241L240.769,68.061z" data-original="#FFFFFF" class=""/>
				<path fill="#585757" d="M238.146,73.171c-1.389,0-2.651-0.762-3.298-1.988l-10.263-19.46c-0.464-0.88-0.558-1.887-0.263-2.837      c0.294-0.951,0.94-1.729,1.82-2.194c0.533-0.281,1.134-0.43,1.733-0.43c1.388,0,2.649,0.762,3.297,1.988l10.263,19.459      c0.958,1.816,0.26,4.073-1.558,5.031C239.346,73.022,238.746,73.171,238.146,73.171z M227.878,47.772      c-0.359,0-0.707,0.086-1.028,0.256c-0.522,0.275-0.907,0.739-1.082,1.304c-0.175,0.564-0.119,1.163,0.155,1.685l10.264,19.461      c0.384,0.728,1.135,1.181,1.96,1.181c0.359,0,0.707-0.086,1.027-0.256c1.08-0.57,1.495-1.911,0.927-2.99l-10.264-19.46      C229.453,48.226,228.703,47.772,227.878,47.772z" data-original="#585757" class="" style="fill:#113BBF" data-old_color="#143DBD"/>
			</g>
			<g>
				<rect x="226.652" y="65.929" fill="#FFFFFF" width="16.182" height="6.486" data-original="#FFFFFF" class=""/>
				<path fill="#585757" d="M242.834,73.171h-16.182c-0.417,0-0.756-0.339-0.756-0.756v-6.486c0-0.418,0.339-0.756,0.756-0.756      h16.182c0.417,0,0.756,0.338,0.756,0.756v6.486C243.59,72.832,243.251,73.171,242.834,73.171z M227.408,71.659h14.67v-4.975      h-14.67V71.659z" data-original="#585757" class="" style="fill:#113BBF" data-old_color="#143DBD"/>
			</g>
			<g>
				<path fill="#D84253" d="M258.188,40.86l-10.306-10.304c-2.569-2.571-6.735-2.57-9.307,0c-2.569,2.57-2.57,6.736,0,9.306      l10.304,10.304L258.188,40.86z" data-original="#D84253" class=""/>
				<path fill="#585757" d="M248.88,50.922c-0.192,0-0.387-0.074-0.534-0.221l-10.304-10.304c-2.859-2.86-2.859-7.514,0-10.375      c1.387-1.386,3.229-2.149,5.188-2.149c1.96,0,3.803,0.763,5.188,2.149l10.305,10.303c0.142,0.142,0.222,0.333,0.222,0.535      c0,0.2-0.08,0.393-0.222,0.534l-9.309,9.307C249.267,50.849,249.073,50.922,248.88,50.922z M243.229,29.384      c-1.557,0-3.02,0.606-4.119,1.706c-2.271,2.271-2.271,5.967,0,8.238l9.77,9.77l8.238-8.238l-9.77-9.77      C246.248,29.99,244.785,29.384,243.229,29.384z" data-original="#585757" class="" style="fill:#113BBF" data-old_color="#143DBD"/>
			</g>
			<g>
				<path fill="#D84253" d="M246.718,38.696c-5.179,5.179-5.179,13.574,0,18.753l18.754-18.753      C260.291,33.519,251.896,33.519,246.718,38.696z" data-original="#D84253" class=""/>
				<path fill="#585757" d="M246.718,58.205c-0.2,0-0.393-0.08-0.533-0.222c-5.465-5.464-5.465-14.356,0-19.821      c2.646-2.647,6.166-4.104,9.91-4.104c3.742,0,7.263,1.457,9.91,4.104c0.143,0.142,0.223,0.334,0.223,0.534      c0,0.2-0.08,0.393-0.223,0.534l-18.753,18.753C247.11,58.125,246.918,58.205,246.718,58.205z M256.094,35.569      c-3.34,0-6.479,1.3-8.842,3.661c-4.694,4.697-4.868,12.229-0.519,17.134l17.651-17.652      C262.096,36.679,259.18,35.569,256.094,35.569z" data-original="#585757" class="" style="fill:#113BBF" data-old_color="#143DBD"/>
			</g>
		</g>
		<g>
			<path fill="#585757" d="M237.565,87.662h-9.41c-0.626,0-1.134-0.508-1.134-1.135v-5.388c0-0.626,0.508-1.134,1.134-1.134h9.41     c0.626,0,1.134,0.508,1.134,1.134v5.388C238.699,87.154,238.191,87.662,237.565,87.662z M229.289,85.394h7.144v-3.121h-7.144     V85.394z" data-original="#585757" class="" style="fill:#113BBF" data-old_color="#143DBD"/>
		</g>
		<g>
			<path fill="#585757" d="M265.158,87.662h-9.411c-0.626,0-1.134-0.508-1.134-1.135v-5.388c0-0.626,0.508-1.134,1.134-1.134h9.411     c0.625,0,1.133,0.508,1.133,1.134v5.388C266.291,87.154,265.783,87.662,265.158,87.662z M256.881,85.394h7.145v-3.121h-7.145     V85.394z" data-original="#585757" class="" style="fill:#113BBF" data-old_color="#143DBD"/>
		</g>
		<g>
			<path fill="#F4B845" d="M285.29,38.199h-14.062c-0.626,0-1.135-0.507-1.135-1.133c0-0.627,0.509-1.134,1.135-1.134h14.062     c0.627,0,1.134,0.507,1.134,1.134C286.424,37.692,285.917,38.199,285.29,38.199z" data-original="#F4B845"/>
		</g>
		<g>
			<path fill="#F4B845" d="M298.062,38.199h-5.226c-0.627,0-1.134-0.507-1.134-1.133c0-0.627,0.507-1.134,1.134-1.134h5.226     c0.627,0,1.134,0.507,1.134,1.134C299.196,37.692,298.689,38.199,298.062,38.199z" data-original="#F4B845"/>
		</g>
		<g>
			<path fill="#F4B845" d="M246.368,68.749c-0.627,0-1.134-0.508-1.134-1.134v-5.121c0-0.626,0.507-1.134,1.134-1.134     c0.626,0,1.134,0.508,1.134,1.134v5.121C247.502,68.241,246.994,68.749,246.368,68.749z" data-original="#F4B845"/>
		</g>
		<g>
			<path fill="#F4B845" d="M282.381,73.426c-0.298,0-0.595-0.117-0.816-0.35l-2.66-2.774c-0.433-0.452-0.418-1.169,0.034-1.603     c0.452-0.433,1.169-0.419,1.604,0.034l2.658,2.773c0.434,0.453,0.419,1.17-0.033,1.603     C282.946,73.321,282.663,73.426,282.381,73.426z" data-original="#F4B845"/>
		</g>
		<g>
			<path fill="#F4B845" d="M274.791,65.548c-0.291,0-0.58-0.111-0.802-0.333L262.363,53.59c-0.442-0.442-0.442-1.161,0-1.604     c0.443-0.442,1.16-0.442,1.604,0l11.626,11.625c0.442,0.443,0.442,1.161,0,1.603C275.371,65.438,275.08,65.548,274.791,65.548z" data-original="#F4B845"/>
		</g>
		<g>
			<path fill="#F4B845" d="M283.865,64.509c-0.244,0-0.49-0.078-0.697-0.24l-5.629-4.402c-0.494-0.385-0.581-1.098-0.195-1.591     c0.388-0.493,1.101-0.581,1.593-0.195l5.629,4.402c0.493,0.385,0.58,1.098,0.194,1.591     C284.536,64.36,284.203,64.509,283.865,64.509z" data-original="#F4B845"/>
		</g>
		<g>
			<path fill="#F4B845" d="M290.878,52.211c-0.092,0-0.185-0.011-0.276-0.034l-19.65-4.947c-0.607-0.152-0.976-0.769-0.823-1.375     c0.153-0.607,0.768-0.975,1.377-0.823l19.65,4.946c0.605,0.154,0.975,0.77,0.822,1.377     C291.847,51.869,291.385,52.211,290.878,52.211z" data-original="#F4B845"/>
		</g>
		<g>
			<path fill="#F4B845" d="M258.186,70.306c-0.518,0-0.982-0.355-1.104-0.88l-2.206-9.569c-0.14-0.61,0.241-1.219,0.852-1.359     c0.608-0.14,1.22,0.24,1.358,0.85l2.206,9.569c0.142,0.61-0.24,1.219-0.851,1.36C258.355,70.296,258.271,70.306,258.186,70.306z" data-original="#F4B845"/>
		</g>
		<g>
			<path fill="#F4B845" d="M264.201,66.426c-0.42,0-0.823-0.234-1.02-0.638l-1.599-3.278c-0.273-0.562-0.041-1.242,0.521-1.516     c0.562-0.274,1.241-0.041,1.516,0.522l1.599,3.279c0.274,0.562,0.04,1.241-0.521,1.516     C264.538,66.39,264.368,66.426,264.201,66.426z" data-original="#F4B845"/>
		</g>
		<g>
			<g>
				<path fill="#585757" d="M93.953,103.688c-0.422,0-0.767-0.342-0.767-0.776c0-0.423,0.345-0.769,0.767-0.769      s0.78,0.346,0.78,0.769C94.733,103.348,94.375,103.688,93.953,103.688z M93.187,110.225v-4.621c0-0.422,0.345-0.777,0.767-0.777      s0.78,0.355,0.78,0.777v4.621c0,0.424-0.358,0.768-0.78,0.768S93.187,110.648,93.187,110.225z" data-original="#585757" class="" style="fill:#113BBF" data-old_color="#143DBD"/>
			</g>
			<g>
				<path fill="#585757" d="M100.028,105.604c0,0.424-0.344,0.767-0.779,0.767h-0.766v3.854c0,0.424-0.343,0.768-0.767,0.768      c-0.422,0-0.779-0.344-0.779-0.768v-3.854h-0.382c-0.424,0-0.767-0.343-0.767-0.767c0-0.422,0.343-0.777,0.767-0.777h0.382      v-0.766c0-0.095,0.015-0.597,0.276-1.11c0.385-0.779,1.11-1.201,2.034-1.201c0.437,0,0.779,0.344,0.779,0.767      c0,0.436-0.344,0.778-0.779,0.778c-0.408,0-0.555,0.159-0.634,0.317c-0.104,0.171-0.132,0.383-0.132,0.449v0.766h0.766      C99.685,104.825,100.028,105.182,100.028,105.604z" data-original="#585757" class="" style="fill:#113BBF" data-old_color="#143DBD"/>
			</g>
		</g>
		<g>
			<path fill="#585757" d="M263.604,112.102c0.811,0,1.45,0.64,1.45,1.45c0,0.787-0.641,1.427-1.45,1.427h-1.429     c-0.367,0-0.736-0.146-1.009-0.418c-0.098-0.099-0.541-0.565-0.981-1.451c-0.566-1.131-0.888-2.484-0.888-3.86     c0-0.297-0.688-1.133-1.5-1.697l-0.393-0.395c-0.173-0.245-0.246-0.517-0.246-0.787c0-0.468,0.222-0.935,0.639-1.204     c0,0,0.469-0.296,0.887-0.738c0.516-0.517,0.613-0.859,0.613-0.935c0-1.379,0.32-2.729,0.888-3.861     c0.44-0.885,0.885-1.354,0.981-1.45c0.271-0.271,0.642-0.42,1.009-0.42h1.429c0.811,0,1.45,0.641,1.45,1.428     c0,0.812-0.641,1.451-1.45,1.451h-0.714c-0.294,0.491-0.715,1.449-0.715,2.854c0,1.131-0.663,2.141-1.377,2.877     c0.714,0.738,1.377,1.746,1.377,2.879c0,1.4,0.421,2.361,0.715,2.854h0.714V112.102z" data-original="#585757" class="" style="fill:#113BBF" data-old_color="#143DBD"/>
		</g>
		<g>
			<g>
				<path fill="#585757" d="M73.293,126.521c-0.722-0.035-1.348-0.342-1.771-0.875c-0.392-0.496-0.591-1.146-0.591-1.877      c0-1.524,1.086-2.752,2.408-2.752c0.662,0,1.277,0.271,1.727,0.776c0.45,0.485,0.687,1.147,0.687,1.856      c0,0.379-0.309,0.697-0.687,0.697h-2.683c0.117,0.377,0.38,0.778,0.98,0.803h0.071c0.177,0,0.508,0,0.803-0.213      c0.118-0.07,0.249-0.105,0.379-0.105c0.225,0,0.448,0.105,0.579,0.309c0.083,0.104,0.117,0.235,0.117,0.364      c0,0.226-0.117,0.462-0.319,0.593c-0.566,0.377-1.157,0.437-1.487,0.437C73.411,126.534,73.339,126.534,73.293,126.521z       M74.226,122.966c-0.178-0.354-0.496-0.579-0.888-0.579c-0.329,0-0.637,0.236-0.825,0.579H74.226z" data-original="#585757" class="" style="fill:#113BBF" data-old_color="#143DBD"/>
			</g>
			<g>
				<path fill="#585757" d="M78.081,118.949v6.9c0,0.377-0.307,0.685-0.698,0.685c-0.377,0-0.685-0.308-0.685-0.685v-6.9      c0-0.379,0.308-0.686,0.685-0.686C77.774,118.264,78.081,118.57,78.081,118.949z" data-original="#585757" class="" style="fill:#113BBF" data-old_color="#143DBD"/>
			</g>
			<g>
				<path fill="#585757" d="M83.163,124.467v0.131c0,0.448-0.165,0.896-0.483,1.24c-0.414,0.448-1.018,0.696-1.715,0.696      c-0.779,0-1.487-0.392-1.843-1.005c-0.059-0.105-0.095-0.235-0.095-0.354c0-0.235,0.118-0.462,0.343-0.591      c0.106-0.059,0.226-0.095,0.343-0.095c0.236,0,0.473,0.13,0.603,0.354s0.427,0.308,0.649,0.308c0.309,0,0.557-0.082,0.697-0.248      c0.095-0.094,0.13-0.2,0.13-0.318c-0.059-0.143-0.565-0.391-0.969-0.484c-0.013,0-0.035,0-0.046-0.012      c-0.698-0.199-1.537-0.662-1.537-1.714c0-0.921,0.851-1.606,1.985-1.606c0.378,0,0.791,0.118,1.109,0.318      c0.212,0.131,0.331,0.355,0.331,0.592c0,0.131-0.036,0.248-0.105,0.365c-0.131,0.201-0.344,0.318-0.579,0.318      c-0.13,0-0.26-0.034-0.378-0.105c-0.106-0.07-0.261-0.105-0.378-0.105c-0.426,0-0.604,0.178-0.604,0.225      c0,0.083,0,0.236,0.521,0.391c0.104,0.022,0.473,0.117,0.851,0.295C82.902,123.497,83.127,124.064,83.163,124.467z" data-original="#585757" class="" style="fill:#113BBF" data-old_color="#143DBD"/>
			</g>
			<g>
				<path fill="#585757" d="M86.475,126.521c-0.722-0.035-1.349-0.342-1.772-0.875c-0.39-0.496-0.591-1.146-0.591-1.877      c0-1.524,1.087-2.752,2.41-2.752c0.662,0,1.275,0.271,1.726,0.776c0.449,0.485,0.687,1.147,0.687,1.856      c0,0.379-0.309,0.697-0.687,0.697h-2.682c0.117,0.377,0.378,0.778,0.979,0.803h0.071c0.178,0,0.508,0,0.804-0.213      c0.118-0.07,0.248-0.105,0.378-0.105c0.225,0,0.449,0.105,0.579,0.309c0.083,0.104,0.118,0.235,0.118,0.364      c0,0.226-0.118,0.462-0.319,0.593c-0.565,0.377-1.157,0.437-1.487,0.437C86.593,126.534,86.521,126.534,86.475,126.521z       M87.408,122.966c-0.178-0.354-0.496-0.579-0.887-0.579c-0.33,0-0.639,0.236-0.827,0.579H87.408z" data-original="#585757" class="" style="fill:#113BBF" data-old_color="#143DBD"/>
			</g>
		</g>
		<g>
			<path fill="#F4B845" d="M271.227,75.425h-24.858c-0.627,0-1.134-0.507-1.134-1.133s0.507-1.134,1.134-1.134h24.858     c0.626,0,1.133,0.508,1.133,1.134C272.359,74.918,271.853,75.425,271.227,75.425z" data-original="#F4B845"/>
		</g>
		<g>
			<path fill="#F4B845" d="M271.227,82.273c-0.626,0-1.135-0.508-1.135-1.134v-6.848c0-0.626,0.509-1.134,1.135-1.134     s1.133,0.508,1.133,1.134v6.848C272.359,81.765,271.853,82.273,271.227,82.273z" data-original="#F4B845"/>
		</g>
		<g>
			<path fill="#F4B845" d="M271.227,82.273h-2.249c-0.625,0-1.133-0.508-1.133-1.134s0.508-1.134,1.133-1.134h2.249     c0.626,0,1.133,0.508,1.133,1.134S271.853,82.273,271.227,82.273z" data-original="#F4B845"/>
		</g>
		<g>
			<path fill="#F4B845" d="M307.686,107.503h-4.812c-0.627,0-1.134-0.508-1.134-1.134s0.507-1.135,1.134-1.135h4.812     c0.626,0,1.134,0.509,1.134,1.135S308.312,107.503,307.686,107.503z" data-original="#F4B845"/>
		</g>
		<g>
			<path fill="#F4B845" d="M291.6,100.503c-0.394,0-0.774-0.205-0.984-0.569c-0.312-0.543-0.123-1.236,0.42-1.549l1.384-0.793     l-4.442-2.8c-0.53-0.333-0.689-1.033-0.355-1.563c0.334-0.528,1.035-0.688,1.563-0.354l6.039,3.806     c0.338,0.213,0.538,0.586,0.528,0.983c-0.008,0.396-0.224,0.761-0.568,0.959l-3.021,1.731     C291.985,100.454,291.792,100.503,291.6,100.503z" data-original="#F4B845"/>
		</g>
		<g>
			<g>
				<path fill="#585757" d="M214.244,127.479c0.279,0.183,0.411,0.478,0.411,0.773c0,0.182-0.05,0.395-0.164,0.559      c-0.017,0.017-1.266,1.856-1.266,4.238c0,2.383,1.249,4.223,1.266,4.239c0.114,0.163,0.164,0.378,0.164,0.558      c0,0.297-0.132,0.592-0.411,0.772c-0.164,0.114-0.345,0.181-0.542,0.181c-0.296,0-0.608-0.146-0.788-0.41      c-0.065-0.099-1.609-2.334-1.609-5.34c0-3.007,1.544-5.24,1.609-5.34c0.18-0.263,0.477-0.41,0.788-0.41      C213.883,127.3,214.08,127.35,214.244,127.479z" data-original="#585757" class="" style="fill:#113BBF" data-old_color="#143DBD"/>
			</g>
			<g>
				<path fill="#585757" d="M219.406,138.619c-0.263-0.182-0.411-0.477-0.411-0.771c0-0.197,0.066-0.396,0.183-0.559      c0-0.296,1.265-2.005,1.265-4.239c0-2.382-1.265-4.223-1.282-4.237c-0.114-0.166-0.164-0.379-0.164-0.56      c0-0.297,0.132-0.592,0.411-0.772c0.164-0.113,0.345-0.181,0.542-0.181c0.296,0,0.607,0.147,0.789,0.41      c0.065,0.099,1.609,2.333,1.609,5.34s-1.544,5.241-1.609,5.339c-0.182,0.264-0.477,0.411-0.789,0.411      C219.768,138.8,219.57,138.75,219.406,138.619z" data-original="#585757" class="" style="fill:#113BBF" data-old_color="#143DBD"/>
			</g>
		</g>
	</g>
</g></g> </svg>
