<?xml version="1.0"?>
<svg xmlns="http://www.w3.org/2000/svg" xmlns:xlink="http://www.w3.org/1999/xlink" version="1.1" id="Capa_1" x="0px" y="0px" width="512px" height="512px" viewBox="0 0 360 170" enable-background="new 0 0 360 170" xml:space="preserve" class=""><g><g>
	<circle fill="#DFDFDF" cx="176.594" cy="84.999" r="85" data-original="#DFDFDF" class="active-path" style="fill:#2E96BE" data-old_color="#DFDFDF"/>
	<g>
		<g>
			<path fill="#585757" d="M190.408,52.071c-0.015,0-0.032,0-0.049,0h-11.667c-2.646,0-4.801-2.153-4.801-4.802     c0-2.508,1.935-4.573,4.389-4.783c1.11-2.23,3.402-3.68,5.935-3.68c3.331,0,6.099,2.47,6.562,5.676     c1.925,0.186,3.436,1.813,3.436,3.785C194.213,50.365,192.506,52.071,190.408,52.071z M178.692,44.736     c-1.396,0-2.533,1.137-2.533,2.533c0,1.398,1.137,2.535,2.533,2.535h11.577c0.048-0.004,0.094-0.004,0.142-0.003     c0.009,0,0.021,0.001,0.033,0.002c0.831-0.019,1.501-0.7,1.501-1.536c0-0.979-0.912-1.763-1.948-1.478     c-0.351,0.093-0.726,0.017-1.009-0.211c-0.283-0.229-0.439-0.579-0.421-0.942l0.013-0.198c0-2.407-1.959-4.365-4.365-4.365     c-1.848,0-3.501,1.173-4.113,2.921c-0.173,0.49-0.66,0.798-1.171,0.753C178.852,44.742,178.772,44.736,178.692,44.736z" data-original="#585757" class="" style="fill:#113BBF" data-old_color="#585757"/>
		</g>
	</g>
	<g>
		<g>
			<path fill="#585757" d="M139.117,50.155c-0.017,0-0.04,0-0.062,0h-15.304c-3.276,0-5.942-2.667-5.942-5.944     c0-3.172,2.499-5.773,5.632-5.936c1.359-2.909,4.3-4.811,7.553-4.811c4.291,0,7.836,3.253,8.296,7.422     c2.479,0.09,4.464,2.134,4.464,4.633C143.752,48.075,141.674,50.155,139.117,50.155z M123.751,40.535     c-2.026,0-3.676,1.649-3.676,3.676s1.648,3.677,3.676,3.677h15.208c0.037-0.003,0.076-0.004,0.113-0.004     c0.019,0,0.049,0.002,0.077,0.003c1.29-0.017,2.335-1.072,2.335-2.367c0-1.511-1.417-2.714-2.998-2.281     c-0.35,0.096-0.727,0.019-1.01-0.21c-0.283-0.228-0.44-0.579-0.422-0.942l0.009-0.128c0.003-0.049,0.008-0.099,0.008-0.149     c0-3.352-2.727-6.078-6.079-6.078c-2.573,0-4.874,1.634-5.729,4.067c-0.173,0.492-0.661,0.805-1.176,0.754     C123.978,40.542,123.865,40.535,123.751,40.535z" data-original="#585757" class="" style="fill:#113BBF" data-old_color="#585757"/>
		</g>
	</g>
	<g>
		<g>
			<path fill="#585757" d="M221.562,41.258c-0.019,0-0.043,0-0.067,0h-16.159c-3.426,0-6.214-2.787-6.214-6.213     c0-3.329,2.633-6.056,5.927-6.206c1.418-3.07,4.511-5.079,7.936-5.079c4.516,0,8.244,3.439,8.702,7.837     c2.605,0.066,4.708,2.207,4.708,4.83C226.394,39.091,224.226,41.258,221.562,41.258z M205.336,31.1     c-2.176,0-3.945,1.77-3.945,3.945c0,2.175,1.771,3.946,3.945,3.946h16.058c0.046-0.004,0.092-0.006,0.14-0.004     c0.015,0.001,0.041,0.002,0.065,0.004c1.396-0.019,2.527-1.162,2.527-2.564c0-1.635-1.533-2.939-3.247-2.468     c-0.35,0.096-0.725,0.018-1.009-0.209c-0.283-0.228-0.439-0.577-0.422-0.94l0.008-0.142c0.005-0.052,0.009-0.105,0.009-0.158     c0-3.574-2.906-6.482-6.48-6.482c-2.744,0-5.199,1.743-6.109,4.338c-0.173,0.491-0.662,0.801-1.176,0.753     C205.579,31.107,205.458,31.1,205.336,31.1z" data-original="#585757" class="" style="fill:#113BBF" data-old_color="#585757"/>
		</g>
	</g>
	<g>
		<g>
			<path fill="#FFFFFF" d="M125.98,67.237c-0.521,0-1.021,0.075-1.501,0.208c0.009-0.182,0.027-0.361,0.027-0.544     c0-6.435-5.216-11.65-11.648-11.65c-5.081,0-9.392,3.258-10.983,7.795c-0.234-0.022-0.474-0.037-0.715-0.037     c-4.29,0-7.77,3.479-7.77,7.771c0,4.291,3.479,7.77,7.77,7.77h24.718v-0.007c0.035,0,0.068,0.007,0.104,0.007     c3.125,0,5.657-2.532,5.657-5.657C131.638,69.769,129.105,67.237,125.98,67.237z" data-original="#FFFFFF" class=""/>
		</g>
		<g>
			<path fill="#585757" d="M125.98,79.305c-0.01,0-0.028-0.001-0.049-0.002c-0.019,0.001-0.035,0.002-0.055,0.002H101.16     c-4.701,0-8.525-3.825-8.525-8.525c0-4.702,3.824-8.526,8.525-8.526c0.068,0,0.137,0.001,0.205,0.003     c1.885-4.666,6.433-7.762,11.493-7.762c6.714,0,12.199,5.362,12.398,12.029c0.242-0.029,0.483-0.043,0.724-0.043     c3.536,0,6.413,2.875,6.413,6.412S129.517,79.305,125.98,79.305z M101.16,63.765c-3.867,0-7.014,3.147-7.014,7.015     c0,3.867,3.146,7.014,7.014,7.014h24.615c0.036-0.005,0.071-0.01,0.111-0.007c0.021,0,0.088,0.005,0.114,0.007     c2.692-0.011,4.88-2.206,4.88-4.901c0-2.702-2.197-4.9-4.9-4.9c-0.427,0-0.864,0.061-1.3,0.18     c-0.233,0.064-0.484,0.013-0.675-0.139c-0.188-0.151-0.293-0.383-0.281-0.625l0.013-0.21c0.007-0.099,0.015-0.198,0.015-0.298     c0-6.006-4.888-10.894-10.894-10.894c-4.612,0-8.739,2.929-10.271,7.289c-0.114,0.328-0.445,0.531-0.782,0.503     C101.594,63.778,101.378,63.765,101.16,63.765z" data-original="#585757" class="" style="fill:#113BBF" data-old_color="#585757"/>
		</g>
	</g>
	<g>
		<g>
			<g>
				<g>
					<rect x="116.472" y="71.49" fill="#FFFFFF" width="102.416" height="63.324" data-original="#FFFFFF" class=""/>
				</g>
			</g>
			<g>
				<g>
					<path fill="#585757" d="M218.888,135.568H116.472c-0.418,0-0.757-0.338-0.757-0.756V71.49c0-0.418,0.339-0.756,0.757-0.756       h102.416c0.417,0,0.756,0.338,0.756,0.756v63.324C219.644,135.23,219.305,135.568,218.888,135.568z M117.228,134.059h100.903       V72.246H117.228V134.059z" data-original="#585757" class="" style="fill:#113BBF" data-old_color="#585757"/>
				</g>
			</g>
		</g>
		<g>
			<g>
				<g>
					<rect x="120.175" y="75.35" fill="#83619D" width="95.009" height="53.011" data-original="#83619D"/>
				</g>
			</g>
			<g>
				<g>
					<path fill="#585757" d="M215.183,129.117h-95.009c-0.417,0-0.756-0.34-0.756-0.756V75.35c0-0.417,0.339-0.756,0.756-0.756       h95.009c0.418,0,0.756,0.338,0.756,0.756v53.011C215.938,128.777,215.601,129.117,215.183,129.117z M120.931,127.605h93.495       v-51.5h-93.495V127.605z" data-original="#585757" class="" style="fill:#113BBF" data-old_color="#585757"/>
				</g>
			</g>
		</g>
		<g>
			<g>
				<g>
					<path fill="#FFFFFF" d="M223.677,142.167c-24.851,0-81.475,0-112.307,0c-6.293,0-6.293-7.354-6.293-7.354h125.204       C230.281,134.812,231.225,142.167,223.677,142.167z" data-original="#FFFFFF" class=""/>
				</g>
			</g>
			<g>
				<g>
					<path fill="#585757" d="M223.677,142.923H111.37c-5.575,0-7.049-5.305-7.049-8.108c0-0.418,0.338-0.756,0.756-0.756h125.204       c0.381,0,0.701,0.28,0.75,0.658c0.019,0.146,0.434,3.598-1.686,6.004C228.06,142.182,226.152,142.923,223.677,142.923z        M105.882,135.568c0.188,1.74,1.099,5.843,5.488,5.843h112.307c2.022,0,3.549-0.568,4.534-1.688       c1.186-1.346,1.355-3.186,1.354-4.152H105.882V135.568z" data-original="#585757" class="" style="fill:#113BBF" data-old_color="#585757"/>
				</g>
			</g>
		</g>
	</g>
	<g>
		<g>
			<path fill="#585757" d="M217.165,104.704c0-5.622-4.575-10.196-10.197-10.196c-4.09,0-7.71,2.385-9.337,6.11     c-0.231-0.015-0.475-0.025-0.723-0.025c-6.163,0-11.562,4.138-13.225,9.98c-1.896-1.843-4.43-2.882-7.102-2.882     c-3.584,0-6.905,1.914-8.734,4.953c-1.829-3.039-5.15-4.953-8.734-4.953c-2.672,0-5.205,1.039-7.103,2.882     c-1.66-5.843-7.061-9.98-13.223-9.98c-0.249,0-0.491,0.011-0.725,0.025c-1.626-3.728-5.246-6.11-9.336-6.11     c-5.623,0-10.198,4.574-10.198,10.196c0,4.221,2.6,7.985,6.514,9.502c-0.002,0.045-0.003,0.09-0.003,0.135     c0,7.58,6.167,13.747,13.748,13.747h58.991c0.074,0,0.146-0.018,0.211-0.046c7.117-0.556,12.664-6.541,12.664-13.701     c0-0.045,0-0.09-0.003-0.135C214.565,112.689,217.165,108.925,217.165,104.704z" data-original="#585757" class="" style="fill:#113BBF" data-old_color="#585757"/>
		</g>
	</g>
	<g>
		<g>
			<polygon fill="#FFFFFF" points="194.95,91.002 175.542,84.841 175.542,66.89 187.564,66.89 194.95,82.906    " data-original="#FFFFFF" class=""/>
		</g>
		<g>
			<path fill="#585757" d="M194.95,91.757c-0.076,0-0.153-0.012-0.229-0.034l-19.408-6.16c-0.314-0.101-0.527-0.392-0.527-0.721     V66.89c0-0.418,0.339-0.756,0.756-0.756h12.022c0.294,0,0.562,0.171,0.686,0.438l7.388,16.016c0.046,0.1,0.068,0.208,0.068,0.317     v8.096c0,0.24-0.114,0.467-0.31,0.608C195.266,91.707,195.109,91.757,194.95,91.757z M176.298,84.288l17.897,5.68v-6.896     l-7.115-15.426h-10.782V84.288z" data-original="#585757" class="" style="fill:#113BBF" data-old_color="#585757"/>
		</g>
	</g>
	<g>
		<g>
			<path fill="#FFFFFF" d="M183.326,51.29c0-9.118-16.512-21.946-16.512-21.946s-16.51,12.828-16.51,21.946     c0,9.12,7.391,16.511,16.51,16.511S183.326,60.41,183.326,51.29z" data-original="#FFFFFF" class=""/>
		</g>
		<g>
			<path fill="#585757" d="M166.814,68.557c-9.521,0-17.267-7.746-17.267-17.267c0-9.381,16.116-22.009,16.804-22.542     c0.271-0.213,0.653-0.213,0.927,0c0.687,0.533,16.804,13.161,16.804,22.542C184.082,60.811,176.336,68.557,166.814,68.557z      M166.814,30.312c-2.653,2.15-15.754,13.17-15.754,20.978c0,8.687,7.066,15.755,15.754,15.755s15.756-7.068,15.756-15.755     C182.57,43.482,169.468,32.462,166.814,30.312z" data-original="#585757" class="" style="fill:#113BBF" data-old_color="#585757"/>
		</g>
	</g>
	<g>
		<g>
			<path fill="#F4B845" d="M153.038,85.042c0,7.608,13.777,18.312,13.777,18.312s13.775-10.703,13.775-18.312     c0-7.609-6.168-13.777-13.775-13.777C159.207,71.265,153.038,77.433,153.038,85.042z" data-original="#F4B845"/>
		</g>
		<g>
			<path fill="#585757" d="M166.815,104.311l-0.464-0.358c-0.574-0.447-14.068-11.021-14.068-18.909     c0-8.013,6.519-14.533,14.532-14.533c8.013,0,14.532,6.521,14.532,14.533c0,7.889-13.494,18.462-14.068,18.909L166.815,104.311z      M166.815,72.021c-7.181,0-13.021,5.841-13.021,13.021c0,6.388,10.649,15.412,13.021,17.344     c2.372-1.932,13.021-10.956,13.021-17.344C179.837,77.862,173.995,72.021,166.815,72.021z" data-original="#585757" class="" style="fill:#113BBF" data-old_color="#585757"/>
		</g>
	</g>
	<g>
		<g>
			<path fill="#F4B845" d="M174.311,103.03c0,2.643,4.785,6.358,4.785,6.358s4.783-3.717,4.783-6.358s-2.143-4.785-4.783-4.785     C176.453,98.245,174.311,100.389,174.311,103.03z" data-original="#F4B845"/>
		</g>
		<g>
			<path fill="#585757" d="M179.096,110.346l-0.466-0.359c-0.52-0.402-5.075-4.027-5.075-6.955c0-3.057,2.484-5.541,5.541-5.541     c3.054,0,5.539,2.484,5.539,5.541c0,2.928-4.558,6.553-5.076,6.955L179.096,110.346z M179.096,99.001     c-2.223,0-4.029,1.808-4.029,4.029c0,1.512,2.307,3.948,4.029,5.388c1.723-1.438,4.027-3.876,4.027-5.388     C183.124,100.809,181.317,99.001,179.096,99.001z" data-original="#585757" class="" style="fill:#113BBF" data-old_color="#585757"/>
		</g>
	</g>
	<g>
		<g>
			<path fill="#F4B845" d="M149.85,99.104c0,1.623,2.938,3.905,2.938,3.905s2.938-2.282,2.938-3.905s-1.315-2.938-2.938-2.938     S149.85,97.48,149.85,99.104z" data-original="#F4B845"/>
		</g>
		<g>
			<path fill="#585757" d="M152.788,103.966l-0.463-0.358c-0.54-0.42-3.231-2.607-3.231-4.504c0-2.037,1.657-3.693,3.694-3.693     s3.694,1.656,3.694,3.693c0,1.896-2.691,4.084-3.229,4.504L152.788,103.966z M152.788,96.92c-1.203,0-2.183,0.979-2.183,2.184     c0,0.737,1.176,2.049,2.184,2.927c1.023-0.89,2.183-2.183,2.183-2.927C154.971,97.898,153.992,96.92,152.788,96.92z" data-original="#585757" class="" style="fill:#113BBF" data-old_color="#585757"/>
		</g>
	</g>
	<g>
		<g>
			<polygon fill="#FFFFFF" points="138.52,91.002 157.928,84.841 157.928,66.89 145.906,66.89 138.52,82.906    " data-original="#FFFFFF" class=""/>
		</g>
		<g>
			<path fill="#585757" d="M138.52,91.757c-0.16,0-0.316-0.05-0.447-0.146c-0.193-0.144-0.309-0.369-0.309-0.609v-8.096     c0-0.109,0.022-0.218,0.068-0.317l7.388-16.016c0.123-0.268,0.391-0.438,0.687-0.438h12.021c0.418,0,0.756,0.338,0.756,0.756     v17.951c0,0.329-0.214,0.621-0.527,0.721l-19.408,6.16C138.673,91.745,138.596,91.757,138.52,91.757z M139.275,83.071v6.896     l17.896-5.68V67.646h-10.78L139.275,83.071z" data-original="#585757" class="" style="fill:#113BBF" data-old_color="#585757"/>
		</g>
	</g>
	<g>
		<g>
			<circle fill="#FFFFFF" cx="127.613" cy="105.047" r="7.056" data-original="#FFFFFF" class=""/>
		</g>
		<g>
			<path fill="#585757" d="M127.613,112.857c-4.308,0-7.812-3.504-7.812-7.812s3.505-7.812,7.812-7.812s7.812,3.505,7.812,7.812     C135.425,109.354,131.921,112.857,127.613,112.857z M127.613,98.746c-3.474,0-6.3,2.827-6.3,6.301c0,3.475,2.826,6.301,6.3,6.301     s6.301-2.826,6.301-6.301C133.914,101.573,131.087,98.746,127.613,98.746z" data-original="#585757" class="" style="fill:#113BBF" data-old_color="#585757"/>
		</g>
	</g>
	<g>
		<g>
			<circle fill="#FFFFFF" cx="212.758" cy="100.827" r="7.056" data-original="#FFFFFF" class=""/>
		</g>
		<g>
			<path fill="#585757" d="M212.758,108.639c-4.308,0-7.812-3.505-7.812-7.812c0-4.308,3.504-7.812,7.812-7.812     c4.309,0,7.812,3.504,7.812,7.812C220.569,105.134,217.065,108.639,212.758,108.639z M212.758,94.525     c-3.474,0-6.3,2.828-6.3,6.301c0,3.474,2.826,6.301,6.3,6.301c3.475,0,6.301-2.827,6.301-6.301     C219.058,97.354,216.231,94.525,212.758,94.525z" data-original="#585757" class="" style="fill:#113BBF" data-old_color="#585757"/>
		</g>
	</g>
	<g>
		<g>
			<circle fill="#FFFFFF" cx="166.845" cy="122.687" r="7.055" data-original="#FFFFFF" class=""/>
		</g>
		<g>
			<path fill="#585757" d="M166.845,130.498c-4.309,0-7.812-3.504-7.812-7.811c0-4.309,3.503-7.812,7.812-7.812     c4.308,0,7.812,3.504,7.812,7.812C174.656,126.994,171.152,130.498,166.845,130.498z M166.845,116.389     c-3.475,0-6.3,2.824-6.3,6.299s2.825,6.301,6.3,6.301s6.301-2.826,6.301-6.301S170.319,116.389,166.845,116.389z" data-original="#585757" class="" style="fill:#113BBF" data-old_color="#585757"/>
		</g>
	</g>
	<g>
		<g>
			<rect x="150.034" y="50.083" fill="#D84253" width="33.562" height="35.586" data-original="#D84253"/>
		</g>
		<g>
			<path fill="#585757" d="M183.595,86.424h-33.562c-0.417,0-0.755-0.338-0.755-0.755V50.083c0-0.417,0.338-0.756,0.755-0.756     h33.562c0.418,0,0.756,0.338,0.756,0.756v35.586C184.351,86.086,184.013,86.424,183.595,86.424z M150.79,84.913h32.049V50.838     H150.79V84.913z" data-original="#585757" class="" style="fill:#113BBF" data-old_color="#585757"/>
		</g>
	</g>
	<g>
		<g>
			<path fill="#585757" d="M179.426,82.281h-25.159c-0.626,0-1.135-0.507-1.135-1.133c0-0.627,0.509-1.134,1.135-1.134h25.159     c0.626,0,1.135,0.507,1.135,1.134C180.56,81.774,180.052,82.281,179.426,82.281z" data-original="#585757" class="" style="fill:#113BBF" data-old_color="#585757"/>
		</g>
	</g>
	<g>
		<g>
			<rect x="163.07" y="69.982" fill="#FFFFFF" width="7.489" height="24.366" data-original="#FFFFFF" class=""/>
		</g>
		<g>
			<path fill="#585757" d="M170.56,95.104h-7.489c-0.418,0-0.756-0.34-0.756-0.756V69.982c0-0.417,0.338-0.756,0.756-0.756h7.489     c0.417,0,0.756,0.338,0.756,0.756v24.366C171.315,94.764,170.977,95.104,170.56,95.104z M163.826,93.592h5.979V70.738h-5.979     V93.592z" data-original="#585757" class="" style="fill:#113BBF" data-old_color="#585757"/>
		</g>
	</g>
	<g>
		<g>
			<circle fill="#2E96BE" cx="166.815" cy="59.938" r="7.134" data-original="#2E96BE"/>
		</g>
		<g>
			
				<rect x="166.003" y="52.522" transform="matrix(-0.8507 0.5257 -0.5257 -0.8507 341.4799 21.5638)" fill="#585757" width="3.349" height="13.513" data-original="#585757" class="" style="fill:#113BBF" data-old_color="#585757"/>
		</g>
		<g>
			
				<rect x="163.835" y="54.851" transform="matrix(-0.8508 0.5255 -0.5255 -0.8508 336.622 27.6274)" fill="#585757" width="1.107" height="13.513" data-original="#585757" class="" style="fill:#113BBF" data-old_color="#585757"/>
		</g>
		<g>
			<path fill="#585757" d="M166.814,67.827c-4.352,0-7.891-3.54-7.891-7.89c0-4.351,3.539-7.89,7.891-7.89s7.891,3.539,7.891,7.89     S171.166,67.827,166.814,67.827z M166.814,53.559c-3.518,0-6.378,2.86-6.378,6.378c0,3.516,2.86,6.378,6.378,6.378     s6.379-2.862,6.379-6.378C173.193,56.419,170.332,53.559,166.814,53.559z" data-original="#585757" class="" style="fill:#113BBF" data-old_color="#585757"/>
		</g>
	</g>
	<g>
		<g>
			<g>
				<circle fill="#FFFFFF" cx="97.37" cy="130.926" r="7.056" data-original="#FFFFFF" class=""/>
			</g>
			<g>
				<path fill="#585757" d="M97.37,138.736c-4.308,0-7.812-3.504-7.812-7.811c0-4.308,3.504-7.812,7.812-7.812      c4.307,0,7.812,3.504,7.812,7.812C105.181,135.232,101.677,138.736,97.37,138.736z M97.37,124.626c-3.475,0-6.3,2.826-6.3,6.301      c0,3.474,2.825,6.3,6.3,6.3s6.299-2.826,6.299-6.3C103.669,127.452,100.844,124.626,97.37,124.626z" data-original="#585757" class="" style="fill:#113BBF" data-old_color="#585757"/>
			</g>
		</g>
		<g>
			<g>
				<path fill="#FFFFFF" d="M233.24,112.066c0-7.155-5.801-12.957-12.957-12.957c-5.497,0-10.182,3.428-12.063,8.258      c-0.484-0.04-0.97-0.074-1.464-0.074c-8.587,0-15.746,6.105-17.379,14.211c-2.377-2.849-5.952-4.663-9.951-4.663      c-5.209,0-9.688,3.08-11.746,7.513c-2.06-4.433-6.538-7.513-11.746-7.513c-4,0-7.575,1.814-9.951,4.663      c-1.633-8.105-8.792-14.211-17.379-14.211c-0.494,0-0.979,0.034-1.463,0.074c-1.885-4.83-6.568-8.258-12.064-8.258      c-7.156,0-12.958,5.802-12.958,12.957c0,5.695,3.681,10.521,8.789,12.26c-0.01,0.232-0.035,0.463-0.035,0.697      c0,9.793,7.938,17.731,17.731,17.731h79.327v-0.043c9.243-0.604,16.558-8.291,16.558-17.688c0-0.234-0.026-0.465-0.036-0.697      C229.56,122.589,233.24,117.764,233.24,112.066z" data-original="#FFFFFF" class=""/>
			</g>
			<g>
				<path fill="#585757" d="M207.93,143.512h-79.327c-10.194,0-18.487-8.294-18.487-18.486c0-0.062,0.002-0.121,0.003-0.182      c-5.261-2.039-8.757-7.103-8.757-12.775c0-7.562,6.151-13.715,13.714-13.715c5.498,0,10.367,3.207,12.555,8.22      c0.312-0.021,0.639-0.034,0.974-0.034c8.287,0,15.548,5.564,17.78,13.422c2.551-2.479,5.956-3.875,9.55-3.875      c4.819,0,9.284,2.572,11.746,6.66c2.461-4.088,6.927-6.66,11.746-6.66c3.593,0,6.999,1.396,9.549,3.875      c2.233-7.857,9.494-13.422,17.781-13.422c0.335,0,0.659,0.016,0.974,0.034c2.188-5.013,7.055-8.22,12.555-8.22      c7.562,0,13.713,6.151,13.713,13.715c0,5.674-3.495,10.736-8.756,12.775c0.001,0.061,0.003,0.12,0.003,0.182      c0,9.629-7.461,17.678-17.03,18.426C208.125,143.489,208.03,143.512,207.93,143.512z M115.075,99.865      c-6.729,0-12.202,5.474-12.202,12.201c0,5.222,3.326,9.859,8.276,11.543c0.315,0.108,0.523,0.412,0.512,0.746      c-0.003,0.1-0.011,0.197-0.017,0.295c-0.01,0.125-0.019,0.248-0.019,0.373c0,9.36,7.615,16.977,16.977,16.977h79.074      c0.064-0.023,0.133-0.036,0.203-0.042c8.889-0.581,15.852-8.021,15.852-16.935c0-0.125-0.009-0.248-0.019-0.373      c-0.006-0.098-0.014-0.195-0.017-0.295c-0.014-0.334,0.195-0.638,0.512-0.746c4.95-1.684,8.275-6.321,8.275-11.543      c0-6.729-5.474-12.201-12.201-12.201c-5.06,0-9.52,3.053-11.36,7.775c-0.121,0.312-0.438,0.508-0.766,0.479      c-0.446-0.035-0.922-0.071-1.401-0.071c-8.053,0-15.05,5.723-16.638,13.604c-0.058,0.285-0.274,0.514-0.557,0.584      c-0.282,0.072-0.58-0.025-0.767-0.248c-2.329-2.791-5.744-4.393-9.37-4.393c-4.724,0-9.064,2.777-11.062,7.075      c-0.124,0.269-0.393,0.438-0.687,0.438s-0.562-0.17-0.685-0.438c-1.997-4.298-6.339-7.075-11.062-7.075      c-3.628,0-7.043,1.602-9.371,4.393c-0.188,0.223-0.483,0.32-0.768,0.248c-0.282-0.07-0.497-0.299-0.555-0.584      c-1.589-7.883-8.585-13.604-16.638-13.604c-0.479,0-0.955,0.036-1.401,0.071c-0.33,0.028-0.645-0.168-0.766-0.479      C124.594,102.918,120.134,99.865,115.075,99.865z" data-original="#585757" class="" style="fill:#113BBF" data-old_color="#585757"/>
			</g>
		</g>
		<g>
			<g>
				<circle fill="#FFFFFF" cx="237.988" cy="130.926" r="7.056" data-original="#FFFFFF" class=""/>
			</g>
			<g>
				<path fill="#585757" d="M237.988,138.736c-4.307,0-7.812-3.504-7.812-7.811c0-4.308,3.505-7.812,7.812-7.812      s7.812,3.504,7.812,7.812C245.8,135.232,242.295,138.736,237.988,138.736z M237.988,124.626c-3.474,0-6.299,2.826-6.299,6.301      c0,3.474,2.825,6.3,6.299,6.3c3.475,0,6.3-2.826,6.3-6.3C244.288,127.452,241.463,124.626,237.988,124.626z" data-original="#585757" class="" style="fill:#113BBF" data-old_color="#585757"/>
			</g>
		</g>
	</g>
	<g>
		<g>
			<path fill="#FFFFFF" d="M233.926,68.592c-0.377,0-0.739,0.055-1.086,0.151c0.008-0.131,0.021-0.261,0.021-0.395     c0-4.654-3.772-8.426-8.426-8.426c-3.676,0-6.793,2.356-7.944,5.638c-0.171-0.015-0.343-0.026-0.519-0.026     c-3.104,0-5.619,2.516-5.619,5.62s2.517,5.621,5.619,5.621h17.881V76.77c0.024,0,0.049,0.005,0.073,0.005     c2.261,0,4.093-1.832,4.093-4.092C238.018,70.424,236.186,68.592,233.926,68.592z" data-original="#FFFFFF" class=""/>
		</g>
		<g>
			<path fill="#585757" d="M233.926,77.531c-0.017,0-0.048,0-0.073,0h-17.881c-3.516,0-6.375-2.86-6.375-6.376     c0-3.516,2.859-6.376,6.375-6.376c0.004,0,0.007,0,0.011,0c1.427-3.379,4.755-5.612,8.452-5.612c4.896,0,8.906,3.851,9.169,8.682     c2.808-0.207,5.171,2.055,5.171,4.835C238.773,75.355,236.599,77.531,233.926,77.531z M215.971,66.29     c-2.683,0-4.863,2.182-4.863,4.864c0,2.683,2.182,4.865,4.863,4.865h17.792c0.051-0.005,0.113-0.006,0.187,0     c1.829-0.012,3.312-1.505,3.312-3.336c0-2.129-2.037-3.813-4.223-3.212c-0.232,0.064-0.482,0.012-0.673-0.139     c-0.188-0.151-0.294-0.384-0.282-0.626l0.011-0.153c0.004-0.067,0.009-0.135,0.009-0.205c0-4.229-3.44-7.67-7.67-7.67     c-3.247,0-6.153,2.063-7.231,5.133c-0.115,0.326-0.438,0.528-0.781,0.502C216.272,66.299,216.123,66.29,215.971,66.29z" data-original="#585757" class="" style="fill:#113BBF" data-old_color="#585757"/>
		</g>
	</g>
	<g>
		<g>
			<g>
				<g>
					<rect x="61.157" y="109.584" fill="#CAD41F" width="26.661" height="13.95" data-original="#CAD41F"/>
				</g>
			</g>
			<g>
				<g>
					<path fill="#585757" d="M87.818,124.243H61.157c-0.391,0-0.71-0.318-0.71-0.709v-13.95c0-0.393,0.319-0.71,0.71-0.71h26.661       c0.391,0,0.709,0.317,0.709,0.71v13.95C88.527,123.925,88.209,124.243,87.818,124.243z M61.867,122.824h25.241v-12.531H61.867       V122.824z" data-original="#585757" class="" style="fill:#113BBF" data-old_color="#585757"/>
				</g>
			</g>
		</g>
		<g>
			<g>
				<g>
					<path fill="#585757" d="M76.882,117.975c0,1.577-1.24,2.645-2.817,2.645c-1.275,0-2.691-1.021-2.691-2.377       c0-0.35,0.29-0.661,0.662-0.661c0.336,0,0.625,0.243,0.685,0.579c0.081,0.51,0.477,0.927,0.996,1.056v-2.401       c-1.158-0.416-1.737-1.158-1.737-2.215c0-1.16,1.043-2.099,2.424-2.099c0.638,0,1.681,0.358,1.681,1.021       c0,0.404-0.336,0.66-0.673,0.66c-0.29,0-0.557-0.244-0.869-0.312v1.763c0.255,0.081,0.533,0.175,0.848,0.336       C76.289,116.432,76.882,116.919,76.882,117.975z M73.715,115.354v-1.334c-0.242,0.129-0.382,0.336-0.382,0.58       C73.333,115.018,73.472,115.213,73.715,115.354z M74.539,119.203c0.685-0.176,0.881-0.719,0.881-1.125       c0-0.521-0.44-0.801-0.881-0.985V119.203z" data-original="#585757" class="" style="fill:#113BBF" data-old_color="#585757"/>
				</g>
			</g>
		</g>
	</g>
	<g>
		<g>
			<g>
				<g>
					<rect x="241.334" y="81.403" fill="#CAD41F" width="25.221" height="13.195" data-original="#CAD41F"/>
				</g>
			</g>
			<g>
				<g>
					<path fill="#585757" d="M266.554,95.271h-25.221c-0.37,0-0.671-0.303-0.671-0.672V81.403c0-0.371,0.301-0.671,0.671-0.671       h25.221c0.37,0,0.672,0.3,0.672,0.671v13.195C267.226,94.969,266.925,95.271,266.554,95.271z M242.006,93.927h23.877V82.074       h-23.877V93.927z" data-original="#585757" class="" style="fill:#113BBF" data-old_color="#585757"/>
				</g>
			</g>
		</g>
		<g>
			<g>
				<g>
					<path fill="#585757" d="M256.209,89.34c0,1.492-1.174,2.5-2.666,2.5c-1.207,0-2.546-0.964-2.546-2.248       c0-0.328,0.274-0.625,0.626-0.625c0.318,0,0.593,0.229,0.647,0.549c0.077,0.482,0.449,0.877,0.942,0.998v-2.271       c-1.097-0.395-1.646-1.098-1.646-2.096c0-1.098,0.986-1.986,2.292-1.986c0.604,0,1.592,0.34,1.592,0.966       c0,0.383-0.318,0.625-0.637,0.625c-0.274,0-0.526-0.229-0.823-0.296v1.667c0.242,0.077,0.505,0.165,0.802,0.317       C255.649,87.881,256.209,88.342,256.209,89.34z M253.214,86.859v-1.262c-0.229,0.121-0.36,0.318-0.36,0.549       C252.853,86.542,252.983,86.729,253.214,86.859z M253.992,90.502c0.648-0.164,0.834-0.68,0.834-1.064       c0-0.492-0.418-0.756-0.834-0.932V90.502z" data-original="#585757" class="" style="fill:#113BBF" data-old_color="#585757"/>
				</g>
			</g>
		</g>
	</g>
	<g>
		<g>
			<path fill="#CAD41F" d="M195.204,130.689c0,0,7.67-5.291,2.515-14.289l9.497-5C207.216,111.4,216.354,128.758,195.204,130.689z" data-original="#CAD41F"/>
		</g>
		<g>
			<path fill="#585757" d="M195.204,131.445c-0.314,0-0.601-0.196-0.71-0.497c-0.117-0.323-0.002-0.685,0.279-0.88l0,0     c0.289-0.2,7.025-5.025,2.29-13.291c-0.104-0.18-0.127-0.391-0.07-0.588c0.058-0.196,0.192-0.361,0.374-0.457l9.497-5     c0.177-0.094,0.384-0.113,0.576-0.053c0.19,0.059,0.352,0.191,0.443,0.369c0.165,0.312,3.997,7.731,0.769,13.678     c-2.083,3.836-6.584,6.094-13.379,6.717C195.25,131.443,195.227,131.445,195.204,131.445z M198.749,116.713     c3.177,6.172,0.633,10.673-1.348,12.939c4.99-0.812,8.321-2.704,9.92-5.642c2.321-4.267,0.365-9.683-0.455-11.571     L198.749,116.713z" data-original="#585757" class="" style="fill:#113BBF" data-old_color="#585757"/>
		</g>
	</g>
	<g>
		<path fill="#CAD41F" d="M207.639,125.286c0,0-9.471,3.619-14.366-6.544l-10.332,5.439    C182.94,124.182,192.881,143.064,207.639,125.286z" data-original="#CAD41F"/>
	</g>
	<g>
		<path fill="#585757" d="M195.117,133.668L195.117,133.668c-7.945-0.002-12.649-8.761-12.846-9.135    c-0.094-0.178-0.113-0.385-0.055-0.575c0.062-0.192,0.193-0.353,0.37-0.444l10.333-5.439c0.183-0.096,0.396-0.113,0.589-0.049    c0.194,0.063,0.354,0.205,0.443,0.391c2.686,5.572,6.801,6.741,9.779,6.741c2.086,0,3.622-0.571,3.638-0.577    c0.32-0.122,0.685-0.012,0.883,0.268c0.199,0.28,0.188,0.658-0.032,0.922C203.87,131.009,199.462,133.668,195.117,133.668z     M183.992,124.48c1.221,1.965,5.276,7.674,11.124,7.676c0.001,0,0.001,0,0.001,0c3.381,0,6.87-1.885,10.396-5.606    c-3.219,0.427-8.939,0.022-12.566-6.78L183.992,124.48z" data-original="#585757" class="" style="fill:#113BBF" data-old_color="#585757"/>
	</g>
	<g>
		<g>
			<g>
				<path fill="#CAD41F" d="M115.846,110.386c0,0,2.211-7.97-6.418-11.161l3.62-8.811      C113.049,90.414,129.149,97.034,115.846,110.386z" data-original="#CAD41F"/>
			</g>
			<g>
				<path fill="#585757" d="M115.846,111.143c-0.132,0-0.263-0.035-0.381-0.104c-0.297-0.173-0.438-0.522-0.35-0.853l0,0      c0.082-0.3,1.902-7.348-5.951-10.254c-0.191-0.07-0.348-0.219-0.43-0.406c-0.083-0.188-0.086-0.4-0.008-0.59l3.623-8.811      c0.074-0.186,0.223-0.333,0.406-0.411c0.187-0.075,0.395-0.075,0.578-0.001c0.293,0.12,7.165,3.01,8.358,8.941      c0.771,3.826-1.019,7.953-5.312,12.264C116.235,111.064,116.041,111.143,115.846,111.143z M110.416,98.805      c5.488,2.354,6.429,6.688,6.423,9.394c2.809-3.306,3.941-6.406,3.375-9.238c-0.824-4.123-5.086-6.666-6.769-7.522      L110.416,98.805z" data-original="#585757" class="" style="fill:#113BBF" data-old_color="#585757"/>
			</g>
		</g>
		<g>
			<g>
				<path fill="#CAD41F" d="M121.238,99.629c0,0-4.389,7.854-13.507,3.719l-3.942,9.586      C103.789,112.934,121.306,120.136,121.238,99.629z" data-original="#CAD41F"/>
			</g>
			<g>
				<path fill="#585757" d="M110.272,114.915c-0.001,0-0.001,0-0.002,0c-3.605-0.001-6.643-1.231-6.77-1.284      c-0.186-0.074-0.333-0.224-0.41-0.408c-0.076-0.184-0.077-0.393-0.002-0.578l3.941-9.584c0.078-0.188,0.229-0.34,0.421-0.414      c0.19-0.076,0.403-0.071,0.591,0.015c1.662,0.753,3.269,1.135,4.775,1.135c5.166,0,7.733-4.489,7.76-4.534      c0.168-0.3,0.518-0.449,0.851-0.363c0.332,0.086,0.564,0.386,0.565,0.729c0.02,5.611-1.266,9.754-3.813,12.312      C116.21,113.912,113.55,114.915,110.272,114.915z M104.789,112.486c1.059,0.344,3.164,0.916,5.481,0.916c0,0,0.001,0,0.002,0      c2.86,0,5.161-0.852,6.836-2.53c1.906-1.913,3.013-4.911,3.299-8.931c-1.442,1.517-3.947,3.365-7.589,3.365      c-1.5,0-3.071-0.324-4.68-0.965L104.789,112.486z" data-original="#585757" class="" style="fill:#113BBF" data-old_color="#585757"/>
			</g>
		</g>
	</g>
	<g>
		<g>
			<g>
				<path fill="#CAD41F" d="M144.17,127.419c0,0,8.198-1.084,7.761-10.276l9.523-0.113      C161.454,117.027,161.664,134.436,144.17,127.419z" data-original="#CAD41F"/>
			</g>
			<g>
				<path fill="#585757" d="M151.563,129.842c-2.245,0-4.828-0.578-7.675-1.722c-0.319-0.128-0.513-0.454-0.47-0.796      s0.311-0.609,0.651-0.655c0.305-0.041,7.503-1.125,7.104-9.489c-0.01-0.205,0.064-0.404,0.204-0.555      c0.143-0.15,0.337-0.234,0.542-0.236l9.524-0.115c0.23-0.01,0.394,0.074,0.537,0.216c0.144,0.14,0.226,0.331,0.228,0.53      c0.003,0.26,0.033,6.371-3.638,10.088C156.777,128.921,154.42,129.842,151.563,129.842z M146.574,127.477      c4.812,1.494,8.506,1.013,10.922-1.434c2.527-2.557,3.062-6.586,3.173-8.249l-7.966,0.097      C152.686,123.859,149.064,126.421,146.574,127.477z" data-original="#585757" class="" style="fill:#113BBF" data-old_color="#585757"/>
			</g>
		</g>
		<g>
			<g>
				<path fill="#CAD41F" d="M156.179,128.172c0,0-8.946-0.965-8.708-10.975l-10.362,0.123      C137.108,117.32,137.335,136.26,156.179,128.172z" data-original="#CAD41F"/>
			</g>
			<g>
				<path fill="#585757" d="M147.86,130.938L147.86,130.938c-11.216,0-11.507-13.472-11.508-13.606      c-0.005-0.417,0.329-0.761,0.747-0.765l10.361-0.125c0.003,0,0.006,0,0.01,0c0.201,0,0.396,0.08,0.536,0.225      c0.146,0.146,0.224,0.345,0.22,0.55c-0.22,9.209,7.695,10.169,8.032,10.206c0.343,0.037,0.615,0.299,0.667,0.639      s-0.135,0.672-0.448,0.808C153.276,130.24,150.377,130.938,147.86,130.938z M137.903,118.066      c0.214,2.673,1.554,11.357,9.957,11.357c1.754,0,3.729-0.378,5.899-1.124c-2.73-1.034-6.896-3.698-7.046-10.339L137.903,118.066      z" data-original="#585757" class="" style="fill:#113BBF" data-old_color="#585757"/>
			</g>
		</g>
	</g>
	<g>
		<g>
			<g>
				<path fill="#CAD41F" d="M261.552,135.275c0,0,5.153-3.391,1.873-9.418l6.357-3.172      C269.782,122.688,275.575,134.307,261.552,135.275z" data-original="#CAD41F"/>
			</g>
			<g>
				<path fill="#585757" d="M261.552,136.032c-0.322,0-0.611-0.205-0.716-0.515c-0.108-0.324,0.014-0.684,0.298-0.871l0,0      c0.187-0.125,4.524-3.104,1.628-8.429c-0.1-0.181-0.118-0.393-0.058-0.589c0.062-0.193,0.199-0.357,0.383-0.447l6.357-3.172      c0.181-0.09,0.389-0.104,0.577-0.04c0.189,0.063,0.347,0.199,0.438,0.38c0.106,0.215,2.592,5.299,0.301,9.303      c-1.479,2.588-4.56,4.061-9.155,4.379C261.586,136.031,261.568,136.032,261.552,136.032z M264.439,126.195      c1.7,3.697,0.472,6.453-0.783,8.066c2.864-0.514,4.808-1.64,5.791-3.359c1.45-2.534,0.493-5.778-0.046-7.182L264.439,126.195z" data-original="#585757" class="" style="fill:#113BBF" data-old_color="#585757"/>
			</g>
		</g>
		<g>
			<g>
				<path fill="#CAD41F" d="M269.859,131.882c0,0-6.319,2.259-9.412-4.541l-6.916,3.45      C253.531,130.791,259.833,143.434,269.859,131.882z" data-original="#CAD41F"/>
			</g>
			<g>
				<path fill="#585757" d="M261.606,137.503L261.606,137.503c-5.51,0-8.622-6.114-8.752-6.376      c-0.188-0.373-0.034-0.826,0.339-1.013l6.917-3.449c0.184-0.092,0.396-0.104,0.59-0.035c0.193,0.067,0.351,0.212,0.435,0.397      c1.678,3.686,4.357,4.459,6.312,4.459c1.245,0,2.152-0.313,2.161-0.317c0.323-0.114,0.684,0.005,0.877,0.289      c0.191,0.283,0.171,0.66-0.054,0.92C267.479,135.777,264.509,137.503,261.606,137.503z M254.586,131.109      c0.909,1.468,3.415,4.882,7.021,4.882c1.972,0,4.035-1.007,6.149-3c-0.102,0.004-0.204,0.006-0.311,0.006      c-1.858,0-5.195-0.622-7.34-4.642L254.586,131.109z" data-original="#585757" class="" style="fill:#113BBF" data-old_color="#585757"/>
			</g>
		</g>
	</g>
	<g>
		<g>
			<g>
				<path fill="#CAD41F" d="M131.147,139.863c0,0,2.028,5.824,8.677,4.117l1.521,6.938      C141.346,150.92,128.663,153.699,131.147,139.863z" data-original="#CAD41F"/>
			</g>
			<g>
				<path fill="#585757" d="M130.415,139.68c0.078-0.313,0.35-0.544,0.673-0.568c0.343-0.026,0.659,0.18,0.772,0.503l0,0      c0.075,0.21,1.904,5.144,7.774,3.636c0.199-0.052,0.41-0.02,0.586,0.088c0.175,0.108,0.298,0.281,0.342,0.482l1.521,6.938      c0.043,0.196,0.006,0.4-0.102,0.569c-0.108,0.168-0.279,0.287-0.477,0.331c-0.232,0.051-5.771,1.219-9.095-1.981      c-2.146-2.066-2.823-5.412-2.008-9.947C130.407,139.713,130.411,139.695,130.415,139.68z M139.248,144.882      c-4.001,0.745-6.373-1.118-7.631-2.729c-0.201,2.904,0.416,5.063,1.844,6.438c2.104,2.025,5.483,1.889,6.976,1.71      L139.248,144.882z" data-original="#585757" class="" style="fill:#113BBF" data-old_color="#585757"/>
			</g>
		</g>
		<g>
			<g>
				<path fill="#CAD41F" d="M132.411,148.748c0,0-0.646-6.68,6.701-8.018l-1.654-7.549      C137.458,133.182,123.659,136.205,132.411,148.748z" data-original="#CAD41F"/>
			</g>
			<g>
				<path fill="#585757" d="M128.976,139.373L128.976,139.373c1.347-5.343,8.036-6.867,8.319-6.93c0.407-0.09,0.811,0.168,0.9,0.576      l1.654,7.551c0.044,0.199,0.005,0.408-0.109,0.58c-0.113,0.17-0.292,0.287-0.493,0.324c-3.981,0.726-5.387,3.135-5.864,5.03      c-0.304,1.206-0.222,2.162-0.221,2.173c0.031,0.342-0.171,0.661-0.494,0.778c-0.32,0.117-0.682,0.006-0.878-0.274      C129.214,145.488,128.267,142.188,128.976,139.373z M136.891,134.127c-1.646,0.523-5.567,2.119-6.449,5.614      c-0.48,1.911-0.009,4.157,1.406,6.696c0.021-0.1,0.045-0.199,0.069-0.302c0.454-1.804,1.873-4.888,6.294-5.983L136.891,134.127z      " data-original="#585757" class="" style="fill:#113BBF" data-old_color="#585757"/>
			</g>
		</g>
	</g>
	<g>
		<g>
			<path fill="#585757" d="M75.965,103.141c-0.626,0-1.134-0.509-1.134-1.135v-3.779c0-0.625,0.508-1.133,1.134-1.133     s1.135,0.508,1.135,1.133v3.779C77.099,102.632,76.591,103.141,75.965,103.141z M75.965,93.314c-0.626,0-1.134-0.508-1.134-1.135     v-3.777c0-0.627,0.508-1.135,1.134-1.135s1.135,0.508,1.135,1.135v3.777C77.099,92.807,76.591,93.314,75.965,93.314z      M75.965,83.489c-0.626,0-1.134-0.508-1.134-1.134v-3.779c0-0.627,0.508-1.134,1.134-1.134s1.135,0.507,1.135,1.134v3.779     C77.099,82.981,76.591,83.489,75.965,83.489z" data-original="#585757" class="" style="fill:#113BBF" data-old_color="#585757"/>
		</g>
	</g>
	<g>
		<g>
			<path fill="#585757" d="M256.209,76.418c-0.626,0-1.134-0.508-1.134-1.134v-3.779c0-0.626,0.508-1.134,1.134-1.134     s1.134,0.508,1.134,1.134v3.779C257.343,75.911,256.835,76.418,256.209,76.418z M256.209,66.593     c-0.626,0-1.134-0.508-1.134-1.134V61.68c0-0.626,0.508-1.134,1.134-1.134s1.134,0.508,1.134,1.134v3.779     C257.343,66.085,256.835,66.593,256.209,66.593z M256.209,56.768c-0.626,0-1.134-0.508-1.134-1.134v-3.779     c0-0.626,0.508-1.134,1.134-1.134s1.134,0.508,1.134,1.134v3.779C257.343,56.26,256.835,56.768,256.209,56.768z M256.209,46.943     c-0.626,0-1.134-0.508-1.134-1.134V42.03c0-0.626,0.508-1.134,1.134-1.134s1.134,0.508,1.134,1.134v3.779     C257.343,46.435,256.835,46.943,256.209,46.943z" data-original="#585757" class="" style="fill:#113BBF" data-old_color="#585757"/>
		</g>
	</g>
	<g>
		<g>
			<path fill="#585757" d="M82.371,73.98c-0.004,0-0.011-0.001-0.015,0H69.573c-0.397,0-0.765-0.208-0.97-0.547     c-0.205-0.34-0.22-0.761-0.034-1.113l6.391-12.2c0.195-0.373,0.583-0.607,1.005-0.607s0.809,0.234,1.004,0.607l6.314,12.051     c0.139,0.189,0.222,0.422,0.222,0.675C83.505,73.472,82.998,73.98,82.371,73.98z M71.446,71.712h9.036l-4.519-8.624     L71.446,71.712z" data-original="#585757" class="" style="fill:#113BBF" data-old_color="#585757"/>
		</g>
	</g>
	<g>
		<g>
			<circle fill="#FFFFFF" cx="173.9" cy="142.167" r="7.056" data-original="#FFFFFF" class=""/>
		</g>
		<g>
			<path fill="#585757" d="M173.9,149.979c-4.308,0-7.812-3.504-7.812-7.812s3.504-7.812,7.812-7.812s7.812,3.504,7.812,7.812     C181.713,146.475,178.208,149.979,173.9,149.979z M173.9,135.867c-3.474,0-6.299,2.826-6.299,6.3s2.825,6.3,6.299,6.3     c3.475,0,6.301-2.826,6.301-6.3S177.375,135.867,173.9,135.867z" data-original="#585757" class="" style="fill:#113BBF" data-old_color="#585757"/>
		</g>
	</g>
	<g>
		<g>
			<path fill="#585757" d="M262.616,39.85c-0.006,0-0.011-0.001-0.016,0h-12.783c-0.396,0-0.766-0.208-0.97-0.547     c-0.206-0.34-0.22-0.761-0.034-1.113l6.391-12.2c0.196-0.373,0.583-0.607,1.005-0.607c0.421,0,0.809,0.234,1.004,0.607     l6.314,12.051c0.14,0.189,0.222,0.422,0.222,0.675C263.749,39.342,263.241,39.85,262.616,39.85z M251.69,37.583h9.036     l-4.519-8.624L251.69,37.583z" data-original="#585757" class="" style="fill:#113BBF" data-old_color="#585757"/>
		</g>
	</g>
	<g>
		<g>
			<path fill="#585757" d="M293.228,143.301h-13.597c-0.626,0-1.134-0.508-1.134-1.134v-28.994c0-0.626,0.508-1.134,1.134-1.134     h13.597c0.626,0,1.134,0.508,1.134,1.134v28.994C294.361,142.793,293.854,143.301,293.228,143.301z M280.766,141.033h11.327     v-26.727h-11.327V141.033z" data-original="#585757" class="" style="fill:#113BBF" data-old_color="#585757"/>
		</g>
	</g>
	<g>
		<g>
			<path fill="#585757" d="M306.823,143.301h-13.596c-0.627,0-1.135-0.508-1.135-1.134v-16.175c0-0.626,0.508-1.135,1.135-1.135     h13.596c0.626,0,1.134,0.509,1.134,1.135v16.175C307.957,142.793,307.449,143.301,306.823,143.301z M294.361,141.033h11.328     v-13.908h-11.328V141.033z" data-original="#585757" class="" style="fill:#113BBF" data-old_color="#585757"/>
		</g>
	</g>
	<g>
		<g>
			<path fill="#585757" d="M320.419,143.301h-13.596c-0.627,0-1.134-0.508-1.134-1.134v-10.14c0-0.627,0.507-1.135,1.134-1.135     h13.596c0.626,0,1.134,0.508,1.134,1.135v10.14C321.552,142.793,321.045,143.301,320.419,143.301z M307.957,141.033h11.328     v-7.872h-11.328V141.033z" data-original="#585757" class="" style="fill:#113BBF" data-old_color="#585757"/>
		</g>
	</g>
</g></g> </svg>
