<?xml version="1.0"?>
<svg xmlns="http://www.w3.org/2000/svg" xmlns:xlink="http://www.w3.org/1999/xlink" version="1.1" id="Capa_1" x="0px" y="0px" width="512px" height="512px" viewBox="0 0 360 170" enable-background="new 0 0 360 170" xml:space="preserve" class=""><g><g>
	<circle fill="#DFDFDF" cx="180.371" cy="85.001" r="85" data-original="#DFDFDF" class="active-path" style="fill:#2E96BE" data-old_color="#DFDFDF"/>
	<g>
		<g>
			<g>
				<path fill="#585757" d="M118.582,145.495H99.006c-0.626,0-1.134-0.509-1.134-1.134v-22.58c0-0.629,0.508-1.135,1.134-1.135      h19.576c0.626,0,1.134,0.506,1.134,1.135v22.58C119.716,144.986,119.208,145.495,118.582,145.495z M100.139,143.229h17.31      v-20.312h-17.31V143.229z" data-original="#585757" class="" style="fill:#113BBF" data-old_color="#585757"/>
			</g>
		</g>
	</g>
	<g>
		<g>
			<g>
				<g>
					<path fill="#585757" d="M88.439,87.47h-0.002c-9.085,0-17.303-5.729-20.444-14.26c-4.154-11.273,1.637-23.823,12.91-27.977       c2.43-0.896,4.963-1.35,7.531-1.35c9.086,0,17.304,5.73,20.445,14.26c2.013,5.46,1.777,11.378-0.661,16.663       c-2.438,5.283-6.788,9.303-12.248,11.315C93.539,87.016,91.006,87.47,88.439,87.47z M88.435,46.151       c-2.301,0-4.57,0.406-6.747,1.209c-10.101,3.721-15.289,14.967-11.567,25.066c2.816,7.642,10.178,12.776,18.319,12.776l0,0       c2.298,0,4.567-0.407,6.747-1.21c4.892-1.802,8.789-5.403,10.974-10.137c2.186-4.734,2.396-10.036,0.592-14.928       C103.938,51.285,96.576,46.151,88.435,46.151z" data-original="#585757" class="" style="fill:#113BBF" data-old_color="#585757"/>
				</g>
			</g>
		</g>
		<g>
			<g>
				<g>
					<path fill="#585757" d="M68.775,64.343c-0.344,0-0.685-0.155-0.906-0.45c-0.376-0.499-0.277-1.21,0.222-1.588       c9.773-7.382,21.405-11.669,33.641-12.395c0.624-0.046,1.162,0.438,1.198,1.064c0.036,0.624-0.439,1.162-1.064,1.198       c-11.786,0.7-22.992,4.83-32.407,11.942C69.254,64.269,69.013,64.343,68.775,64.343z" data-original="#585757" class="" style="fill:#113BBF" data-old_color="#585757"/>
				</g>
			</g>
		</g>
		<g>
			<g>
				<g>
					<path fill="#585757" d="M75.342,82.169c-0.597,0-1.096-0.465-1.131-1.067c-0.037-0.625,0.439-1.162,1.064-1.199       c11.786-0.697,22.992-4.826,32.407-11.94c0.498-0.379,1.21-0.28,1.588,0.22s0.278,1.21-0.223,1.588       c-9.771,7.387-21.404,11.673-33.64,12.396C75.387,82.167,75.363,82.169,75.342,82.169z" data-original="#585757" class="" style="fill:#113BBF" data-old_color="#585757"/>
				</g>
			</g>
		</g>
		<g>
			<g>
				<g>
					<path fill="#585757" d="M85.609,86.605c-0.344,0-0.683-0.154-0.905-0.449c-7.388-9.778-11.675-21.411-12.396-33.64       c-0.036-0.625,0.439-1.16,1.065-1.197c0.63-0.04,1.16,0.438,1.198,1.064c0.693,11.781,4.824,22.986,11.94,32.406       c0.378,0.5,0.278,1.21-0.223,1.588C86.088,86.532,85.847,86.605,85.609,86.605z" data-original="#585757" class="" style="fill:#113BBF" data-old_color="#585757"/>
				</g>
			</g>
		</g>
		<g>
			<g>
				<g>
					<path fill="#585757" d="M103.433,80.037c-0.596,0-1.097-0.463-1.132-1.065c-0.694-11.78-4.824-22.987-11.939-32.408       c-0.378-0.499-0.277-1.21,0.222-1.588c0.498-0.376,1.21-0.278,1.588,0.221c7.386,9.779,11.672,21.412,12.396,33.64       c0.036,0.625-0.44,1.162-1.066,1.199C103.479,80.037,103.454,80.037,103.433,80.037z" data-original="#585757" class="" style="fill:#113BBF" data-old_color="#585757"/>
				</g>
			</g>
		</g>
		<g>
			<g>
				<g>
					<path fill="#585757" d="M69.056,73.953c-0.46,0-0.896-0.285-1.062-0.743c-0.217-0.587,0.084-1.24,0.672-1.456l38.761-14.283       c0.587-0.217,1.238,0.084,1.455,0.672c0.217,0.587-0.084,1.238-0.672,1.456L69.448,73.882       C69.318,73.929,69.188,73.953,69.056,73.953z" data-original="#585757" class="" style="fill:#113BBF" data-old_color="#585757"/>
				</g>
			</g>
		</g>
		<g>
			<g>
				<g>
					<path fill="#585757" d="M95.578,86.189c-0.461,0-0.895-0.283-1.063-0.741l-14.283-38.76c-0.217-0.587,0.085-1.24,0.672-1.455       c0.586-0.217,1.238,0.084,1.456,0.671l14.283,38.761c0.215,0.587-0.085,1.237-0.672,1.456       C95.841,86.168,95.708,86.189,95.578,86.189z" data-original="#585757" class="" style="fill:#113BBF" data-old_color="#585757"/>
				</g>
			</g>
		</g>
	</g>
	<g>
		<g>
			<g>
				<path fill="#585757" d="M88.318,109.596c-0.034,0-0.068-0.002-0.104-0.005c-1.331-0.116-2.629-0.298-3.853-0.534      c-0.615-0.121-1.016-0.718-0.896-1.33c0.119-0.617,0.711-1.02,1.33-0.896c1.146,0.225,2.364,0.393,3.618,0.504      c0.624,0.057,1.085,0.604,1.03,1.229C89.393,109.15,88.898,109.596,88.318,109.596z M79.516,107.604      c-0.143,0-0.284-0.026-0.425-0.082c-1.256-0.508-2.444-1.106-3.537-1.783c-0.532-0.33-0.698-1.028-0.367-1.562      c0.329-0.53,1.027-0.696,1.561-0.368c0.982,0.608,2.059,1.15,3.192,1.608c0.582,0.233,0.861,0.896,0.628,1.476      C80.39,107.334,79.965,107.604,79.516,107.604z M72.087,102.559c-0.308,0-0.612-0.125-0.837-0.369      c-0.892-0.973-1.695-2.047-2.392-3.196c-0.325-0.536-0.153-1.232,0.382-1.558c0.534-0.324,1.232-0.153,1.558,0.383      c0.618,1.021,1.333,1.978,2.123,2.84c0.424,0.461,0.394,1.178-0.068,1.602C72.634,102.458,72.359,102.559,72.087,102.559z       M67.684,94.716c-0.483,0-0.933-0.312-1.082-0.798c-0.378-1.221-0.676-2.514-0.886-3.842c-0.098-0.618,0.325-1.198,0.943-1.296      c0.617-0.093,1.2,0.325,1.296,0.942c0.192,1.223,0.465,2.407,0.812,3.523c0.186,0.6-0.149,1.232-0.747,1.419      C67.907,94.699,67.795,94.716,67.684,94.716z M66.479,85.756c-0.006,0-0.014,0-0.021,0c-0.625-0.012-1.124-0.527-1.113-1.153      c0.039-2.347,0.313-3.885,0.325-3.949c0.112-0.616,0.703-1.024,1.318-0.912c0.615,0.11,1.024,0.701,0.914,1.316      c-0.003,0.015-0.256,1.435-0.291,3.583C67.602,85.26,67.096,85.756,66.479,85.756z" data-original="#585757" class="" style="fill:#113BBF" data-old_color="#585757"/>
			</g>
		</g>
	</g>
	<g>
		<g>
			<g>
				<path fill="#585757" d="M139.216,56.35c-0.384,0-0.759-0.195-0.973-0.549c-0.196-0.326-0.393-0.648-0.591-0.962      c-0.334-0.53-0.174-1.229,0.354-1.563c0.53-0.334,1.229-0.174,1.563,0.355c0.205,0.328,0.41,0.662,0.615,1.001      c0.321,0.537,0.148,1.234-0.389,1.556C139.617,56.298,139.415,56.35,139.216,56.35z M135.571,51.044      c-0.335,0-0.668-0.148-0.891-0.433c-0.773-0.98-1.581-1.916-2.398-2.783c-0.431-0.455-0.41-1.172,0.044-1.602      c0.455-0.431,1.174-0.41,1.604,0.044c0.864,0.915,1.717,1.903,2.53,2.936c0.39,0.492,0.304,1.205-0.188,1.593      C136.065,50.964,135.817,51.044,135.571,51.044z M129.21,44.614c-0.245,0-0.493-0.08-0.698-0.242      c-0.968-0.76-1.974-1.458-2.989-2.078c-0.534-0.325-0.704-1.021-0.378-1.558c0.323-0.534,1.021-0.704,1.558-0.379      c1.094,0.666,2.174,1.417,3.21,2.232c0.493,0.387,0.577,1.1,0.19,1.593C129.879,44.465,129.545,44.614,129.21,44.614z       M99.968,40.553c-0.425,0-0.83-0.238-1.024-0.646c-0.271-0.565-0.03-1.24,0.535-1.51c0.058-0.026,1.451-0.686,3.771-1.3      c0.604-0.161,1.228,0.199,1.386,0.805c0.161,0.605-0.198,1.227-0.805,1.386c-2.098,0.557-3.363,1.151-3.377,1.158      C100.296,40.52,100.13,40.553,99.968,40.553z M121.369,40.134c-0.133,0-0.269-0.024-0.401-0.074      c-1.128-0.43-2.294-0.784-3.465-1.056c-0.61-0.142-0.989-0.75-0.849-1.359c0.14-0.611,0.751-0.992,1.359-0.849      c1.271,0.294,2.535,0.679,3.759,1.144c0.586,0.222,0.879,0.877,0.658,1.461C122.258,39.855,121.826,40.134,121.369,40.134z       M108.745,38.419c-0.582,0-1.078-0.446-1.128-1.036c-0.055-0.625,0.407-1.174,1.032-1.227c1.3-0.112,2.583-0.146,3.919-0.091      c0.626,0.026,1.113,0.554,1.086,1.179c-0.024,0.626-0.543,1.118-1.179,1.086c-1.236-0.05-2.427-0.021-3.633,0.084      C108.81,38.417,108.777,38.419,108.745,38.419z" data-original="#585757" class="" style="fill:#113BBF" data-old_color="#585757"/>
			</g>
		</g>
	</g>
	<g>
		<g>
			<g>
				<g>
					<g>
						<rect x="83.045" y="61.637" fill="#FFFFFF" width="102.417" height="63.324" data-original="#FFFFFF" class=""/>
					</g>
				</g>
			</g>
			<g>
				<g>
					<g>
						<path fill="#585757" d="M185.462,125.717H83.045c-0.417,0-0.755-0.339-0.755-0.756V61.637c0-0.418,0.338-0.756,0.755-0.756        h102.417c0.418,0,0.756,0.338,0.756,0.756v63.324C186.218,125.378,185.88,125.717,185.462,125.717z M83.801,124.205h100.905        V62.393H83.801V124.205z" data-original="#585757" class="" style="fill:#113BBF" data-old_color="#585757"/>
					</g>
				</g>
			</g>
		</g>
		<g>
			<g>
				<g>
					<g>
						<rect x="86.749" y="65.497" fill="#2E96BE" width="95.009" height="53.012" data-original="#2E96BE" class=""/>
					</g>
				</g>
			</g>
			<g>
				<g>
					<g>
						<path fill="#585757" d="M181.758,119.266H86.749c-0.418,0-0.756-0.34-0.756-0.757V65.497c0-0.417,0.338-0.756,0.756-0.756        h95.009c0.416,0,0.757,0.338,0.757,0.756v53.012C182.514,118.926,182.174,119.266,181.758,119.266z M87.505,117.753h93.497        v-51.5H87.505V117.753z" data-original="#585757" class="" style="fill:#113BBF" data-old_color="#585757"/>
					</g>
				</g>
			</g>
		</g>
		<g>
			<g>
				<g>
					<g>
						<path fill="#FFFFFF" d="M190.25,132.314c-24.851,0-81.474,0-112.307,0c-6.292,0-6.292-7.354-6.292-7.354h125.205        C196.856,124.961,197.799,132.314,190.25,132.314z" data-original="#FFFFFF" class=""/>
					</g>
				</g>
			</g>
			<g>
				<g>
					<g>
						<path fill="#585757" d="M190.25,133.07H77.943c-5.575,0-7.048-5.305-7.048-8.109c0-0.418,0.339-0.756,0.756-0.756h125.205        c0.379,0,0.701,0.281,0.748,0.659c0.02,0.146,0.434,3.597-1.686,6.004C194.635,132.329,192.728,133.07,190.25,133.07z         M72.457,125.717c0.188,1.74,1.098,5.842,5.486,5.842H190.25c2.022,0,3.549-0.567,4.535-1.688        c1.185-1.346,1.354-3.186,1.354-4.153L72.457,125.717L72.457,125.717z" data-original="#585757" class="" style="fill:#113BBF" data-old_color="#585757"/>
					</g>
				</g>
			</g>
		</g>
	</g>
	<g>
		<g>
			<g>
				<g>
					<rect x="108.991" y="58.176" fill="#FFFFFF" width="84.641" height="54.239" data-original="#FFFFFF" class=""/>
				</g>
			</g>
		</g>
		<g>
			<g>
				<g>
					<path fill="#585757" d="M193.632,113.171h-84.641c-0.417,0-0.756-0.338-0.756-0.756V58.176c0-0.418,0.339-0.756,0.756-0.756       h84.641c0.417,0,0.757,0.338,0.757,0.756v54.239C194.388,112.833,194.049,113.171,193.632,113.171z M109.747,111.659h83.129       V58.931h-83.129V111.659z" data-original="#585757" class="" style="fill:#113BBF" data-old_color="#585757"/>
				</g>
			</g>
		</g>
	</g>
	<g>
		<g>
			<g>
				<rect x="113.397" y="62.71" fill="#585757" width="20.799" height="20.799" data-original="#585757" class="" style="fill:#113BBF" data-old_color="#585757"/>
			</g>
		</g>
	</g>
	<g>
		<g>
			<g>
				<rect x="113.397" y="86.896" fill="#CAD41F" width="74.943" height="9.642" data-original="#CAD41F" class=""/>
			</g>
		</g>
	</g>
	<g>
		<g>
			<g>
				<rect x="113.397" y="100.191" fill="#585757" width="74.943" height="8.438" data-original="#585757" class="" style="fill:#113BBF" data-old_color="#585757"/>
			</g>
		</g>
	</g>
	<g>
		<g>
			<g>
				<g>
					<rect x="108.991" y="50.745" fill="#FFFFFF" width="84.641" height="7.431" data-original="#FFFFFF" class=""/>
				</g>
			</g>
		</g>
		<g>
			<g>
				<g>
					<path fill="#585757" d="M193.632,58.931h-84.641c-0.417,0-0.756-0.338-0.756-0.755v-7.431c0-0.418,0.339-0.756,0.756-0.756       h84.641c0.417,0,0.757,0.338,0.757,0.756v7.431C194.388,58.593,194.049,58.931,193.632,58.931z M109.747,57.42h83.129V51.5       h-83.129V57.42z" data-original="#585757" class="" style="fill:#113BBF" data-old_color="#585757"/>
				</g>
			</g>
		</g>
	</g>
	<g>
		<g>
			<g>
				<circle fill="#D84253" cx="113.398" cy="54.46" r="1.758" data-original="#D84253"/>
			</g>
		</g>
	</g>
	<g>
		<g>
			<g>
				<circle fill="#83A452" cx="125.555" cy="54.46" r="1.758" data-original="#83A452"/>
			</g>
		</g>
	</g>
	<g>
		<g>
			<g>
				<circle fill="#FCC538" cx="119.477" cy="54.46" r="1.758" data-original="#FCC538"/>
			</g>
		</g>
	</g>
	<g>
		<g>
			<g>
				<path fill="#585757" d="M188.342,55.216h-49.126c-0.418,0-0.756-0.338-0.756-0.756c0-0.417,0.338-0.756,0.756-0.756h49.126      c0.416,0,0.757,0.338,0.757,0.756S188.758,55.216,188.342,55.216z" data-original="#585757" class="" style="fill:#113BBF" data-old_color="#585757"/>
			</g>
		</g>
	</g>
	<g>
		<g>
			<g>
				<circle fill="#99C1C6" cx="123.796" cy="70.032" r="5.214" data-original="#99C1C6"/>
			</g>
		</g>
	</g>
	<g>
		<g>
			<g>
				<path fill="#99C1C6" d="M123.797,73.211c-4.046,0-7.323,3.28-7.323,7.325h14.646C131.12,76.492,127.842,73.211,123.797,73.211z" data-original="#99C1C6"/>
			</g>
		</g>
	</g>
	<g>
		<g>
			<g>
				<path fill="#585757" d="M186.218,64.741H150.87c-0.418,0-0.756-0.338-0.756-0.755c0-0.418,0.338-0.756,0.756-0.756h35.348      c0.417,0,0.757,0.338,0.757,0.756C186.974,64.403,186.635,64.741,186.218,64.741z" data-original="#585757" class="" style="fill:#113BBF" data-old_color="#585757"/>
			</g>
		</g>
	</g>
	<g>
		<g>
			<g>
				<path fill="#585757" d="M186.218,70.761h-46.421c-0.417,0-0.756-0.338-0.756-0.756c0-0.417,0.339-0.756,0.756-0.756h46.421      c0.417,0,0.757,0.339,0.757,0.756C186.974,70.423,186.635,70.761,186.218,70.761z" data-original="#585757" class="" style="fill:#113BBF" data-old_color="#585757"/>
			</g>
		</g>
	</g>
	<g>
		<g>
			<g>
				<path fill="#585757" d="M186.218,76.782h-46.421c-0.417,0-0.756-0.339-0.756-0.756s0.339-0.756,0.756-0.756h46.421      c0.417,0,0.757,0.338,0.757,0.756C186.974,76.443,186.635,76.782,186.218,76.782z" data-original="#585757" class="" style="fill:#113BBF" data-old_color="#585757"/>
			</g>
		</g>
	</g>
	<g>
		<g>
			<g>
				<path fill="#585757" d="M174.38,82.802h-34.583c-0.417,0-0.756-0.338-0.756-0.756s0.339-0.756,0.756-0.756h34.583      c0.417,0,0.757,0.338,0.757,0.756S174.797,82.802,174.38,82.802z" data-original="#585757" class="" style="fill:#113BBF" data-old_color="#585757"/>
			</g>
		</g>
	</g>
	<g>
		<g>
			<g>
				<path fill="#FFFFFF" d="M118.141,124.898v2.058c0,0.905,0.734,1.642,1.642,1.642h28.981c0.906,0,1.643-0.734,1.643-1.642v-2.058      H118.141z" data-original="#FFFFFF" class=""/>
			</g>
		</g>
		<g>
			<g>
				<path fill="#585757" d="M148.764,129.354h-28.981c-1.322,0-2.396-1.073-2.396-2.396v-2.812h33.776v2.812      C151.162,128.279,150.086,129.354,148.764,129.354z M118.896,125.654v1.302c0,0.489,0.396,0.886,0.886,0.886h28.981      c0.487,0,0.887-0.396,0.887-0.886v-1.302H118.896z" data-original="#585757" class="" style="fill:#113BBF" data-old_color="#585757"/>
			</g>
		</g>
	</g>
	<g>
		<g>
			<g>
				<g>
					<g>
						<g>
							<rect x="276.061" y="65.676" fill="#FFFFFF" width="39.261" height="52.895" data-original="#FFFFFF" class=""/>
						</g>
					</g>
				</g>
				<g>
					<g>
						<g>
							<path fill="#585757" d="M315.321,119.325H276.06c-0.418,0-0.756-0.339-0.756-0.757V65.676c0-0.417,0.338-0.756,0.756-0.756         h39.261c0.418,0,0.756,0.338,0.756,0.756v52.895C316.077,118.986,315.739,119.325,315.321,119.325z M276.816,117.812h37.749         v-51.38h-37.749V117.812z" data-original="#585757" class="" style="fill:#113BBF" data-old_color="#585757"/>
						</g>
					</g>
				</g>
			</g>
			<g>
				<g>
					<g>
						<g>
							<rect x="280.183" y="69.216" fill="#2E96BE" width="31.016" height="42.446" data-original="#2E96BE" class=""/>
						</g>
					</g>
				</g>
				<g>
					<g>
						<g>
							<path fill="#585757" d="M311.198,112.418h-31.016c-0.417,0-0.757-0.338-0.757-0.756V69.216c0-0.418,0.34-0.756,0.757-0.756         h31.016c0.418,0,0.756,0.338,0.756,0.756v42.446C311.954,112.08,311.616,112.418,311.198,112.418z M280.938,110.906h29.504         V69.971h-29.504V110.906z" data-original="#585757" class="" style="fill:#113BBF" data-old_color="#585757"/>
						</g>
					</g>
				</g>
			</g>
		</g>
		<g>
			<g>
				<g>
					<g>
						<g>
							<rect x="268.403" y="55.276" fill="#FFFFFF" width="23.558" height="46.607" data-original="#FFFFFF" class=""/>
						</g>
					</g>
				</g>
				<g>
					<g>
						<g>
							<path fill="#585757" d="M291.961,102.641h-23.558c-0.416,0-0.756-0.339-0.756-0.757V55.276c0-0.418,0.34-0.756,0.756-0.756         h23.558c0.418,0,0.756,0.338,0.756,0.756v46.607C292.717,102.302,292.379,102.641,291.961,102.641z M269.159,101.128h22.046         V56.032h-22.046V101.128L269.159,101.128z" data-original="#585757" class="" style="fill:#113BBF" data-old_color="#585757"/>
						</g>
					</g>
				</g>
			</g>
			<g>
				<g>
					<g>
						<g>
							<rect x="268.403" y="55.276" fill="#FFFFFF" width="23.558" height="5.497" data-original="#FFFFFF" class=""/>
						</g>
					</g>
				</g>
				<g>
					<g>
						<g>
							<path fill="#585757" d="M291.961,61.529h-23.558c-0.416,0-0.756-0.338-0.756-0.756v-5.497c0-0.418,0.34-0.756,0.756-0.756         h23.558c0.418,0,0.756,0.338,0.756,0.756v5.497C292.717,61.191,292.379,61.529,291.961,61.529z M269.159,60.018h22.046         v-3.985h-22.046V60.018L269.159,60.018z" data-original="#585757" class="" style="fill:#113BBF" data-old_color="#585757"/>
						</g>
					</g>
				</g>
			</g>
			<g>
				<g>
					<g>
						<path fill="#585757" d="M286.885,58.924H272.36c-0.418,0-0.756-0.338-0.756-0.756c0-0.417,0.338-0.755,0.756-0.755h14.525        c0.419,0,0.757,0.338,0.757,0.755C287.642,58.586,287.304,58.924,286.885,58.924z" data-original="#585757" class="" style="fill:#113BBF" data-old_color="#585757"/>
					</g>
				</g>
			</g>
			<g>
				<g>
					<g>
						<rect x="272.359" y="63.72" fill="#585757" width="15.613" height="15.613" data-original="#585757" class="" style="fill:#113BBF" data-old_color="#585757"/>
					</g>
				</g>
			</g>
			<g>
				<g>
					<g>
						<circle fill="#99C1C6" cx="280.167" cy="69.216" r="3.915" data-original="#99C1C6"/>
					</g>
				</g>
			</g>
			<g>
				<g>
					<g>
						<path fill="#99C1C6" d="M280.167,71.604c-3.037,0-5.499,2.461-5.499,5.499h10.996        C285.664,74.065,283.203,71.604,280.167,71.604z" data-original="#99C1C6"/>
					</g>
				</g>
			</g>
			<g>
				<g>
					<g>
						<rect x="272.359" y="82.358" fill="#CAD41F" width="15.613" height="15.194" data-original="#CAD41F" class=""/>
					</g>
				</g>
			</g>
		</g>
	</g>
	<g>
		<g>
			<g>
				<path fill="#F4B845" d="M253.759,83.072v4.432l-0.601,3.695l3.844,7.473l-9.607-1.582c0,0-8.501,1.362-10.327-1.215      l-4.685-5.003c0,0-4.607-15.491,12.602-15.594C251.356,75.241,253.759,83.072,253.759,83.072z" data-original="#F4B845"/>
			</g>
		</g>
	</g>
	<g>
		<g>
			<g>
				<g>
					<path fill="#585757" d="M257.105,99.673c-0.067,0-0.134-0.008-0.2-0.022l-9.434-2.152c-1.479,0.611-3.033,0.921-4.63,0.921       c-6.698,0-12.149-5.451-12.149-12.149c0-6.701,5.451-12.15,12.149-12.15c6.7,0,12.149,5.45,12.149,12.15       c0,1.688-0.348,3.33-1.036,4.887l3.934,7.197c0.168,0.309,0.141,0.687-0.07,0.967       C257.646,99.545,257.381,99.673,257.105,99.673z M247.388,95.666c0.065,0,0.133,0.008,0.198,0.023l7.782,1.775l-3.197-5.851       c-0.139-0.255-0.146-0.562-0.02-0.82c0.698-1.435,1.053-2.958,1.053-4.526c0-5.715-4.647-10.362-10.362-10.362       s-10.362,4.647-10.362,10.362c0,5.713,4.647,10.362,10.362,10.362c1.445,0,2.854-0.299,4.185-0.888       C247.14,95.693,247.264,95.666,247.388,95.666z" data-original="#585757" class="" style="fill:#113BBF" data-old_color="#585757"/>
				</g>
			</g>
		</g>
	</g>
	<g>
		<g>
			<g>
				<path fill="#FFFFFF" d="M236.524,63.983H213.59c-3.887,0-7.063,3.179-7.063,7.064v11.086c0,3.887,3.178,7.066,7.063,7.066h1.042      v9.795l11.117-9.795h10.775c3.887,0,7.064-3.18,7.064-7.066V71.047C243.59,67.162,240.411,63.983,236.524,63.983z" data-original="#FFFFFF" class=""/>
			</g>
		</g>
	</g>
	<g>
		<g>
			<g>
				<path fill="#585757" d="M214.632,99.75c-0.104,0-0.211-0.021-0.312-0.068c-0.271-0.121-0.444-0.391-0.444-0.688v-9.039h-0.286      c-4.312,0-7.819-3.508-7.819-7.822V71.047c0-4.312,3.507-7.82,7.819-7.82h22.936c4.312,0,7.821,3.509,7.821,7.82v11.086      c0,4.314-3.509,7.822-7.821,7.822h-10.491l-10.9,9.605C214.99,99.686,214.812,99.75,214.632,99.75z M213.59,64.738      c-3.479,0-6.31,2.83-6.31,6.309v11.086c0,3.479,2.83,6.311,6.31,6.311h1.042c0.418,0,0.757,0.338,0.757,0.756v8.121l9.861-8.688      c0.138-0.123,0.315-0.188,0.499-0.188h10.775c3.479,0,6.31-2.832,6.31-6.311V71.047c0-3.479-2.83-6.309-6.31-6.309H213.59z" data-original="#585757" class="" style="fill:#113BBF" data-old_color="#585757"/>
			</g>
		</g>
	</g>
	<g>
		<g>
			<g>
				<g>
					<path fill="#585757" d="M210.024,119.643h-15.473c-0.625,0-1.133-0.508-1.133-1.134s0.508-1.134,1.133-1.134h15.473       c0.628,0,1.134,0.508,1.134,1.134S210.652,119.643,210.024,119.643z" data-original="#585757" class="" style="fill:#113BBF" data-old_color="#585757"/>
				</g>
			</g>
		</g>
		<g>
			<g>
				<g>
					<path fill="#585757" d="M210.024,123.421c-0.189,0-0.382-0.049-0.555-0.146c-0.357-0.2-0.578-0.578-0.578-0.988v-7.559       c0-0.41,0.221-0.787,0.578-0.988c0.357-0.199,0.796-0.191,1.146,0.021l6.194,3.779c0.338,0.205,0.543,0.57,0.543,0.967       s-0.205,0.762-0.543,0.969l-6.194,3.778C210.436,123.366,210.23,123.421,210.024,123.421z M211.158,116.749v3.519l2.885-1.759       L211.158,116.749z" data-original="#585757" class="" style="fill:#113BBF" data-old_color="#585757"/>
				</g>
			</g>
		</g>
	</g>
	<g>
		<g>
			<g>
				<g>
					<path fill="#585757" d="M202.29,140.301h-23.879c-0.627,0-1.133-0.508-1.133-1.134s0.506-1.134,1.133-1.134h23.879       c0.626,0,1.134,0.508,1.134,1.134S202.916,140.301,202.29,140.301z" data-original="#585757" class="" style="fill:#113BBF" data-old_color="#585757"/>
				</g>
			</g>
		</g>
		<g>
			<g>
				<g>
					<path fill="#585757" d="M202.29,144.08c-0.191,0-0.383-0.049-0.556-0.146c-0.357-0.199-0.578-0.578-0.578-0.988v-7.559       c0-0.41,0.221-0.787,0.578-0.988c0.356-0.198,0.796-0.191,1.146,0.021l6.193,3.778c0.338,0.206,0.543,0.573,0.543,0.969       s-0.205,0.762-0.543,0.967l-6.193,3.779C202.699,144.023,202.493,144.08,202.29,144.08z M203.424,137.407v3.52l2.884-1.76       L203.424,137.407z" data-original="#585757" class="" style="fill:#113BBF" data-old_color="#585757"/>
				</g>
			</g>
		</g>
	</g>
	<g>
		<g>
			<g>
				<g>
					<path fill="#585757" d="M286.64,134.188h-23.878c-0.629,0-1.135-0.508-1.135-1.133c0-0.627,0.506-1.135,1.135-1.135h23.878       c0.626,0,1.134,0.508,1.134,1.135C287.774,133.68,287.266,134.188,286.64,134.188z" data-original="#585757" class="" style="fill:#113BBF" data-old_color="#585757"/>
				</g>
			</g>
		</g>
		<g>
			<g>
				<g>
					<path fill="#585757" d="M262.762,137.967c-0.205,0-0.41-0.056-0.592-0.167l-6.192-3.778c-0.338-0.205-0.544-0.57-0.544-0.967       c0-0.396,0.206-0.762,0.544-0.969l6.192-3.779c0.351-0.212,0.788-0.22,1.146-0.021c0.356,0.2,0.579,0.579,0.579,0.989v7.558       c0,0.411-0.223,0.788-0.579,0.989C263.144,137.918,262.952,137.967,262.762,137.967z M258.743,133.055l2.885,1.76v-3.52       L258.743,133.055z" data-original="#585757" class="" style="fill:#113BBF" data-old_color="#585757"/>
				</g>
			</g>
		</g>
	</g>
	<g>
		<g>
			<g>
				<g>
					<path fill="#585757" d="M272.656,51.123h-23.878c-0.628,0-1.134-0.508-1.134-1.134c0-0.626,0.506-1.134,1.134-1.134h23.878       c0.626,0,1.134,0.508,1.134,1.134C273.79,50.615,273.282,51.123,272.656,51.123z" data-original="#585757" class="" style="fill:#113BBF" data-old_color="#585757"/>
				</g>
			</g>
		</g>
		<g>
			<g>
				<g>
					<path fill="#585757" d="M248.778,54.901c-0.205,0-0.41-0.055-0.591-0.165l-6.193-3.779c-0.339-0.207-0.544-0.573-0.544-0.968       c0-0.396,0.205-0.762,0.544-0.967l6.193-3.779c0.35-0.214,0.787-0.222,1.146-0.022c0.357,0.201,0.579,0.579,0.579,0.989v7.558       c0,0.411-0.222,0.789-0.579,0.989C249.16,54.853,248.969,54.901,248.778,54.901z M244.76,49.989l2.886,1.76V48.23       L244.76,49.989z" data-original="#585757" class="" style="fill:#113BBF" data-old_color="#585757"/>
				</g>
			</g>
		</g>
	</g>
	<g>
		<g>
			<g>
				<g>
					<path fill="#585757" d="M293.438,43.564H269.56c-0.626,0-1.135-0.508-1.135-1.133c0-0.626,0.509-1.134,1.135-1.134h23.878       c0.626,0,1.134,0.508,1.134,1.134C294.571,43.057,294.063,43.564,293.438,43.564z" data-original="#585757" class="" style="fill:#113BBF" data-old_color="#585757"/>
				</g>
			</g>
		</g>
	</g>
	<g>
		<g>
			<g>
				<g>
					<path fill="#585757" d="M303.304,43.564h-3.042c-0.627,0-1.135-0.508-1.135-1.133c0-0.626,0.508-1.134,1.135-1.134h3.042       c0.626,0,1.134,0.508,1.134,1.134S303.93,43.564,303.304,43.564z" data-original="#585757" class="" style="fill:#113BBF" data-old_color="#585757"/>
				</g>
			</g>
		</g>
	</g>
	<g>
		<g>
			<g>
				<g>
					<path fill="#585757" d="M263.742,61.907h-6.122c-0.626,0-1.134-0.506-1.134-1.134c0-0.626,0.508-1.134,1.134-1.134h6.122       c0.625,0,1.133,0.508,1.133,1.134C264.875,61.401,264.367,61.907,263.742,61.907z" data-original="#585757" class="" style="fill:#113BBF" data-old_color="#585757"/>
				</g>
			</g>
		</g>
		<g>
			<g>
				<g>
					<path fill="#585757" d="M257.62,65.686c-0.205,0-0.409-0.055-0.591-0.165l-6.193-3.779c-0.337-0.205-0.543-0.573-0.543-0.968       c0-0.394,0.206-0.762,0.543-0.967l6.193-3.779c0.352-0.214,0.789-0.222,1.146-0.021c0.357,0.201,0.579,0.579,0.579,0.988v7.558       c0,0.411-0.222,0.789-0.579,0.989C258.003,65.639,257.811,65.686,257.62,65.686z M253.604,60.773l2.883,1.76v-3.518       L253.604,60.773z" data-original="#585757" class="" style="fill:#113BBF" data-old_color="#585757"/>
				</g>
			</g>
		</g>
	</g>
	<g>
		<g>
			<g>
				<g>
					<path fill="#585757" d="M182.317,146.285h-15.876c-0.626,0-1.134-0.508-1.134-1.135c0-0.625,0.508-1.133,1.134-1.133h15.876       c0.626,0,1.134,0.508,1.134,1.133C183.451,145.777,182.943,146.285,182.317,146.285z" data-original="#585757" class="" style="fill:#113BBF" data-old_color="#585757"/>
				</g>
			</g>
		</g>
	</g>
	<g>
		<g>
			<g>
				<g>
					<path fill="#585757" d="M114.943,137.445h-12.298c-0.628,0-1.134-0.506-1.134-1.133s0.506-1.135,1.134-1.135h12.299       c0.627,0,1.134,0.508,1.134,1.135C116.077,136.939,115.57,137.445,114.943,137.445z" data-original="#585757" class="" style="fill:#113BBF" data-old_color="#585757"/>
				</g>
			</g>
		</g>
	</g>
	<g>
		<g>
			<g>
				<g>
					<path fill="#585757" d="M111.519,141.855h-8.874c-0.628,0-1.134-0.508-1.134-1.135c0-0.626,0.506-1.134,1.134-1.134h8.874       c0.626,0,1.134,0.508,1.134,1.134C112.652,141.35,112.145,141.855,111.519,141.855z" data-original="#585757" class="" style="fill:#113BBF" data-old_color="#585757"/>
				</g>
			</g>
		</g>
	</g>
	<g>
		<g>
			<g>
				<g>
					<path fill="#585757" d="M156.241,146.285h-7.56c-0.625,0-1.134-0.508-1.134-1.135c0-0.625,0.509-1.133,1.134-1.133h7.56       c0.626,0,1.134,0.508,1.134,1.133C157.375,145.777,156.867,146.285,156.241,146.285z" data-original="#585757" class="" style="fill:#113BBF" data-old_color="#585757"/>
				</g>
			</g>
		</g>
	</g>
	<g>
		<g>
			<g>
				<g>
					<path fill="#585757" d="M197.65,152.08h-3.78c-0.626,0-1.134-0.508-1.134-1.135s0.508-1.133,1.134-1.133h3.78       c0.626,0,1.134,0.506,1.134,1.133S198.276,152.08,197.65,152.08z" data-original="#585757" class="" style="fill:#113BBF" data-old_color="#585757"/>
				</g>
			</g>
		</g>
	</g>
	<g>
		<g>
			<g>
				<g>
					<path fill="#585757" d="M215.382,129.771h-7.611c-0.628,0-1.134-0.508-1.134-1.135c0-0.626,0.506-1.134,1.134-1.134h7.611       c0.626,0,1.135,0.508,1.135,1.134C216.516,129.264,216.008,129.771,215.382,129.771z" data-original="#585757" class="" style="fill:#113BBF" data-old_color="#585757"/>
				</g>
			</g>
		</g>
	</g>
	<g>
		<g>
			<g>
				<g>
					<path fill="#585757" d="M234.089,49.544h-15.265c-0.626,0-1.134-0.508-1.134-1.134V33.146c0-0.626,0.508-1.134,1.134-1.134       h15.265c0.626,0,1.135,0.508,1.135,1.134v15.265C235.223,49.037,234.715,49.544,234.089,49.544z M219.958,47.277h12.997V34.28       h-12.997V47.277z" data-original="#585757" class="" style="fill:#113BBF" data-old_color="#585757"/>
				</g>
			</g>
		</g>
		<g>
			<g>
				<g>
					<path fill="#585757" d="M230.825,43.564h-8.737c-0.626,0-1.134-0.508-1.134-1.133V36.41c0-0.626,0.508-1.133,1.134-1.133h8.737       c0.626,0,1.134,0.507,1.134,1.133v6.021C231.959,43.057,231.451,43.564,230.825,43.564z M223.222,41.297h6.47v-3.754h-6.47       V41.297z" data-original="#585757" class="" style="fill:#113BBF" data-old_color="#585757"/>
				</g>
			</g>
		</g>
	</g>
	<g>
		<g>
			<g>
				<path fill="#585757" d="M247.794,126.852h-20.285c-0.626,0-1.134-0.509-1.134-1.135v-12.595c0-0.626,0.508-1.134,1.134-1.134      h20.285c0.627,0,1.133,0.508,1.133,1.134v12.595C248.927,126.343,248.421,126.852,247.794,126.852z M228.642,124.583h18.019      v-10.327h-18.019V124.583z" data-original="#585757" class="" style="fill:#113BBF" data-old_color="#585757"/>
			</g>
		</g>
	</g>
	<g>
		<g>
			<g>
				<path fill="#585757" d="M227.2,113.752c-0.47,0-0.91-0.293-1.072-0.763l-1.355-3.919c-0.1-0.284-0.08-0.596,0.05-0.865      c0.132-0.271,0.366-0.479,0.65-0.577l19.167-6.639c0.591-0.205,1.236,0.108,1.441,0.7l1.358,3.918      c0.098,0.285,0.079,0.598-0.052,0.867c-0.133,0.271-0.365,0.479-0.649,0.575l-19.168,6.64      C227.448,113.73,227.322,113.752,227.2,113.752z M227.284,109.398l0.615,1.777l17.025-5.896l-0.615-1.775L227.284,109.398z" data-original="#585757" class="" style="fill:#113BBF" data-old_color="#585757"/>
			</g>
		</g>
	</g>
	<g>
		<g>
			<g>
				<path fill="#585757" d="M235.672,122.994c-0.194,0-0.391-0.051-0.564-0.15c-0.353-0.201-0.568-0.576-0.568-0.982v-5.854      c0-0.405,0.217-0.78,0.568-0.983c0.353-0.201,0.785-0.2,1.137,0.004l5.021,2.929c0.349,0.202,0.562,0.575,0.562,0.979      c0,0.403-0.214,0.775-0.562,0.979l-5.021,2.927C236.065,122.943,235.869,122.994,235.672,122.994z M236.805,117.98v1.908      l1.636-0.955L236.805,117.98z" data-original="#585757" class="" style="fill:#113BBF" data-old_color="#585757"/>
			</g>
		</g>
	</g>
	<g>
		<g>
			<g>
				<path fill="#585757" d="M235.317,110.477c-0.136,0-0.273-0.022-0.406-0.074l-5.229-2.004c-0.584-0.225-0.877-0.879-0.652-1.465      c0.225-0.584,0.88-0.875,1.464-0.651l5.229,2.004c0.585,0.223,0.877,0.879,0.652,1.464      C236.203,110.199,235.773,110.477,235.317,110.477z" data-original="#585757" class="" style="fill:#113BBF" data-old_color="#585757"/>
			</g>
		</g>
	</g>
	<g>
		<g>
			<g>
				<path fill="#585757" d="M243.253,108.137c-0.135,0-0.271-0.022-0.403-0.074l-5.571-2.135c-0.584-0.225-0.878-0.88-0.654-1.465      c0.226-0.585,0.88-0.875,1.465-0.652l5.571,2.135c0.584,0.224,0.877,0.881,0.653,1.465      C244.139,107.859,243.709,108.137,243.253,108.137z" data-original="#585757" class="" style="fill:#113BBF" data-old_color="#585757"/>
			</g>
		</g>
	</g>
	<g>
		<g>
			<g>
				<path fill="#585757" d="M323.521,134.188h-2.854c-0.626,0-1.134-0.508-1.134-1.133c0-0.627,0.508-1.135,1.134-1.135h1.737      c0.098-0.527,0.56-0.927,1.114-0.927c0.628,0,1.135,0.507,1.135,1.133v0.928C324.655,133.682,324.148,134.188,323.521,134.188z       M315.379,134.188H311.6c-0.626,0-1.135-0.508-1.135-1.133c0-0.627,0.509-1.135,1.135-1.135h3.778      c0.626,0,1.134,0.508,1.134,1.135C316.512,133.68,316.005,134.188,315.379,134.188z M306.31,134.188h-3.779      c-0.626,0-1.134-0.508-1.134-1.133c0-0.627,0.508-1.135,1.134-1.135h3.779c0.626,0,1.134,0.508,1.134,1.135      C307.444,133.68,306.936,134.188,306.31,134.188z M297.24,134.188h-3.779c-0.626,0-1.134-0.508-1.134-1.133      c0-0.627,0.508-1.135,1.134-1.135h3.779c0.626,0,1.134,0.508,1.134,1.135C298.374,133.68,297.866,134.188,297.24,134.188z       M323.521,127.971c-0.627,0-1.135-0.508-1.135-1.134v-3.778c0-0.627,0.508-1.135,1.135-1.135s1.134,0.508,1.134,1.135v3.778      C324.655,127.463,324.148,127.971,323.521,127.971z M323.521,118.9c-0.627,0-1.135-0.508-1.135-1.133v-3.779      c0-0.627,0.508-1.135,1.135-1.135s1.134,0.508,1.134,1.135v3.779C324.655,118.395,324.148,118.9,323.521,118.9z       M323.521,109.832c-0.627,0-1.135-0.508-1.135-1.134v-3.779c0-0.626,0.508-1.134,1.135-1.134s1.134,0.508,1.134,1.134v3.779      C324.655,109.324,324.148,109.832,323.521,109.832z M323.521,100.764c-0.627,0-1.135-0.509-1.135-1.135V95.85      c0-0.625,0.508-1.134,1.135-1.134s1.134,0.509,1.134,1.134v3.779C324.655,100.255,324.148,100.764,323.521,100.764z       M323.521,91.693c-0.627,0-1.135-0.508-1.135-1.135V86.78c0-0.626,0.508-1.134,1.135-1.134s1.134,0.508,1.134,1.134v3.778      C324.655,91.186,324.148,91.693,323.521,91.693z M323.521,82.624c-0.627,0-1.135-0.508-1.135-1.134v-3.779      c0-0.626,0.508-1.134,1.135-1.134s1.134,0.508,1.134,1.134v3.779C324.655,82.116,324.148,82.624,323.521,82.624z       M323.521,73.554c-0.627,0-1.135-0.508-1.135-1.134v-3.779c0-0.626,0.508-1.134,1.135-1.134s1.134,0.508,1.134,1.134v3.779      C324.655,73.046,324.148,73.554,323.521,73.554z M323.521,64.484c-0.627,0-1.135-0.508-1.135-1.133v-3.779      c0-0.625,0.508-1.133,1.135-1.133s1.134,0.508,1.134,1.133v3.779C324.655,63.977,324.148,64.484,323.521,64.484z       M320.247,58.691h-3.779c-0.627,0-1.134-0.508-1.134-1.134s0.507-1.134,1.134-1.134h3.779c0.626,0,1.134,0.508,1.134,1.134      S320.873,58.691,320.247,58.691z M311.178,58.691h-3.779c-0.627,0-1.134-0.508-1.134-1.134s0.507-1.134,1.134-1.134h3.779      c0.626,0,1.134,0.508,1.134,1.134S311.804,58.691,311.178,58.691z" data-original="#585757" class="" style="fill:#113BBF" data-old_color="#585757"/>
			</g>
		</g>
	</g>
	<g>
		<g>
			<g>
				<path fill="#83619D" d="M235.508,71.012c0,0.527-0.427,0.955-0.953,0.955h-13.735c-0.527,0-0.955-0.428-0.955-0.955l0,0      c0-0.526,0.428-0.954,0.955-0.954h13.735C235.081,70.059,235.508,70.486,235.508,71.012L235.508,71.012z" data-original="#83619D" class=""/>
			</g>
		</g>
	</g>
	<g>
		<g>
			<g>
				<path fill="#83619D" d="M235.508,76.412c0,0.527-0.427,0.954-0.953,0.954h-19.352c-0.527,0-0.953-0.426-0.953-0.954l0,0      c0-0.527,0.426-0.954,0.953-0.954h19.352C235.081,75.458,235.508,75.885,235.508,76.412L235.508,76.412z" data-original="#83619D" class=""/>
			</g>
		</g>
	</g>
	<g>
		<g>
			<g>
				<path fill="#83619D" d="M231.302,81.812c0,0.525-0.428,0.954-0.954,0.954h-15.145c-0.527,0-0.953-0.428-0.953-0.954l0,0      c0-0.527,0.426-0.955,0.953-0.955h15.145C230.874,80.856,231.302,81.285,231.302,81.812L231.302,81.812z" data-original="#83619D" class=""/>
			</g>
		</g>
	</g>
	<g>
		<g>
			<g>
				<g>
					<path fill="#CAD41F" d="M207.547,46.52h-2.008c0.825,0,1.494-0.669,1.494-1.494c0-0.827-0.669-1.495-1.494-1.495h-5.162       c0,0,2.49-5.026,0-8.144c-2.489-3.119-1.993,1.092-3.303,3.611c-2.077,3.988-7.485,4.564-9.373,4.813v14.044h7.558h5.907h0.654       c1.019,0,1.844-0.825,1.844-1.842s-0.825-1.842-1.844-1.842h3.445c1.065,0,1.928-0.864,1.928-1.928s-0.861-1.928-1.928-1.928       h2.28c1.049,0,1.897-0.849,1.897-1.896C209.444,47.37,208.595,46.52,207.547,46.52z" data-original="#CAD41F" class=""/>
				</g>
			</g>
			<g>
				<g>
					<path fill="#585757" d="M201.82,58.611h-14.875V43.148l0.856-0.112c2.028-0.264,6.775-0.883,8.603-4.389       c0.373-0.719,0.595-1.64,0.791-2.453c0.329-1.373,0.643-2.669,1.792-2.669c0.61,0,1.202,0.415,1.979,1.389       c2.037,2.549,1.176,6.09,0.539,7.86h4.033c1.24,0,2.249,1.01,2.249,2.251c0,0.258-0.044,0.508-0.125,0.74       c1.41,0.062,2.537,1.228,2.537,2.653c0,1.418-1.12,2.58-2.521,2.649c0.174,0.354,0.271,0.753,0.271,1.175       c0,1.479-1.203,2.684-2.684,2.684h-1.085c0.152,0.331,0.238,0.698,0.238,1.086C204.42,57.445,203.254,58.611,201.82,58.611z        M188.457,57.1h13.363c0.6,0,1.088-0.489,1.088-1.086c0-0.6-0.488-1.086-1.088-1.086v-1.512h3.445       c0.646,0,1.172-0.527,1.172-1.172c0-0.647-0.525-1.172-1.172-1.172V49.56h2.28c0.63,0,1.144-0.512,1.144-1.141       c0-0.63-0.514-1.143-1.144-1.143h-2.008v-1.512c0.407,0,0.738-0.332,0.738-0.738c0-0.409-0.331-0.739-0.738-0.739h-6.377       l0.537-1.091c0.021-0.046,2.243-4.638,0.087-7.338c-0.349-0.436-0.576-0.644-0.707-0.741c-0.145,0.309-0.303,0.968-0.415,1.432       c-0.215,0.898-0.46,1.915-0.919,2.797c-2.045,3.925-6.962,4.81-9.288,5.128L188.457,57.1L188.457,57.1z" data-original="#585757" class="" style="fill:#113BBF" data-old_color="#585757"/>
				</g>
			</g>
		</g>
		<g>
			<g>
				<g>
					<rect x="182.413" y="43.811" fill="#FFFFFF" width="5.288" height="14.131" data-original="#FFFFFF" class=""/>
				</g>
			</g>
			<g>
				<g>
					<path fill="#585757" d="M188.457,58.698h-6.8V43.055h6.8V58.698z M183.169,57.187h3.776v-12.62h-3.776V57.187z" data-original="#585757" class="" style="fill:#113BBF" data-old_color="#585757"/>
				</g>
			</g>
		</g>
		<g>
			<g>
				<g>
					<rect x="174.041" y="43.811" fill="#83619D" width="8.21" height="14.131" data-original="#83619D" class=""/>
				</g>
			</g>
			<g>
				<g>
					<path fill="#585757" d="M183.007,58.698h-9.722V43.055h9.722V58.698z M174.797,57.187h6.698v-12.62h-6.698V57.187z" data-original="#585757" class="" style="fill:#113BBF" data-old_color="#585757"/>
				</g>
			</g>
		</g>
	</g>
	<g>
		<g>
			<g>
				<g>
					<path fill="#CAD41F" d="M264.361,118.102h2.01c-0.827,0-1.496,0.668-1.496,1.493s0.669,1.495,1.496,1.495h5.16       c0,0-2.49,5.026,0,8.145c2.49,3.117,1.993-1.092,3.304-3.61c2.077-3.988,7.484-4.563,9.373-4.813v-14.043h-7.558h-5.909h-0.653       c-1.018,0-1.843,0.823-1.843,1.842c0,1.018,0.825,1.843,1.843,1.843h-3.444c-1.064,0-1.929,0.862-1.929,1.928       c0,1.063,0.863,1.927,1.929,1.927h-2.281c-1.048,0-1.896,0.851-1.896,1.898C262.465,117.251,263.313,118.102,264.361,118.102z" data-original="#CAD41F" class=""/>
				</g>
			</g>
			<g>
				<g>
					<path fill="#585757" d="M270.088,106.01h14.876v15.461l-0.857,0.114c-2.027,0.263-6.774,0.881-8.602,4.388       c-0.375,0.719-0.596,1.641-0.791,2.452c-0.331,1.373-0.642,2.671-1.794,2.671c-0.608,0-1.201-0.416-1.979-1.391       c-2.037-2.55-1.173-6.089-0.538-7.859h-4.031c-1.242,0-2.251-1.01-2.251-2.251c0-0.26,0.044-0.509,0.125-0.741       c-1.41-0.062-2.536-1.228-2.536-2.649c0-1.419,1.119-2.582,2.521-2.651c-0.174-0.354-0.271-0.753-0.271-1.174       c0-1.48,1.204-2.684,2.685-2.684h1.085c-0.153-0.331-0.238-0.699-0.238-1.086C267.489,107.175,268.654,106.01,270.088,106.01z        M283.453,107.521h-13.365c-0.6,0-1.087,0.486-1.087,1.086c0,0.599,0.487,1.086,1.087,1.086v1.513h-3.444       c-0.646,0-1.172,0.524-1.172,1.172c0,0.646,0.524,1.171,1.172,1.171v1.512h-2.281c-0.629,0-1.141,0.513-1.141,1.144       c0,0.629,0.512,1.144,1.141,1.144h2.01v1.51c-0.408,0-0.74,0.332-0.74,0.738c0,0.407,0.332,0.739,0.74,0.739h6.375l-0.537,1.09       c-0.021,0.048-2.244,4.638-0.087,7.339c0.349,0.436,0.575,0.644,0.707,0.741c0.146-0.31,0.304-0.968,0.415-1.432       c0.215-0.897,0.46-1.916,0.919-2.8c2.045-3.924,6.962-4.808,9.29-5.127L283.453,107.521L283.453,107.521z" data-original="#585757" class="" style="fill:#113BBF" data-old_color="#585757"/>
				</g>
			</g>
		</g>
		<g>
			<g>
				<g>
					<rect x="284.208" y="106.68" fill="#FFFFFF" width="5.288" height="14.129" data-original="#FFFFFF" class=""/>
				</g>
			</g>
			<g>
				<g>
					<path fill="#585757" d="M283.453,105.923h6.799v15.642h-6.799V105.923z M288.74,107.436h-3.776v12.617h3.776V107.436z" data-original="#585757" class="" style="fill:#113BBF" data-old_color="#585757"/>
				</g>
			</g>
		</g>
		<g>
			<g>
				<g>
					<rect x="289.657" y="106.68" fill="#D84253" width="8.212" height="14.129" data-original="#D84253"/>
				</g>
			</g>
			<g>
				<g>
					<path fill="#585757" d="M288.901,105.923h9.723v15.642h-9.723V105.923z M297.113,107.436h-6.7v12.617h6.7V107.436z" data-original="#585757" class="" style="fill:#113BBF" data-old_color="#585757"/>
				</g>
			</g>
		</g>
	</g>
	<g>
		<g>
			<g>
				<path fill="#585757" d="M69.056,49.543c-0.38,0-0.744-0.192-0.956-0.524c-0.097-0.15-0.604-0.965-1.143-2.217      c-0.248-0.576,0.018-1.243,0.593-1.489c0.574-0.248,1.241,0.016,1.489,0.592c0.48,1.116,0.922,1.819,0.972,1.896      c0.116,0.182,0.179,0.396,0.179,0.611c0,0.503-0.332,0.946-0.816,1.088C69.269,49.528,69.162,49.543,69.056,49.543z       M66.713,42.378c-0.595,0-1.094-0.463-1.13-1.064c-0.017-0.26-0.024-0.521-0.024-0.787c0-1.174,0.168-2.303,0.497-3.355      c0.188-0.598,0.823-0.93,1.422-0.742c0.598,0.187,0.93,0.824,0.742,1.421c-0.262,0.833-0.395,1.733-0.395,2.676      c0,0.218,0.007,0.436,0.021,0.649c0.037,0.625-0.438,1.162-1.063,1.2C66.759,42.378,66.735,42.378,66.713,42.378z       M85.992,40.553c-0.521,0-0.989-0.36-1.105-0.89c-0.004-0.015-0.351-1.56-1.182-3.33c-0.267-0.567-0.022-1.241,0.543-1.509      c0.567-0.266,1.243-0.022,1.509,0.545c0.945,2.012,1.329,3.738,1.345,3.81c0.134,0.611-0.253,1.213-0.864,1.348      C86.154,40.544,86.073,40.553,85.992,40.553z M70.021,34.29c-0.312,0-0.623-0.128-0.849-0.379      c-0.416-0.468-0.373-1.185,0.096-1.602c0.756-0.672,1.634-1.292,2.61-1.844c0.262-0.149,0.521-0.285,0.773-0.412      c0.56-0.278,1.241-0.049,1.519,0.512c0.279,0.561,0.052,1.241-0.511,1.519c-0.218,0.109-0.438,0.226-0.665,0.354      c-0.839,0.474-1.586,1-2.222,1.565C70.559,34.196,70.29,34.29,70.021,34.29z M81.645,32.731c-0.257,0-0.517-0.086-0.728-0.265      c-0.862-0.72-1.811-1.16-2.815-1.303c-0.62-0.088-1.051-0.663-0.961-1.283c0.089-0.62,0.667-1.05,1.282-0.962      c1.43,0.205,2.758,0.813,3.948,1.81c0.479,0.402,0.545,1.118,0.143,1.597C82.291,32.594,81.97,32.731,81.645,32.731z" data-original="#585757" class="" style="fill:#113BBF" data-old_color="#585757"/>
			</g>
		</g>
	</g>
	<g>
		<g>
			<g>
				<path fill="#585757" d="M92.274,40.552c-0.061,0-0.12-0.004-0.183-0.015c-0.614-0.099-1.035-0.676-0.938-1.293      c0.01-0.066,0.267-1.636,1.357-3.881c0.273-0.564,0.951-0.797,1.517-0.524c0.562,0.274,0.797,0.952,0.522,1.516      c-0.932,1.915-1.156,3.233-1.157,3.246C93.3,40.156,92.82,40.552,92.274,40.552z M96.412,32.569      c-0.256,0-0.513-0.085-0.725-0.263c-0.481-0.4-0.547-1.115-0.146-1.596c0.822-0.989,1.746-1.941,2.744-2.831      c0.468-0.417,1.185-0.375,1.6,0.093c0.419,0.466,0.378,1.184-0.091,1.6c-0.914,0.815-1.76,1.686-2.51,2.588      C97.06,32.43,96.736,32.569,96.412,32.569z M103.291,26.725c-0.383,0-0.756-0.192-0.969-0.542      c-0.328-0.534-0.159-1.232,0.375-1.559c1.079-0.66,2.233-1.28,3.434-1.845c0.565-0.266,1.241-0.025,1.51,0.543      c0.267,0.565,0.022,1.242-0.544,1.509c-1.124,0.53-2.206,1.111-3.217,1.729C103.695,26.672,103.491,26.725,103.291,26.725z       M111.529,23.003c-0.479,0-0.923-0.304-1.078-0.784c-0.193-0.595,0.133-1.234,0.729-1.428c0.618-0.201,1.255-0.394,1.911-0.579      c0.602-0.168,1.229,0.183,1.397,0.786c0.17,0.604-0.182,1.228-0.785,1.398c-0.626,0.175-1.232,0.36-1.824,0.552      C111.764,22.986,111.646,23.003,111.529,23.003z" data-original="#585757" class="" style="fill:#113BBF" data-old_color="#585757"/>
			</g>
		</g>
	</g>
	<g>
		<g>
			<g>
				<circle fill="#585757" cx="119.476" cy="21.306" r="3.386" data-original="#585757" class="" style="fill:#113BBF" data-old_color="#585757"/>
			</g>
		</g>
	</g>
</g></g> </svg>
