<?xml version="1.0"?>
<svg xmlns="http://www.w3.org/2000/svg" xmlns:xlink="http://www.w3.org/1999/xlink" version="1.1" id="Capa_1" x="0px" y="0px" width="512px" height="512px" viewBox="0 0 360 170" enable-background="new 0 0 360 170" xml:space="preserve" class=""><g><g>
	<circle fill="#DFDFDF" cx="180.191" cy="85.001" r="85" data-original="#DFDFDF" class="active-path" style="fill:#2E96BE" data-old_color="#DFDFDF"/>
	<g>
		<g>
			<g>
				<path fill="#585757" d="M111.265,153.814h-2.161c-1.852,0-3.358-1.505-3.358-3.357v-1.535c0-0.493-0.363-1.147-0.646-1.514      c-0.237,0.138-0.633,0.41-1.039,0.818l-1.084,1.082c-0.633,0.633-1.478,0.982-2.376,0.982c-0.899,0-1.742-0.348-2.375-0.981      l-1.528-1.529c-0.633-0.63-0.981-1.476-0.981-2.375s0.349-1.742,0.981-2.375l1.084-1.084c0.347-0.347,0.554-1.058,0.617-1.516      c-0.284-0.084-0.749-0.168-1.312-0.168h-1.535c-1.853,0-3.36-1.508-3.36-3.36v-2.161c0-1.853,1.508-3.357,3.359-3.357h1.536      c0.49,0,1.138-0.36,1.506-0.64c-0.143-0.261-0.413-0.648-0.811-1.047l-1.084-1.083c-0.633-0.632-0.981-1.477-0.982-2.375      c0-0.899,0.35-1.743,0.981-2.375l1.529-1.528c0.632-0.633,1.476-0.983,2.375-0.983c0.898,0,1.741,0.349,2.375,0.982l1.085,1.085      c0.34,0.339,1.022,0.552,1.516,0.616c0.083-0.284,0.169-0.749,0.169-1.313v-1.535c0-1.853,1.507-3.358,3.358-3.358h2.161      c1.852,0,3.359,1.506,3.359,3.358v1.535c0,0.493,0.363,1.147,0.644,1.514c0.238-0.138,0.635-0.411,1.04-0.818l1.084-1.083      c0.634-0.634,1.478-0.982,2.377-0.982c0.897,0,1.741,0.349,2.375,0.982l1.527,1.529c0.634,0.63,0.982,1.476,0.982,2.375      c0,0.898-0.349,1.741-0.982,2.375l-1.083,1.083c-0.349,0.349-0.556,1.061-0.618,1.518c0.284,0.083,0.749,0.169,1.313,0.169      h1.535c1.853,0,3.36,1.505,3.36,3.357v2.161c0,1.853-1.508,3.36-3.36,3.36h-1.535c-0.49,0-1.138,0.356-1.506,0.639      c0.143,0.26,0.411,0.646,0.81,1.044l1.084,1.085c0.634,0.633,0.982,1.476,0.982,2.375s-0.349,1.745-0.982,2.377l-1.527,1.527      c-0.634,0.634-1.478,0.981-2.375,0.981c-0.899,0-1.743-0.348-2.376-0.981l-1.085-1.085c-0.339-0.34-1.022-0.552-1.515-0.617      c-0.085,0.285-0.169,0.75-0.169,1.314v1.535C114.624,152.31,113.116,153.814,111.265,153.814z M105.307,144.979      c0.24,0,0.466,0.049,0.669,0.146c0.825,0.39,2.094,2.196,2.094,3.797v1.535c0,0.569,0.464,1.033,1.034,1.033h2.161      c0.57,0,1.034-0.464,1.034-1.033v-1.535c0-0.709,0.107-3.058,1.498-3.551c0.202-0.073,0.438-0.107,0.719-0.107      c0.732,0,2.395,0.276,3.437,1.316l1.085,1.085c0.386,0.387,1.075,0.387,1.463-0.001l1.527-1.526      c0.194-0.195,0.301-0.453,0.301-0.732c0-0.276-0.106-0.537-0.301-0.729l-1.084-1.085c-0.501-0.5-2.085-2.236-1.456-3.563      c0.389-0.82,2.195-2.09,3.796-2.09h1.535c0.569,0,1.034-0.465,1.034-1.035v-2.161c0-0.569-0.465-1.033-1.034-1.033h-1.535      c-0.709,0-3.058-0.109-3.551-1.499c-0.304-0.854,0.078-3.023,1.211-4.156l1.084-1.083c0.194-0.193,0.301-0.453,0.301-0.73      c0-0.279-0.106-0.537-0.301-0.732l-1.528-1.527c-0.386-0.388-1.075-0.388-1.463,0.001l-1.084,1.084      c-0.376,0.374-1.696,1.602-2.89,1.602c-0.242,0-0.469-0.051-0.672-0.148c-0.822-0.387-2.092-2.191-2.092-3.795v-1.535      c0-0.569-0.464-1.033-1.034-1.033h-2.161c-0.57,0-1.034,0.464-1.034,1.033v1.535c0,0.709-0.107,3.058-1.496,3.551      c-0.202,0.073-0.438,0.107-0.722,0.107c-0.732,0-2.394-0.276-3.435-1.316l-1.086-1.085c-0.387-0.388-1.075-0.388-1.462,0.001      l-1.528,1.526c-0.193,0.195-0.3,0.453-0.3,0.732c0,0.277,0.106,0.537,0.3,0.73l1.085,1.083c0.499,0.502,2.084,2.236,1.456,3.562      c-0.39,0.822-2.194,2.093-3.796,2.093H95.55c-0.57,0-1.034,0.464-1.034,1.033v2.161c0,0.57,0.465,1.035,1.035,1.035h1.535      c0.708,0,3.057,0.107,3.551,1.497c0.303,0.855-0.081,3.025-1.211,4.156l-1.084,1.084c-0.194,0.193-0.301,0.454-0.301,0.73      c0,0.279,0.106,0.537,0.3,0.732l1.528,1.527c0.388,0.387,1.076,0.387,1.464-0.001l1.083-1.082      C102.792,146.205,104.112,144.979,105.307,144.979z" data-original="#585757" class="" style="fill:#113BBF" data-old_color="#585757"/>
			</g>
			<g>
				<path fill="#585757" d="M110.185,143.318c-4.135,0-7.497-3.363-7.497-7.496c0-4.134,3.362-7.496,7.497-7.496      c4.133,0,7.496,3.362,7.496,7.496C117.681,139.955,114.317,143.318,110.185,143.318z M110.185,130.651      c-2.852,0-5.172,2.319-5.172,5.171s2.32,5.171,5.172,5.171c2.851,0,5.171-2.319,5.171-5.171S113.035,130.651,110.185,130.651z" data-original="#585757" class="" style="fill:#113BBF" data-old_color="#585757"/>
			</g>
		</g>
		<g>
			<g>
				<path fill="#585757" d="M92.68,122.864h-1.426c-1.222,0-2.216-0.993-2.216-2.216v-1.013c0-0.324-0.238-0.755-0.425-0.997      c-0.157,0.091-0.418,0.271-0.686,0.54l-0.715,0.714c-0.417,0.417-0.974,0.648-1.567,0.648c-0.593,0-1.148-0.23-1.566-0.648      l-1.008-1.008c-0.417-0.416-0.647-0.975-0.647-1.566c0-0.593,0.23-1.149,0.647-1.565l0.715-0.717      c0.229-0.229,0.365-0.698,0.407-0.999c-0.188-0.056-0.494-0.11-0.865-0.11h-1.013c-1.223,0-2.217-0.995-2.217-2.218v-1.424      c0-1.223,0.994-2.216,2.216-2.216h1.014c0.322,0,0.75-0.236,0.992-0.421c-0.094-0.173-0.271-0.428-0.534-0.69l-0.715-0.715      c-0.417-0.416-0.647-0.973-0.648-1.566c0-0.593,0.23-1.149,0.647-1.567l1.009-1.007c0.417-0.418,0.973-0.648,1.566-0.648      s1.149,0.229,1.566,0.647l0.716,0.716c0.225,0.224,0.675,0.364,0.999,0.405c0.056-0.188,0.111-0.493,0.111-0.864v-1.013      c0-1.223,0.994-2.216,2.216-2.216h1.426c1.222,0,2.216,0.993,2.216,2.216v1.013c0,0.324,0.238,0.755,0.425,0.996      c0.156-0.09,0.418-0.269,0.685-0.539l0.716-0.714c0.418-0.418,0.975-0.647,1.566-0.647c0.593,0,1.15,0.229,1.567,0.647      l1.007,1.008c0.418,0.416,0.648,0.975,0.648,1.567c0,0.594-0.23,1.148-0.648,1.566l-0.714,0.715      c-0.23,0.229-0.366,0.699-0.407,1c0.187,0.055,0.494,0.111,0.865,0.111h1.014c1.221,0,2.216,0.993,2.216,2.216v1.424      c0,1.223-0.995,2.218-2.216,2.218h-1.014c-0.322,0-0.75,0.236-0.992,0.421c0.094,0.171,0.271,0.426,0.534,0.688l0.714,0.717      c0.418,0.416,0.648,0.973,0.648,1.565c0,0.592-0.23,1.15-0.648,1.568l-1.007,1.006c-0.417,0.418-0.975,0.648-1.567,0.648      c-0.592,0-1.148-0.23-1.566-0.648l-0.716-0.716c-0.223-0.223-0.675-0.364-0.999-0.405c-0.057,0.188-0.11,0.493-0.11,0.864v1.013      C94.896,121.871,93.901,122.864,92.68,122.864z M88.75,117.037c0.158,0,0.307,0.03,0.441,0.096      c0.544,0.257,1.38,1.448,1.38,2.503v1.013c0,0.377,0.308,0.683,0.683,0.683h1.426c0.375,0,0.682-0.306,0.682-0.683v-1.013      c0-0.468,0.071-2.016,0.987-2.341c0.133-0.047,0.29-0.07,0.476-0.07c0.482,0,1.578,0.182,2.266,0.867l0.716,0.716      c0.254,0.256,0.709,0.256,0.964,0l1.009-1.008c0.127-0.127,0.197-0.298,0.197-0.481c0-0.183-0.07-0.355-0.197-0.482      l-0.716-0.715c-0.33-0.33-1.375-1.476-0.96-2.35c0.256-0.542,1.448-1.379,2.503-1.379h1.014c0.375,0,0.682-0.307,0.682-0.684      v-1.424c0-0.377-0.307-0.683-0.682-0.683h-1.014c-0.467,0-2.016-0.07-2.341-0.988c-0.2-0.562,0.052-1.993,0.798-2.74      l0.716-0.716c0.127-0.127,0.197-0.298,0.197-0.481c0-0.185-0.07-0.354-0.197-0.482l-1.009-1.008      c-0.254-0.256-0.71-0.256-0.965,0.001l-0.715,0.715c-0.248,0.248-1.119,1.055-1.905,1.055c-0.159,0-0.309-0.032-0.444-0.096      c-0.542-0.257-1.379-1.446-1.379-2.503v-1.013c0-0.377-0.307-0.683-0.682-0.683h-1.426c-0.375,0-0.683,0.306-0.683,0.683v1.013      c0,0.466-0.07,2.016-0.986,2.341c-0.133,0.049-0.289,0.07-0.477,0.07c-0.482,0-1.578-0.181-2.265-0.867l-0.716-0.716      c-0.255-0.256-0.71-0.256-0.965,0.001l-1.008,1.007c-0.128,0.128-0.198,0.298-0.198,0.482c0,0.184,0.07,0.354,0.198,0.481      l0.715,0.716c0.33,0.329,1.375,1.475,0.962,2.351c-0.258,0.541-1.448,1.378-2.504,1.378h-1.014      c-0.376,0-0.682,0.306-0.682,0.683v1.424c0,0.377,0.306,0.684,0.683,0.684h1.013c0.467,0,2.016,0.071,2.341,0.987      c0.2,0.564-0.052,1.995-0.799,2.741l-0.714,0.715c-0.129,0.127-0.198,0.3-0.198,0.482c0,0.184,0.069,0.354,0.197,0.481      l1.008,1.008c0.255,0.256,0.71,0.256,0.965,0l0.715-0.714C87.091,117.846,87.962,117.037,88.75,117.037z" data-original="#585757" class="" style="fill:#113BBF" data-old_color="#585757"/>
			</g>
			<g>
				<path fill="#585757" d="M91.967,115.941c-2.727,0-4.944-2.219-4.944-4.943c0-2.729,2.218-4.945,4.944-4.945      c2.726,0,4.943,2.217,4.943,4.945C96.91,113.723,94.692,115.941,91.967,115.941z M91.967,107.587      c-1.881,0-3.411,1.53-3.411,3.411s1.53,3.41,3.411,3.41c1.88,0,3.41-1.529,3.41-3.41S93.847,107.587,91.967,107.587z" data-original="#585757" class="" style="fill:#113BBF" data-old_color="#585757"/>
			</g>
		</g>
		<g>
			<path fill="#585757" d="M240.327,140.401c-0.083,0-0.168-0.011-0.252-0.029l-11.967-2.731c-1.874,0.775-3.847,1.168-5.871,1.168     c-8.498,0-15.411-6.914-15.411-15.411c0-8.498,6.913-15.411,15.411-15.411s15.411,6.913,15.411,15.411     c0,2.142-0.442,4.224-1.315,6.197l4.989,9.13c0.213,0.391,0.178,0.87-0.091,1.227     C241.015,140.237,240.678,140.401,240.327,140.401z M228.001,135.318c0.085,0,0.169,0.011,0.253,0.03l9.871,2.252l-4.056-7.422     c-0.176-0.321-0.185-0.708-0.024-1.039c0.886-1.82,1.336-3.751,1.336-5.742c0-7.248-5.896-13.144-13.144-13.144     s-13.145,5.896-13.145,13.144c0,7.246,5.897,13.144,13.145,13.144c1.833,0,3.618-0.379,5.306-1.125     C227.688,135.352,227.844,135.318,228.001,135.318z" data-original="#585757" class="" style="fill:#113BBF" data-old_color="#585757"/>
		</g>
		<g>
			<g>
				
					<ellipse transform="matrix(0.8643 -0.503 0.503 0.8643 -20.7388 94.7178)" fill="#FFFFFF" cx="165.176" cy="85.795" rx="7.976" ry="9.874" data-original="#FFFFFF" class=""/>
				<path fill="#585757" d="M166.742,95.98L166.742,95.98c-3.487,0-7.065-2.274-9.114-5.795c-2.947-5.064-1.959-11.155,2.203-13.578      c1.14-0.664,2.411-1,3.777-1c3.487,0,7.065,2.274,9.114,5.797c1.413,2.428,1.976,5.164,1.586,7.702      c-0.4,2.601-1.745,4.687-3.788,5.874C169.38,95.645,168.108,95.98,166.742,95.98z M163.608,77.119      c-1.096,0-2.111,0.268-3.018,0.796c-3.44,2.003-4.185,7.167-1.656,11.511c1.784,3.064,4.849,5.043,7.808,5.043      c1.096,0,2.111-0.267,3.019-0.795c1.64-0.953,2.725-2.657,3.054-4.796c0.338-2.2-0.159-4.583-1.398-6.713      C169.633,79.098,166.567,77.119,163.608,77.119z" data-original="#585757" class="" style="fill:#113BBF" data-old_color="#585757"/>
			</g>
			<g>
				<g>
					<path fill="#FFFFFF" d="M130.647,120.972c0,0,2.685,3.233,6.381,3.225c0,0-4.82,5.966-8.513,5.012       C128.516,129.208,118.133,120.156,130.647,120.972z" data-original="#FFFFFF" class=""/>
					<path fill="#585757" d="M129.353,130.066c-0.354,0-0.699-0.043-1.026-0.128c-0.114-0.029-0.22-0.084-0.308-0.161       c-0.535-0.467-5.199-4.641-4.141-7.47c0.541-1.441,2.267-2.145,5.275-2.145c0.473,0,0.986,0.018,1.543,0.055       c0.206,0.014,0.399,0.112,0.532,0.271c0.024,0.029,2.508,2.952,5.784,2.952c0.291,0,0.563,0.168,0.689,0.431       s0.097,0.574-0.086,0.8C137.438,124.892,133.213,130.066,129.353,130.066z M128.87,128.513       c0.155,0.027,0.316,0.042,0.482,0.042c2.067,0,4.623-2.188,6.138-3.767c-2.638-0.559-4.56-2.397-5.198-3.081       c-0.405-0.021-0.784-0.032-1.139-0.032c-2.208,0-3.578,0.413-3.859,1.165C124.809,124.134,127.049,126.886,128.87,128.513z" data-original="#585757" class="" style="fill:#113BBF" data-old_color="#585757"/>
				</g>
				<g>
					<path fill="#FFFFFF" d="M136.23,131.503c1.193,1.103,1.269,2.964,0.167,4.157l-5.956,6.455       c-1.102,1.194-2.964,1.268-4.156,0.166l-16.546-15.268c-1.194-1.101-1.27-2.962-0.168-4.155l5.956-6.455       c1.101-1.195,2.962-1.27,4.156-0.167L136.23,131.503z" data-original="#FFFFFF" class=""/>
					<path fill="#585757" d="M128.279,143.817c-0.932,0-1.822-0.349-2.507-0.98l-16.546-15.267c-0.726-0.67-1.147-1.582-1.188-2.569       c-0.039-0.986,0.308-1.93,0.978-2.656l5.955-6.453c0.697-0.758,1.688-1.191,2.718-1.191c0.932,0,1.822,0.349,2.508,0.979       l16.546,15.269c1.498,1.383,1.592,3.727,0.21,5.224l-5.956,6.455C130.299,143.383,129.309,143.817,128.279,143.817z        M117.689,116.212c-0.618,0-1.188,0.249-1.606,0.704l-5.956,6.455c-0.396,0.428-0.601,0.985-0.577,1.569       c0.023,0.583,0.272,1.123,0.701,1.519l16.547,15.267c0.858,0.794,2.297,0.733,3.088-0.123l5.956-6.455       c0.817-0.886,0.762-2.271-0.124-3.09l-16.546-15.266C118.767,116.418,118.24,116.212,117.689,116.212z" data-original="#585757" class="" style="fill:#113BBF" data-old_color="#585757"/>
				</g>
				<g>
					<path fill="#D84253" d="M119.551,93.117l-21.256,12.512c-2.897,1.707-3.863,5.438-2.158,8.336l10.074,17.113       c1.707,2.897,5.438,3.864,8.335,2.158l21.258-12.514L119.551,93.117z" data-original="#D84253" class=""/>
					<path fill="#585757" d="M111.464,134.835L111.464,134.835c-2.417,0-4.68-1.294-5.903-3.373l-10.075-17.114       c-0.927-1.574-1.186-3.416-0.728-5.187c0.459-1.77,1.578-3.256,3.153-4.183l21.908-12.896l17.019,28.909l-21.908,12.896       C113.877,134.507,112.679,134.835,111.464,134.835z M119.284,94.152L98.679,106.28c-1.228,0.723-2.101,1.881-2.457,3.259       c-0.356,1.379-0.156,2.815,0.566,4.042l10.074,17.114c0.955,1.621,2.718,2.628,4.601,2.628h0.001       c0.945,0,1.879-0.256,2.699-0.738l20.605-12.13L119.284,94.152z" data-original="#585757" class="" style="fill:#113BBF" data-old_color="#585757"/>
				</g>
				<g>
					<path fill="#2E96BE" d="M179.989,108.639c0.592,1.007,0.257,2.305-0.751,2.896l-5.965,3.512       c-1.008,0.594-2.306,0.259-2.898-0.75l-28.428-48.291c-0.594-1.008-0.257-2.306,0.75-2.899l5.965-3.51       c1.008-0.594,2.306-0.258,2.897,0.75L179.989,108.639z" data-original="#2E96BE"/>
					<path fill="#585757" d="M172.2,116.097c-1.013,0-1.962-0.544-2.477-1.416l-28.428-48.292c-0.804-1.365-0.347-3.129,1.019-3.932       l5.964-3.512c0.442-0.26,0.946-0.397,1.456-0.397c1.015,0,1.964,0.543,2.478,1.416l28.428,48.292       c0.39,0.661,0.498,1.434,0.306,2.178c-0.192,0.742-0.663,1.365-1.324,1.755l-5.964,3.511       C173.215,115.959,172.712,116.097,172.2,116.097z M149.734,60.059c-0.241,0-0.479,0.065-0.688,0.189l-5.965,3.51       c-0.646,0.381-0.864,1.218-0.483,1.864l28.429,48.292c0.367,0.621,1.237,0.85,1.863,0.48l5.966-3.512       c0.312-0.185,0.535-0.479,0.626-0.831c0.091-0.351,0.04-0.717-0.145-1.03l-28.428-48.293       C150.665,60.316,150.215,60.059,149.734,60.059z" data-original="#585757" class="" style="fill:#113BBF" data-old_color="#585757"/>
				</g>
				<g>
					<path fill="#FFFFFF" d="M119.551,93.117l16.253,27.605c0,0,19.746-12.329,34.571-6.426l-28.428-48.291       C139.914,81.833,119.551,93.117,119.551,93.117z" data-original="#FFFFFF" class=""/>
					<path fill="#585757" d="M135.546,121.775l-17.039-28.943l0.678-0.376c0.201-0.11,20.053-11.287,22.013-26.545l0.282-2.191       l30.667,52.097L170.096,115c-2.577-1.026-5.499-1.547-8.685-1.547c-12.394,0-25.081,7.832-25.208,7.912L135.546,121.775z        M120.59,93.391l15.478,26.293c2.83-1.653,14.021-7.742,25.344-7.742c2.597,0,5.035,0.329,7.277,0.979l-26.355-44.77       C139.276,81.658,124.049,91.343,120.59,93.391z" data-original="#585757" class="" style="fill:#113BBF" data-old_color="#585757"/>
				</g>
				<g>
					<path fill="#D84253" d="M109.889,124.438l-5.59,3.29l1.793,3.044l5.589-3.291c0.84-0.494,1.12-1.577,0.626-2.417       C111.812,124.223,110.729,123.942,109.889,124.438z" data-original="#D84253" class=""/>
					<path fill="#585757" d="M106.092,131.528c-0.259,0-0.511-0.133-0.652-0.372l-1.792-3.044c-0.102-0.173-0.13-0.38-0.08-0.574       c0.05-0.193,0.176-0.36,0.349-0.461l5.589-3.29c0.387-0.229,0.829-0.35,1.278-0.35c0.89,0,1.723,0.477,2.174,1.243       c0.706,1.198,0.305,2.747-0.893,3.452l-5.59,3.29C106.354,131.494,106.223,131.528,106.092,131.528z M105.334,127.996       l1.024,1.741l4.938-2.906c0.479-0.283,0.641-0.903,0.358-1.385c-0.271-0.461-0.918-0.632-1.383-0.357L105.334,127.996z" data-original="#585757" class="" style="fill:#113BBF" data-old_color="#585757"/>
				</g>
				<g>
					<path fill="#D84253" d="M106.791,116.989l-6.545,3.853l2.283,3.881l6.546-3.853c1.071-0.632,1.429-2.012,0.798-3.082       C109.242,116.715,107.861,116.359,106.791,116.989z" data-original="#D84253" class=""/>
					<path fill="#585757" d="M102.531,125.479c-0.26,0-0.512-0.133-0.652-0.372l-2.284-3.881c-0.212-0.359-0.093-0.821,0.268-1.034       l6.545-3.853c0.462-0.273,0.989-0.417,1.523-0.417c1.062,0,2.057,0.568,2.594,1.482c0.842,1.428,0.363,3.275-1.065,4.117       l-6.546,3.853C102.793,125.445,102.661,125.479,102.531,125.479z M101.281,121.111l1.518,2.577l5.893-3.469       c0.711-0.42,0.949-1.338,0.531-2.048c-0.401-0.684-1.359-0.938-2.049-0.531L101.281,121.111z" data-original="#585757" class="" style="fill:#113BBF" data-old_color="#585757"/>
				</g>
				<g>
					<path fill="#D84253" d="M102.191,111.616l-5.479,3.226l1.735,2.948l5.479-3.226c0.813-0.479,1.085-1.528,0.605-2.343       C104.055,111.408,103.006,111.137,102.191,111.616z" data-original="#D84253" class=""/>
					<path fill="#585757" d="M98.448,118.545c-0.063,0-0.127-0.007-0.189-0.023c-0.193-0.05-0.359-0.176-0.462-0.348l-1.735-2.95       c-0.211-0.358-0.092-0.822,0.269-1.033l5.478-3.225c0.38-0.225,0.812-0.343,1.251-0.343c0.87,0,1.686,0.466,2.127,1.216       c0.333,0.567,0.427,1.231,0.261,1.869c-0.165,0.638-0.568,1.174-1.137,1.507l-5.478,3.226       C98.715,118.51,98.582,118.545,98.448,118.545z M97.748,115.109l0.969,1.646l4.827-2.842c0.22-0.13,0.376-0.337,0.439-0.583       c0.063-0.248,0.028-0.505-0.102-0.725c-0.257-0.438-0.866-0.6-1.307-0.338L97.748,115.109z" data-original="#585757" class="" style="fill:#113BBF" data-old_color="#585757"/>
				</g>
			</g>
		</g>
		<g>
			<path fill="#FFFFFF" d="M223.888,103.39h-22.937c-3.885,0-7.064,3.18-7.064,7.065v11.085c0,3.887,3.18,7.066,7.064,7.066h1.043     v9.795l11.117-9.795h10.776c3.886,0,7.065-3.18,7.065-7.066v-11.085C230.953,106.569,227.773,103.39,223.888,103.39z" data-original="#FFFFFF" class=""/>
			<path fill="#585757" d="M201.994,139.156c-0.105,0-0.212-0.021-0.311-0.067c-0.271-0.121-0.445-0.392-0.445-0.688v-9.039h-0.287     c-4.312,0-7.82-3.509-7.82-7.822v-11.085c0-4.312,3.509-7.821,7.82-7.821h22.937c4.312,0,7.821,3.509,7.821,7.821v11.085     c0,4.313-3.509,7.822-7.821,7.822h-10.49l-10.903,9.605C202.354,139.092,202.175,139.156,201.994,139.156z M200.951,104.146     c-3.479,0-6.309,2.83-6.309,6.31v11.085c0,3.479,2.83,6.311,6.309,6.311h1.043c0.417,0,0.756,0.339,0.756,0.756v8.12l9.861-8.687     c0.139-0.123,0.316-0.189,0.5-0.189h10.776c3.479,0,6.31-2.831,6.31-6.311v-11.085c0-3.479-2.831-6.31-6.31-6.31H200.951z" data-original="#585757" class="" style="fill:#113BBF" data-old_color="#585757"/>
		</g>
		<g>
			<circle fill="#83619D" cx="203.711" cy="116.281" r="2.542" data-original="#83619D"/>
		</g>
		<g>
			<circle fill="#83619D" cx="221.601" cy="116.281" r="2.542" data-original="#83619D"/>
		</g>
		<g>
			<circle fill="#83619D" cx="212.655" cy="116.281" r="2.543" data-original="#83619D"/>
		</g>
		<g>
			<path fill="#D84253" d="M242.49,100.206c-3.201,2.202-5.82,0.825-5.82-3.061V76.862c0-3.885,2.619-5.262,5.82-3.06L255.857,83     c3.202,2.202,3.202,5.806,0,8.008L242.49,100.206z" data-original="#D84253" class=""/>
			<path fill="#585757" d="M239.637,102.011c-2.261,0-3.723-1.91-3.723-4.865V76.862c0-2.955,1.462-4.865,3.723-4.865     c1.022,0,2.157,0.409,3.282,1.183l13.367,9.198c1.76,1.21,2.729,2.854,2.729,4.627s-0.969,3.416-2.729,4.627l-13.367,9.198     C241.794,101.603,240.658,102.011,239.637,102.011z M239.637,73.508c-1.385,0-2.211,1.253-2.211,3.354v20.284     c0,2.101,0.826,3.354,2.211,3.354c0.715,0,1.553-0.317,2.426-0.916l13.366-9.198c1.338-0.92,2.074-2.119,2.074-3.381     c0-1.261-0.736-2.461-2.074-3.381l-13.366-9.198C241.189,73.824,240.352,73.508,239.637,73.508z" data-original="#585757" class="" style="fill:#113BBF" data-old_color="#585757"/>
		</g>
		<g>
			<g>
				<rect x="194.25" y="44.123" fill="#CCCCCB" width="34.952" height="21.425" data-original="#CCCCCB"/>
			</g>
			<g>
				<polygon fill="#FFFFFF" points="194.25,44.123 211.726,26.582 229.202,44.123     " data-original="#FFFFFF" class=""/>
				<path fill="#585757" d="M229.218,44.878c-0.005,0-0.01,0-0.016,0H194.25c-0.306,0-0.58-0.183-0.697-0.465      c-0.118-0.282-0.054-0.608,0.162-0.824l17.476-17.541c0.284-0.285,0.788-0.285,1.071,0l17.394,17.458      c0.192,0.137,0.318,0.361,0.318,0.615C229.974,44.541,229.635,44.878,229.218,44.878z M196.07,43.367h31.312l-15.657-15.713      L196.07,43.367z" data-original="#585757" class="" style="fill:#113BBF" data-old_color="#585757"/>
			</g>
			<g>
				<rect x="201.319" y="35.533" fill="#F4B845" width="20.814" height="26.396" data-original="#F4B845"/>
				<path fill="#585757" d="M222.89,62.685h-22.325V34.777h22.325V62.685z M202.075,61.173h19.303V36.289h-19.303V61.173z" data-original="#585757" class="" style="fill:#113BBF" data-old_color="#585757"/>
			</g>
			<g>
				<polygon fill="#FFFFFF" points="194.25,65.547 211.726,54.835 229.202,65.547     " data-original="#FFFFFF" class=""/>
				<path fill="#585757" d="M229.218,66.303c-0.005,0-0.01-0.001-0.016,0H194.25c-0.338,0-0.635-0.226-0.728-0.551      c-0.092-0.326,0.044-0.673,0.333-0.85l17.477-10.712c0.242-0.149,0.548-0.149,0.79,0l17.393,10.662      c0.27,0.115,0.459,0.382,0.459,0.695C229.974,65.965,229.635,66.303,229.218,66.303z M196.929,64.792h29.595l-14.798-9.071      L196.929,64.792z" data-original="#585757" class="" style="fill:#113BBF" data-old_color="#585757"/>
			</g>
			<g>
				<polygon fill="#FFFFFF" points="194.25,44.123 211.726,54.835 194.25,65.547     " data-original="#FFFFFF" class=""/>
				<path fill="#585757" d="M194.25,66.303c-0.127,0-0.254-0.033-0.369-0.098c-0.238-0.133-0.387-0.385-0.387-0.658V44.123      c0-0.273,0.148-0.525,0.387-0.658c0.239-0.136,0.531-0.128,0.765,0.015l17.477,10.711c0.224,0.137,0.359,0.382,0.359,0.645      s-0.136,0.506-0.359,0.644l-17.477,10.712C194.524,66.266,194.387,66.303,194.25,66.303z M195.006,45.473v18.724l15.274-9.362      L195.006,45.473z" data-original="#585757" class="" style="fill:#113BBF" data-old_color="#585757"/>
			</g>
			<g>
				<polygon fill="#FFFFFF" points="229.202,44.123 211.726,54.835 229.202,65.547     " data-original="#FFFFFF" class=""/>
				<path fill="#585757" d="M229.202,66.303c-0.137,0-0.273-0.037-0.395-0.112l-17.476-10.712c-0.225-0.137-0.362-0.381-0.362-0.644      s0.138-0.508,0.362-0.645l17.476-10.711c0.234-0.143,0.526-0.149,0.765-0.015c0.238,0.133,0.386,0.385,0.386,0.658v21.425      c0,0.273-0.147,0.525-0.386,0.658C229.457,66.271,229.33,66.303,229.202,66.303z M213.173,54.835l15.273,9.362V45.473      L213.173,54.835z" data-original="#585757" class="" style="fill:#113BBF" data-old_color="#585757"/>
			</g>
			<g>
				<path fill="#585757" d="M218.716,41.13h-12.282c-0.417,0-0.756-0.338-0.756-0.756c0-0.417,0.339-0.755,0.756-0.755h12.282      c0.417,0,0.756,0.338,0.756,0.755C219.472,40.792,219.133,41.13,218.716,41.13z" data-original="#585757" class="" style="fill:#113BBF" data-old_color="#585757"/>
			</g>
			<g>
				<path fill="#585757" d="M218.716,45.197h-12.282c-0.417,0-0.756-0.338-0.756-0.756c0-0.417,0.339-0.756,0.756-0.756h12.282      c0.417,0,0.756,0.338,0.756,0.756C219.472,44.859,219.133,45.197,218.716,45.197z" data-original="#585757" class="" style="fill:#113BBF" data-old_color="#585757"/>
			</g>
			<g>
				<path fill="#585757" d="M214.374,49.487h-7.94c-0.417,0-0.756-0.338-0.756-0.756c0-0.417,0.339-0.755,0.756-0.755h7.94      c0.418,0,0.756,0.338,0.756,0.755C215.13,49.149,214.792,49.487,214.374,49.487z" data-original="#585757" class="" style="fill:#113BBF" data-old_color="#585757"/>
			</g>
		</g>
		<g>
			<g>
				
					<rect x="163.524" y="31.939" transform="matrix(0.9349 -0.355 0.355 0.9349 -3.0244 61.2737)" fill="#FFFFFF" width="3.858" height="13.879" data-original="#FFFFFF" class=""/>
				<path fill="#585757" d="M165.679,47.025l-5.47-14.385l5.019-1.909l5.471,14.385L165.679,47.025z M162.158,33.515l4.396,11.56      l2.193-0.834l-4.396-11.56L162.158,33.515z" data-original="#585757" class="" style="fill:#113BBF" data-old_color="#585757"/>
			</g>
			<g>
				<ellipse fill="#CAD41F" cx="162.726" cy="45.817" rx="7.985" ry="6.532" data-original="#CAD41F" class="" style="fill:#CAD41F"/>
				<path fill="#585757" d="M162.726,53.105c-4.82,0-8.74-3.268-8.74-7.288c0-4.018,3.92-7.288,8.74-7.288s8.741,3.27,8.741,7.288      C171.467,49.837,167.546,53.105,162.726,53.105z M162.726,40.041c-3.986,0-7.229,2.591-7.229,5.776s3.242,5.776,7.229,5.776      s7.229-2.59,7.229-5.776S166.712,40.041,162.726,40.041z" data-original="#585757" class="" style="fill:#113BBF" data-old_color="#585757"/>
			</g>
			<g>
				<g>
					<path fill="#CAD41F" d="M172.646,39.654c-2.942-7.931-11.42-2.075-14.363-10.005c2.082-2.638,3.122-3.958,5.205-6.595       c2.943,7.93,11.421,2.074,14.364,10.004C175.77,35.697,174.729,37.015,172.646,39.654z" data-original="#CAD41F" class="" style="fill:#CAD41F"/>
					<path fill="#585757" d="M172.646,40.41c-0.039,0-0.078-0.003-0.118-0.01c-0.27-0.042-0.496-0.228-0.591-0.483       c-1.32-3.562-3.771-4.006-6.607-4.521c-2.875-0.522-6.134-1.114-7.755-5.484c-0.093-0.246-0.049-0.524,0.115-0.73l5.205-6.595       c0.169-0.216,0.44-0.317,0.711-0.279c0.27,0.043,0.495,0.228,0.591,0.484c1.321,3.561,3.771,4.006,6.608,4.521       c2.876,0.521,6.134,1.113,7.755,5.482c0.093,0.248,0.048,0.524-0.115,0.73l-5.205,6.597       C173.096,40.305,172.875,40.41,172.646,40.41z M159.146,29.776c1.354,3.205,3.725,3.636,6.455,4.132       c2.591,0.471,5.493,0.998,7.229,4.295l4.16-5.272c-1.353-3.205-3.725-3.636-6.454-4.132c-2.591-0.471-5.494-0.997-7.229-4.294       L159.146,29.776z" data-original="#585757" class="" style="fill:#113BBF" data-old_color="#585757"/>
				</g>
			</g>
		</g>
		<g>
			<path fill="#585757" d="M143.792,53.759c-0.529,0-1.062-0.075-1.584-0.224c-2.647-0.759-4.271-3.226-3.62-5.497     c0.296-1.032,1.015-1.882,2.031-2.411l0.782-1.045c-0.278-0.125-0.547-0.236-0.81-0.311c-0.245-0.071-0.444-0.102-0.646-0.102     c-0.428,0-0.862,0.153-1.327,0.469c-0.324,0.22-0.754,0.248-1.104,0.078c-0.363-0.183-0.596-0.54-0.614-0.934l-0.202-4.093     c-0.02-0.384,0.167-0.754,0.485-0.967c1.222-0.831,2.459-1.05,3.81-0.662c0.556,0.16,1.053,0.394,1.534,0.62     c0.447,0.209,0.838,0.393,1.215,0.499c0.246,0.071,0.445,0.102,0.646,0.102c0.428,0,0.862-0.153,1.328-0.469     c0.321-0.219,0.757-0.25,1.106-0.075c0.357,0.18,0.589,0.536,0.61,0.93l0.202,4.095c0.019,0.379-0.165,0.749-0.479,0.964     c-0.41,0.279-0.814,0.484-1.23,0.625l-0.276,0.369c2.014,1.036,3.104,3.106,2.542,5.071     C147.682,52.566,145.914,53.759,143.792,53.759z M139.945,42.657c0.344,0,0.683,0.05,1.062,0.161     c0.501,0.143,0.954,0.354,1.433,0.579l1.297,0.587l-2.13,2.845l-0.171,0.081c-0.709,0.331-1.205,0.88-1.396,1.544     c-0.422,1.472,0.737,3.099,2.584,3.628c0.385,0.109,0.777,0.166,1.167,0.166c1.441,0,2.625-0.753,2.946-1.874     c0.411-1.436-0.711-3.053-2.502-3.603l-1.027-0.316l1.81-2.415l0.251-0.069c0.282-0.077,0.56-0.199,0.845-0.372l-0.157-3.183     c-0.859,0.415-1.669,0.492-2.63,0.217c-0.492-0.14-0.938-0.348-1.408-0.568c-0.463-0.219-0.904-0.425-1.343-0.552     c-0.855-0.245-1.566-0.145-2.356,0.338l0.157,3.184C138.896,42.784,139.422,42.657,139.945,42.657z" data-original="#585757" class="" style="fill:#113BBF" data-old_color="#585757"/>
		</g>
		<g>
			<path fill="#585757" d="M127.915,75.224H88.936c-1.461,0-2.645-1.186-2.645-2.646c0-1.461,1.184-2.645,2.645-2.645h38.979     c1.461,0,2.646,1.184,2.646,2.645C130.561,74.038,129.376,75.224,127.915,75.224z" data-original="#585757" class="" style="fill:#113BBF" data-old_color="#585757"/>
		</g>
		<g>
			<path fill="#F4B845" d="M103.765,75.224h-14.77c-1.462,0-2.646-1.186-2.646-2.646c0-1.461,1.184-2.645,2.646-2.645h14.77     c1.461,0,2.646,1.184,2.646,2.645C106.41,74.038,105.226,75.224,103.765,75.224z" data-original="#F4B845"/>
		</g>
		<g>
			<circle fill="#FFFFFF" cx="103.764" cy="72.752" r="7.659" data-original="#FFFFFF" class=""/>
			<path fill="#585757" d="M103.765,81.167c-4.641,0-8.415-3.774-8.415-8.414c0-4.641,3.774-8.416,8.415-8.416     c4.64,0,8.414,3.774,8.414,8.416C112.179,77.392,108.404,81.167,103.765,81.167z M103.765,65.849     c-3.807,0-6.903,3.097-6.903,6.904c0,3.806,3.097,6.902,6.903,6.902c3.806,0,6.902-3.097,6.902-6.902     C110.667,68.945,107.57,65.849,103.765,65.849z" data-original="#585757" class="" style="fill:#113BBF" data-old_color="#585757"/>
		</g>
		<g>
			<path fill="#585757" d="M168.438,72.798c-0.627,0-1.134-0.508-1.134-1.134v-3.779c0-0.626,0.507-1.134,1.134-1.134     c0.625,0,1.133,0.508,1.133,1.134v3.779C169.571,72.291,169.063,72.798,168.438,72.798z M168.438,64.484     c-0.627,0-1.134-0.508-1.134-1.133v-3.779c0-0.625,0.507-1.133,1.134-1.133c0.625,0,1.133,0.508,1.133,1.133v3.779     C169.571,63.977,169.063,64.484,168.438,64.484z" data-original="#585757" class="" style="fill:#113BBF" data-old_color="#585757"/>
		</g>
		<g>
			<path fill="#585757" d="M178.054,79.628c-0.363,0-0.719-0.174-0.938-0.496c-0.353-0.517-0.219-1.222,0.299-1.575l3.123-2.127     c0.518-0.353,1.222-0.218,1.575,0.298c0.352,0.518,0.219,1.224-0.299,1.576l-3.124,2.127     C178.495,79.565,178.272,79.628,178.054,79.628z M184.924,74.947c-0.362,0-0.718-0.172-0.938-0.494     c-0.353-0.518-0.219-1.224,0.298-1.575l3.124-2.128c0.518-0.354,1.222-0.219,1.575,0.298c0.353,0.518,0.219,1.224-0.299,1.575     l-3.123,2.128C185.366,74.884,185.144,74.947,184.924,74.947z M189.296,68.947c-0.626,0-1.134-0.508-1.134-1.133v-3.779     c0-0.625,0.508-1.133,1.134-1.133c0.627,0,1.134,0.508,1.134,1.133v3.779C190.43,68.439,189.923,68.947,189.296,68.947z      M189.296,60.633c-0.626,0-1.134-0.508-1.134-1.134v-3.779c0-0.626,0.508-1.134,1.134-1.134c0.627,0,1.134,0.508,1.134,1.134     V59.5C190.43,60.125,189.923,60.633,189.296,60.633z M189.296,52.32c-0.626,0-1.134-0.508-1.134-1.134v-3.779     c0-0.626,0.508-1.134,1.134-1.134c0.627,0,1.134,0.508,1.134,1.134v3.779C190.43,51.812,189.923,52.32,189.296,52.32z" data-original="#585757" class="" style="fill:#113BBF" data-old_color="#585757"/>
		</g>
		<g>
			<path fill="#585757" d="M212.434,71.969h-3.684c-0.626,0-1.134-0.508-1.134-1.134s0.508-1.134,1.134-1.134h3.684     c0.626,0,1.133,0.508,1.133,1.134S213.06,71.969,212.434,71.969z M204.215,71.969h-3.778c-0.626,0-1.134-0.508-1.134-1.134     s0.508-1.134,1.134-1.134h3.778c0.626,0,1.134,0.508,1.134,1.134S204.841,71.969,204.215,71.969z M195.901,71.969h-3.778     c-0.626,0-1.134-0.508-1.134-1.134s0.508-1.134,1.134-1.134h3.778c0.626,0,1.134,0.508,1.134,1.134     S196.527,71.969,195.901,71.969z" data-original="#585757" class="" style="fill:#113BBF" data-old_color="#585757"/>
		</g>
		<g>
			<path fill="#585757" d="M227.104,87.432h-3.779c-0.626,0-1.133-0.508-1.133-1.135c0-0.625,0.507-1.133,1.133-1.133h3.779     c0.626,0,1.134,0.508,1.134,1.133C228.238,86.924,227.73,87.432,227.104,87.432z M218.791,87.432h-3.779     c-0.626,0-1.134-0.508-1.134-1.135c0-0.625,0.508-1.133,1.134-1.133h3.779c0.626,0,1.134,0.508,1.134,1.133     C219.925,86.924,219.417,87.432,218.791,87.432z M210.478,87.432h-3.779c-0.627,0-1.134-0.508-1.134-1.135     c0-0.625,0.507-1.133,1.134-1.133h3.779c0.625,0,1.133,0.508,1.133,1.133C211.61,86.924,211.103,87.432,210.478,87.432z      M202.163,87.432h-3.778c-0.627,0-1.134-0.508-1.134-1.135c0-0.625,0.507-1.133,1.134-1.133h3.778     c0.626,0,1.134,0.508,1.134,1.133C203.297,86.924,202.789,87.432,202.163,87.432z M193.85,87.432h-3.778     c-0.627,0-1.134-0.508-1.134-1.135c0-0.625,0.507-1.133,1.134-1.133h3.778c0.626,0,1.134,0.508,1.134,1.133     C194.983,86.924,194.476,87.432,193.85,87.432z M185.536,87.432h-3.779c-0.626,0-1.133-0.508-1.133-1.135     c0-0.625,0.507-1.133,1.133-1.133h3.779c0.626,0,1.134,0.508,1.134,1.133C186.67,86.924,186.162,87.432,185.536,87.432z" data-original="#585757" class="" style="fill:#113BBF" data-old_color="#585757"/>
		</g>
		<g>
			<path fill="#585757" d="M230.953,97.903c-0.627,0-1.134-0.508-1.134-1.134V92.99c0-0.626,0.507-1.134,1.134-1.134     c0.626,0,1.134,0.508,1.134,1.134v3.779C232.087,97.396,231.579,97.903,230.953,97.903z M230.953,89.59     c-0.627,0-1.134-0.508-1.134-1.135v-3.778c0-0.626,0.507-1.134,1.134-1.134c0.626,0,1.134,0.508,1.134,1.134v3.778     C232.087,89.082,231.579,89.59,230.953,89.59z M230.953,81.276c-0.627,0-1.134-0.508-1.134-1.134v-3.779     c0-0.626,0.507-1.134,1.134-1.134c0.626,0,1.134,0.508,1.134,1.134v3.779C232.087,80.768,231.579,81.276,230.953,81.276z" data-original="#585757" class="" style="fill:#113BBF" data-old_color="#585757"/>
		</g>
		<g>
			<path fill="#585757" d="M186.964,100.962c-0.217,0-0.435-0.061-0.628-0.19l-3.144-2.098c-0.521-0.348-0.662-1.052-0.314-1.572     c0.348-0.521,1.051-0.663,1.572-0.314l3.144,2.098c0.521,0.349,0.661,1.053,0.313,1.573     C187.689,100.784,187.33,100.962,186.964,100.962z M180.048,96.347c-0.217,0-0.436-0.061-0.629-0.19l-3.143-2.096     c-0.521-0.348-0.661-1.053-0.314-1.572c0.348-0.521,1.053-0.662,1.572-0.314l3.144,2.096c0.521,0.35,0.662,1.053,0.314,1.572     C180.773,96.17,180.414,96.347,180.048,96.347z" data-original="#585757" class="" style="fill:#113BBF" data-old_color="#585757"/>
		</g>
		<g>
			<path fill="#585757" d="M189.597,123.455c-0.627,0-1.134-0.508-1.134-1.134v-2.142c0-0.626,0.507-1.134,1.134-1.134     c0.626,0,1.133,0.508,1.133,1.134v2.142C190.729,122.947,190.223,123.455,189.597,123.455z M189.597,116.781     c-0.627,0-1.134-0.508-1.134-1.134v-3.777c0-0.626,0.507-1.134,1.134-1.134c0.626,0,1.133,0.508,1.133,1.134v3.777     C190.729,116.273,190.223,116.781,189.597,116.781z M189.751,108.479c-0.049,0-0.099-0.004-0.148-0.011     c-0.621-0.081-1.058-0.649-0.977-1.271c0.191-1.47,0.56-2.8,1.092-3.952c0.263-0.568,0.937-0.818,1.506-0.553     c0.567,0.263,0.814,0.936,0.552,1.504c-0.436,0.945-0.739,2.054-0.901,3.295C190.799,108.062,190.312,108.479,189.751,108.479z      M193.641,101.447c-0.377,0-0.744-0.187-0.96-0.527c-0.335-0.529-0.177-1.229,0.352-1.564c1.489-0.943,2.775-1.085,2.917-1.099     c0.033-0.003,0.069-0.004,0.103-0.004h1.182c0.626,0,1.134,0.508,1.134,1.134s-0.508,1.134-1.134,1.134h-1.11     c-0.17,0.026-0.967,0.174-1.878,0.751C194.058,101.39,193.847,101.447,193.641,101.447z M205.547,100.521h-3.779     c-0.626,0-1.134-0.508-1.134-1.134s0.508-1.134,1.134-1.134h3.779c0.626,0,1.134,0.508,1.134,1.134     S206.173,100.521,205.547,100.521z" data-original="#585757" class="" style="fill:#113BBF" data-old_color="#585757"/>
		</g>
		<g>
			<path fill="#585757" d="M171.061,150.112h-17.818c-0.626,0-1.133-0.508-1.133-1.134v-19.424c0-0.626,0.507-1.134,1.133-1.134     h17.818c0.626,0,1.134,0.508,1.134,1.134v19.424C172.194,149.604,171.687,150.112,171.061,150.112z M154.376,147.846h15.551     v-17.157h-15.551V147.846z" data-original="#585757" class="" style="fill:#113BBF" data-old_color="#585757"/>
		</g>
		<g>
			<path fill="#585757" d="M167.109,135.17h-10.067c-0.626,0-1.134-0.508-1.134-1.134s0.508-1.134,1.134-1.134h10.067     c0.626,0,1.134,0.508,1.134,1.134S167.735,135.17,167.109,135.17z" data-original="#585757" class="" style="fill:#113BBF" data-old_color="#585757"/>
		</g>
		<g>
			<path fill="#585757" d="M167.109,140.169h-10.067c-0.626,0-1.134-0.508-1.134-1.133c0-0.626,0.508-1.134,1.134-1.134h10.067     c0.626,0,1.134,0.508,1.134,1.134C168.243,139.661,167.735,140.169,167.109,140.169z" data-original="#585757" class="" style="fill:#113BBF" data-old_color="#585757"/>
		</g>
		<g>
			<path fill="#585757" d="M167.109,145.168h-10.067c-0.626,0-1.134-0.508-1.134-1.134s0.508-1.134,1.134-1.134h10.067     c0.626,0,1.134,0.508,1.134,1.134S167.735,145.168,167.109,145.168z" data-original="#585757" class="" style="fill:#113BBF" data-old_color="#585757"/>
		</g>
		<g>
			<path fill="#585757" d="M272.646,102.968c-0.317,0-0.634-0.133-0.858-0.392c-0.408-0.474-0.356-1.189,0.116-1.6     c0.056-0.048,5.731-5.087,5.731-12.916c0-9.836-5.543-13.482-5.6-13.519c-0.527-0.336-0.683-1.036-0.347-1.564     c0.337-0.529,1.036-0.684,1.566-0.347c0.271,0.173,6.646,4.365,6.646,15.431c0,8.892-6.248,14.4-6.515,14.631     C273.172,102.878,272.908,102.968,272.646,102.968z" data-original="#585757" class="" style="fill:#113BBF" data-old_color="#585757"/>
		</g>
		<g>
			<path fill="#585757" d="M267.34,98.129c-0.317,0-0.634-0.133-0.857-0.393c-0.41-0.474-0.358-1.189,0.115-1.599     c0.033-0.029,3.634-3.239,3.634-8.197c0-6.178-3.365-8.47-3.509-8.564c-0.52-0.343-0.669-1.044-0.33-1.565     c0.338-0.522,1.03-0.677,1.556-0.342c0.186,0.118,4.551,2.986,4.551,10.472c0,6.02-4.237,9.756-4.418,9.912     C267.867,98.037,267.603,98.129,267.34,98.129z" data-original="#585757" class="" style="fill:#113BBF" data-old_color="#585757"/>
		</g>
		<g>
			<path fill="#585757" d="M261.759,94.561c-0.317,0-0.634-0.133-0.858-0.393c-0.409-0.474-0.357-1.189,0.115-1.598     c0.019-0.016,2.088-1.874,2.088-4.719c0-3.559-1.936-4.89-1.955-4.903c-0.528-0.335-0.683-1.036-0.347-1.565     c0.337-0.528,1.036-0.683,1.565-0.347c0.123,0.078,3.004,1.969,3.004,6.815c0,3.904-2.754,6.332-2.871,6.434     C262.285,94.469,262.021,94.561,261.759,94.561z" data-original="#585757" class="" style="fill:#113BBF" data-old_color="#585757"/>
		</g>
	</g>
</g></g> </svg>
