<?xml version="1.0"?>
<svg xmlns="http://www.w3.org/2000/svg" xmlns:xlink="http://www.w3.org/1999/xlink" version="1.1" id="Capa_1" x="0px" y="0px" width="512px" height="512px" viewBox="0 0 360 170" enable-background="new 0 0 360 170" xml:space="preserve" class=""><g><g>
	<circle fill="#DFDFDF" cx="174.358" cy="85" r="85" data-original="#DFDFDF" class="" style="fill:#2E96BE" data-old_color="#DFDFDF"/>
	<g>
		<g>
			<path fill="#FFFFFF" d="M166.379,73.525c0-14.812-12.008-26.819-26.819-26.819c-14.812,0-26.819,12.008-26.819,26.819     c0,6.274,2.16,12.04,5.769,16.607c3.148,5.265,5.247,7.828,7.021,13.364c0.911,2.849,3.438,5.304,6.485,5.305     c6.035,0.004,9.058,0.004,15.094,0c3.047-0.001,5.573-2.457,6.483-5.305c1.773-5.539,3.871-8.1,7.022-13.367     C164.22,85.562,166.379,79.797,166.379,73.525z" data-original="#FFFFFF" class=""/>
			<path fill="#585757" d="M139.559,109.561l-7.547-0.002c-3.146-0.002-6.106-2.399-7.205-5.83     c-1.343-4.194-2.857-6.617-4.956-9.973c-0.608-0.972-1.262-2.016-1.967-3.193c-3.859-4.902-5.9-10.793-5.9-17.037     c0-15.204,12.371-27.575,27.575-27.575c15.205,0,27.575,12.371,27.575,27.575c0,6.241-2.039,12.13-5.897,17.033     c-0.707,1.183-1.361,2.229-1.972,3.203c-2.098,3.353-3.611,5.772-4.953,9.967c-1.1,3.431-4.062,5.828-7.205,5.83L139.559,109.561     z M139.559,47.462c-14.371,0-26.063,11.692-26.063,26.063c0,5.916,1.938,11.497,5.606,16.139     c0.021,0.025,0.038,0.053,0.056,0.081c0.709,1.187,1.364,2.233,1.976,3.209c2.074,3.317,3.715,5.938,5.114,10.312     c0.736,2.301,2.854,4.778,5.767,4.779l7.546,0.003l7.548-0.003c2.91-0.001,5.028-2.479,5.765-4.779     c1.399-4.373,3.038-6.992,5.112-10.307c0.612-0.979,1.27-2.029,1.979-3.219c0.019-0.028,0.035-0.055,0.057-0.08     c3.665-4.642,5.604-10.222,5.604-16.136C165.623,59.154,153.931,47.462,139.559,47.462z" data-original="#585757" class="" style="fill:#113BBF" data-old_color="#585757"/>
		</g>
		<g>
			<path fill="#CAD41F" d="M135.463,104.214c0,0,3.413-6.078-1.728-9.131c-5.14-3.053-21.646-15.314-10.799-32.293     c0,0,17.557,5.017,15.404,22.323c0,0,5.976-8.179,18.235-4.325c0,0-0.066,5.896-11.194,11.714     c-11.128,5.814-2.222,11.712-2.222,11.712H135.463z" data-original="#CAD41F" class=""/>
			<path fill="#585757" d="M143.177,104.97c-0.006,0-0.01,0-0.016,0h-7.698c-0.268,0-0.516-0.143-0.65-0.372     c-0.137-0.231-0.14-0.519-0.009-0.752c0.123-0.223,2.982-5.479-1.454-8.113c-1.974-1.172-11.936-7.52-14.287-17.426     c-1.247-5.251-0.158-10.607,3.236-15.923c0.181-0.281,0.523-0.41,0.846-0.32c0.175,0.051,16.685,4.962,16.122,20.984     c1.884-1.677,5.515-4.046,10.98-4.046c2.1,0,4.305,0.358,6.558,1.066c0.317,0.1,0.532,0.396,0.528,0.729     c-0.003,0.26-0.203,6.417-11.6,12.375c-3.341,1.745-5.086,3.615-5.187,5.558c-0.129,2.492,2.49,4.473,2.96,4.806     c0.251,0.123,0.426,0.381,0.426,0.68C143.933,104.632,143.594,104.97,143.177,104.97z M136.651,103.458h4.48     c-1.048-1.099-2.198-2.782-2.095-4.808c0.13-2.514,2.146-4.809,5.994-6.819c8.566-4.478,10.336-8.975,10.698-10.508     c-1.89-0.538-3.73-0.811-5.483-0.811c-7.483,0-11.259,4.997-11.296,5.048c-0.205,0.274-0.57,0.379-0.889,0.254     c-0.319-0.127-0.514-0.455-0.472-0.795c1.861-14.969-11.403-20.337-14.324-21.331c-2.927,4.793-3.847,9.591-2.735,14.268     c2.213,9.313,11.709,15.358,13.59,16.478C138.05,96.766,137.667,100.875,136.651,103.458z" data-original="#585757" class="" style="fill:#113BBF" data-old_color="#585757"/>
		</g>
		<g>
			<ellipse fill="#F4B845" cx="139.559" cy="119.736" rx="5.823" ry="4.474" data-original="#F4B845" class=""/>
			<path fill="#585757" d="M139.559,124.967c-3.628,0-6.579-2.347-6.579-5.23c0-2.883,2.951-5.229,6.579-5.229     c3.629,0,6.58,2.346,6.58,5.229C146.139,122.621,143.188,124.967,139.559,124.967z M139.559,116.02     c-2.794,0-5.067,1.668-5.067,3.717c0,2.052,2.273,3.72,5.067,3.72c2.795,0,5.067-1.668,5.067-3.72     C144.627,117.688,142.354,116.02,139.559,116.02z" data-original="#585757" class="" style="fill:#113BBF" data-old_color="#585757"/>
		</g>
		<g>
			<path fill="#CAD41F" d="M125.947,104.214v8.238c0,4.022,3.263,7.284,7.285,7.284h12.652c4.022,0,7.285-3.262,7.285-7.284v-8.238     H125.947z" data-original="#CAD41F" class=""/>
			<path fill="#585757" d="M145.886,120.492h-12.653c-4.434,0-8.041-3.606-8.041-8.04v-8.238c0-0.417,0.339-0.756,0.756-0.756     h27.224c0.417,0,0.757,0.339,0.757,0.756v8.238C153.927,116.886,150.318,120.492,145.886,120.492z M126.703,104.97v7.482     c0,3.6,2.929,6.528,6.529,6.528h12.652c3.602,0,6.529-2.93,6.529-6.528v-7.482H126.703z" data-original="#585757" class="" style="fill:#113BBF" data-old_color="#585757"/>
		</g>
		<g>
			<path fill="#D84253" d="M128.861,112.527c-0.785,0.787-2.204,0.643-3.168-0.321l0,0c-0.963-0.964-1.106-2.382-0.321-3.167     l6.235-6.234c0.785-0.787,2.203-0.643,3.168,0.321l0,0c0.963,0.964,1.105,2.382,0.321,3.167L128.861,112.527z" data-original="#D84253" class=""/>
			<path fill="#585757" d="M127.571,113.791c-0.865,0-1.745-0.383-2.412-1.051c-0.589-0.59-0.956-1.338-1.034-2.108     c-0.083-0.815,0.177-1.592,0.713-2.127l6.235-6.235c0.469-0.47,1.117-0.729,1.824-0.729c0.865,0,1.744,0.383,2.412,1.05     c0.589,0.591,0.955,1.339,1.033,2.109c0.083,0.815-0.177,1.592-0.713,2.128l-6.234,6.234     C128.927,113.532,128.278,113.791,127.571,113.791z M132.897,103.053c-0.214,0-0.521,0.049-0.756,0.285l-6.235,6.235     c-0.216,0.217-0.314,0.538-0.277,0.905c0.043,0.42,0.262,0.854,0.601,1.192c0.387,0.386,0.876,0.606,1.343,0.606     c0.215,0,0.52-0.049,0.756-0.284l6.235-6.236c0.216-0.216,0.313-0.537,0.276-0.905c-0.043-0.418-0.262-0.854-0.6-1.191     C133.854,103.273,133.365,103.053,132.897,103.053z" data-original="#585757" class="" style="fill:#113BBF" data-old_color="#585757"/>
		</g>
		<g>
			<path fill="#D84253" d="M147.216,120.126c-0.784,0.785-2.203,0.642-3.167-0.321l0,0c-0.964-0.965-1.107-2.383-0.321-3.169     l6.233-6.235c0.786-0.784,2.204-0.641,3.168,0.324l0,0c0.964,0.963,1.107,2.381,0.322,3.166L147.216,120.126z" data-original="#D84253" class=""/>
			<path fill="#585757" d="M145.926,121.389c-0.864,0-1.742-0.384-2.41-1.051c-1.258-1.256-1.402-3.156-0.323-4.236l6.234-6.234     c0.471-0.471,1.118-0.729,1.825-0.729c0.864,0,1.744,0.383,2.411,1.051c0.59,0.588,0.957,1.338,1.035,2.107     c0.083,0.817-0.177,1.592-0.713,2.128l-6.235,6.235C147.28,121.129,146.633,121.389,145.926,121.389z M151.252,110.65     c-0.215,0-0.52,0.049-0.756,0.285l-6.234,6.233c-0.481,0.481-0.335,1.442,0.321,2.101c0.387,0.386,0.875,0.606,1.343,0.606     c0.216,0,0.521-0.051,0.757-0.286l6.234-6.234c0.217-0.217,0.314-0.537,0.277-0.906c-0.043-0.419-0.262-0.854-0.601-1.191     C152.209,110.872,151.72,110.65,151.252,110.65z" data-original="#585757" class="" style="fill:#113BBF" data-old_color="#585757"/>
		</g>
		<g>
			<path fill="#D84253" d="M134.23,120.126c-0.785,0.785-2.204,0.642-3.168-0.323l0,0c-0.963-0.964-1.107-2.382-0.322-3.167     l13.853-13.853c0.785-0.785,2.204-0.643,3.169,0.322l0,0c0.964,0.963,1.105,2.383,0.32,3.166L134.23,120.126z" data-original="#D84253" class=""/>
			<path fill="#585757" d="M132.94,121.389c-0.865,0-1.744-0.384-2.412-1.052c-1.257-1.257-1.401-3.155-0.322-4.235l13.854-13.853     c0.469-0.47,1.116-0.728,1.823-0.728c0.865,0,1.745,0.383,2.412,1.049c0.667,0.668,1.051,1.547,1.051,2.412     c0,0.707-0.26,1.355-0.729,1.824l-13.852,13.854C134.295,121.129,133.647,121.389,132.94,121.389z M145.883,103.032     c-0.215,0-0.52,0.05-0.756,0.284l-13.852,13.854c-0.481,0.48-0.334,1.441,0.321,2.1c0.387,0.386,0.876,0.606,1.344,0.606     c0.215,0,0.52-0.05,0.756-0.285l13.852-13.853c0.236-0.235,0.285-0.541,0.285-0.756c0-0.467-0.222-0.957-0.605-1.344     C146.84,103.254,146.351,103.032,145.883,103.032z" data-original="#585757" class="" style="fill:#113BBF" data-old_color="#585757"/>
		</g>
		<g>
			<g>
				<path fill="#585757" d="M88.868,63.021c-0.118,0-0.238-0.019-0.358-0.059c-0.594-0.198-0.913-0.841-0.716-1.435l0.203-0.596      c0.205-0.591,0.851-0.906,1.442-0.699c0.593,0.205,0.904,0.852,0.699,1.443l-0.194,0.57      C89.785,62.721,89.344,63.021,88.868,63.021z M90.736,58.225c-0.154,0-0.312-0.032-0.462-0.099      c-0.572-0.255-0.829-0.926-0.573-1.497c0.522-1.17,1.094-2.336,1.699-3.465c0.295-0.552,0.98-0.762,1.535-0.464      c0.551,0.296,0.759,0.982,0.463,1.534c-0.579,1.082-1.126,2.198-1.626,3.318C91.583,57.974,91.17,58.225,90.736,58.225z       M94.711,50.935c-0.213,0-0.428-0.06-0.619-0.185c-0.523-0.344-0.671-1.045-0.327-1.569c0.701-1.075,1.45-2.135,2.228-3.152      c0.379-0.498,1.091-0.593,1.588-0.213c0.498,0.379,0.595,1.091,0.214,1.589c-0.742,0.973-1.46,1.987-2.132,3.018      C95.443,50.754,95.081,50.935,94.711,50.935z M99.795,44.368c-0.271,0-0.546-0.097-0.763-0.295      c-0.463-0.422-0.496-1.139-0.075-1.602c0.864-0.95,1.773-1.878,2.7-2.758c0.454-0.431,1.172-0.413,1.603,0.041      c0.433,0.454,0.413,1.172-0.041,1.603c-0.888,0.843-1.757,1.731-2.585,2.641C100.41,44.244,100.104,44.368,99.795,44.368z" data-original="#585757" class="" style="fill:#113BBF" data-old_color="#585757"/>
			</g>
			<g>
				<path fill="#585757" d="M106.32,46.013c-0.359,0-0.7-0.17-0.915-0.463l-6.854-9.354c-0.242-0.332-0.286-0.771-0.114-1.145      c0.173-0.374,0.535-0.625,0.944-0.656l12.042-0.895c0.404-0.031,0.801,0.161,1.027,0.502c0.229,0.34,0.253,0.775,0.068,1.141      l-5.188,10.249c-0.179,0.352-0.525,0.585-0.92,0.617C106.382,46.012,106.351,46.013,106.32,46.013z M101.59,36.505l4.554,6.214      l3.447-6.809L101.59,36.505z" data-original="#585757" class="" style="fill:#113BBF" data-old_color="#585757"/>
			</g>
		</g>
		<g>
			<g>
				<path fill="#585757" d="M185.715,53.393c-0.34,0-0.675-0.152-0.897-0.441c-0.748-0.971-1.543-1.927-2.36-2.843      c-0.418-0.467-0.378-1.184,0.089-1.601c0.468-0.417,1.186-0.377,1.602,0.089c0.854,0.957,1.685,1.956,2.467,2.97      c0.383,0.496,0.289,1.207-0.206,1.59C186.2,53.315,185.957,53.393,185.715,53.393z M180.135,47.242      c-0.277,0-0.558-0.103-0.775-0.309c-0.894-0.839-1.829-1.656-2.782-2.43c-0.486-0.396-0.561-1.109-0.166-1.596      c0.395-0.486,1.107-0.561,1.595-0.166c0.996,0.809,1.975,1.663,2.906,2.54c0.457,0.429,0.479,1.146,0.051,1.603      C180.738,47.122,180.437,47.242,180.135,47.242z M173.649,42.057c-0.219,0-0.44-0.062-0.635-0.194      c-1.013-0.685-2.065-1.344-3.135-1.959c-0.542-0.313-0.729-1.007-0.415-1.549c0.312-0.542,1.006-0.728,1.549-0.416      c1.114,0.643,2.215,1.331,3.271,2.046c0.52,0.351,0.654,1.056,0.304,1.574C174.369,41.882,174.012,42.057,173.649,42.057z       M166.426,37.962c-0.159,0-0.323-0.034-0.479-0.106c-0.181-0.086-0.362-0.17-0.545-0.252c-0.571-0.259-0.824-0.93-0.565-1.501      c0.26-0.569,0.931-0.822,1.5-0.564c0.192,0.087,0.385,0.175,0.574,0.264c0.566,0.267,0.812,0.941,0.545,1.508      C167.26,37.721,166.853,37.962,166.426,37.962z" data-original="#585757" class="" style="fill:#113BBF" data-old_color="#585757"/>
			</g>
			<g>
				<path fill="#585757" d="M190.658,63.021c-0.214,0-0.427-0.061-0.612-0.181l-9.663-6.212c-0.332-0.214-0.528-0.583-0.521-0.978      c0.009-0.394,0.221-0.756,0.561-0.955l10.007-5.857c0.354-0.208,0.797-0.205,1.15,0.003c0.354,0.211,0.566,0.597,0.555,1.009      l-0.343,12.069c-0.012,0.409-0.242,0.779-0.604,0.97C191.021,62.977,190.84,63.021,190.658,63.021z M183.163,55.719l6.419,4.129      l0.229-8.02L183.163,55.719z" data-original="#585757" class="" style="fill:#113BBF" data-old_color="#585757"/>
			</g>
		</g>
		<g>
			<g>
				<path fill="#585757" d="M162.914,131.331c-0.626,0-1.133-0.508-1.133-1.134c0-0.627,0.507-1.135,1.133-1.135      c1.052,0,2.232-0.141,3.509-0.414c0.616-0.135,1.218,0.257,1.35,0.867c0.133,0.612-0.258,1.215-0.868,1.348      C165.468,131.174,164.126,131.331,162.914,131.331z M170.998,129.561c-0.453,0-0.881-0.273-1.056-0.722      c-0.229-0.583,0.059-1.239,0.643-1.469c1.112-0.437,2.23-0.946,3.325-1.521c0.556-0.291,1.24-0.074,1.531,0.479      c0.289,0.555,0.075,1.239-0.48,1.528c-1.167,0.611-2.36,1.158-3.55,1.623C171.275,129.534,171.135,129.561,170.998,129.561z       M178.319,125.645c-0.36,0-0.714-0.17-0.936-0.488c-0.354-0.516-0.226-1.223,0.29-1.577c1.007-0.695,1.981-1.446,2.898-2.234      c0.476-0.405,1.191-0.352,1.599,0.123c0.408,0.476,0.354,1.19-0.122,1.599c-0.978,0.838-2.016,1.64-3.087,2.379      C178.766,125.58,178.542,125.645,178.319,125.645z M184.542,120.164c-0.267,0-0.535-0.094-0.751-0.285      c-0.469-0.415-0.513-1.132-0.097-1.6c0.812-0.92,1.565-1.883,2.236-2.864c0.354-0.519,1.06-0.649,1.575-0.297      c0.518,0.354,0.649,1.059,0.298,1.575c-0.725,1.06-1.535,2.099-2.412,3.088C185.167,120.035,184.855,120.164,184.542,120.164z       M189.104,113.252c-0.16,0-0.32-0.033-0.476-0.104c-0.567-0.263-0.816-0.937-0.555-1.504c0.506-1.098,0.93-2.232,1.261-3.375      c0.174-0.603,0.806-0.951,1.403-0.773c0.603,0.174,0.949,0.802,0.774,1.402c-0.362,1.252-0.826,2.496-1.38,3.694      C189.942,113.008,189.532,113.252,189.104,113.252z M191.278,105.275c-0.037,0-0.073-0.002-0.11-0.006      c-0.624-0.062-1.079-0.614-1.019-1.237c0.075-0.771,0.113-1.56,0.113-2.345c0-0.625,0.507-1.133,1.134-1.133      c0.626,0,1.134,0.508,1.134,1.133c0,0.857-0.042,1.72-0.125,2.563C192.349,104.838,191.855,105.275,191.278,105.275z" data-original="#585757" class="" style="fill:#113BBF" data-old_color="#585757"/>
			</g>
			<g>
				<path fill="#585757" d="M162.982,137.1c-0.171,0-0.342-0.039-0.5-0.117l-10.835-5.33c-0.366-0.18-0.608-0.545-0.632-0.952      c-0.022-0.408,0.176-0.798,0.52-1.019l9.667-6.207c0.333-0.213,0.751-0.236,1.105-0.065s0.596,0.514,0.635,0.905l1.168,11.537      c0.042,0.409-0.143,0.811-0.48,1.045C163.437,137.03,163.21,137.1,162.982,137.1z M154.45,130.504l7.199,3.542l-0.776-7.665      L154.45,130.504z" data-original="#585757" class="" style="fill:#113BBF" data-old_color="#585757"/>
			</g>
		</g>
		<g>
			<g>
				<path fill="#585757" d="M136.226,131.918L136.226,131.918c-1.281-0.001-2.542-0.021-3.747-0.059      c-0.626-0.021-1.118-0.543-1.1-1.168c0.021-0.627,0.577-1.131,1.169-1.099c1.184,0.036,2.42,0.056,3.679,0.058      c0.626,0,1.133,0.509,1.133,1.135C137.359,131.41,136.852,131.918,136.226,131.918z M127.988,131.619      c-0.028,0-0.059,0-0.087-0.003c-1.292-0.099-2.573-0.224-3.809-0.37c-0.621-0.074-1.065-0.639-0.989-1.26      c0.072-0.622,0.643-1.071,1.259-0.991c1.201,0.144,2.45,0.265,3.711,0.36c0.624,0.047,1.093,0.592,1.044,1.216      C129.072,131.167,128.575,131.619,127.988,131.619z M119.748,130.582c-0.066,0-0.136-0.006-0.204-0.018      c-1.287-0.234-2.552-0.504-3.762-0.801c-0.607-0.15-0.979-0.766-0.83-1.373c0.15-0.606,0.764-0.979,1.372-0.83      c1.164,0.287,2.385,0.547,3.626,0.772c0.615,0.11,1.024,0.701,0.912,1.317C120.762,130.199,120.285,130.582,119.748,130.582z       M111.703,128.527c-0.121,0-0.245-0.02-0.366-0.062c-1.253-0.428-2.468-0.901-3.609-1.407c-0.572-0.254-0.831-0.924-0.577-1.496      c0.254-0.571,0.925-0.832,1.496-0.576c1.082,0.479,2.232,0.929,3.425,1.336c0.592,0.201,0.908,0.847,0.706,1.438      C112.615,128.232,112.175,128.527,111.703,128.527z M104.166,125.07c-0.2,0-0.402-0.055-0.586-0.165      c-1.137-0.688-2.219-1.438-3.219-2.229c-0.491-0.39-0.574-1.103-0.187-1.593c0.389-0.49,1.103-0.574,1.594-0.187      c0.926,0.732,1.931,1.429,2.985,2.068c0.536,0.324,0.706,1.021,0.383,1.557C104.923,124.876,104.55,125.07,104.166,125.07z       M97.757,119.829c-0.309,0-0.616-0.126-0.841-0.373c-0.87-0.962-1.687-2.005-2.427-3.097c-0.351-0.519-0.215-1.224,0.305-1.574      c0.519-0.352,1.223-0.215,1.573,0.304c0.681,1.005,1.431,1.963,2.23,2.847c0.42,0.465,0.384,1.183-0.081,1.602      C98.3,119.732,98.028,119.829,97.757,119.829z" data-original="#585757" class="" style="fill:#113BBF" data-old_color="#585757"/>
			</g>
			<g>
				<path fill="#585757" d="M90.001,118.968c-0.224,0-0.445-0.065-0.638-0.196c-0.341-0.23-0.528-0.629-0.492-1.039l1.089-12.024      c0.036-0.408,0.29-0.765,0.663-0.933c0.372-0.168,0.808-0.123,1.139,0.119l9.26,6.799c0.316,0.232,0.491,0.615,0.459,1.008      c-0.033,0.393-0.269,0.74-0.619,0.918l-10.349,5.229C90.351,118.927,90.175,118.968,90.001,118.968z M92.037,107.91l-0.724,7.99      l6.876-3.475L92.037,107.91z" data-original="#585757" class="" style="fill:#113BBF" data-old_color="#585757"/>
			</g>
		</g>
		<g>
			<g>
				<path fill="#D84253" d="M94.444,87.96c0-4.7-3.811-6.424-8.51-6.424c-4.7,0-8.51,1.724-8.51,6.424      c0,4.699,3.81,7.981,8.51,7.981C90.634,95.941,94.444,92.659,94.444,87.96z" data-original="#D84253" class=""/>
				<path fill="#585757" d="M85.935,96.698c-5.282,0-9.266-3.757-9.266-8.738c0-4.562,3.377-7.18,9.266-7.18s9.265,2.617,9.265,7.18      C95.199,92.941,91.217,96.698,85.935,96.698z M85.935,82.292c-3.537,0-7.753,0.983-7.753,5.668c0,4.12,3.333,7.228,7.753,7.228      c4.421,0,7.754-3.106,7.754-7.228C93.688,83.275,89.473,82.292,85.935,82.292z" data-original="#585757" class="" style="fill:#113BBF" data-old_color="#585757"/>
			</g>
			<g>
				<path fill="#CAD41F" d="M92.733,73.517c0,0,2.393,9.844-8.089,9.844C84.645,83.36,83.214,73.517,92.733,73.517z" data-original="#CAD41F" class=""/>
				<path fill="#585757" d="M84.645,84.115c-0.376,0-0.693-0.274-0.748-0.646c-0.029-0.198-0.673-4.881,2.043-8.021      c1.543-1.783,3.829-2.688,6.794-2.688c0.35,0,0.652,0.239,0.733,0.578c0.047,0.188,1.099,4.668-1.393,7.836      C90.541,83.126,88.041,84.115,84.645,84.115z M92.104,74.289c-2.194,0.113-3.88,0.832-5.018,2.142      c-1.721,1.985-1.809,4.869-1.749,6.158c2.547-0.119,4.409-0.905,5.543-2.342C92.445,78.265,92.272,75.491,92.104,74.289z" data-original="#585757" class="" style="fill:#113BBF" data-old_color="#585757"/>
			</g>
		</g>
		<g>
			<g>
				<path fill="#585757" d="M79.176,79.624c-0.448,0-0.872-0.269-1.052-0.71c-0.232-0.581,0.047-1.242,0.629-1.476      c0.409-0.165,0.837-0.315,1.277-0.449c0.12-0.443,0.258-0.876,0.412-1.294c0.218-0.589,0.87-0.888,1.457-0.671      c0.586,0.218,0.888,0.87,0.671,1.457c-0.196,0.53-0.362,1.093-0.493,1.671c-0.094,0.414-0.411,0.741-0.821,0.848      c-0.577,0.15-1.136,0.331-1.656,0.542C79.46,79.598,79.316,79.624,79.176,79.624z" data-original="#585757" class="" style="fill:#113BBF" data-old_color="#585757"/>
			</g>
			<g>
				<path fill="#585757" d="M84.729,72.461c-0.316,0-0.63-0.132-0.854-0.389c-0.412-0.472-0.363-1.188,0.108-1.599      c1.309-1.144,2.859-2.002,4.611-2.551c0.598-0.19,1.232,0.145,1.421,0.743c0.188,0.597-0.146,1.233-0.742,1.421      c-1.449,0.453-2.729,1.158-3.8,2.094C85.26,72.368,84.994,72.461,84.729,72.461z" data-original="#585757" class="" style="fill:#113BBF" data-old_color="#585757"/>
			</g>
			<g>
				<path fill="#585757" d="M97.01,71.309c-0.511,0-0.975-0.348-1.101-0.866l-0.235-0.97h-0.997c-0.627,0-1.134-0.508-1.134-1.134      s0.507-1.134,1.134-1.134h1.89c0.522,0,0.979,0.358,1.103,0.866l0.445,1.837c0.146,0.608-0.227,1.221-0.835,1.369      C97.188,71.299,97.098,71.309,97.01,71.309z" data-original="#585757" class="" style="fill:#113BBF" data-old_color="#585757"/>
			</g>
			<g>
				<path fill="#585757" d="M97.617,77.068c-0.03,0-0.061-0.001-0.091-0.004c-0.625-0.05-1.09-0.596-1.039-1.221      c0.03-0.388,0.044-0.771,0.044-1.143c0-0.434-0.02-0.873-0.059-1.309c-0.056-0.623,0.403-1.174,1.027-1.229      c0.62-0.059,1.175,0.404,1.23,1.027c0.045,0.502,0.066,1.01,0.066,1.511c0,0.445-0.018,0.891-0.052,1.324      C98.699,76.618,98.203,77.068,97.617,77.068z" data-original="#585757" class="" style="fill:#113BBF" data-old_color="#585757"/>
			</g>
			<g>
				<path fill="#585757" d="M97.521,83.373c-0.36,0-0.716-0.172-0.937-0.491c-0.312-0.453-0.672-0.882-1.071-1.271      c-0.354-0.347-0.442-0.882-0.221-1.323c0.251-0.496,0.469-1.028,0.645-1.581c0.189-0.596,0.827-0.926,1.425-0.736      c0.597,0.19,0.926,0.828,0.735,1.425c-0.128,0.404-0.274,0.8-0.438,1.183c0.286,0.326,0.553,0.667,0.795,1.021      c0.355,0.516,0.226,1.222-0.292,1.576C97.967,83.309,97.743,83.373,97.521,83.373z" data-original="#585757" class="" style="fill:#113BBF" data-old_color="#585757"/>
			</g>
			<g>
				<path fill="#585757" d="M84.669,102.203c-0.03,0-0.062-0.002-0.094-0.004c-1.323-0.108-2.611-0.379-3.828-0.801      c-0.592-0.205-0.905-0.852-0.7-1.441c0.205-0.592,0.852-0.905,1.442-0.699c1.038,0.359,2.138,0.59,3.271,0.682      c0.624,0.053,1.089,0.6,1.037,1.224C85.749,101.754,85.254,102.203,84.669,102.203z M89.007,101.943      c-0.524,0-0.997-0.368-1.107-0.902c-0.128-0.613,0.266-1.213,0.879-1.342c1.105-0.23,2.164-0.6,3.14-1.096      c0.558-0.285,1.24-0.062,1.524,0.496c0.283,0.56,0.061,1.241-0.497,1.524c-1.154,0.587-2.4,1.022-3.705,1.295      C89.161,101.936,89.084,101.943,89.007,101.943z M77.302,99.386c-0.244,0-0.492-0.079-0.699-0.243      c-1.048-0.822-1.962-1.789-2.72-2.871c-0.357-0.514-0.232-1.221,0.279-1.58c0.513-0.357,1.221-0.233,1.579,0.279      c0.629,0.9,1.391,1.704,2.263,2.391c0.492,0.389,0.576,1.101,0.189,1.593C77.97,99.236,77.637,99.386,77.302,99.386z       M95.914,98.157c-0.279,0-0.561-0.103-0.779-0.312c-0.454-0.43-0.474-1.147-0.044-1.603c0.76-0.802,1.394-1.709,1.884-2.696      c0.277-0.561,0.959-0.789,1.52-0.511c0.562,0.278,0.789,0.96,0.511,1.521c-0.591,1.188-1.353,2.279-2.266,3.245      C96.515,98.038,96.215,98.157,95.914,98.157z M72.992,92.812c-0.503,0-0.963-0.336-1.097-0.847      c-0.306-1.163-0.459-2.382-0.46-3.621l0.003-0.288c0.013-0.617,0.518-1.109,1.134-1.109c0.007,0,0.016,0,0.023,0      c0.626,0.013,1.122,0.531,1.109,1.156l-0.003,0.241c0,1.046,0.13,2.07,0.387,3.048c0.158,0.604-0.204,1.226-0.81,1.385      C73.184,92.802,73.087,92.812,72.992,92.812z M99.214,91.021c-0.043,0-0.087-0.002-0.131-0.008      c-0.622-0.072-1.067-0.635-0.997-1.257c0.055-0.461,0.081-0.937,0.081-1.411c0-0.65-0.054-1.285-0.155-1.89      c-0.107-0.617,0.307-1.204,0.924-1.31c0.615-0.106,1.203,0.307,1.31,0.924c0.126,0.729,0.189,1.496,0.189,2.275      c0,0.562-0.032,1.122-0.096,1.67C100.272,90.595,99.781,91.021,99.214,91.021z M73.45,84.969c-0.15,0-0.304-0.03-0.451-0.094      c-0.574-0.249-0.837-0.917-0.588-1.491c0.544-1.254,1.313-2.377,2.285-3.336c0.445-0.44,1.163-0.437,1.603,0.01      c0.44,0.446,0.437,1.163-0.01,1.604c-0.765,0.755-1.37,1.639-1.798,2.626C74.305,84.714,73.888,84.969,73.45,84.969z" data-original="#585757" class="" style="fill:#113BBF" data-old_color="#585757"/>
			</g>
		</g>
		<g>
			<path fill="#585757" d="M223.737,91.994c-0.124,0-0.25-0.03-0.362-0.094c-0.243-0.131-0.394-0.387-0.394-0.662V71.959     c0-0.273,0.148-0.527,0.389-0.66c0.238-0.134,0.532-0.127,0.765,0.018l15.316,9.474c0.221,0.137,0.356,0.377,0.358,0.637     c0.002,0.26-0.13,0.503-0.35,0.643l-15.315,9.806C224.021,91.955,223.88,91.994,223.737,91.994z M224.493,73.314v16.543     l13.142-8.414L224.493,73.314z" data-original="#585757" class="" style="fill:#113BBF" data-old_color="#585757"/>
		</g>
		<g>
			<path fill="#585757" d="M233.125,85.984c-0.127,0-0.254-0.031-0.367-0.096c-0.243-0.136-0.393-0.394-0.389-0.672l0.106-7.397     c0.005-0.271,0.152-0.521,0.393-0.651c0.239-0.13,0.53-0.123,0.761,0.02l5.822,3.602c0.221,0.137,0.356,0.377,0.358,0.637     c0.002,0.26-0.13,0.503-0.35,0.643l-5.929,3.796C233.408,85.943,233.267,85.984,233.125,85.984z M233.968,79.176l-0.065,4.658     l3.732-2.39L233.968,79.176z" data-original="#585757" class="" style="fill:#113BBF" data-old_color="#585757"/>
		</g>
		<g>
			<rect x="192.152" y="71.959" fill="#F4B845" width="31.585" height="19.279" data-original="#F4B845" class=""/>
			<path fill="#585757" d="M223.737,91.994h-31.585c-0.418,0-0.756-0.338-0.756-0.756V71.959c0-0.418,0.338-0.756,0.756-0.756     h31.585c0.418,0,0.756,0.338,0.756,0.756v19.279C224.493,91.656,224.155,91.994,223.737,91.994z M192.908,90.482h30.073V72.715     h-30.073V90.482z" data-original="#585757" class="" style="fill:#113BBF" data-old_color="#585757"/>
		</g>
		<g>
			<rect x="185.118" y="71.959" fill="#FFFFFF" width="7.034" height="19.279" data-original="#FFFFFF" class=""/>
			<path fill="#585757" d="M192.152,91.994h-7.034c-0.417,0-0.756-0.338-0.756-0.756V71.959c0-0.418,0.339-0.756,0.756-0.756h7.034     c0.417,0,0.756,0.338,0.756,0.756v19.279C192.908,91.656,192.569,91.994,192.152,91.994z M185.874,90.482h5.522V72.715h-5.522     V90.482z" data-original="#585757" class="" style="fill:#113BBF" data-old_color="#585757"/>
		</g>
		<g>
			<rect x="175.95" y="71.959" fill="#D84253" width="9.168" height="19.279" data-original="#D84253" class=""/>
			<path fill="#585757" d="M185.118,91.994h-9.168c-0.418,0-0.756-0.338-0.756-0.756V71.959c0-0.418,0.338-0.756,0.756-0.756h9.168     c0.418,0,0.756,0.338,0.756,0.756v19.279C185.874,91.656,185.536,91.994,185.118,91.994z M176.706,90.482h7.656V72.715h-7.656     V90.482z" data-original="#585757" class="" style="fill:#113BBF" data-old_color="#585757"/>
		</g>
		<g>
			<rect x="192.152" y="71.959" fill="#F4B845" width="31.585" height="4.499" data-original="#F4B845" class=""/>
			<path fill="#585757" d="M223.737,77.214h-31.585c-0.418,0-0.756-0.338-0.756-0.756v-4.499c0-0.418,0.338-0.756,0.756-0.756     h31.585c0.418,0,0.756,0.338,0.756,0.756v4.499C224.493,76.876,224.155,77.214,223.737,77.214z M192.908,75.702h30.073v-2.987     h-30.073V75.702z" data-original="#585757" class="" style="fill:#113BBF" data-old_color="#585757"/>
		</g>
		<g>
			<rect x="192.152" y="86.739" fill="#F4B845" width="31.585" height="4.499" data-original="#F4B845" class=""/>
			<path fill="#585757" d="M223.737,91.994h-31.585c-0.418,0-0.756-0.338-0.756-0.756v-4.499c0-0.419,0.338-0.757,0.756-0.757     h31.585c0.418,0,0.756,0.338,0.756,0.757v4.499C224.493,91.656,224.155,91.994,223.737,91.994z M192.908,90.482h30.073v-2.987     h-30.073V90.482z" data-original="#585757" class="" style="fill:#113BBF" data-old_color="#585757"/>
		</g>
		<g>
			<path fill="#585757" d="M244.216,133.741c-0.917-0.001-1.787-0.011-2.616-0.033c-0.626-0.017-1.119-0.536-1.104-1.162     c0.018-0.614,0.521-1.104,1.133-1.104c0.011,0,0.021,0,0.03,0.002c0.811,0.021,1.663,0.031,2.558,0.031     c0.395,0,0.771-0.01,1.133-0.025c0.644-0.02,1.156,0.453,1.187,1.078c0.028,0.627-0.454,1.156-1.08,1.187     C245.059,133.73,244.646,133.741,244.216,133.741z M237.11,133.428c-0.041,0-0.082-0.002-0.124-0.007     c-1.477-0.16-2.744-0.38-3.876-0.672c-0.605-0.157-0.971-0.774-0.813-1.381c0.156-0.607,0.776-0.972,1.382-0.813     c1.024,0.264,2.188,0.465,3.553,0.612c0.623,0.067,1.073,0.627,1.005,1.249C238.173,132.997,237.682,133.428,237.11,133.428z      M249.81,132.887c-0.453,0-0.882-0.272-1.058-0.722c-0.228-0.583,0.062-1.241,0.646-1.468c1.067-0.418,1.898-1.008,2.544-1.807     c0.393-0.488,1.104-0.563,1.595-0.171c0.486,0.394,0.562,1.106,0.169,1.595c-0.897,1.113-2.038,1.931-3.483,2.494     C250.086,132.861,249.946,132.887,249.81,132.887z M229.312,130.921c-0.245,0-0.49-0.079-0.698-0.241     c-1.134-0.887-1.984-1.996-2.599-3.395c-0.253-0.572,0.007-1.242,0.58-1.494c0.572-0.251,1.241,0.008,1.493,0.581     c0.461,1.046,1.091,1.871,1.923,2.521c0.492,0.387,0.579,1.1,0.193,1.592C229.981,130.771,229.647,130.921,229.312,130.921z      M254.712,126.659c-0.103,0-0.208-0.015-0.312-0.044c-0.602-0.174-0.949-0.801-0.776-1.402c0.131-0.46,0.254-0.928,0.379-1.4     c0.195-0.74,0.396-1.508,0.64-2.273c0.188-0.598,0.825-0.928,1.424-0.738c0.597,0.189,0.927,0.826,0.738,1.424     c-0.228,0.711-0.422,1.45-0.608,2.166c-0.129,0.488-0.256,0.974-0.393,1.448C255.66,126.335,255.205,126.659,254.712,126.659z      M225.987,123.58c-0.568,0-1.058-0.425-1.125-1.003c-0.126-1.084-0.21-2.349-0.257-3.863c-0.021-0.625,0.473-1.147,1.098-1.167     c0.648-0.025,1.149,0.473,1.169,1.098c0.045,1.451,0.124,2.651,0.242,3.672c0.072,0.623-0.373,1.186-0.995,1.258     C226.074,123.578,226.03,123.58,225.987,123.58z M257.718,118.98c-0.243,0-0.487-0.08-0.696-0.24     c-0.492-0.387-0.581-1.098-0.196-1.592c0.854-1.092,1.883-1.981,3.149-2.719c0.541-0.316,1.234-0.133,1.55,0.408     c0.314,0.541,0.132,1.234-0.409,1.551c-1.012,0.59-1.83,1.295-2.502,2.154C258.39,118.83,258.056,118.98,257.718,118.98z      M225.685,115.281c-0.625,0-1.134-0.508-1.135-1.133v-0.662l0.001-2.031c-0.001-0.406,0.016-0.798,0.045-1.174     c0.05-0.624,0.592-1.098,1.219-1.041c0.624,0.048,1.091,0.595,1.042,1.218c-0.025,0.319-0.038,0.651-0.038,0.995v2.033v0.658     c0.001,0.627-0.505,1.136-1.132,1.137C225.687,115.281,225.686,115.281,225.685,115.281z M264.741,114.941     c-0.514,0-0.979-0.351-1.102-0.871c-0.146-0.609,0.231-1.221,0.842-1.364c1.165-0.274,2.467-0.483,3.867-0.616     c0.614-0.062,1.177,0.396,1.235,1.021c0.061,0.623-0.396,1.177-1.021,1.236c-1.299,0.123-2.496,0.312-3.562,0.564     C264.915,114.934,264.827,114.941,264.741,114.941z M272.975,114.169c-0.625,0-1.134-0.508-1.134-1.134     c0-0.625,0.509-1.135,1.134-1.135c1.326,0,2.583-0.004,3.771-0.012c0.001,0,0.004,0,0.007,0c0.623,0,1.13,0.502,1.135,1.127     c0.003,0.627-0.502,1.137-1.128,1.142c-1.19,0.007-2.45,0.011-3.781,0.012H272.975z M281.282,114.1     c-0.615,0-1.12-0.492-1.133-1.109c-0.012-0.627,0.484-1.146,1.11-1.156c1.36-0.027,2.606-0.062,3.748-0.113     c0.623-0.035,1.154,0.459,1.182,1.084c0.026,0.625-0.458,1.154-1.084,1.182c-1.156,0.051-2.42,0.088-3.8,0.115     C281.298,114.1,281.29,114.1,281.282,114.1z M289.574,113.677c-0.573,0-1.065-0.433-1.126-1.016     c-0.066-0.623,0.386-1.181,1.008-1.246c1.458-0.153,2.616-0.349,3.54-0.599c0.606-0.161,1.229,0.197,1.391,0.802     c0.161,0.604-0.195,1.227-0.802,1.389c-1.041,0.28-2.313,0.497-3.892,0.663C289.654,113.674,289.614,113.677,289.574,113.677z      M296.885,110.579c-0.16,0-0.325-0.034-0.481-0.108c-0.565-0.267-0.809-0.941-0.542-1.509c0.358-0.76,0.433-1.819,0.433-3.18     c0-0.626,0.509-1.152,1.134-1.152l0,0c0.627,0,1.134,0.487,1.134,1.113c0,1.702-0.11,3.045-0.647,4.187     C297.72,110.34,297.312,110.579,296.885,110.579z M227.036,107.245c-0.207,0-0.416-0.056-0.604-0.175     c-0.53-0.334-0.688-1.034-0.354-1.562c0.741-1.176,1.766-2.168,3.046-2.949c0.535-0.328,1.231-0.156,1.559,0.377     c0.325,0.535,0.156,1.232-0.377,1.56c-0.992,0.604-1.748,1.333-2.31,2.222C227.78,107.059,227.412,107.245,227.036,107.245z      M233.928,103.048c-0.518,0-0.984-0.354-1.104-0.88c-0.141-0.609,0.24-1.219,0.852-1.357c1.133-0.261,2.398-0.461,3.873-0.612     c0.618-0.058,1.181,0.389,1.244,1.012c0.064,0.623-0.389,1.181-1.012,1.244c-1.381,0.144-2.559,0.328-3.599,0.565     C234.097,103.039,234.012,103.048,233.928,103.048z M297.357,102.345c-0.6,0-1.1-0.469-1.13-1.073     c-0.071-1.342-0.293-2.445-0.658-3.285c-0.25-0.573,0.013-1.241,0.587-1.491s1.241,0.013,1.491,0.586     c0.48,1.104,0.757,2.437,0.844,4.071c0.033,0.625-0.447,1.158-1.073,1.19C297.398,102.344,297.379,102.345,297.357,102.345z      M242.2,102.143c-0.599,0-1.1-0.471-1.131-1.074c-0.033-0.625,0.447-1.159,1.073-1.191l0.271-0.014     c1.227-0.064,2.383-0.124,3.471-0.219c0.637-0.056,1.175,0.407,1.229,1.03c0.055,0.623-0.407,1.173-1.031,1.228     c-1.128,0.099-2.304,0.16-3.549,0.225l-0.271,0.016C242.24,102.141,242.22,102.143,242.2,102.143z M250.435,101.084     c-0.461,0-0.896-0.283-1.063-0.741c-0.217-0.587,0.084-1.239,0.671-1.456c1.433-0.527,1.75-1.216,1.866-1.687     c0.149-0.608,0.761-0.979,1.371-0.831c0.607,0.15,0.979,0.764,0.831,1.371c-0.369,1.505-1.476,2.605-3.283,3.273     C250.698,101.062,250.565,101.084,250.435,101.084z M293.348,95.746c-0.117,0-0.235-0.02-0.354-0.057     c-0.853-0.279-1.936-0.433-3.41-0.479c-0.626-0.021-1.118-0.543-1.098-1.169c0.02-0.625,0.553-1.129,1.17-1.098     c1.695,0.055,2.979,0.242,4.043,0.59c0.595,0.195,0.919,0.835,0.725,1.431C294.269,95.441,293.824,95.746,293.348,95.746z      M283.249,95.257c-0.725,0-1.406-0.024-2.026-0.073c-0.625-0.051-1.092-0.597-1.04-1.222c0.049-0.623,0.597-1.085,1.219-1.04     c1.088,0.086,2.442,0.069,3.668,0.051c0.006,0,0.013,0,0.019,0c0.617,0,1.123,0.495,1.135,1.114     c0.01,0.627-0.49,1.142-1.116,1.152C284.501,95.249,283.882,95.256,283.249,95.257z M252.99,94.1     c-0.57,0-1.062-0.431-1.125-1.011c-0.138-1.246-0.386-2.403-0.738-3.44c-0.201-0.592,0.116-1.236,0.71-1.438     c0.596-0.203,1.236,0.116,1.438,0.708c0.404,1.192,0.688,2.513,0.845,3.922c0.067,0.622-0.381,1.183-1.003,1.251     C253.074,94.098,253.032,94.1,252.99,94.1z M276.972,94.031c-0.197,0-0.397-0.053-0.579-0.16     c-1.348-0.801-2.242-1.965-2.74-3.557c-0.188-0.598,0.146-1.233,0.743-1.42c0.595-0.188,1.232,0.146,1.421,0.742     c0.332,1.063,0.868,1.77,1.736,2.287c0.537,0.32,0.714,1.016,0.394,1.555C277.734,93.835,277.357,94.031,276.972,94.031z      M274.239,86.621c-0.623,0-1.13-0.504-1.134-1.128l-0.001-0.38c0-1.265,0.467-2.543,1.388-3.8     c0.371-0.505,1.081-0.612,1.586-0.244c0.505,0.371,0.614,1.08,0.243,1.585c-0.63,0.859-0.949,1.687-0.949,2.459l0.001,0.367     c0.004,0.625-0.501,1.137-1.127,1.141C274.244,86.621,274.241,86.621,274.239,86.621z M250.016,86.482     c-0.32,0-0.639-0.135-0.862-0.397c-0.726-0.851-1.601-1.563-2.599-2.12c-0.548-0.305-0.743-0.995-0.439-1.542     c0.305-0.547,0.996-0.744,1.543-0.438c1.235,0.688,2.318,1.572,3.22,2.629c0.406,0.476,0.351,1.19-0.126,1.598     C250.538,86.395,250.276,86.482,250.016,86.482z M242.826,82.677c-0.058,0-0.116-0.004-0.176-0.013     c-0.727-0.114-1.467-0.172-2.203-0.172c-0.758,0-1.236,0.063-1.24,0.063c-0.621,0.079-1.19-0.351-1.274-0.97     s0.348-1.19,0.967-1.276c0.024-0.003,0.621-0.084,1.549-0.084c0.853,0,1.712,0.066,2.554,0.197     c0.618,0.097,1.041,0.677,0.944,1.296C243.858,82.278,243.376,82.677,242.826,82.677z M278.711,80.032     c-0.354,0-0.703-0.166-0.925-0.477c-0.362-0.509-0.244-1.217,0.266-1.581c0.969-0.689,2.09-1.383,3.335-2.061     c0.55-0.3,1.237-0.095,1.537,0.453c0.3,0.55,0.098,1.238-0.453,1.538c-1.165,0.635-2.21,1.279-3.103,1.916     C279.168,79.963,278.938,80.032,278.711,80.032z M286.02,76.07c-0.439,0-0.857-0.257-1.042-0.688     c-0.247-0.575,0.02-1.241,0.595-1.488c0.819-0.351,1.455-0.602,1.795-0.736c0.582-0.23,1.247,0.054,1.478,0.637     c0.229,0.583-0.052,1.239-0.634,1.469c-0.34,0.134-0.954,0.375-1.744,0.715C286.32,76.04,286.169,76.07,286.02,76.07z" data-original="#585757" class="" style="fill:#113BBF" data-old_color="#585757"/>
		</g>
		<g>
			<g>
				<path fill="#585757" d="M295.492,82.657c-2.68,0-4.157-3.83-4.518-11.709c-0.013-0.265,0.068-0.525,0.229-0.736      c0.13-0.17,3.231-4.171,9.338-4.171c1.055,0,2.149,0.123,3.252,0.364c4.989,1.094,5.67,3.254,5.631,4.444      c-0.066,2.048-2.316,3.868-5.351,4.329c-4.241,0.643-4.95,2.155-5.086,3.694C298.852,80.416,297.423,82.657,295.492,82.657z       M293.263,71.294c0.454,8.699,2.212,9.096,2.229,9.096c0.395,0,1.174-0.992,1.237-1.716c0.286-3.232,2.511-5.056,7.005-5.737      c2.088-0.317,3.4-1.472,3.424-2.161c0.021-0.648-1.16-1.565-3.85-2.155c-0.943-0.207-1.875-0.312-2.768-0.312      C296.44,68.309,294.012,70.495,293.263,71.294z" data-original="#585757" class="" style="fill:#113BBF" data-old_color="#585757"/>
			</g>
			<g>
				<path fill="#585757" d="M288.342,72.187L288.342,72.187c-1.979,0-8.003,0-8.343-3.304c-0.194-1.901,1.856-3.567,3.354-3.879      c1.513-0.314,2.933-1.195,3.077-5.482c0.108-3.28,1.909-5.851,4.098-5.851c1.314,0,3.188,0.886,4.646,5.106      c2.751,7.962-2.104,12.747-2.312,12.947c-0.191,0.183-0.44,0.293-0.704,0.312C290.772,72.136,289.488,72.187,288.342,72.187z       M290.527,55.938c-0.696,0-1.757,1.425-1.832,3.659c-0.153,4.543-1.704,6.966-4.881,7.627c-0.723,0.149-1.602,1.025-1.561,1.427      c0.027,0.268,1.142,1.268,6.086,1.268h0.001c0.971,0,2.048-0.038,3.209-0.113c0.86-1.013,3.427-4.657,1.48-10.287      C292.119,56.876,291.112,55.938,290.527,55.938z" data-original="#585757" class="" style="fill:#113BBF" data-old_color="#585757"/>
			</g>
		</g>
		<g>
			<g>
				<path fill="#585757" d="M274.849,58.803c-1.46,0-3.373-0.258-5.686-0.768c-0.259-0.057-0.49-0.203-0.651-0.412      c-0.138-0.177-3.329-4.4-0.337-10.176c1.191-2.298,2.521-3.463,3.947-3.463c0.723,0,1.407,0.322,1.932,0.909      c0.847,0.946,1.257,2.563,1.07,4.22c-0.354,3.159,0.591,3.779,1.505,4.112c1.133,0.414,2.549,1.92,2.279,3.433      C278.736,57.636,277.891,58.803,274.849,58.803z M270.098,55.917c1.948,0.41,3.545,0.618,4.751,0.618      c1.258,0,1.702-0.229,1.82-0.311c-0.057-0.252-0.484-0.747-0.817-0.868c-3.194-1.166-3.23-4.266-2.979-6.496      c0.13-1.152-0.173-2.081-0.508-2.455c-0.062-0.07-0.155-0.154-0.241-0.154c-0.267,0-1.016,0.468-1.935,2.239      C268.276,52.181,269.56,55.003,270.098,55.917z" data-original="#585757" class="" style="fill:#113BBF" data-old_color="#585757"/>
			</g>
			<g>
				<path fill="#585757" d="M265.877,65.625L265.877,65.625c-0.628-0.001-1.217-0.274-1.706-0.792      c-0.654-0.695-1.076-1.813-1.024-2.719c0.056-0.972-0.14-2.086-3.18-3.014c-2.333-0.711-3.891-2.436-3.7-4.101      c0.109-0.976,0.896-2.656,4.929-2.939c6.519-0.461,9.104,4.157,9.208,4.345c0.127,0.232,0.17,0.502,0.119,0.762      C269.405,62.937,267.93,65.625,265.877,65.625z M262.072,54.297c-0.233,0-0.473,0.008-0.719,0.025      c-2.285,0.161-2.818,0.777-2.836,0.934c-0.038,0.339,0.672,1.237,2.11,1.676c2.146,0.655,4.977,1.918,4.781,5.312      c-0.021,0.354,0.264,0.946,0.474,1.097c0.22-0.133,1.281-1.021,2.323-6.157C267.617,56.373,265.748,54.297,262.072,54.297z" data-original="#585757" class="" style="fill:#113BBF" data-old_color="#585757"/>
			</g>
		</g>
		<g>
			<g>
				<path fill="#585757" d="M324.371,73.917c-0.802,0-1.684-0.281-2.482-0.791c-0.942-0.604-1.731-0.909-2.342-0.909      c-0.466,0-0.854,0.174-1.259,0.562c-0.464,0.443-1.24,0.74-1.936,0.74c-0.729,0-1.307-0.329-1.584-0.905      c-0.604-1.255,0.321-3.354,2.912-6.602c0.11-0.139,0.267-0.232,0.438-0.269c0.139-0.028,4.177-0.818,7.177,3.243      c1.188,1.606,1.542,2.909,1.057,3.87C326.013,73.531,325.291,73.917,324.371,73.917z M319.547,70.706      c0.915,0,1.947,0.375,3.154,1.146c0.544,0.348,1.168,0.554,1.67,0.554c0.121,0,0.525-0.016,0.633-0.229      c0.145-0.286-0.012-1.057-0.924-2.292c-1.74-2.357-3.875-2.709-4.992-2.709c-0.164,0-0.304,0.008-0.413,0.018      c-2.964,3.775-2.562,4.726-2.544,4.765c0.014,0.025,0.099,0.051,0.223,0.051c0.332,0,0.728-0.166,0.889-0.32      C317.93,71.026,318.685,70.706,319.547,70.706z" data-original="#585757" class="" style="fill:#113BBF" data-old_color="#585757"/>
			</g>
			<g>
				<path fill="#585757" d="M318.256,67.231c-0.164,0-0.325-0.054-0.456-0.152c-3.468-2.623-4.868-4.487-4.404-5.865      c0.245-0.729,0.976-1.164,1.957-1.164c0.501,0,0.997,0.118,1.359,0.323c0.341,0.192,0.652,0.285,0.954,0.285      c0.695,0,1.497-0.494,2.449-1.512c0.852-0.91,1.97-1.475,2.917-1.475c0.688,0,1.262,0.287,1.615,0.811      c0.56,0.831,0.489,2.12-0.207,3.831c-1.898,4.668-5.978,4.909-6.149,4.917C318.279,67.231,318.267,67.231,318.256,67.231z       M315.352,61.562c-0.354,0-0.518,0.109-0.523,0.133c-0.005,0.01-0.21,1.035,3.645,3.996c0.806-0.127,3.277-0.771,4.568-3.946      c0.709-1.745,0.418-2.319,0.352-2.418c-0.025-0.039-0.096-0.144-0.359-0.144c-0.438,0-1.169,0.309-1.812,0.997      c-1.9,2.028-3.52,2.486-5.251,1.51C315.855,61.625,315.622,61.562,315.352,61.562z" data-original="#585757" class="" style="fill:#113BBF" data-old_color="#585757"/>
			</g>
		</g>
		<g>
			<g>
				<path fill="#585757" d="M302.306,45.948c-0.437,0-4.31-0.126-6.437-4.495c-0.827-1.696-0.972-2.995-0.432-3.861      c0.352-0.561,0.954-0.87,1.695-0.87c0.918,0,1.979,0.479,2.84,1.282c0.97,0.907,1.77,1.348,2.44,1.348      c0.341,0,0.67-0.112,1.036-0.352c0.4-0.264,0.979-0.421,1.54-0.421c0.901,0,1.591,0.406,1.845,1.086      c0.502,1.346-0.773,3.282-4.021,6.099c-0.133,0.115-0.303,0.182-0.48,0.185C302.331,45.948,302.311,45.948,302.306,45.948z       M297.135,38.233c-0.313,0-0.39,0.12-0.413,0.16c-0.062,0.1-0.328,0.681,0.507,2.398c1.492,3.062,4.017,3.552,4.826,3.631      c3.617-3.189,3.369-4.22,3.366-4.229c-0.009-0.021-0.141-0.103-0.43-0.103c-0.294,0-0.58,0.087-0.71,0.173      c-0.616,0.403-1.226,0.6-1.866,0.6l0,0c-1.073,0-2.21-0.574-3.474-1.755C298.373,38.577,297.663,38.233,297.135,38.233z" data-original="#585757" class="" style="fill:#113BBF" data-old_color="#585757"/>
			</g>
			<g>
				<path fill="#585757" d="M296.535,53.036c-0.843,0-1.521-0.358-1.865-0.983c-0.507-0.927-0.229-2.232,0.826-3.882      c2.78-4.344,6.942-3.714,6.941-3.715c0.173,0.024,0.338,0.109,0.456,0.238c2.839,3.106,3.896,5.153,3.328,6.44      c-0.271,0.614-0.881,0.967-1.672,0.967l0,0c-0.651,0-1.361-0.242-1.808-0.616c-0.392-0.327-0.765-0.48-1.176-0.48      c-0.629,0-1.436,0.359-2.396,1.067C298.343,52.685,297.382,53.036,296.535,53.036z M301.896,45.938      c-0.955,0-3.365,0.297-5.127,3.049c-0.816,1.276-0.928,2.059-0.772,2.34c0.095,0.173,0.378,0.198,0.539,0.198      c0.521,0,1.173-0.25,1.741-0.668c2.232-1.646,3.926-1.795,5.437-0.529c0.151,0.126,0.516,0.263,0.838,0.263l0,0      c0.183,0,0.277-0.043,0.288-0.065c0.006-0.01,0.378-0.988-2.856-4.586C301.954,45.938,301.925,45.938,301.896,45.938z" data-original="#585757" class="" style="fill:#113BBF" data-old_color="#585757"/>
			</g>
		</g>
		<g>
			<g>
				<path fill="#585757" d="M317.237,47.651c-1.186,0-2.028-1.481-2.654-4.661c-0.035-0.174-0.008-0.354,0.076-0.508      c0.058-0.105,1.496-2.665,5.087-2.433c2.276,0.152,2.729,1.132,2.795,1.701c0.112,0.965-0.765,1.962-2.088,2.37      c-1.662,0.514-1.625,1.12-1.604,1.481c0.032,0.534-0.203,1.168-0.589,1.576C317.97,47.488,317.616,47.651,317.237,47.651z       M316.127,43.001c0.45,2.151,0.902,2.854,1.091,3.067c0.068-0.111,0.13-0.282,0.124-0.374c-0.09-1.448,0.782-2.436,2.666-3.017      c0.696-0.216,1.024-0.632,1.031-0.755c0.002-0.002-0.221-0.286-1.393-0.364C317.562,41.406,316.488,42.523,316.127,43.001z" data-original="#585757" class="" style="fill:#113BBF" data-old_color="#585757"/>
			</g>
			<g>
				<path fill="#585757" d="M312.362,44.015L312.362,44.015c-1.723,0-2.206-0.691-2.311-1.27c-0.164-0.923,0.673-1.774,1.313-2.012      c0.362-0.134,0.909-0.336,0.709-2.063c-0.109-0.947,0.116-1.841,0.604-2.391c0.312-0.348,0.72-0.54,1.149-0.54      c0.826,0,1.585,0.651,2.257,1.937c1.664,3.186-0.101,5.536-0.177,5.635c-0.108,0.14-0.262,0.237-0.433,0.275      C314.211,43.87,313.163,44.015,312.362,44.015z M311.597,42.415c0.12,0.04,0.353,0.088,0.766,0.088l0,0      c0.628,0,1.462-0.109,2.483-0.326c0.287-0.519,0.87-1.946-0.1-3.802c-0.547-1.045-0.916-1.124-0.919-1.124      c-0.085,0.051-0.336,0.517-0.252,1.245c0.228,1.956-0.325,3.152-1.686,3.655C311.804,42.184,311.672,42.309,311.597,42.415z" data-original="#585757" class="" style="fill:#113BBF" data-old_color="#585757"/>
			</g>
		</g>
		<g>
			<g>
				<path fill="#585757" d="M212.898,97.13h-1.891c-0.627,0-1.134-0.508-1.134-1.133c0-0.626,0.507-1.136,1.134-1.136h1.891      c0.625,0,1.133,0.51,1.133,1.136C214.031,96.622,213.523,97.13,212.898,97.13z" data-original="#585757" class="" style="fill:#113BBF" data-old_color="#585757"/>
			</g>
			<g>
				<path fill="#585757" d="M206.403,97.13h-3.838c-0.627,0-1.134-0.508-1.134-1.133c0-0.626,0.507-1.136,1.134-1.136h3.838      c0.626,0,1.134,0.51,1.134,1.136C207.537,96.622,207.029,97.13,206.403,97.13z M197.959,97.13h-3.838      c-0.627,0-1.134-0.508-1.134-1.133c0-0.626,0.507-1.136,1.134-1.136h3.838c0.626,0,1.134,0.51,1.134,1.136      C199.093,96.622,198.585,97.13,197.959,97.13z M189.515,97.13h-3.839c-0.626,0-1.134-0.508-1.134-1.133      c0-0.626,0.508-1.136,1.134-1.136h3.839c0.626,0,1.134,0.51,1.134,1.136C190.648,96.622,190.141,97.13,189.515,97.13z       M181.071,97.13h-3.838c-0.626,0-1.134-0.508-1.134-1.133c0-0.626,0.508-1.136,1.134-1.136h3.838      c0.626,0,1.134,0.51,1.134,1.136C182.205,96.622,181.697,97.13,181.071,97.13z" data-original="#585757" class="" style="fill:#113BBF" data-old_color="#585757"/>
			</g>
			<g>
				<path fill="#585757" d="M172.628,97.13h-1.89c-0.627,0-1.134-0.508-1.134-1.133v-1.892c0-0.625,0.507-1.133,1.134-1.133      c0.626,0,1.134,0.508,1.134,1.133v0.756h0.756c0.625,0,1.134,0.51,1.134,1.136C173.761,96.622,173.253,97.13,172.628,97.13z" data-original="#585757" class="" style="fill:#113BBF" data-old_color="#585757"/>
			</g>
			<g>
				<path fill="#585757" d="M170.738,91.371c-0.627,0-1.134-0.508-1.134-1.135v-3.225c0-0.626,0.507-1.134,1.134-1.134      c0.626,0,1.134,0.508,1.134,1.134v3.225C171.872,90.863,171.364,91.371,170.738,91.371z M170.738,84.276      c-0.627,0-1.134-0.508-1.134-1.134v-3.225c0-0.626,0.507-1.134,1.134-1.134c0.626,0,1.134,0.508,1.134,1.134v3.225      C171.872,83.769,171.364,84.276,170.738,84.276z M170.738,77.182c-0.627,0-1.134-0.508-1.134-1.134v-3.225      c0-0.626,0.507-1.134,1.134-1.134c0.626,0,1.134,0.508,1.134,1.134v3.225C171.872,76.674,171.364,77.182,170.738,77.182z" data-original="#585757" class="" style="fill:#113BBF" data-old_color="#585757"/>
			</g>
			<g>
				<path fill="#585757" d="M170.738,70.087c-0.627,0-1.134-0.508-1.134-1.134v-1.889c0-0.626,0.507-1.134,1.134-1.134h1.89      c0.625,0,1.134,0.508,1.134,1.134s-0.509,1.133-1.134,1.133h-0.756v0.756C171.872,69.579,171.364,70.087,170.738,70.087z" data-original="#585757" class="" style="fill:#113BBF" data-old_color="#585757"/>
			</g>
			<g>
				<path fill="#585757" d="M206.402,68.197h-3.838c-0.627,0-1.134-0.507-1.134-1.133s0.507-1.134,1.134-1.134h3.838      c0.627,0,1.134,0.508,1.134,1.134S207.029,68.197,206.402,68.197z M197.958,68.197h-3.838c-0.626,0-1.134-0.507-1.134-1.133      s0.508-1.134,1.134-1.134h3.838c0.627,0,1.134,0.508,1.134,1.134S198.585,68.197,197.958,68.197z M189.515,68.197h-3.839      c-0.626,0-1.134-0.507-1.134-1.133s0.508-1.134,1.134-1.134h3.839c0.626,0,1.134,0.508,1.134,1.134      S190.141,68.197,189.515,68.197z M181.071,68.197h-3.838c-0.627,0-1.134-0.507-1.134-1.133s0.507-1.134,1.134-1.134h3.838      c0.626,0,1.134,0.508,1.134,1.134S181.697,68.197,181.071,68.197z" data-original="#585757" class="" style="fill:#113BBF" data-old_color="#585757"/>
			</g>
			<g>
				<path fill="#585757" d="M212.898,68.197h-1.891c-0.627,0-1.134-0.507-1.134-1.133s0.507-1.134,1.134-1.134h1.891      c0.625,0,1.133,0.508,1.133,1.134S213.523,68.197,212.898,68.197z" data-original="#585757" class="" style="fill:#113BBF" data-old_color="#585757"/>
			</g>
		</g>
		<g>
			<g>
				<path fill="#FFFFFF" d="M157.565,30.85c0,0-6.745-10.043-15.065-10.043c-8.319,0-15.063,10.043-15.063,10.043      s6.744,10.044,15.063,10.044C150.82,40.894,157.565,30.85,157.565,30.85z" data-original="#FFFFFF" class=""/>
				<path fill="#585757" d="M142.5,41.649c-8.624,0-15.407-9.954-15.69-10.378c-0.172-0.255-0.172-0.588,0-0.843      c0.283-0.424,7.067-10.378,15.69-10.378c8.624,0,15.408,9.953,15.692,10.377c0.171,0.255,0.171,0.588,0,0.843      C157.908,31.694,151.124,41.649,142.5,41.649z M128.363,30.85c1.374,1.867,7.27,9.288,14.137,9.288      c6.866,0,12.764-7.421,14.138-9.288c-1.374-1.867-7.271-9.287-14.138-9.287C135.624,21.562,129.735,28.982,128.363,30.85z" data-original="#585757" class="" style="fill:#113BBF" data-old_color="#585757"/>
			</g>
			<g>
				<path fill="#F4B845" d="M146.373,30.182c-1.332,0-2.411-1.079-2.411-2.411c0-0.553,0.194-1.055,0.509-1.462      c-0.604-0.263-1.271-0.409-1.97-0.409c-2.734,0-4.952,2.217-4.952,4.95c0,2.734,2.218,4.951,4.951,4.951      c2.734,0,4.952-2.217,4.952-4.951c-0.002-0.303-0.032-0.6-0.086-0.888C147.063,30.101,146.729,30.182,146.373,30.182z" data-original="#F4B845" class=""/>
				<path fill="#585757" d="M142.5,36.557c-3.146,0-5.707-2.561-5.707-5.707s2.562-5.706,5.708-5.706      c0.785,0,1.549,0.158,2.271,0.472c0.213,0.094,0.372,0.279,0.43,0.505c0.06,0.227,0.01,0.466-0.133,0.649      c-0.229,0.297-0.352,0.644-0.352,1.001c0,0.912,0.743,1.656,1.655,1.656c0.23,0,0.459-0.052,0.682-0.152      c0.212-0.096,0.457-0.09,0.662,0.019c0.207,0.107,0.354,0.305,0.395,0.534c0.062,0.349,0.096,0.693,0.098,1.021      C148.208,33.996,145.646,36.557,142.5,36.557z M142.501,26.655c-2.312,0-4.195,1.882-4.195,4.194      c0,2.313,1.882,4.195,4.194,4.195c2.29,0,4.157-1.844,4.194-4.124c-0.105,0.011-0.214,0.017-0.321,0.017      c-1.746,0-3.166-1.421-3.166-3.167c0-0.352,0.06-0.695,0.173-1.022C143.093,26.686,142.799,26.655,142.501,26.655z" data-original="#585757" class="" style="fill:#113BBF" data-old_color="#585757"/>
			</g>
		</g>
		<g>
			<g>
				<path fill="#FFFFFF" d="M175.741,18.489c0,0-4.935-7.347-11.021-7.347c-6.089,0-11.022,7.348-11.022,7.348      s4.935,7.349,11.022,7.349C170.806,25.839,175.741,18.489,175.741,18.489z" data-original="#FFFFFF" class=""/>
				<path fill="#585757" d="M164.72,26.595c-6.417,0-11.438-7.369-11.649-7.683c-0.172-0.255-0.172-0.589,0-0.843      c0.211-0.314,5.232-7.683,11.649-7.683c6.416,0,11.438,7.368,11.648,7.682c0.171,0.255,0.171,0.588,0,0.843      C176.158,19.225,171.135,26.595,164.72,26.595z M154.629,18.489c1.136,1.516,5.296,6.594,10.092,6.594      c4.795,0,8.953-5.077,10.09-6.594c-1.137-1.515-5.295-6.592-10.09-6.592C159.915,11.897,155.761,16.975,154.629,18.489z" data-original="#585757" class="" style="fill:#113BBF" data-old_color="#585757"/>
			</g>
			<g>
				<path fill="#CAD41F" d="M167.553,18.002c-0.975,0-1.765-0.79-1.765-1.765c0-0.404,0.143-0.772,0.371-1.069      c-0.441-0.192-0.929-0.3-1.439-0.3c-2.002,0-3.622,1.622-3.622,3.622s1.622,3.622,3.622,3.622s3.621-1.622,3.621-3.622      c0-0.222-0.022-0.439-0.062-0.649C168.059,17.942,167.813,18.002,167.553,18.002z" data-original="#CAD41F" class=""/>
				<path fill="#585757" d="M164.72,22.868c-2.414,0-4.379-1.964-4.379-4.378c0-1.169,0.454-2.269,1.282-3.096      c1.252-1.253,3.208-1.629,4.838-0.92c0.214,0.092,0.372,0.279,0.432,0.505c0.058,0.226,0.009,0.466-0.135,0.65      c-0.098,0.126-0.214,0.334-0.214,0.607c-0.001,0.695,0.743,1.226,1.423,0.916c0.213-0.096,0.456-0.09,0.662,0.018      c0.207,0.108,0.353,0.306,0.396,0.534c0.048,0.267,0.073,0.53,0.073,0.784C169.098,20.904,167.134,22.868,164.72,22.868z       M164.72,15.624c-0.767,0-1.485,0.298-2.026,0.84c-0.542,0.541-0.84,1.261-0.84,2.026c0,1.581,1.285,2.867,2.866,2.867      c1.489,0,2.719-1.144,2.854-2.6c-0.007,0-0.015,0-0.021,0c-1.391,0-2.521-1.131-2.521-2.521c0-0.2,0.024-0.396,0.07-0.588      C164.978,15.633,164.849,15.624,164.72,15.624z" data-original="#585757" class="" style="fill:#113BBF" data-old_color="#585757"/>
			</g>
		</g>
		<g>
			<g>
				<path fill="#FFFFFF" d="M131.922,41.664c0,0-3.864-5.754-8.633-5.754c-4.767,0-8.631,5.755-8.631,5.755s3.864,5.755,8.631,5.755      C128.057,47.42,131.922,41.664,131.922,41.664z" data-original="#FFFFFF" class=""/>
				<path fill="#585757" d="M123.289,48.176c-5.109,0-9.092-5.841-9.258-6.09c-0.172-0.254-0.172-0.588,0-0.843      c0.166-0.248,4.147-6.089,9.258-6.089c5.112,0,9.093,5.84,9.26,6.089c0.172,0.254,0.172,0.588,0,0.843      C132.382,42.334,128.4,48.176,123.289,48.176z M115.593,41.665c0.972,1.275,4.112,4.999,7.696,4.999      c3.595,0,6.729-3.725,7.697-4.999c-0.97-1.274-4.111-4.999-7.697-4.999C119.705,36.666,116.563,40.39,115.593,41.665z" data-original="#585757" class="" style="fill:#113BBF" data-old_color="#585757"/>
			</g>
			<g>
				<path fill="#2E96BE" d="M125.509,41.282c-0.763,0-1.381-0.619-1.381-1.382c0-0.316,0.11-0.604,0.29-0.838      c-0.347-0.149-0.728-0.234-1.128-0.234c-1.566,0-2.837,1.271-2.837,2.837s1.271,2.836,2.836,2.836      c1.567,0,2.837-1.27,2.837-2.836c0-0.174-0.018-0.344-0.048-0.509C125.904,41.235,125.713,41.282,125.509,41.282z" data-original="#2E96BE" class="active-path" style="fill:#499ABA" data-old_color="#2E96BE"/>
				<path fill="#585757" d="M123.289,45.257c-1.979,0-3.592-1.611-3.592-3.592c0-0.96,0.374-1.861,1.052-2.54      c1.027-1.026,2.627-1.337,3.969-0.756c0.215,0.093,0.374,0.278,0.433,0.505c0.059,0.226,0.01,0.465-0.133,0.649      c-0.062,0.079-0.134,0.209-0.134,0.377c0,0.432,0.457,0.764,0.883,0.567c0.212-0.096,0.457-0.09,0.663,0.02      c0.207,0.107,0.352,0.306,0.393,0.534c0.04,0.22,0.061,0.437,0.061,0.644C126.882,43.646,125.271,45.257,123.289,45.257z       M123.29,39.584c-0.556,0-1.078,0.216-1.472,0.609c-0.395,0.393-0.609,0.916-0.609,1.472c0,1.146,0.935,2.08,2.08,2.08      c1.023,0,1.876-0.74,2.049-1.714c-1.099-0.087-1.966-1.01-1.966-2.131c0-0.105,0.007-0.211,0.023-0.313      C123.36,39.584,123.324,39.584,123.29,39.584z" data-original="#585757" class="" style="fill:#113BBF" data-old_color="#585757"/>
			</g>
		</g>
		<g>
			<path fill="#585757" d="M133.167,86.214c-0.396,0-0.729-0.31-0.754-0.711c-0.545-9.245-8.039-17.854-8.114-17.939     c-0.275-0.312-0.245-0.79,0.066-1.066c0.312-0.275,0.79-0.246,1.067,0.067c0.321,0.366,7.913,9.077,8.488,18.85     c0.025,0.416-0.292,0.774-0.709,0.799C133.197,86.213,133.183,86.214,133.167,86.214z" data-original="#585757" class="" style="fill:#113BBF" data-old_color="#585757"/>
		</g>
		<g>
			<path fill="#585757" d="M127.954,74.535c-0.897,0-2.104-0.249-3.503-1.166c-0.35-0.229-0.447-0.698-0.218-1.047     c0.229-0.348,0.698-0.446,1.046-0.217c2.204,1.444,3.611,0.771,3.67,0.741c0.368-0.184,0.824-0.042,1.014,0.324     c0.191,0.366,0.06,0.814-0.304,1.011C129.611,74.207,128.985,74.535,127.954,74.535z" data-original="#585757" class="" style="fill:#113BBF" data-old_color="#585757"/>
		</g>
		<g>
			<path fill="#585757" d="M128.689,79.703c-1.321,0-2.869-0.3-4.274-1.341c-0.335-0.249-0.405-0.722-0.157-1.058     c0.248-0.335,0.722-0.407,1.059-0.157c2.572,1.906,5.97,0.603,6.005,0.588c0.387-0.15,0.826,0.037,0.979,0.425     c0.154,0.388-0.033,0.826-0.421,0.98C131.782,79.179,130.434,79.703,128.689,79.703z" data-original="#585757" class="" style="fill:#113BBF" data-old_color="#585757"/>
		</g>
		<g>
			<path fill="#585757" d="M130.247,84.557c-0.818,0-1.73-0.081-2.624-0.325c-0.4-0.11-0.64-0.526-0.527-0.929     c0.108-0.403,0.522-0.638,0.929-0.529c2.232,0.613,4.722,0.002,4.746-0.004c0.402-0.102,0.814,0.144,0.917,0.549     c0.101,0.405-0.146,0.815-0.55,0.917C133.06,84.255,131.825,84.557,130.247,84.557z" data-original="#585757" class="" style="fill:#113BBF" data-old_color="#585757"/>
		</g>
		<g>
			<path fill="#585757" d="M130.388,76.369c-0.202,0-0.404-0.081-0.555-0.241c-0.283-0.306-0.267-0.782,0.037-1.066     c0.062-0.057,1.345-1.3,0.989-2.942c-0.089-0.408,0.17-0.811,0.578-0.899c0.408-0.087,0.811,0.171,0.898,0.579     c0.541,2.498-1.354,4.293-1.436,4.368C130.757,76.302,130.572,76.369,130.388,76.369z" data-original="#585757" class="" style="fill:#113BBF" data-old_color="#585757"/>
		</g>
		<g>
			<path fill="#585757" d="M132.555,82.286c-0.193,0-0.389-0.074-0.536-0.223c-0.291-0.294-0.292-0.767-0.004-1.062     c0.025-0.028,0.593-0.664,0.986-2.242c0.103-0.404,0.514-0.651,0.917-0.549c0.405,0.102,0.65,0.512,0.551,0.917     c-0.509,2.026-1.294,2.851-1.382,2.938C132.94,82.213,132.748,82.286,132.555,82.286z" data-original="#585757" class="" style="fill:#113BBF" data-old_color="#585757"/>
		</g>
		<g>
			<path fill="#585757" d="M139.412,92.96c-0.229,0-0.458-0.104-0.606-0.304c-3.37-4.527-1.182-7.832-1.086-7.971     c0.234-0.344,0.706-0.431,1.051-0.196c0.342,0.234,0.431,0.702,0.199,1.046c-0.073,0.111-1.646,2.599,1.05,6.218     c0.248,0.335,0.179,0.81-0.155,1.058C139.728,92.911,139.569,92.96,139.412,92.96z" data-original="#585757" class="" style="fill:#113BBF" data-old_color="#585757"/>
		</g>
		<g>
			<path fill="#F4B845" d="M141.897,64.239c0,1.201-0.975,2.175-2.175,2.175l0,0c-1.2,0-2.175-0.974-2.175-2.175V53.413     c0-1.201,0.975-2.174,2.175-2.174l0,0c1.2,0,2.175,0.973,2.175,2.174V64.239z" data-original="#F4B845" class=""/>
			<path fill="#585757" d="M139.723,67.17c-1.615,0-2.931-1.314-2.931-2.931V53.413c0-1.616,1.314-2.93,2.931-2.93     c1.615,0,2.931,1.313,2.931,2.93v10.826C142.653,65.855,141.339,67.17,139.723,67.17z M139.723,51.995     c-0.782,0-1.418,0.636-1.418,1.418v10.826c0,0.782,0.636,1.419,1.418,1.419c0.781,0,1.419-0.637,1.419-1.419V53.413     C141.142,52.631,140.505,51.995,139.723,51.995z" data-original="#585757" class="" style="fill:#113BBF" data-old_color="#585757"/>
		</g>
		<g>
			<path fill="#F4B845" d="M151.434,63.998c-0.851,0.849-2.228,0.85-3.075,0l0,0c-0.851-0.849-0.85-2.226,0-3.074l3.876-3.877     c0.85-0.85,2.226-0.849,3.075,0l0,0c0.849,0.849,0.849,2.226,0,3.074L151.434,63.998z" data-original="#F4B845" class=""/>
			<path fill="#585757" d="M149.895,65.391c-0.782,0-1.519-0.305-2.07-0.858c-0.554-0.553-0.859-1.288-0.858-2.071     c0-0.782,0.306-1.519,0.858-2.072l3.876-3.876c1.107-1.107,3.036-1.107,4.145,0c0.554,0.553,0.856,1.289,0.856,2.071     c0.001,0.783-0.304,1.519-0.856,2.071l-3.877,3.877C151.414,65.086,150.678,65.391,149.895,65.391z M153.771,57.166     c-0.378,0-0.733,0.147-1.003,0.415l-3.876,3.877c-0.269,0.268-0.415,0.624-0.415,1.004c0,0.378,0.146,0.734,0.415,1.002     c0.535,0.536,1.471,0.536,2.006,0l3.877-3.877c0.268-0.269,0.414-0.624,0.414-1.003c0-0.378-0.147-0.734-0.414-1.003     C154.507,57.313,154.15,57.166,153.771,57.166z" data-original="#585757" class="" style="fill:#113BBF" data-old_color="#585757"/>
		</g>
		<g>
			<path fill="#F4B845" d="M147.377,75.013c-1.2,0-2.174-0.974-2.174-2.175l0,0c0-1.201,0.974-2.174,2.174-2.174h10.827     c1.201,0,2.174,0.973,2.174,2.174l0,0c0,1.201-0.973,2.175-2.174,2.175H147.377z" data-original="#F4B845" class=""/>
			<path fill="#585757" d="M158.204,75.769h-10.827c-1.614,0-2.93-1.314-2.93-2.931c0-1.615,1.314-2.93,2.93-2.93h10.827     c1.615,0,2.93,1.314,2.93,2.93C161.134,74.454,159.819,75.769,158.204,75.769z M147.377,71.419c-0.781,0-1.418,0.637-1.418,1.419     c0,0.782,0.637,1.419,1.418,1.419h10.827c0.781,0,1.418-0.637,1.418-1.419c0-0.782-0.637-1.419-1.418-1.419H147.377z" data-original="#585757" class="" style="fill:#113BBF" data-old_color="#585757"/>
		</g>
		<g>
			<path fill="#585757" d="M163.401,144.688h-47.638c-0.626,0-1.135-0.508-1.135-1.133c0-0.627,0.509-1.135,1.135-1.135h47.639     c0.626,0,1.133,0.508,1.133,1.135C164.535,144.18,164.027,144.688,163.401,144.688z" data-original="#585757" class="" style="fill:#113BBF" data-old_color="#585757"/>
		</g>
		<g>
			<path fill="#585757" d="M123.534,148.995c-0.31,0-0.618-0.126-0.843-0.375l-3.388-3.759c-0.42-0.465-0.384-1.183,0.081-1.602     c0.468-0.42,1.183-0.383,1.604,0.083l3.388,3.759c0.419,0.465,0.382,1.183-0.083,1.602     C124.076,148.898,123.805,148.995,123.534,148.995z" data-original="#585757" class="" style="fill:#113BBF" data-old_color="#585757"/>
		</g>
		<g>
			<path fill="#585757" d="M132.632,148.995c-0.31,0-0.618-0.126-0.842-0.375l-3.389-3.761c-0.419-0.465-0.381-1.182,0.084-1.601     c0.466-0.42,1.183-0.383,1.601,0.083l3.39,3.76c0.419,0.465,0.382,1.183-0.084,1.602     C133.174,148.898,132.903,148.995,132.632,148.995z" data-original="#585757" class="" style="fill:#113BBF" data-old_color="#585757"/>
		</g>
		<g>
			<path fill="#585757" d="M159.929,148.995c-0.312,0-0.619-0.126-0.845-0.375l-3.388-3.759c-0.419-0.465-0.382-1.183,0.083-1.602     c0.467-0.42,1.182-0.383,1.602,0.083l3.389,3.759c0.419,0.465,0.383,1.183-0.082,1.602     C160.47,148.898,160.198,148.995,159.929,148.995z" data-original="#585757" class="" style="fill:#113BBF" data-old_color="#585757"/>
		</g>
		<g>
			<path fill="#585757" d="M141.73,148.995c-0.311,0-0.618-0.126-0.842-0.375l-3.389-3.759c-0.42-0.465-0.382-1.183,0.083-1.602     c0.465-0.42,1.183-0.383,1.602,0.083l3.388,3.759c0.42,0.465,0.382,1.183-0.083,1.602     C142.272,148.898,142.001,148.995,141.73,148.995z" data-original="#585757" class="" style="fill:#113BBF" data-old_color="#585757"/>
		</g>
		<g>
			<path fill="#585757" d="M150.829,148.995c-0.31,0-0.618-0.126-0.842-0.375l-3.389-3.761c-0.419-0.465-0.383-1.182,0.084-1.601     c0.465-0.42,1.183-0.383,1.601,0.083l3.389,3.76c0.419,0.465,0.382,1.183-0.084,1.602     C151.371,148.898,151.101,148.995,150.829,148.995z" data-original="#585757" class="" style="fill:#113BBF" data-old_color="#585757"/>
		</g>
		<g>
			<path fill="#585757" d="M139.723,135.415c-2.555,0-4.631-2.078-4.631-4.631c0-2.554,2.076-4.632,4.631-4.632     c2.554,0,4.631,2.078,4.631,4.632C144.354,133.337,142.276,135.415,139.723,135.415z M139.723,128.421     c-1.304,0-2.363,1.06-2.363,2.363c0,1.303,1.061,2.362,2.363,2.362c1.304,0,2.362-1.061,2.362-2.362     C142.086,129.48,141.026,128.421,139.723,128.421z" data-original="#585757" class="" style="fill:#113BBF" data-old_color="#585757"/>
		</g>
		<g>
			<path fill="#585757" d="M139.723,144.688c-0.626,0-1.135-0.508-1.135-1.133v-9.273c0-0.626,0.509-1.135,1.135-1.135     s1.134,0.509,1.134,1.135v9.273C140.856,144.182,140.349,144.688,139.723,144.688z" data-original="#585757" class="" style="fill:#113BBF" data-old_color="#585757"/>
		</g>
	</g>
</g></g> </svg>
